  0
SECTION
  2
HEADER
  9
$ACADVER
  1
AC1024
  9
$ACADMAINTVER
 70
     6
  9
$DWGCODEPAGE
  3
ANSI_1252
  9
$LASTSAVEDBY
  1
TOOnsav
  9
$INSBASE
 10
0.0
 20
0.0
 30
0.0
  9
$EXTMIN
 10
0.1739989743605932
 20
0.1034850649536985
 30
0.0
  9
$EXTMAX
 10
1.173998974399705
 20
2.35348506497996
 30
0.0
  9
$LIMMIN
 10
0.0
 20
0.0
  9
$LIMMAX
 10
12.0
 20
9.0
  9
$ORTHOMODE
 70
     0
  9
$REGENMODE
 70
     1
  9
$FILLMODE
 70
     1
  9
$QTEXTMODE
 70
     0
  9
$MIRRTEXT
 70
     0
  9
$LTSCALE
 40
1.0
  9
$ATTMODE
 70
     1
  9
$TEXTSIZE
 40
0.2
  9
$TRACEWID
 40
0.05
  9
$TEXTSTYLE
  7
Standard
  9
$CLAYER
  8
0
  9
$CELTYPE
  6
ByLayer
  9
$CECOLOR
 62
   256
  9
$CELTSCALE
 40
1.0
  9
$DISPSILH
 70
     0
  9
$DIMSCALE
 40
1.0
  9
$DIMASZ
 40
0.18
  9
$DIMEXO
 40
0.0625
  9
$DIMDLI
 40
0.38
  9
$DIMRND
 40
0.0
  9
$DIMDLE
 40
0.0
  9
$DIMEXE
 40
0.18
  9
$DIMTP
 40
0.0
  9
$DIMTM
 40
0.0
  9
$DIMTXT
 40
0.18
  9
$DIMCEN
 40
0.09
  9
$DIMTSZ
 40
0.0
  9
$DIMTOL
 70
     0
  9
$DIMLIM
 70
     0
  9
$DIMTIH
 70
     1
  9
$DIMTOH
 70
     1
  9
$DIMSE1
 70
     0
  9
$DIMSE2
 70
     0
  9
$DIMTAD
 70
     0
  9
$DIMZIN
 70
     0
  9
$DIMBLK
  1

  9
$DIMASO
 70
     1
  9
$DIMSHO
 70
     1
  9
$DIMPOST
  1

  9
$DIMAPOST
  1

  9
$DIMALT
 70
     0
  9
$DIMALTD
 70
     2
  9
$DIMALTF
 40
25.4
  9
$DIMLFAC
 40
1.0
  9
$DIMTOFL
 70
     0
  9
$DIMTVP
 40
0.0
  9
$DIMTIX
 70
     0
  9
$DIMSOXD
 70
     0
  9
$DIMSAH
 70
     0
  9
$DIMBLK1
  1

  9
$DIMBLK2
  1

  9
$DIMSTYLE
  2
Standard
  9
$DIMCLRD
 70
     0
  9
$DIMCLRE
 70
     0
  9
$DIMCLRT
 70
     0
  9
$DIMTFAC
 40
1.0
  9
$DIMGAP
 40
0.09
  9
$DIMJUST
 70
     0
  9
$DIMSD1
 70
     0
  9
$DIMSD2
 70
     0
  9
$DIMTOLJ
 70
     1
  9
$DIMTZIN
 70
     0
  9
$DIMALTZ
 70
     0
  9
$DIMALTTZ
 70
     0
  9
$DIMUPT
 70
     0
  9
$DIMDEC
 70
     4
  9
$DIMTDEC
 70
     4
  9
$DIMALTU
 70
     2
  9
$DIMALTTD
 70
     2
  9
$DIMTXSTY
  7
Standard
  9
$DIMAUNIT
 70
     0
  9
$DIMADEC
 70
     0
  9
$DIMALTRND
 40
0.0
  9
$DIMAZIN
 70
     0
  9
$DIMDSEP
 70
    46
  9
$DIMATFIT
 70
     3
  9
$DIMFRAC
 70
     0
  9
$DIMLDRBLK
  1

  9
$DIMLUNIT
 70
     2
  9
$DIMLWD
 70
    -2
  9
$DIMLWE
 70
    -2
  9
$DIMTMOVE
 70
     0
  9
$DIMFXL
 40
1.0
  9
$DIMFXLON
 70
     0
  9
$DIMJOGANG
 40
0.7853981633974483
  9
$DIMTFILL
 70
     0
  9
$DIMTFILLCLR
 70
     0
  9
$DIMARCSYM
 70
     0
  9
$DIMLTYPE
  6

  9
$DIMLTEX1
  6

  9
$DIMLTEX2
  6

  9
$DIMTXTDIRECTION
 70
     0
  9
$LUNITS
 70
     2
  9
$LUPREC
 70
     4
  9
$SKETCHINC
 40
0.1
  9
$FILLETRAD
 40
0.0
  9
$AUNITS
 70
     0
  9
$AUPREC
 70
     0
  9
$MENU
  1
.
  9
$ELEVATION
 40
0.0
  9
$PELEVATION
 40
0.0
  9
$THICKNESS
 40
0.0
  9
$LIMCHECK
 70
     0
  9
$CHAMFERA
 40
0.0
  9
$CHAMFERB
 40
0.0
  9
$CHAMFERC
 40
0.0
  9
$CHAMFERD
 40
0.0
  9
$SKPOLY
 70
     0
  9
$TDCREATE
 40
2452643.146717604
  9
$TDUCREATE
 40
2452643.063384271
  9
$TDUPDATE
 40
2457862.540515856
  9
$TDUUPDATE
 40
2457862.457182523
  9
$TDINDWG
 40
0.0005541898
  9
$TDUSRTIMER
 40
2457862.456628414
  9
$USRTIMER
 70
     1
  9
$ANGBASE
 50
0.0
  9
$ANGDIR
 70
     0
  9
$PDMODE
 70
     0
  9
$PDSIZE
 40
0.0
  9
$PLINEWID
 40
0.0
  9
$SPLFRAME
 70
     0
  9
$SPLINETYPE
 70
     6
  9
$SPLINESEGS
 70
     8
  9
$HANDSEED
  5
46C
  9
$SURFTAB1
 70
     6
  9
$SURFTAB2
 70
     6
  9
$SURFTYPE
 70
     6
  9
$SURFU
 70
     6
  9
$SURFV
 70
     6
  9
$UCSBASE
  2

  9
$UCSNAME
  2

  9
$UCSORG
 10
0.0
 20
0.0
 30
0.0
  9
$UCSXDIR
 10
1.0
 20
0.0
 30
0.0
  9
$UCSYDIR
 10
0.0
 20
1.0
 30
0.0
  9
$UCSORTHOREF
  2

  9
$UCSORTHOVIEW
 70
     0
  9
$UCSORGTOP
 10
0.0
 20
0.0
 30
0.0
  9
$UCSORGBOTTOM
 10
0.0
 20
0.0
 30
0.0
  9
$UCSORGLEFT
 10
0.0
 20
0.0
 30
0.0
  9
$UCSORGRIGHT
 10
0.0
 20
0.0
 30
0.0
  9
$UCSORGFRONT
 10
0.0
 20
0.0
 30
0.0
  9
$UCSORGBACK
 10
0.0
 20
0.0
 30
0.0
  9
$PUCSBASE
  2

  9
$PUCSNAME
  2

  9
$PUCSORG
 10
0.0
 20
0.0
 30
0.0
  9
$PUCSXDIR
 10
1.0
 20
0.0
 30
0.0
  9
$PUCSYDIR
 10
0.0
 20
1.0
 30
0.0
  9
$PUCSORTHOREF
  2

  9
$PUCSORTHOVIEW
 70
     0
  9
$PUCSORGTOP
 10
0.0
 20
0.0
 30
0.0
  9
$PUCSORGBOTTOM
 10
0.0
 20
0.0
 30
0.0
  9
$PUCSORGLEFT
 10
0.0
 20
0.0
 30
0.0
  9
$PUCSORGRIGHT
 10
0.0
 20
0.0
 30
0.0
  9
$PUCSORGFRONT
 10
0.0
 20
0.0
 30
0.0
  9
$PUCSORGBACK
 10
0.0
 20
0.0
 30
0.0
  9
$USERI1
 70
     0
  9
$USERI2
 70
     0
  9
$USERI3
 70
     0
  9
$USERI4
 70
     0
  9
$USERI5
 70
     0
  9
$USERR1
 40
0.0
  9
$USERR2
 40
0.0
  9
$USERR3
 40
0.0
  9
$USERR4
 40
0.0
  9
$USERR5
 40
0.0
  9
$WORLDVIEW
 70
     1
  9
$SHADEDGE
 70
     3
  9
$SHADEDIF
 70
    70
  9
$TILEMODE
 70
     1
  9
$MAXACTVP
 70
    64
  9
$PINSBASE
 10
0.0
 20
0.0
 30
0.0
  9
$PLIMCHECK
 70
     0
  9
$PEXTMIN
 10
0.0
 20
0.0
 30
0.0
  9
$PEXTMAX
 10
0.0
 20
0.0
 30
0.0
  9
$PLIMMIN
 10
0.0
 20
0.0
  9
$PLIMMAX
 10
0.0
 20
0.0
  9
$UNITMODE
 70
     0
  9
$VISRETAIN
 70
     1
  9
$PLINEGEN
 70
     0
  9
$PSLTSCALE
 70
     1
  9
$TREEDEPTH
 70
  3020
  9
$CMLSTYLE
  2
Standard
  9
$CMLJUST
 70
     0
  9
$CMLSCALE
 40
1.0
  9
$PROXYGRAPHICS
 70
     1
  9
$MEASUREMENT
 70
     0
  9
$CELWEIGHT
370
    -1
  9
$ENDCAPS
280
     0
  9
$JOINSTYLE
280
     0
  9
$LWDISPLAY
290
     0
  9
$INSUNITS
 70
     1
  9
$HYPERLINKBASE
  1

  9
$STYLESHEET
  1

  9
$XEDIT
290
     1
  9
$CEPSNTYPE
380
     0
  9
$PSTYLEMODE
290
     1
  9
$FINGERPRINTGUID
  2
{FDEAD576-A652-11D2-9A35-0060089B3A3F}
  9
$VERSIONGUID
  2
{FBC2AE19-5C5C-49EC-81BC-71B1A3362A02}
  9
$EXTNAMES
290
     1
  9
$PSVPSCALE
 40
0.0
  9
$OLESTARTUP
290
     0
  9
$SORTENTS
280
   127
  9
$INDEXCTL
280
     0
  9
$HIDETEXT
280
     1
  9
$XCLIPFRAME
280
     0
  9
$HALOGAP
280
     0
  9
$OBSCOLOR
 70
   257
  9
$OBSLTYPE
280
     0
  9
$INTERSECTIONDISPLAY
280
     0
  9
$INTERSECTIONCOLOR
 70
   257
  9
$DIMASSOC
280
     2
  9
$PROJECTNAME
  1

  9
$CAMERADISPLAY
290
     0
  9
$LENSLENGTH
 40
50.0
  9
$CAMERAHEIGHT
 40
0.0
  9
$STEPSPERSEC
 40
2.0
  9
$STEPSIZE
 40
6.0
  9
$3DDWFPREC
 40
2.0
  9
$PSOLWIDTH
 40
0.25
  9
$PSOLHEIGHT
 40
4.0
  9
$LOFTANG1
 40
1.570796326794897
  9
$LOFTANG2
 40
1.570796326794897
  9
$LOFTMAG1
 40
0.0
  9
$LOFTMAG2
 40
0.0
  9
$LOFTPARAM
 70
     7
  9
$LOFTNORMALS
280
     1
  9
$LATITUDE
 40
37.795
  9
$LONGITUDE
 40
-122.394
  9
$NORTHDIRECTION
 40
0.0
  9
$TIMEZONE
 70
 -8000
  9
$LIGHTGLYPHDISPLAY
280
     1
  9
$TILEMODELIGHTSYNCH
280
     1
  9
$CMATERIAL
347
96
  9
$SOLIDHIST
280
     1
  9
$SHOWHIST
280
     1
  9
$DWFFRAME
280
     2
  9
$DGNFRAME
280
     2
  9
$REALWORLDSCALE
290
     1
  9
$INTERFERECOLOR
 62
     1
  9
$CSHADOW
280
     0
  9
$SHADOWPLANELOCATION
 40
0.0
  0
ENDSEC
  0
SECTION
  2
CLASSES
  0
CLASS
  1
ACDBDICTIONARYWDFLT
  2
AcDbDictionaryWithDefault
  3
ObjectDBX Classes
 90
        0
 91
        4
280
     0
281
     0
  0
CLASS
  1
ACDBPLACEHOLDER
  2
AcDbPlaceHolder
  3
ObjectDBX Classes
 90
        0
 91
        1
280
     0
281
     0
  0
CLASS
  1
LAYOUT
  2
AcDbLayout
  3
ObjectDBX Classes
 90
        0
 91
        1
280
     0
281
     0
  0
CLASS
  1
DICTIONARYVAR
  2
AcDbDictionaryVar
  3
ObjectDBX Classes
 90
        0
 91
        4
280
     0
281
     0
  0
CLASS
  1
TABLESTYLE
  2
AcDbTableStyle
  3
ObjectDBX Classes
 90
     4095
 91
        4
280
     0
281
     0
  0
CLASS
  1
MATERIAL
  2
AcDbMaterial
  3
ObjectDBX Classes
 90
     1153
 91
        4
280
     0
281
     0
  0
CLASS
  1
VISUALSTYLE
  2
AcDbVisualStyle
  3
ObjectDBX Classes
 90
     4095
 91
        4
280
     0
281
     0
  0
CLASS
  1
SCALE
  2
AcDbScale
  3
ObjectDBX Classes
 90
     1153
 91
        4
280
     0
281
     0
  0
CLASS
  1
CELLSTYLEMAP
  2
AcDbCellStyleMap
  3
ObjectDBX Classes
 90
     1152
 91
        4
280
     0
281
     0
  0
CLASS
  1
RASTERVARIABLES
  2
AcDbRasterVariables
  3
ISM
 90
        0
 91
        4
280
     0
281
     0
  0
CLASS
  1
SUN
  2
AcDbSun
  3
SCENEOE
 90
     1153
 91
        4
280
     0
281
     0
  0
CLASS
  1
MLEADERSTYLE
  2
AcDbMLeaderStyle
  3
ACDB_MLEADERSTYLE_CLASS
 90
     4095
 91
        4
280
     0
281
     0
  0
ENDSEC
  0
SECTION
  2
TABLES
  0
TABLE
  2
VPORT
  5
8
330
0
100
AcDbSymbolTable
 70
     1
  0
VPORT
  5
94
330
8
100
AcDbSymbolTableRecord
100
AcDbViewportTableRecord
  2
*Active
 70
     0
 10
0.0
 20
0.0
 11
1.0
 21
1.0
 12
30.37434001405864
 22
20.45979372240981
 13
0.0
 23
0.0
 14
0.5
 24
0.5
 15
0.5
 25
0.5
 16
0.0
 26
0.0
 36
1.0
 17
-27.66959356597982
 27
-19.53870295786203
 37
0.0
 40
3.606352457142856
 41
2.337931034482759
 42
50.0
 43
0.0
 44
0.0
 50
0.0
 51
0.0
 71
    16
 72
  1000
 73
     1
 74
     3
 75
     0
 76
     0
 77
     0
 78
     0
281
     0
 65
     1
110
0.0
120
0.0
130
0.0
111
1.0
121
0.0
131
0.0
112
0.0
122
1.0
132
0.0
 79
     0
146
0.0
348
9F
 60
     2
 61
     5
292
     1
282
     1
141
0.0
142
0.0
 63
   250
421
  3355443
361
ED
  0
ENDTAB
  0
TABLE
  2
LTYPE
  5
5
330
0
100
AcDbSymbolTable
 70
     1
  0
LTYPE
  5
14
330
5
100
AcDbSymbolTableRecord
100
AcDbLinetypeTableRecord
  2
ByBlock
 70
     0
  3

 72
    65
 73
     0
 40
0.0
  0
LTYPE
  5
15
330
5
100
AcDbSymbolTableRecord
100
AcDbLinetypeTableRecord
  2
ByLayer
 70
     0
  3

 72
    65
 73
     0
 40
0.0
  0
LTYPE
  5
16
330
5
100
AcDbSymbolTableRecord
100
AcDbLinetypeTableRecord
  2
Continuous
 70
     0
  3
Solid line
 72
    65
 73
     0
 40
0.0
  0
ENDTAB
  0
TABLE
  2
LAYER
  5
2
102
{ACAD_XDICTIONARY
360
302
102
}
330
0
100
AcDbSymbolTable
 70
     1
  0
LAYER
  5
10
330
2
100
AcDbSymbolTableRecord
100
AcDbLayerTableRecord
  2
0
 70
     0
 62
     7
  6
Continuous
370
    -3
390
F
347
98
  0
ENDTAB
  0
TABLE
  2
STYLE
  5
3
330
0
100
AcDbSymbolTable
 70
     2
  0
STYLE
  5
11
330
3
100
AcDbSymbolTableRecord
100
AcDbTextStyleTableRecord
  2
Standard
 70
     0
 40
0.0
 41
1.0
 50
0.0
 71
     0
 42
0.2
  3
arial.ttf
  4

1001
ACAD
1000
Arial
1071
        0
  0
STYLE
  5
125
330
3
100
AcDbSymbolTableRecord
100
AcDbTextStyleTableRecord
  2
Annotative
 70
     0
 40
0.0
 41
1.0
 50
0.0
 71
     0
 42
0.2
  3
arial.ttf
  4

1001
ACAD
1000
Arial
1071
        0
1001
AcadAnnotative
1000
AnnotativeData
1002
{
1070
     1
1070
     1
1002
}
  0
ENDTAB
  0
TABLE
  2
VIEW
  5
6
330
0
100
AcDbSymbolTable
 70
     0
  0
ENDTAB
  0
TABLE
  2
UCS
  5
7
330
0
100
AcDbSymbolTable
 70
     0
  0
ENDTAB
  0
TABLE
  2
APPID
  5
9
330
0
100
AcDbSymbolTable
 70
     2
  0
APPID
  5
12
330
9
100
AcDbSymbolTableRecord
100
AcDbRegAppTableRecord
  2
ACAD
 70
     0
  0
APPID
  5
126
330
9
100
AcDbSymbolTableRecord
100
AcDbRegAppTableRecord
  2
AcadAnnotative
 70
     0
  0
ENDTAB
  0
TABLE
  2
DIMSTYLE
  5
A
330
0
100
AcDbSymbolTable
 70
     2
100
AcDbDimStyleTable
  0
DIMSTYLE
105
27
330
A
100
AcDbSymbolTableRecord
100
AcDbDimStyleTableRecord
  2
Standard
 70
     0
178
     0
340
11
  0
DIMSTYLE
105
127
330
A
100
AcDbSymbolTableRecord
100
AcDbDimStyleTableRecord
  2
Annotative
 70
     0
 40
0.0
178
     0
340
11
1001
AcadAnnotative
1000
AnnotativeData
1002
{
1070
     1
1070
     1
1002
}
  0
ENDTAB
  0
TABLE
  2
BLOCK_RECORD
  5
1
330
0
100
AcDbSymbolTable
 70
     3
  0
BLOCK_RECORD
  5
1F
330
1
100
AcDbSymbolTableRecord
100
AcDbBlockTableRecord
  2
*Model_Space
340
22
 70
     0
280
     1
281
     0
  0
BLOCK_RECORD
  5
58
330
1
100
AcDbSymbolTableRecord
100
AcDbBlockTableRecord
  2
*Paper_Space
340
59
 70
     0
280
     1
281
     0
  0
BLOCK_RECORD
  5
5D
330
1
100
AcDbSymbolTableRecord
100
AcDbBlockTableRecord
  2
*Paper_Space0
340
5E
 70
     0
280
     1
281
     0
  0
BLOCK_RECORD
  5
2AD
330
1
100
AcDbSymbolTableRecord
100
AcDbBlockTableRecord
  2
*X2
340
0
102
{BLKREFS
331
2AC
331
468
102
}
 70
     0
280
     1
281
     0
  0
ENDTAB
  0
ENDSEC
  0
SECTION
  2
BLOCKS
  0
BLOCK
  5
20
330
1F
100
AcDbEntity
  8
0
100
AcDbBlockBegin
  2
*Model_Space
 70
     0
 10
0.0
 20
0.0
 30
0.0
  3
*Model_Space
  1

  0
ENDBLK
  5
21
330
1F
100
AcDbEntity
  8
0
100
AcDbBlockEnd
  0
BLOCK
  5
5A
330
58
100
AcDbEntity
 67
     1
  8
0
100
AcDbBlockBegin
  2
*Paper_Space
 70
     0
 10
0.0
 20
0.0
 30
0.0
  3
*Paper_Space
  1

  0
ENDBLK
  5
5B
330
58
100
AcDbEntity
 67
     1
  8
0
100
AcDbBlockEnd
  0
BLOCK
  5
5F
330
5D
100
AcDbEntity
  8
0
100
AcDbBlockBegin
  2
*Paper_Space0
 70
     0
 10
0.0
 20
0.0
 30
0.0
  3
*Paper_Space0
  1

  0
ENDBLK
  5
60
330
5D
100
AcDbEntity
  8
0
100
AcDbBlockEnd
  0
BLOCK
  5
2AE
330
2AD
100
AcDbEntity
  8
0
100
AcDbBlockBegin
  2
*X2
 70
     1
 10
0.0
 20
0.0
 30
0.0
  3
*X2
  1

  0
LINE
  5
2AF
330
2AD
100
AcDbEntity
  8
0
  6
Continuous
 62
     7
100
AcDbLine
 10
8.675554487243737
 20
4.256137104827816
 30
0.0
 11
8.741303219369447
 21
4.321885836953528
 31
0.0
  0
LINE
  5
2B0
330
2AD
100
AcDbEntity
  8
0
  6
Continuous
 62
     7
100
AcDbLine
 10
8.78092340693363
 20
4.361506024517709
 30
0.0
 11
8.84667213905934
 21
4.42725475664342
 31
0.0
  0
LINE
  5
2B1
330
2AD
100
AcDbEntity
  8
0
  6
Continuous
 62
     7
100
AcDbLine
 10
8.669787339960894
 20
4.073593262248338
 30
0.0
 11
8.819050293719947
 21
4.22285621600739
 31
0.0
  0
LINE
  5
2B2
330
2AD
100
AcDbEntity
  8
0
  6
Continuous
 62
     7
100
AcDbLine
 10
8.879953027879766
 20
4.283758950167209
 30
0.0
 11
9.029215981638819
 21
4.433021903926261
 31
0.0
  0
LINE
  5
2B3
330
2AD
100
AcDbEntity
  8
0
  6
Continuous
 62
     7
100
AcDbLine
 10
8.679350291975565
 20
3.906379518966371
 30
0.0
 11
8.825992676935456
 21
4.053021903926262
 31
0.0
  0
LINE
  5
2B4
330
2AD
100
AcDbEntity
  8
0
  6
Continuous
 62
     7
100
AcDbLine
 10
9.045992676935455
 20
4.273021903926261
 30
0.0
 11
9.074787339960896
 21
4.301816566951702
 31
0.0
  0
LINE
  5
2B5
330
2AD
100
AcDbEntity
  8
0
  6
Continuous
 62
     7
100
AcDbLine
 10
9.090992676935453
 20
4.31802190392626
 30
0.0
 11
9.205992676935455
 21
4.433021903926261
 31
0.0
  0
LINE
  5
2B6
330
2AD
100
AcDbEntity
  8
0
  6
Continuous
 62
     7
100
AcDbLine
 10
8.669787339960893
 20
3.720039871655062
 30
0.0
 11
8.784787339960893
 21
3.835039871655062
 31
0.0
  0
LINE
  5
2B7
330
2AD
100
AcDbEntity
  8
0
  6
Continuous
 62
     7
100
AcDbLine
 10
9.264787339960895
 20
4.315039871655064
 30
0.0
 11
9.380305648795114
 21
4.430558180489283
 31
0.0
  0
LINE
  5
2B8
330
2AD
100
AcDbEntity
  8
0
  6
Continuous
 62
     7
100
AcDbLine
 10
8.679151282945332
 20
3.552627119342864
 30
0.0
 11
8.81954606752873
 21
3.693021903926262
 31
0.0
  0
LINE
  5
2B9
330
2AD
100
AcDbEntity
  8
0
  6
Continuous
 62
     7
100
AcDbLine
 10
9.399546067528727
 20
4.27302190392626
 30
0.0
 11
9.55822279109208
 21
4.431698627489612
 31
0.0
  0
LINE
  5
2BA
330
2AD
100
AcDbEntity
  8
0
  6
Continuous
 62
     7
100
AcDbLine
 10
8.669787339960891
 20
3.366486481061787
 30
0.0
 11
8.784787339960891
 21
3.481486481061788
 31
0.0
  0
LINE
  5
2BB
330
2AD
100
AcDbEntity
  8
0
  6
Continuous
 62
     7
100
AcDbLine
 10
8.826322762825367
 20
3.523021903926262
 30
0.0
 11
8.829787339960891
 21
3.526486481061787
 31
0.0
  0
LINE
  5
2BC
330
2AD
100
AcDbEntity
  8
0
  6
Continuous
 62
     7
100
AcDbLine
 10
9.517301060600067
 20
4.214000201700963
 30
0.0
 11
9.558902831467144
 21
4.255601972568039
 31
0.0
  0
LINE
  5
2BD
330
2AD
100
AcDbEntity
  8
0
  6
Continuous
 62
     7
100
AcDbLine
 10
9.598043716542897
 20
4.294742857643793
 30
0.0
 11
9.659884214398764
 21
4.35658335549966
 31
0.0
  0
LINE
  5
2BE
330
2AD
100
AcDbEntity
  8
0
  6
Continuous
 62
     7
100
AcDbLine
 10
8.677165288991551
 20
3.197087734795809
 30
0.0
 11
8.813099458122002
 21
3.333021903926261
 31
0.0
  0
LINE
  5
2BF
330
2AD
100
AcDbEntity
  8
0
  6
Continuous
 62
     7
100
AcDbLine
 10
9.509787339960894
 20
4.029709785765153
 30
0.0
 11
9.533099458122
 21
4.053021903926259
 31
0.0
  0
LINE
  5
2C0
330
2AD
100
AcDbEntity
  8
0
  6
Continuous
 62
     7
100
AcDbLine
 10
9.554787339960894
 20
4.074709785765153
 30
0.0
 11
9.648142612547153
 21
4.168065058351411
 31
0.0
  0
LINE
  5
2C1
330
2AD
100
AcDbEntity
  8
0
  6
Continuous
 62
     7
100
AcDbLine
 10
8.669787339960891
 20
3.012933090468512
 30
0.0
 11
8.78478733996089
 21
3.127933090468511
 31
0.0
  0
LINE
  5
2C2
330
2AD
100
AcDbEntity
  8
0
  6
Continuous
 62
     7
100
AcDbLine
 10
8.81987615341864
 20
3.163021903926262
 30
0.0
 11
8.829787339960891
 21
3.172933090468513
 31
0.0
  0
LINE
  5
2C3
330
2AD
100
AcDbEntity
  8
0
  6
Continuous
 62
     7
100
AcDbLine
 10
9.539876153418637
 20
3.883021903926259
 30
0.0
 11
9.669787339960894
 21
4.012933090468516
 31
0.0
  0
LINE
  5
2C4
330
2AD
100
AcDbEntity
  8
0
  6
Continuous
 62
     7
100
AcDbLine
 10
8.674621057747189
 20
2.840990112958173
 30
0.0
 11
8.806652848715277
 21
2.973021903926262
 31
0.0
  0
LINE
  5
2C5
330
2AD
100
AcDbEntity
  8
0
  6
Continuous
 62
     7
100
AcDbLine
 10
9.509787339960893
 20
3.676156395171878
 30
0.0
 11
9.526652848715274
 21
3.69302190392626
 31
0.0
  0
LINE
  5
2C6
330
2AD
100
AcDbEntity
  8
0
  6
Continuous
 62
     7
100
AcDbLine
 10
9.554787339960892
 20
3.721156395171878
 30
0.0
 11
9.668787339960893
 21
3.835156395171878
 31
0.0
  0
LINE
  5
2C7
330
2AD
100
AcDbEntity
  8
0
  6
Continuous
 62
     7
100
AcDbLine
 10
8.66978733996089
 20
2.659379699875238
 30
0.0
 11
8.78478733996089
 21
2.774379699875238
 31
0.0
  0
LINE
  5
2C8
330
2AD
100
AcDbEntity
  8
0
  6
Continuous
 62
     7
100
AcDbLine
 10
8.813429544011914
 20
2.803021903926262
 30
0.0
 11
8.82978733996089
 21
2.819379699875238
 31
0.0
  0
LINE
  5
2C9
330
2AD
100
AcDbEntity
  8
0
  6
Continuous
 62
     7
100
AcDbLine
 10
9.533429544011911
 20
3.523021903926259
 30
0.0
 11
9.668787339960891
 21
3.658379699875241
 31
0.0
  0
LINE
  5
2CA
330
2AD
100
AcDbEntity
  8
0
  6
Continuous
 62
     7
100
AcDbLine
 10
8.66994874093987
 20
2.48276440555758
 30
0.0
 11
8.800206239308551
 21
2.613021903926262
 31
0.0
  0
LINE
  5
2CB
330
2AD
100
AcDbEntity
  8
0
  6
Continuous
 62
     7
100
AcDbLine
 10
9.509787339960893
 20
3.322603004578604
 30
0.0
 11
9.520206239308548
 21
3.333021903926259
 31
0.0
  0
LINE
  5
2CC
330
2AD
100
AcDbEntity
  8
0
  6
Continuous
 62
     7
100
AcDbLine
 10
9.554787339960892
 20
3.367603004578603
 30
0.0
 11
9.668787339960891
 21
3.481603004578603
 31
0.0
  0
LINE
  5
2CD
330
2AD
100
AcDbEntity
  8
0
  6
Continuous
 62
     7
100
AcDbLine
 10
8.669984198304121
 20
2.306023167625195
 30
0.0
 11
8.829787339960887
 21
2.465826309281963
 31
0.0
  0
LINE
  5
2CE
330
2AD
100
AcDbEntity
  8
0
  6
Continuous
 62
     7
100
AcDbLine
 10
9.526982934605185
 20
3.163021903926259
 30
0.0
 11
9.668787339960891
 21
3.304826309281966
 31
0.0
  0
LINE
  5
2CF
330
2AD
100
AcDbEntity
  8
0
  6
Continuous
 62
     7
100
AcDbLine
 10
8.738038829571686
 20
2.197301103596123
 30
0.0
 11
8.798158145201823
 21
2.257420419226261
 31
0.0
  0
LINE
  5
2D0
330
2AD
100
AcDbEntity
  8
0
  6
Continuous
 62
     7
100
AcDbLine
 10
8.84403522014532
 20
2.303297494169759
 30
0.0
 11
8.869056612975518
 21
2.328318886999956
 31
0.0
  0
LINE
  5
2D1
330
2AD
100
AcDbEntity
  8
0
  6
Continuous
 62
     7
100
AcDbLine
 10
9.509787339960889
 20
2.969049613985327
 30
0.0
 11
9.51375962990182
 21
2.973021903926259
 31
0.0
  0
LINE
  5
2D2
330
2AD
100
AcDbEntity
  8
0
  6
Continuous
 62
     7
100
AcDbLine
 10
9.55478733996089
 20
3.014049613985329
 30
0.0
 11
9.66878733996089
 21
3.128049613985328
 31
0.0
  0
LINE
  5
2D3
330
2AD
100
AcDbEntity
  8
0
  6
Continuous
 62
     7
100
AcDbLine
 10
8.92656109177429
 20
2.209046670502092
 30
0.0
 11
9.015536325198461
 21
2.298021903926262
 31
0.0
  0
LINE
  5
2D4
330
2AD
100
AcDbEntity
  8
0
  6
Continuous
 62
     7
100
AcDbLine
 10
9.024787339960888
 20
2.307272918688689
 30
0.0
 11
9.060536325198461
 21
2.343021903926261
 31
0.0
  0
LINE
  5
2D5
330
2AD
100
AcDbEntity
  8
0
  6
Continuous
 62
     7
100
AcDbLine
 10
9.520536325198458
 20
2.803021903926259
 30
0.0
 11
9.66878733996089
 21
2.95127291868869
 31
0.0
  0
LINE
  5
2D6
330
2AD
100
AcDbEntity
  8
0
  6
Continuous
 62
     7
100
AcDbLine
 10
9.077313020495097
 20
2.183021903926261
 30
0.0
 11
9.194787339960888
 21
2.300496223392052
 31
0.0
  0
LINE
  5
2D7
330
2AD
100
AcDbEntity
  8
0
  6
Continuous
 62
     7
100
AcDbLine
 10
9.554787339960889
 20
2.660496223392053
 30
0.0
 11
9.668787339960888
 21
2.774496223392053
 31
0.0
  0
LINE
  5
2D8
330
2AD
100
AcDbEntity
  8
0
  6
Continuous
 62
     7
100
AcDbLine
 10
9.254089715791734
 20
2.183021903926261
 30
0.0
 11
9.369089715791732
 21
2.298021903926261
 31
0.0
  0
LINE
  5
2D9
330
2AD
100
AcDbEntity
  8
0
  6
Continuous
 62
     7
100
AcDbLine
 10
9.384787339960887
 20
2.313719528095415
 30
0.0
 11
9.414089715791732
 21
2.343021903926259
 31
0.0
  0
LINE
  5
2DA
330
2AD
100
AcDbEntity
  8
0
  6
Continuous
 62
     7
100
AcDbLine
 10
9.509787339960889
 20
2.438719528095417
 30
0.0
 11
9.668787339960888
 21
2.597719528095416
 31
0.0
  0
LINE
  5
2DB
330
2AD
100
AcDbEntity
  8
0
  6
Continuous
 62
     7
100
AcDbLine
 10
9.459797767896582
 20
2.211953260734473
 30
0.0
 11
9.506571855574647
 21
2.258727348412538
 31
0.0
  0
LINE
  5
2DC
330
2AD
100
AcDbEntity
  8
0
  6
Continuous
 62
     7
100
AcDbLine
 10
9.59408189547461
 20
2.346237388312499
 30
0.0
 11
9.640855983152674
 21
2.393011475990566
 31
0.0
  0
LINE
  5
2DD
330
2AD
100
AcDbEntity
  8
0
  6
Continuous
 62
     7
100
AcDbLine
 10
8.927223112480162
 20
2.209708691207958
 30
0.0
 11
8.851437884316843
 21
2.285493919371277
 31
0.0
  0
LINE
  5
2DE
330
2AD
100
AcDbEntity
  8
0
  6
Continuous
 62
     7
100
AcDbLine
 10
8.772259355405904
 20
2.364672448282215
 30
0.0
 11
8.706252243359366
 21
2.430679560328754
 31
0.0
  0
LINE
  5
2DF
330
2AD
100
AcDbEntity
  8
0
  6
Continuous
 62
     7
100
AcDbLine
 10
9.130686595058496
 20
2.183021903926261
 30
0.0
 11
9.015686595058494
 21
2.298021903926262
 31
0.0
  0
LINE
  5
2E0
330
2AD
100
AcDbEntity
  8
0
  6
Continuous
 62
     7
100
AcDbLine
 10
8.829787339960887
 20
2.483921159023869
 30
0.0
 11
8.820686595058493
 21
2.493021903926262
 31
0.0
  0
LINE
  5
2E1
330
2AD
100
AcDbEntity
  8
0
  6
Continuous
 62
     7
100
AcDbLine
 10
8.784787339960888
 20
2.528921159023868
 30
0.0
 11
8.66978733996089
 21
2.643921159023867
 31
0.0
  0
LINE
  5
2E2
330
2AD
100
AcDbEntity
  8
0
  6
Continuous
 62
     7
100
AcDbLine
 10
9.307463290355132
 20
2.18302190392626
 30
0.0
 11
9.303894447463357
 21
2.186590746818036
 31
0.0
  0
LINE
  5
2E3
330
2AD
100
AcDbEntity
  8
0
  6
Continuous
 62
     7
100
AcDbLine
 10
9.301074213017385
 20
2.189410981264008
 30
0.0
 11
9.236582329249277
 21
2.253902865032117
 31
0.0
  0
LINE
  5
2E4
330
2AD
100
AcDbEntity
  8
0
  6
Continuous
 62
     7
100
AcDbLine
 10
8.750446417183525
 20
2.740038777097868
 30
0.0
 11
8.675047515290407
 21
2.815437678990987
 31
0.0
  0
LINE
  5
2E5
330
2AD
100
AcDbEntity
  8
0
  6
Continuous
 62
     7
100
AcDbLine
 10
8.82978733996089
 20
2.837474549617141
 30
0.0
 11
8.814239985651767
 21
2.853021903926262
 31
0.0
  0
LINE
  5
2E6
330
2AD
100
AcDbEntity
  8
0
  6
Continuous
 62
     7
100
AcDbLine
 10
9.628358440845712
 20
2.215680144028954
 30
0.0
 11
9.584352553565108
 21
2.259686031309558
 31
0.0
  0
LINE
  5
2E7
330
2AD
100
AcDbEntity
  8
0
  6
Continuous
 62
     7
100
AcDbLine
 10
8.801016680948404
 20
3.043021903926262
 30
0.0
 11
8.706252243359366
 21
3.137786341515301
 31
0.0
  0
LINE
  5
2E8
330
2AD
100
AcDbEntity
  8
0
  6
Continuous
 62
     7
100
AcDbLine
 10
9.54594154601839
 20
2.474873734152913
 30
0.0
 11
9.527793376245043
 21
2.49302190392626
 31
0.0
  0
LINE
  5
2E9
330
2AD
100
AcDbEntity
  8
0
  6
Continuous
 62
     7
100
AcDbLine
 10
8.829787339960891
 20
3.191027940210412
 30
0.0
 11
8.80779337624504
 21
3.213021903926262
 31
0.0
  0
LINE
  5
2EA
330
2AD
100
AcDbEntity
  8
0
  6
Continuous
 62
     7
100
AcDbLine
 10
8.784787339960891
 20
3.236027940210412
 30
0.0
 11
8.669787339960891
 21
3.351027940210412
 31
0.0
  0
LINE
  5
2EB
330
2AD
100
AcDbEntity
  8
0
  6
Continuous
 62
     7
100
AcDbLine
 10
9.669787339960887
 20
2.527804635507052
 30
0.0
 11
9.59013571984255
 21
2.60745625562539
 31
0.0
  0
LINE
  5
2EC
330
2AD
100
AcDbEntity
  8
0
  6
Continuous
 62
     7
100
AcDbLine
 10
8.750446417183525
 20
3.447145558284415
 30
0.0
 11
8.669787339960893
 21
3.527804635507048
 31
0.0
  0
LINE
  5
2ED
330
2AD
100
AcDbEntity
  8
0
  6
Continuous
 62
     7
100
AcDbLine
 10
9.668787339960888
 20
2.705581330803688
 30
0.0
 11
9.521346766838317
 21
2.85302190392626
 31
0.0
  0
LINE
  5
2EE
330
2AD
100
AcDbEntity
  8
0
  6
Continuous
 62
     7
100
AcDbLine
 10
8.829787339960891
 20
3.544581330803685
 30
0.0
 11
8.801346766838314
 21
3.573021903926263
 31
0.0
  0
LINE
  5
2EF
330
2AD
100
AcDbEntity
  8
0
  6
Continuous
 62
     7
100
AcDbLine
 10
9.63432989366671
 20
2.916815472394505
 30
0.0
 11
9.55478733996089
 21
2.996358026100323
 31
0.0
  0
LINE
  5
2F0
330
2AD
100
AcDbEntity
  8
0
  6
Continuous
 62
     7
100
AcDbLine
 10
8.788123462134951
 20
3.763021903926262
 30
0.0
 11
8.706252243359366
 21
3.844893122701849
 31
0.0
  0
LINE
  5
2F1
330
2AD
100
AcDbEntity
  8
0
  6
Continuous
 62
     7
100
AcDbLine
 10
9.54594154601839
 20
3.18198051533946
 30
0.0
 11
9.51490015743159
 21
3.21302190392626
 31
0.0
  0
LINE
  5
2F2
330
2AD
100
AcDbEntity
  8
0
  6
Continuous
 62
     7
100
AcDbLine
 10
8.829787339960893
 20
3.898134721396958
 30
0.0
 11
8.79490015743159
 21
3.933021903926262
 31
0.0
  0
LINE
  5
2F3
330
2AD
100
AcDbEntity
  8
0
  6
Continuous
 62
     7
100
AcDbLine
 10
8.784787339960893
 20
3.943134721396958
 30
0.0
 11
8.669787339960894
 21
4.058134721396956
 31
0.0
  0
LINE
  5
2F4
330
2AD
100
AcDbEntity
  8
0
  6
Continuous
 62
     7
100
AcDbLine
 10
9.66878733996089
 20
3.235911416693597
 30
0.0
 11
9.59013571984255
 21
3.314563036811938
 31
0.0
  0
LINE
  5
2F5
330
2AD
100
AcDbEntity
  8
0
  6
Continuous
 62
     7
100
AcDbLine
 10
8.750446417183525
 20
4.154252339470963
 30
0.0
 11
8.701816204451518
 21
4.20288255220297
 31
0.0
  0
LINE
  5
2F6
330
2AD
100
AcDbEntity
  8
0
  6
Continuous
 62
     7
100
AcDbLine
 10
9.668787339960891
 20
3.412688111990233
 30
0.0
 11
9.509787339960893
 21
3.571688111990232
 31
0.0
  0
LINE
  5
2F7
330
2AD
100
AcDbEntity
  8
0
  6
Continuous
 62
     7
100
AcDbLine
 10
9.63432989366671
 20
3.623922253581052
 30
0.0
 11
9.554787339960892
 21
3.703464807286869
 31
0.0
  0
LINE
  5
2F8
330
2AD
100
AcDbEntity
  8
0
  6
Continuous
 62
     7
100
AcDbLine
 10
8.927223112480162
 20
4.331029034767599
 30
0.0
 11
8.8252302433215
 21
4.433021903926262
 31
0.0
  0
LINE
  5
2F9
330
2AD
100
AcDbEntity
  8
0
  6
Continuous
 62
     7
100
AcDbLine
 10
9.54594154601839
 20
3.889087296526007
 30
0.0
 11
9.509787339960893
 21
3.925241502583506
 31
0.0
  0
LINE
  5
2FA
330
2AD
100
AcDbEntity
  8
0
  6
Continuous
 62
     7
100
AcDbLine
 10
9.162006938618138
 20
4.27302190392626
 30
0.0
 11
9.144787339960896
 21
4.290241502583502
 31
0.0
  0
LINE
  5
2FB
330
2AD
100
AcDbEntity
  8
0
  6
Continuous
 62
     7
100
AcDbLine
 10
9.11700693861814
 20
4.318021903926259
 30
0.0
 11
9.002006938618138
 21
4.433021903926261
 31
0.0
  0
LINE
  5
2FC
330
2AD
100
AcDbEntity
  8
0
  6
Continuous
 62
     7
100
AcDbLine
 10
9.669787339960893
 20
3.942018197880142
 30
0.0
 11
9.59013571984255
 21
4.021669817998485
 31
0.0
  0
LINE
  5
2FD
330
2AD
100
AcDbEntity
  8
0
  6
Continuous
 62
     7
100
AcDbLine
 10
9.314787339960894
 20
4.297018197880141
 30
0.0
 11
9.236582329249275
 21
4.375223208591759
 31
0.0
  0
LINE
  5
2FE
330
2AD
100
AcDbEntity
  8
0
  6
Continuous
 62
     7
100
AcDbLine
 10
9.669787339960894
 20
4.118794893176777
 30
0.0
 11
9.5346079076241
 21
4.253974325513571
 31
0.0
  0
LINE
  5
2FF
330
2AD
100
AcDbEntity
  8
0
  6
Continuous
 62
     7
100
AcDbLine
 10
9.369164850721754
 20
4.419417382415919
 30
0.0
 11
9.355560329211412
 21
4.433021903926259
 31
0.0
  0
LINE
  5
300
330
2AD
100
AcDbEntity
  8
0
  6
Continuous
 62
     7
100
AcDbLine
 10
9.63432989366671
 20
4.331029034767599
 30
0.0
 11
9.532337024508049
 21
4.433021903926259
 31
0.0
  0
ENDBLK
  5
301
330
2AD
100
AcDbEntity
  8
0
100
AcDbBlockEnd
  0
ENDSEC
  0
SECTION
  2
ENTITIES
  0
ARC
  5
307
330
1F
100
AcDbEntity
  8
0
  6
Continuous
 62
     7
370
     5
100
AcDbCircle
 10
1.002156776899704
 20
0.204777291153698
 30
0.0
 40
0.010000000000001
100
AcDbArc
 50
144.9999999999989
 51
206.8448848761015
  0
ARC
  5
308
330
1F
100
AcDbEntity
  8
0
  6
Continuous
 62
     7
370
     5
100
AcDbCircle
 10
1.048998974399703
 20
0.228485064953698
 30
0.0
 40
0.0625000000000004
100
AcDbArc
 50
206.8448848761001
 51
243.0568549072991
  0
ARC
  5
309
330
1F
100
AcDbEntity
  8
0
  6
Continuous
 62
     7
370
     5
100
AcDbCircle
 10
1.025210902799704
 20
0.1816835943536983
 30
0.0
 40
0.0100000000000006
100
AcDbArc
 50
243.0568549073037
 51
301.9125185248992
  0
ARC
  5
30A
330
1F
100
AcDbEntity
  8
0
  6
Continuous
 62
     7
370
     5
100
AcDbCircle
 10
1.048998974399703
 20
0.1434850649536981
 30
0.0
 40
0.0350000000000005
100
AcDbArc
 50
58.0874814751008
 51
121.9125185248992
  0
ARC
  5
30B
330
1F
100
AcDbEntity
  8
0
  6
Continuous
 62
     7
370
     5
100
AcDbCircle
 10
1.072787045999703
 20
0.1816835943536983
 30
0.0
 40
0.0100000000000004
100
AcDbArc
 50
238.0874814750999
 51
296.9431450926981
  0
ARC
  5
30C
330
1F
100
AcDbEntity
  8
0
  6
Continuous
 62
     7
370
     5
100
AcDbCircle
 10
1.048998974399703
 20
0.228485064953698
 30
0.0
 40
0.0625000000000003
100
AcDbArc
 50
296.9431450926993
 51
333.0568549073004
  0
ARC
  5
30D
330
1F
100
AcDbEntity
  8
0
  6
Continuous
 62
     7
370
     5
100
AcDbCircle
 10
1.095800444899703
 20
0.2046969933536982
 30
0.0
 40
0.0100000000000003
100
AcDbArc
 50
333.0568549072987
 51
31.91251852490066
  0
ARC
  5
30E
330
1F
100
AcDbEntity
  8
0
  6
Continuous
 62
     7
370
     5
100
AcDbCircle
 10
1.133998974399704
 20
0.228485064953698
 30
0.0
 40
0.0350000000000003
100
AcDbArc
 50
148.0874814751001
 51
211.9125185248999
  0
ARC
  5
30F
330
1F
100
AcDbEntity
  8
0
  6
Continuous
 62
     7
370
     5
100
AcDbCircle
 10
1.095800444899703
 20
0.2522731365536983
 30
0.0
 40
0.0100000000000007
100
AcDbArc
 50
328.0874814750996
 51
26.94314509270093
  0
ARC
  5
310
330
1F
100
AcDbEntity
  8
0
  6
Continuous
 62
     7
370
     5
100
AcDbCircle
 10
1.048998974399703
 20
0.228485064953698
 30
0.0
 40
0.0625
100
AcDbArc
 50
26.94314509270043
 51
63.15511512389956
  0
ARC
  5
311
330
1F
100
AcDbEntity
  8
0
  6
Continuous
 62
     7
370
     5
100
AcDbCircle
 10
1.072706748199703
 20
0.2753272624536982
 30
0.0
 40
0.0100000000000004
100
AcDbArc
 50
63.15511512389749
 51
125.0000000000005
  0
LINE
  5
312
330
1F
100
AcDbEntity
  8
0
  6
Continuous
 62
     7
370
     5
100
AcDbLine
 10
1.066970974699703
 20
0.2835187613536982
 30
0.0
 11
1.063404302599703
 21
0.281021350153698
 31
0.0
  0
ARC
  5
313
330
1F
100
AcDbEntity
  8
0
  6
Continuous
 62
     7
370
     5
100
AcDbCircle
 10
1.051932764799703
 20
0.297404400353698
 30
0.0
 40
0.02
100
AcDbArc
 50
199.9999999999993
 51
305.0000000000013
  0
LINE
  5
314
330
1F
100
AcDbEntity
  8
0
  6
Continuous
 62
     7
370
     5
100
AcDbLine
 10
1.033138922199704
 20
0.2905640332536983
 30
0.0
 11
1.013998959999703
 21
0.3431505391536982
 31
0.0
  0
LINE
  5
315
330
1F
100
AcDbEntity
  8
0
  6
Continuous
 62
     7
370
     5
100
AcDbLine
 10
1.013998959999703
 20
0.3431505391536982
 30
0.0
 11
1.013998959999703
 21
0.4134850465536983
 31
0.0
  0
LINE
  5
316
330
1F
100
AcDbEntity
  8
0
  6
Continuous
 62
     7
370
     5
100
AcDbLine
 10
1.013998959999703
 20
0.4134850465536983
 30
0.0
 11
1.058998963499703
 21
0.4134850465536983
 31
0.0
  0
LINE
  5
317
330
1F
100
AcDbEntity
  8
0
  6
Continuous
 62
     7
370
     5
100
AcDbLine
 10
1.058998963499703
 20
0.4134850465536983
 30
0.0
 11
1.058998963499703
 21
0.4834850846536982
 31
0.0
  0
LINE
  5
318
330
1F
100
AcDbEntity
  8
0
  6
Continuous
 62
     7
370
     5
100
AcDbLine
 10
1.058998963499703
 20
0.4834850846536982
 30
0.0
 11
1.013998959999703
 21
0.4834850846536982
 31
0.0
  0
LINE
  5
319
330
1F
100
AcDbEntity
  8
0
  6
Continuous
 62
     7
370
     5
100
AcDbLine
 10
1.013998959999703
 20
0.4834850846536982
 30
0.0
 11
1.013998959999703
 21
0.5334850803536981
 31
0.0
  0
LINE
  5
31A
330
1F
100
AcDbEntity
  8
0
  6
Continuous
 62
     7
370
     5
100
AcDbLine
 10
1.013998959999703
 20
0.5334850803536981
 30
0.0
 11
1.058998963499703
 21
0.5334850803536981
 31
0.0
  0
LINE
  5
31B
330
1F
100
AcDbEntity
  8
0
  6
Continuous
 62
     7
370
     5
100
AcDbLine
 10
1.058998963499703
 20
0.5334850803536981
 30
0.0
 11
1.058998963499703
 21
0.6034850450536982
 31
0.0
  0
LINE
  5
31C
330
1F
100
AcDbEntity
  8
0
  6
Continuous
 62
     7
370
     5
100
AcDbLine
 10
1.058998963499703
 20
0.6034850450536982
 30
0.0
 11
1.013998959999703
 21
0.6034850450536982
 31
0.0
  0
LINE
  5
31D
330
1F
100
AcDbEntity
  8
0
  6
Continuous
 62
     7
370
     5
100
AcDbLine
 10
1.013998959999703
 20
0.6034850450536982
 30
0.0
 11
1.013998959999703
 21
0.653485077453698
 31
0.0
  0
LINE
  5
31E
330
1F
100
AcDbEntity
  8
0
  6
Continuous
 62
     7
370
     5
100
AcDbLine
 10
1.013998959999703
 20
0.653485077453698
 30
0.0
 11
1.058998963499703
 21
0.653485077453698
 31
0.0
  0
LINE
  5
31F
330
1F
100
AcDbEntity
  8
0
  6
Continuous
 62
     7
370
     5
100
AcDbLine
 10
1.058998963499703
 20
0.653485077453698
 30
0.0
 11
1.058998963499703
 21
0.7234850787536984
 31
0.0
  0
LINE
  5
320
330
1F
100
AcDbEntity
  8
0
  6
Continuous
 62
     7
370
     5
100
AcDbLine
 10
1.058998963499703
 20
0.7234850787536984
 30
0.0
 11
1.013998959999703
 21
0.7234850787536984
 31
0.0
  0
LINE
  5
321
330
1F
100
AcDbEntity
  8
0
  6
Continuous
 62
     7
370
     5
100
AcDbLine
 10
1.013998959999703
 20
0.7234850787536984
 30
0.0
 11
1.013998959999703
 21
0.7734850745536983
 31
0.0
  0
LINE
  5
322
330
1F
100
AcDbEntity
  8
0
  6
Continuous
 62
     7
370
     5
100
AcDbLine
 10
1.013998959999703
 20
0.7734850745536983
 30
0.0
 11
1.058998963499703
 21
0.7734850745536983
 31
0.0
  0
LINE
  5
323
330
1F
100
AcDbEntity
  8
0
  6
Continuous
 62
     7
370
     5
100
AcDbLine
 10
1.058998963499703
 20
0.7734850745536983
 30
0.0
 11
1.058998963499703
 21
0.8434850758536983
 31
0.0
  0
LINE
  5
324
330
1F
100
AcDbEntity
  8
0
  6
Continuous
 62
     7
370
     5
100
AcDbLine
 10
1.058998963499703
 20
0.8434850758536983
 30
0.0
 11
1.013998959999703
 21
0.8434850758536983
 31
0.0
  0
LINE
  5
325
330
1F
100
AcDbEntity
  8
0
  6
Continuous
 62
     7
370
     5
100
AcDbLine
 10
1.013998959999703
 20
0.8434850758536983
 30
0.0
 11
1.013998959999703
 21
0.8934850715536982
 31
0.0
  0
LINE
  5
326
330
1F
100
AcDbEntity
  8
0
  6
Continuous
 62
     7
370
     5
100
AcDbLine
 10
1.013998959999703
 20
0.8934850715536982
 30
0.0
 11
1.058998963499703
 21
0.8934850715536982
 31
0.0
  0
LINE
  5
327
330
1F
100
AcDbEntity
  8
0
  6
Continuous
 62
     7
370
     5
100
AcDbLine
 10
1.058998963499703
 20
0.8934850715536982
 30
0.0
 11
1.058998963499703
 21
0.9634850729536981
 31
0.0
  0
LINE
  5
328
330
1F
100
AcDbEntity
  8
0
  6
Continuous
 62
     7
370
     5
100
AcDbLine
 10
1.058998963499703
 20
0.9634850729536981
 30
0.0
 11
1.013998959999703
 21
0.9634850729536981
 31
0.0
  0
LINE
  5
329
330
1F
100
AcDbEntity
  8
0
  6
Continuous
 62
     7
370
     5
100
AcDbLine
 10
1.013998959999703
 20
0.9634850729536981
 30
0.0
 11
1.013998959999703
 21
1.013485068653698
 31
0.0
  0
LINE
  5
32A
330
1F
100
AcDbEntity
  8
0
  6
Continuous
 62
     7
370
     5
100
AcDbLine
 10
1.013998959999703
 20
1.013485068653698
 30
0.0
 11
1.058998963499703
 21
1.013485068653698
 31
0.0
  0
LINE
  5
32B
330
1F
100
AcDbEntity
  8
0
  6
Continuous
 62
     7
370
     5
100
AcDbLine
 10
1.058998963499703
 20
1.013485068653698
 30
0.0
 11
1.058998963499703
 21
1.083485060853698
 31
0.0
  0
LINE
  5
32C
330
1F
100
AcDbEntity
  8
0
  6
Continuous
 62
     7
370
     5
100
AcDbLine
 10
1.058998963499703
 20
1.083485060853698
 30
0.0
 11
1.013998959999703
 21
1.083485060853698
 31
0.0
  0
LINE
  5
32D
330
1F
100
AcDbEntity
  8
0
  6
Continuous
 62
     7
370
     5
100
AcDbLine
 10
1.013998959999703
 20
1.083485060853698
 30
0.0
 11
1.013998959999703
 21
1.133485065753698
 31
0.0
  0
LINE
  5
32E
330
1F
100
AcDbEntity
  8
0
  6
Continuous
 62
     7
370
     5
100
AcDbLine
 10
1.013998959999703
 20
1.133485065753698
 30
0.0
 11
1.058998963499703
 21
1.133485065753698
 31
0.0
  0
LINE
  5
32F
330
1F
100
AcDbEntity
  8
0
  6
Continuous
 62
     7
370
     5
100
AcDbLine
 10
1.058998963499703
 20
1.133485065753698
 30
0.0
 11
1.058998963499703
 21
1.203485064853698
 31
0.0
  0
LINE
  5
330
330
1F
100
AcDbEntity
  8
0
  6
Continuous
 62
     7
370
     5
100
AcDbLine
 10
1.058998963499703
 20
1.203485064853698
 30
0.0
 11
1.013998959999703
 21
1.203485064853698
 31
0.0
  0
LINE
  5
331
330
1F
100
AcDbEntity
  8
0
  6
Continuous
 62
     7
370
     5
100
AcDbLine
 10
1.013998959999703
 20
1.203485064853698
 30
0.0
 11
1.013998959999703
 21
1.253485065153698
 31
0.0
  0
LINE
  5
332
330
1F
100
AcDbEntity
  8
0
  6
Continuous
 62
     7
370
     5
100
AcDbLine
 10
1.013998959999703
 20
1.253485065153698
 30
0.0
 11
1.058998963499703
 21
1.253485065153698
 31
0.0
  0
LINE
  5
333
330
1F
100
AcDbEntity
  8
0
  6
Continuous
 62
     7
370
     5
100
AcDbLine
 10
1.058998963499703
 20
1.253485065153698
 30
0.0
 11
1.058998963499703
 21
1.323485064153698
 31
0.0
  0
LINE
  5
334
330
1F
100
AcDbEntity
  8
0
  6
Continuous
 62
     7
370
     5
100
AcDbLine
 10
1.058998963499703
 20
1.323485064153698
 30
0.0
 11
1.013998959999703
 21
1.323485064153698
 31
0.0
  0
LINE
  5
335
330
1F
100
AcDbEntity
  8
0
  6
Continuous
 62
     7
370
     5
100
AcDbLine
 10
1.013998959999703
 20
1.323485064153698
 30
0.0
 11
1.013998959999703
 21
1.373485069053698
 31
0.0
  0
LINE
  5
336
330
1F
100
AcDbEntity
  8
0
  6
Continuous
 62
     7
370
     5
100
AcDbLine
 10
1.013998959999703
 20
1.373485069053698
 30
0.0
 11
1.058998963499703
 21
1.373485069053698
 31
0.0
  0
LINE
  5
337
330
1F
100
AcDbEntity
  8
0
  6
Continuous
 62
     7
370
     5
100
AcDbLine
 10
1.058998963499703
 20
1.373485069053698
 30
0.0
 11
1.058998963499703
 21
1.443485061253698
 31
0.0
  0
LINE
  5
338
330
1F
100
AcDbEntity
  8
0
  6
Continuous
 62
     7
370
     5
100
AcDbLine
 10
1.058998963499703
 20
1.443485061253698
 30
0.0
 11
1.013998959999703
 21
1.443485061253698
 31
0.0
  0
LINE
  5
339
330
1F
100
AcDbEntity
  8
0
  6
Continuous
 62
     7
370
     5
100
AcDbLine
 10
1.013998959999703
 20
1.443485061253698
 30
0.0
 11
1.013998959999703
 21
1.493485057053698
 31
0.0
  0
LINE
  5
33A
330
1F
100
AcDbEntity
  8
0
  6
Continuous
 62
     7
370
     5
100
AcDbLine
 10
1.013998959999703
 20
1.493485057053698
 30
0.0
 11
1.058998963499703
 21
1.493485057053698
 31
0.0
  0
LINE
  5
33B
330
1F
100
AcDbEntity
  8
0
  6
Continuous
 62
     7
370
     5
100
AcDbLine
 10
1.058998963499703
 20
1.493485057053698
 30
0.0
 11
1.058998963499703
 21
1.563485058353698
 31
0.0
  0
LINE
  5
33C
330
1F
100
AcDbEntity
  8
0
  6
Continuous
 62
     7
370
     5
100
AcDbLine
 10
1.058998963499703
 20
1.563485058353698
 30
0.0
 11
1.013998959999703
 21
1.563485058353698
 31
0.0
  0
LINE
  5
33D
330
1F
100
AcDbEntity
  8
0
  6
Continuous
 62
     7
370
     5
100
AcDbLine
 10
1.013998959999703
 20
1.563485058353698
 30
0.0
 11
1.013998959999703
 21
1.613485054053698
 31
0.0
  0
LINE
  5
33E
330
1F
100
AcDbEntity
  8
0
  6
Continuous
 62
     7
370
     5
100
AcDbLine
 10
1.013998959999703
 20
1.613485054053698
 30
0.0
 11
1.058998963499703
 21
1.613485054053698
 31
0.0
  0
LINE
  5
33F
330
1F
100
AcDbEntity
  8
0
  6
Continuous
 62
     7
370
     5
100
AcDbLine
 10
1.058998963499703
 20
1.613485054053698
 30
0.0
 11
1.058998963499703
 21
1.683485055453698
 31
0.0
  0
LINE
  5
340
330
1F
100
AcDbEntity
  8
0
  6
Continuous
 62
     7
370
     5
100
AcDbLine
 10
1.058998963499703
 20
1.683485055453698
 30
0.0
 11
1.013998959999703
 21
1.683485055453698
 31
0.0
  0
LINE
  5
341
330
1F
100
AcDbEntity
  8
0
  6
Continuous
 62
     7
370
     5
100
AcDbLine
 10
1.013998959999703
 20
1.683485055453698
 30
0.0
 11
1.013998959999703
 21
1.733485051153698
 31
0.0
  0
LINE
  5
342
330
1F
100
AcDbEntity
  8
0
  6
Continuous
 62
     7
370
     5
100
AcDbLine
 10
1.013998959999703
 20
1.733485051153698
 30
0.0
 11
1.058998963499703
 21
1.733485051153698
 31
0.0
  0
LINE
  5
343
330
1F
100
AcDbEntity
  8
0
  6
Continuous
 62
     7
370
     5
100
AcDbLine
 10
1.058998963499703
 20
1.733485051153698
 30
0.0
 11
1.058998963499703
 21
1.803485052553698
 31
0.0
  0
LINE
  5
344
330
1F
100
AcDbEntity
  8
0
  6
Continuous
 62
     7
370
     5
100
AcDbLine
 10
1.058998963499703
 20
1.803485052553698
 30
0.0
 11
1.013998959999703
 21
1.803485052553698
 31
0.0
  0
LINE
  5
345
330
1F
100
AcDbEntity
  8
0
  6
Continuous
 62
     7
370
     5
100
AcDbLine
 10
1.013998959999703
 20
1.803485052553698
 30
0.0
 11
1.013998959999703
 21
1.853485084953698
 31
0.0
  0
LINE
  5
346
330
1F
100
AcDbEntity
  8
0
  6
Continuous
 62
     7
370
     5
100
AcDbLine
 10
1.013998959999703
 20
1.853485084953698
 30
0.0
 11
1.058998963499703
 21
1.853485084953698
 31
0.0
  0
LINE
  5
347
330
1F
100
AcDbEntity
  8
0
  6
Continuous
 62
     7
370
     5
100
AcDbLine
 10
1.058998963499703
 20
1.853485084953698
 30
0.0
 11
1.058998963499703
 21
1.923485049653698
 31
0.0
  0
LINE
  5
348
330
1F
100
AcDbEntity
  8
0
  6
Continuous
 62
     7
370
     5
100
AcDbLine
 10
1.058998963499703
 20
1.923485049653698
 30
0.0
 11
1.013998959999703
 21
1.923485049653698
 31
0.0
  0
LINE
  5
349
330
1F
100
AcDbEntity
  8
0
  6
Continuous
 62
     7
370
     5
100
AcDbLine
 10
1.013998959999703
 20
1.923485049653698
 30
0.0
 11
1.013998959999703
 21
1.973485045353698
 31
0.0
  0
LINE
  5
34A
330
1F
100
AcDbEntity
  8
0
  6
Continuous
 62
     7
370
     5
100
AcDbLine
 10
1.013998959999703
 20
1.973485045353698
 30
0.0
 11
1.058998963499703
 21
1.973485045353698
 31
0.0
  0
LINE
  5
34B
330
1F
100
AcDbEntity
  8
0
  6
Continuous
 62
     7
370
     5
100
AcDbLine
 10
1.058998963499703
 20
1.973485045353698
 30
0.0
 11
1.058998963499703
 21
2.043485083353699
 31
0.0
  0
LINE
  5
34C
330
1F
100
AcDbEntity
  8
0
  6
Continuous
 62
     7
370
     5
100
AcDbLine
 10
1.058998963499703
 20
2.043485083353699
 30
0.0
 11
1.013998959999703
 21
2.043485083353699
 31
0.0
  0
LINE
  5
34D
330
1F
100
AcDbEntity
  8
0
  6
Continuous
 62
     7
370
     5
100
AcDbLine
 10
1.013998959999703
 20
2.043485083353699
 30
0.0
 11
1.013998959999703
 21
2.113819590853698
 31
0.0
  0
LINE
  5
34E
330
1F
100
AcDbEntity
  8
0
  6
Continuous
 62
     7
370
     5
100
AcDbLine
 10
1.033138922199704
 20
2.166406096653698
 30
0.0
 11
1.013998959999703
 21
2.113819590853698
 31
0.0
  0
ARC
  5
34F
330
1F
100
AcDbEntity
  8
0
  6
Continuous
 62
     7
370
     5
100
AcDbCircle
 10
1.051932764799703
 20
2.159565729653698
 30
0.0
 40
0.0200000000000008
100
AcDbArc
 50
54.99999999999947
 51
159.9999999999994
  0
LINE
  5
350
330
1F
100
AcDbEntity
  8
0
  6
Continuous
 62
     7
370
     5
100
AcDbLine
 10
1.066970974699703
 20
2.173451368653698
 30
0.0
 11
1.063404302599703
 21
2.175948779753698
 31
0.0
  0
ARC
  5
351
330
1F
100
AcDbEntity
  8
0
  6
Continuous
 62
     7
370
     5
100
AcDbCircle
 10
1.072706748199703
 20
2.181642867553698
 30
0.0
 40
0.0100000000000004
100
AcDbArc
 50
235.0000000000006
 51
296.8448848761038
  0
ARC
  5
352
330
1F
100
AcDbEntity
  8
0
  6
Continuous
 62
     7
370
     5
100
AcDbCircle
 10
1.048998974399703
 20
2.228485064953698
 30
0.0
 40
0.0625
100
AcDbArc
 50
296.8448848761005
 51
333.0568549072994
  0
ARC
  5
353
330
1F
100
AcDbEntity
  8
0
  6
Continuous
 62
     7
370
     5
100
AcDbCircle
 10
1.095800444899703
 20
2.204696993353698
 30
0.0
 40
0.0100000000000005
100
AcDbArc
 50
333.0568549072976
 51
31.91251852489985
  0
ARC
  5
354
330
1F
100
AcDbEntity
  8
0
  6
Continuous
 62
     7
370
     5
100
AcDbCircle
 10
1.133998974399704
 20
2.228485064953698
 30
0.0
 40
0.035
100
AcDbArc
 50
148.0874814751003
 51
211.9125185248997
  0
ARC
  5
355
330
1F
100
AcDbEntity
  8
0
  6
Continuous
 62
     7
370
     5
100
AcDbCircle
 10
1.095800444899703
 20
2.252273136553698
 30
0.0
 40
0.0100000000000005
100
AcDbArc
 50
328.0874814751002
 51
26.94314509270237
  0
ARC
  5
356
330
1F
100
AcDbEntity
  8
0
  6
Continuous
 62
     7
370
     5
100
AcDbCircle
 10
1.048998974399703
 20
2.228485064953698
 30
0.0
 40
0.0625000000000011
100
AcDbArc
 50
26.94314509269969
 51
63.0568549072994
  0
ARC
  5
357
330
1F
100
AcDbEntity
  8
0
  6
Continuous
 62
     7
370
     5
100
AcDbCircle
 10
1.072787045999703
 20
2.275286535553698
 30
0.0
 40
0.0100000000000012
100
AcDbArc
 50
63.05685490730336
 51
121.9125185248978
  0
ARC
  5
358
330
1F
100
AcDbEntity
  8
0
  6
Continuous
 62
     7
370
     5
100
AcDbCircle
 10
1.048998974399703
 20
2.313485064953698
 30
0.0
 40
0.0350000000000005
100
AcDbArc
 50
238.0874814751007
 51
301.9125185248993
  0
ARC
  5
359
330
1F
100
AcDbEntity
  8
0
  6
Continuous
 62
     7
370
     5
100
AcDbCircle
 10
1.025210902799704
 20
2.275286535553698
 30
0.0
 40
0.0100000000000002
100
AcDbArc
 50
58.08748147509949
 51
116.943145092699
  0
ARC
  5
35A
330
1F
100
AcDbEntity
  8
0
  6
Continuous
 62
     7
370
     5
100
AcDbCircle
 10
1.048998974399703
 20
2.228485064953698
 30
0.0
 40
0.0625000000000004
100
AcDbArc
 50
116.9431450927008
 51
153.1551151238997
  0
ARC
  5
35B
330
1F
100
AcDbEntity
  8
0
  6
Continuous
 62
     7
370
     5
100
AcDbCircle
 10
1.002156776899704
 20
2.252192838753698
 30
0.0
 40
0.0100000000000008
100
AcDbArc
 50
153.1551151238971
 51
214.9999999999991
  0
LINE
  5
35C
330
1F
100
AcDbEntity
  8
0
  6
Continuous
 62
     7
370
     5
100
AcDbLine
 10
0.9964626691997043
 20
2.242890413153698
 30
0.0
 11
0.993965258099704
 21
2.246457085253698
 31
0.0
  0
ARC
  5
35D
330
1F
100
AcDbEntity
  8
0
  6
Continuous
 62
     7
370
     5
100
AcDbCircle
 10
0.9800796389997042
 20
2.231418855453698
 30
0.0
 40
0.0200000000000003
100
AcDbArc
 50
290.0000000000018
 51
35.00000000000162
  0
LINE
  5
35E
330
1F
100
AcDbEntity
  8
0
  6
Continuous
 62
     7
370
     5
100
AcDbLine
 10
0.9343334985997038
 20
2.193485070553698
 30
0.0
 11
0.9869200594997039
 21
2.212624996153698
 31
0.0
  0
LINE
  5
35F
330
1F
100
AcDbEntity
  8
0
  6
Continuous
 62
     7
370
     5
100
AcDbLine
 10
0.9343334985997038
 20
2.193485070553698
 30
0.0
 11
0.8889989706997041
 21
2.193485070553698
 31
0.0
  0
LINE
  5
360
330
1F
100
AcDbEntity
  8
0
  6
Continuous
 62
     7
370
     5
100
AcDbLine
 10
0.8889989706997041
 20
2.193485070553698
 30
0.0
 11
0.8889989706997041
 21
2.238485037353698
 31
0.0
  0
LINE
  5
361
330
1F
100
AcDbEntity
  8
0
  6
Continuous
 62
     7
370
     5
100
AcDbLine
 10
0.8889989706997041
 20
2.238485037353698
 30
0.0
 11
0.8189989784997045
 21
2.238485037353698
 31
0.0
  0
LINE
  5
362
330
1F
100
AcDbEntity
  8
0
  6
Continuous
 62
     7
370
     5
100
AcDbLine
 10
0.8189989784997045
 20
2.238485037353698
 30
0.0
 11
0.8189989784997045
 21
2.193485070553698
 31
0.0
  0
LINE
  5
363
330
1F
100
AcDbEntity
  8
0
  6
Continuous
 62
     7
370
     5
100
AcDbLine
 10
0.8189989784997045
 20
2.193485070553698
 30
0.0
 11
0.7689989735997034
 21
2.193485070553698
 31
0.0
  0
LINE
  5
364
330
1F
100
AcDbEntity
  8
0
  6
Continuous
 62
     7
370
     5
100
AcDbLine
 10
0.7689989735997034
 20
2.193485070553698
 30
0.0
 11
0.7689989735997034
 21
2.238485037353698
 31
0.0
  0
LINE
  5
365
330
1F
100
AcDbEntity
  8
0
  6
Continuous
 62
     7
370
     5
100
AcDbLine
 10
0.7689989735997034
 20
2.238485037353698
 30
0.0
 11
0.6989989744997032
 21
2.238485037353698
 31
0.0
  0
LINE
  5
366
330
1F
100
AcDbEntity
  8
0
  6
Continuous
 62
     7
370
     5
100
AcDbLine
 10
0.6989989744997032
 20
2.238485037353698
 30
0.0
 11
0.6989989744997032
 21
2.193485070553698
 31
0.0
  0
LINE
  5
367
330
1F
100
AcDbEntity
  8
0
  6
Continuous
 62
     7
370
     5
100
AcDbLine
 10
0.6989989744997032
 20
2.193485070553698
 30
0.0
 11
0.6489989741997042
 21
2.193485070553698
 31
0.0
  0
LINE
  5
368
330
1F
100
AcDbEntity
  8
0
  6
Continuous
 62
     7
370
     5
100
AcDbLine
 10
0.6489989741997042
 20
2.193485070553698
 30
0.0
 11
0.6489989741997042
 21
2.238485037353698
 31
0.0
  0
LINE
  5
369
330
1F
100
AcDbEntity
  8
0
  6
Continuous
 62
     7
370
     5
100
AcDbLine
 10
0.6489989741997042
 20
2.238485037353698
 30
0.0
 11
0.578998975099704
 21
2.238485037353698
 31
0.0
  0
LINE
  5
36A
330
1F
100
AcDbEntity
  8
0
  6
Continuous
 62
     7
370
     5
100
AcDbLine
 10
0.578998975099704
 20
2.238485037353698
 30
0.0
 11
0.578998975099704
 21
2.193485070553698
 31
0.0
  0
LINE
  5
36B
330
1F
100
AcDbEntity
  8
0
  6
Continuous
 62
     7
370
     5
100
AcDbLine
 10
0.578998975099704
 20
2.193485070553698
 30
0.0
 11
0.5289989701997029
 21
2.193485070553698
 31
0.0
  0
LINE
  5
36C
330
1F
100
AcDbEntity
  8
0
  6
Continuous
 62
     7
370
     5
100
AcDbLine
 10
0.5289989701997029
 20
2.193485070553698
 30
0.0
 11
0.5289989701997029
 21
2.238485037353698
 31
0.0
  0
LINE
  5
36D
330
1F
100
AcDbEntity
  8
0
  6
Continuous
 62
     7
370
     5
100
AcDbLine
 10
0.5289989701997029
 20
2.238485037353698
 30
0.0
 11
0.4589989780997032
 21
2.238485037353698
 31
0.0
  0
LINE
  5
36E
330
1F
100
AcDbEntity
  8
0
  6
Continuous
 62
     7
370
     5
100
AcDbLine
 10
0.4589989780997032
 20
2.238485037353698
 30
0.0
 11
0.4589989780997032
 21
2.193485070553698
 31
0.0
  0
LINE
  5
36F
330
1F
100
AcDbEntity
  8
0
  6
Continuous
 62
     7
370
     5
100
AcDbLine
 10
0.4589989780997032
 20
2.193485070553698
 30
0.0
 11
0.4136644500997035
 21
2.193485070553698
 31
0.0
  0
LINE
  5
370
330
1F
100
AcDbEntity
  8
0
  6
Continuous
 62
     7
370
     5
100
AcDbLine
 10
0.4136644500997035
 20
2.193485070553698
 30
0.0
 11
0.3610778892997035
 21
2.212624996153698
 31
0.0
  0
ARC
  5
371
330
1F
100
AcDbEntity
  8
0
  6
Continuous
 62
     7
370
     5
100
AcDbCircle
 10
0.3679183096997032
 20
2.231418855453698
 30
0.0
 40
0.0200000000000003
100
AcDbArc
 50
144.9999999999984
 51
249.9999999999982
  0
LINE
  5
372
330
1F
100
AcDbEntity
  8
0
  6
Continuous
 62
     7
370
     5
100
AcDbLine
 10
0.3515352794997031
 20
2.242890413153698
 30
0.0
 11
0.3540326905997033
 21
2.246457085253698
 31
0.0
  0
ARC
  5
373
330
1F
100
AcDbEntity
  8
0
  6
Continuous
 62
     7
370
     5
100
AcDbCircle
 10
0.345841171799703
 20
2.252192838753698
 30
0.0
 40
0.0100000000000008
100
AcDbArc
 50
325.0000000000011
 51
26.84488487610293
  0
ARC
  5
374
330
1F
100
AcDbEntity
  8
0
  6
Continuous
 62
     7
370
     5
100
AcDbCircle
 10
0.2989989743997028
 20
2.228485064953698
 30
0.0
 40
0.0625000000000011
100
AcDbArc
 50
26.84488487609993
 51
63.0568549072995
  0
ARC
  5
375
330
1F
100
AcDbEntity
  8
0
  6
Continuous
 62
     7
370
     5
100
AcDbCircle
 10
0.3227870459997031
 20
2.275286535553698
 30
0.0
 40
0.0100000000000004
100
AcDbArc
 50
63.05685490730333
 51
121.9125185249011
  0
ARC
  5
376
330
1F
100
AcDbEntity
  8
0
  6
Continuous
 62
     7
370
     5
100
AcDbCircle
 10
0.2989989743997028
 20
2.313485064953698
 30
0.0
 40
0.0350000000000005
100
AcDbArc
 50
238.0874814751006
 51
301.9125185248993
  0
ARC
  5
377
330
1F
100
AcDbEntity
  8
0
  6
Continuous
 62
     7
370
     5
100
AcDbCircle
 10
0.2752109027997043
 20
2.275286535553698
 30
0.0
 40
0.0100000000000004
100
AcDbArc
 50
58.08748147509893
 51
116.9431450926967
  0
ARC
  5
378
330
1F
100
AcDbEntity
  8
0
  6
Continuous
 62
     7
370
     5
100
AcDbCircle
 10
0.2989989743997028
 20
2.228485064953698
 30
0.0
 40
0.0625000000000003
100
AcDbArc
 50
116.9431450926993
 51
153.0568549073004
  0
ARC
  5
379
330
1F
100
AcDbEntity
  8
0
  6
Continuous
 62
     7
370
     5
100
AcDbCircle
 10
0.2521975037997044
 20
2.252273136553698
 30
0.0
 40
0.01
100
AcDbArc
 50
153.0568549073019
 51
211.912518524997
  0
ARC
  5
37A
330
1F
100
AcDbEntity
  8
0
  6
Continuous
 62
     7
370
     5
100
AcDbCircle
 10
0.2139989743997037
 20
2.228485064953698
 30
0.0
 40
0.0350000000000015
100
AcDbArc
 50
328.0874814750994
 51
31.91251852490067
  0
ARC
  5
37B
330
1F
100
AcDbEntity
  8
0
  6
Continuous
 62
     7
370
     5
100
AcDbCircle
 10
0.2521975037997044
 20
2.204696993353698
 30
0.0
 40
0.01
100
AcDbArc
 50
148.0874814750989
 51
206.9431450926982
  0
ARC
  5
37C
330
1F
100
AcDbEntity
  8
0
  6
Continuous
 62
     7
370
     5
100
AcDbCircle
 10
0.2989989743997028
 20
2.228485064953698
 30
0.0
 40
0.0625
100
AcDbArc
 50
206.9431450927006
 51
243.1551151238994
  0
ARC
  5
37D
330
1F
100
AcDbEntity
  8
0
  6
Continuous
 62
     7
370
     5
100
AcDbCircle
 10
0.2752912004997028
 20
2.181642867553698
 30
0.0
 40
0.0100000000000004
100
AcDbArc
 50
243.1551151238962
 51
304.9999999999994
  0
LINE
  5
37E
330
1F
100
AcDbEntity
  8
0
  6
Continuous
 62
     7
370
     5
100
AcDbLine
 10
0.2810269739997042
 20
2.173451368653698
 30
0.0
 11
0.2845936460997041
 21
2.175948779753698
 31
0.0
  0
ARC
  5
37F
330
1F
100
AcDbEntity
  8
0
  6
Continuous
 62
     7
370
     5
100
AcDbCircle
 10
0.2960651838997044
 20
2.159565729653698
 30
0.0
 40
0.0200000000000008
100
AcDbArc
 50
20.00000000000071
 51
125.0000000000005
  0
LINE
  5
380
330
1F
100
AcDbEntity
  8
0
  6
Continuous
 62
     7
370
     5
100
AcDbLine
 10
0.3148590264997035
 20
2.166406096653698
 30
0.0
 11
0.3339989886997041
 21
2.113819590853698
 31
0.0
  0
LINE
  5
381
330
1F
100
AcDbEntity
  8
0
  6
Continuous
 62
     7
370
     5
100
AcDbLine
 10
0.3339989886997041
 20
2.113819590853698
 30
0.0
 11
0.3339989886997041
 21
2.043485083353699
 31
0.0
  0
LINE
  5
382
330
1F
100
AcDbEntity
  8
0
  6
Continuous
 62
     7
370
     5
100
AcDbLine
 10
0.3339989886997041
 20
2.043485083353699
 30
0.0
 11
0.2889989851997039
 21
2.043485083353699
 31
0.0
  0
LINE
  5
383
330
1F
100
AcDbEntity
  8
0
  6
Continuous
 62
     7
370
     5
100
AcDbLine
 10
0.2889989851997039
 20
2.043485083353699
 30
0.0
 11
0.2889989851997039
 21
1.973485045353698
 31
0.0
  0
LINE
  5
384
330
1F
100
AcDbEntity
  8
0
  6
Continuous
 62
     7
370
     5
100
AcDbLine
 10
0.2889989851997039
 20
1.973485045353698
 30
0.0
 11
0.3339989886997041
 21
1.973485045353698
 31
0.0
  0
LINE
  5
385
330
1F
100
AcDbEntity
  8
0
  6
Continuous
 62
     7
370
     5
100
AcDbLine
 10
0.3339989886997041
 20
1.973485045353698
 30
0.0
 11
0.3339989886997041
 21
1.923485049653698
 31
0.0
  0
LINE
  5
386
330
1F
100
AcDbEntity
  8
0
  6
Continuous
 62
     7
370
     5
100
AcDbLine
 10
0.3339989886997041
 20
1.923485049653698
 30
0.0
 11
0.2889989851997039
 21
1.923485049653698
 31
0.0
  0
LINE
  5
387
330
1F
100
AcDbEntity
  8
0
  6
Continuous
 62
     7
370
     5
100
AcDbLine
 10
0.2889989851997039
 20
1.923485049653698
 30
0.0
 11
0.2889989851997039
 21
1.853485084953698
 31
0.0
  0
LINE
  5
388
330
1F
100
AcDbEntity
  8
0
  6
Continuous
 62
     7
370
     5
100
AcDbLine
 10
0.2889989851997039
 20
1.853485084953698
 30
0.0
 11
0.3339989886997041
 21
1.853485084953698
 31
0.0
  0
LINE
  5
389
330
1F
100
AcDbEntity
  8
0
  6
Continuous
 62
     7
370
     5
100
AcDbLine
 10
0.3339989886997041
 20
1.853485084953698
 30
0.0
 11
0.3339989886997041
 21
1.803485052553698
 31
0.0
  0
LINE
  5
38A
330
1F
100
AcDbEntity
  8
0
  6
Continuous
 62
     7
370
     5
100
AcDbLine
 10
0.3339989886997041
 20
1.803485052553698
 30
0.0
 11
0.2889989851997039
 21
1.803485052553698
 31
0.0
  0
LINE
  5
38B
330
1F
100
AcDbEntity
  8
0
  6
Continuous
 62
     7
370
     5
100
AcDbLine
 10
0.2889989851997039
 20
1.803485052553698
 30
0.0
 11
0.2889989851997039
 21
1.733485051153698
 31
0.0
  0
LINE
  5
38C
330
1F
100
AcDbEntity
  8
0
  6
Continuous
 62
     7
370
     5
100
AcDbLine
 10
0.2889989851997039
 20
1.733485051153698
 30
0.0
 11
0.3339989886997041
 21
1.733485051153698
 31
0.0
  0
LINE
  5
38D
330
1F
100
AcDbEntity
  8
0
  6
Continuous
 62
     7
370
     5
100
AcDbLine
 10
0.3339989886997041
 20
1.733485051153698
 30
0.0
 11
0.3339989886997041
 21
1.683485055453698
 31
0.0
  0
LINE
  5
38E
330
1F
100
AcDbEntity
  8
0
  6
Continuous
 62
     7
370
     5
100
AcDbLine
 10
0.3339989886997041
 20
1.683485055453698
 30
0.0
 11
0.2889989851997039
 21
1.683485055453698
 31
0.0
  0
LINE
  5
38F
330
1F
100
AcDbEntity
  8
0
  6
Continuous
 62
     7
370
     5
100
AcDbLine
 10
0.2889989851997039
 20
1.683485055453698
 30
0.0
 11
0.2889989851997039
 21
1.613485054053698
 31
0.0
  0
LINE
  5
390
330
1F
100
AcDbEntity
  8
0
  6
Continuous
 62
     7
370
     5
100
AcDbLine
 10
0.2889989851997039
 20
1.613485054053698
 30
0.0
 11
0.3339989886997041
 21
1.613485054053698
 31
0.0
  0
LINE
  5
391
330
1F
100
AcDbEntity
  8
0
  6
Continuous
 62
     7
370
     5
100
AcDbLine
 10
0.3339989886997041
 20
1.613485054053698
 30
0.0
 11
0.3339989886997041
 21
1.563485058353698
 31
0.0
  0
LINE
  5
392
330
1F
100
AcDbEntity
  8
0
  6
Continuous
 62
     7
370
     5
100
AcDbLine
 10
0.3339989886997041
 20
1.563485058353698
 30
0.0
 11
0.2889989851997039
 21
1.563485058353698
 31
0.0
  0
LINE
  5
393
330
1F
100
AcDbEntity
  8
0
  6
Continuous
 62
     7
370
     5
100
AcDbLine
 10
0.2889989851997039
 20
1.563485058353698
 30
0.0
 11
0.2889989851997039
 21
1.493485057053698
 31
0.0
  0
LINE
  5
394
330
1F
100
AcDbEntity
  8
0
  6
Continuous
 62
     7
370
     5
100
AcDbLine
 10
0.2889989851997039
 20
1.493485057053698
 30
0.0
 11
0.3339989886997041
 21
1.493485057053698
 31
0.0
  0
LINE
  5
395
330
1F
100
AcDbEntity
  8
0
  6
Continuous
 62
     7
370
     5
100
AcDbLine
 10
0.3339989886997041
 20
1.493485057053698
 30
0.0
 11
0.3339989886997041
 21
1.443485061253698
 31
0.0
  0
LINE
  5
396
330
1F
100
AcDbEntity
  8
0
  6
Continuous
 62
     7
370
     5
100
AcDbLine
 10
0.3339989886997041
 20
1.443485061253698
 30
0.0
 11
0.2889989851997039
 21
1.443485061253698
 31
0.0
  0
LINE
  5
397
330
1F
100
AcDbEntity
  8
0
  6
Continuous
 62
     7
370
     5
100
AcDbLine
 10
0.2889989851997039
 20
1.443485061253698
 30
0.0
 11
0.2889989851997039
 21
1.373485069053698
 31
0.0
  0
LINE
  5
398
330
1F
100
AcDbEntity
  8
0
  6
Continuous
 62
     7
370
     5
100
AcDbLine
 10
0.2889989851997039
 20
1.373485069053698
 30
0.0
 11
0.3339989886997041
 21
1.373485069053698
 31
0.0
  0
LINE
  5
399
330
1F
100
AcDbEntity
  8
0
  6
Continuous
 62
     7
370
     5
100
AcDbLine
 10
0.3339989886997041
 20
1.373485069053698
 30
0.0
 11
0.3339989886997041
 21
1.323485064153698
 31
0.0
  0
LINE
  5
39A
330
1F
100
AcDbEntity
  8
0
  6
Continuous
 62
     7
370
     5
100
AcDbLine
 10
0.3339989886997041
 20
1.323485064153698
 30
0.0
 11
0.2889989851997039
 21
1.323485064153698
 31
0.0
  0
LINE
  5
39B
330
1F
100
AcDbEntity
  8
0
  6
Continuous
 62
     7
370
     5
100
AcDbLine
 10
0.2889989851997039
 20
1.323485064153698
 30
0.0
 11
0.2889989851997039
 21
1.253485065153698
 31
0.0
  0
LINE
  5
39C
330
1F
100
AcDbEntity
  8
0
  6
Continuous
 62
     7
370
     5
100
AcDbLine
 10
0.2889989851997039
 20
1.253485065153698
 30
0.0
 11
0.3339989886997041
 21
1.253485065153698
 31
0.0
  0
LINE
  5
39D
330
1F
100
AcDbEntity
  8
0
  6
Continuous
 62
     7
370
     5
100
AcDbLine
 10
0.3339989886997041
 20
1.253485065153698
 30
0.0
 11
0.3339989886997041
 21
1.203485064853698
 31
0.0
  0
LINE
  5
39E
330
1F
100
AcDbEntity
  8
0
  6
Continuous
 62
     7
370
     5
100
AcDbLine
 10
0.3339989886997041
 20
1.203485064853698
 30
0.0
 11
0.2889989851997039
 21
1.203485064853698
 31
0.0
  0
LINE
  5
39F
330
1F
100
AcDbEntity
  8
0
  6
Continuous
 62
     7
370
     5
100
AcDbLine
 10
0.2889989851997039
 20
1.203485064853698
 30
0.0
 11
0.2889989851997039
 21
1.133485065753698
 31
0.0
  0
LINE
  5
3A0
330
1F
100
AcDbEntity
  8
0
  6
Continuous
 62
     7
370
     5
100
AcDbLine
 10
0.2889989851997039
 20
1.133485065753698
 30
0.0
 11
0.3339989886997041
 21
1.133485065753698
 31
0.0
  0
LINE
  5
3A1
330
1F
100
AcDbEntity
  8
0
  6
Continuous
 62
     7
370
     5
100
AcDbLine
 10
0.3339989886997041
 20
1.133485065753698
 30
0.0
 11
0.3339989886997041
 21
1.083485060853698
 31
0.0
  0
LINE
  5
3A2
330
1F
100
AcDbEntity
  8
0
  6
Continuous
 62
     7
370
     5
100
AcDbLine
 10
0.3339989886997041
 20
1.083485060853698
 30
0.0
 11
0.2889989851997039
 21
1.083485060853698
 31
0.0
  0
LINE
  5
3A3
330
1F
100
AcDbEntity
  8
0
  6
Continuous
 62
     7
370
     5
100
AcDbLine
 10
0.2889989851997039
 20
1.083485060853698
 30
0.0
 11
0.2889989851997039
 21
1.013485068653698
 31
0.0
  0
LINE
  5
3A4
330
1F
100
AcDbEntity
  8
0
  6
Continuous
 62
     7
370
     5
100
AcDbLine
 10
0.2889989851997039
 20
1.013485068653698
 30
0.0
 11
0.3339989886997041
 21
1.013485068653698
 31
0.0
  0
LINE
  5
3A5
330
1F
100
AcDbEntity
  8
0
  6
Continuous
 62
     7
370
     5
100
AcDbLine
 10
0.3339989886997041
 20
1.013485068653698
 30
0.0
 11
0.3339989886997041
 21
0.9634850729536981
 31
0.0
  0
LINE
  5
3A6
330
1F
100
AcDbEntity
  8
0
  6
Continuous
 62
     7
370
     5
100
AcDbLine
 10
0.3339989886997041
 20
0.9634850729536981
 30
0.0
 11
0.2889989851997039
 21
0.9634850729536981
 31
0.0
  0
LINE
  5
3A7
330
1F
100
AcDbEntity
  8
0
  6
Continuous
 62
     7
370
     5
100
AcDbLine
 10
0.2889989851997039
 20
0.9634850729536981
 30
0.0
 11
0.2889989851997039
 21
0.8934850715536982
 31
0.0
  0
LINE
  5
3A8
330
1F
100
AcDbEntity
  8
0
  6
Continuous
 62
     7
370
     5
100
AcDbLine
 10
0.2889989851997039
 20
0.8934850715536982
 30
0.0
 11
0.3339989886997041
 21
0.8934850715536982
 31
0.0
  0
LINE
  5
3A9
330
1F
100
AcDbEntity
  8
0
  6
Continuous
 62
     7
370
     5
100
AcDbLine
 10
0.3339989886997041
 20
0.8934850715536982
 30
0.0
 11
0.3339989886997041
 21
0.8434850758536983
 31
0.0
  0
LINE
  5
3AA
330
1F
100
AcDbEntity
  8
0
  6
Continuous
 62
     7
370
     5
100
AcDbLine
 10
0.3339989886997041
 20
0.8434850758536983
 30
0.0
 11
0.2889989851997039
 21
0.8434850758536983
 31
0.0
  0
LINE
  5
3AB
330
1F
100
AcDbEntity
  8
0
  6
Continuous
 62
     7
370
     5
100
AcDbLine
 10
0.2889989851997039
 20
0.8434850758536983
 30
0.0
 11
0.2889989851997039
 21
0.7734850745536983
 31
0.0
  0
LINE
  5
3AC
330
1F
100
AcDbEntity
  8
0
  6
Continuous
 62
     7
370
     5
100
AcDbLine
 10
0.2889989851997039
 20
0.7734850745536983
 30
0.0
 11
0.3339989886997041
 21
0.7734850745536983
 31
0.0
  0
LINE
  5
3AD
330
1F
100
AcDbEntity
  8
0
  6
Continuous
 62
     7
370
     5
100
AcDbLine
 10
0.3339989886997041
 20
0.7734850745536983
 30
0.0
 11
0.3339989886997041
 21
0.7234850787536984
 31
0.0
  0
LINE
  5
3AE
330
1F
100
AcDbEntity
  8
0
  6
Continuous
 62
     7
370
     5
100
AcDbLine
 10
0.3339989886997041
 20
0.7234850787536984
 30
0.0
 11
0.2889989851997039
 21
0.7234850787536984
 31
0.0
  0
LINE
  5
3AF
330
1F
100
AcDbEntity
  8
0
  6
Continuous
 62
     7
370
     5
100
AcDbLine
 10
0.2889989851997039
 20
0.7234850787536984
 30
0.0
 11
0.2889989851997039
 21
0.653485077453698
 31
0.0
  0
LINE
  5
3B0
330
1F
100
AcDbEntity
  8
0
  6
Continuous
 62
     7
370
     5
100
AcDbLine
 10
0.2889989851997039
 20
0.653485077453698
 30
0.0
 11
0.3339989886997041
 21
0.653485077453698
 31
0.0
  0
LINE
  5
3B1
330
1F
100
AcDbEntity
  8
0
  6
Continuous
 62
     7
370
     5
100
AcDbLine
 10
0.3339989886997041
 20
0.653485077453698
 30
0.0
 11
0.3339989886997041
 21
0.6034850450536982
 31
0.0
  0
LINE
  5
3B2
330
1F
100
AcDbEntity
  8
0
  6
Continuous
 62
     7
370
     5
100
AcDbLine
 10
0.3339989886997041
 20
0.6034850450536982
 30
0.0
 11
0.2889989851997039
 21
0.6034850450536982
 31
0.0
  0
LINE
  5
3B3
330
1F
100
AcDbEntity
  8
0
  6
Continuous
 62
     7
370
     5
100
AcDbLine
 10
0.2889989851997039
 20
0.6034850450536982
 30
0.0
 11
0.2889989851997039
 21
0.5334850803536981
 31
0.0
  0
LINE
  5
3B4
330
1F
100
AcDbEntity
  8
0
  6
Continuous
 62
     7
370
     5
100
AcDbLine
 10
0.2889989851997039
 20
0.5334850803536981
 30
0.0
 11
0.3339989886997041
 21
0.5334850803536981
 31
0.0
  0
LINE
  5
3B5
330
1F
100
AcDbEntity
  8
0
  6
Continuous
 62
     7
370
     5
100
AcDbLine
 10
0.3339989886997041
 20
0.5334850803536981
 30
0.0
 11
0.3339989886997041
 21
0.4834850846536982
 31
0.0
  0
LINE
  5
3B6
330
1F
100
AcDbEntity
  8
0
  6
Continuous
 62
     7
370
     5
100
AcDbLine
 10
0.3339989886997041
 20
0.4834850846536982
 30
0.0
 11
0.2889989851997039
 21
0.4834850846536982
 31
0.0
  0
LINE
  5
3B7
330
1F
100
AcDbEntity
  8
0
  6
Continuous
 62
     7
370
     5
100
AcDbLine
 10
0.2889989851997039
 20
0.4834850846536982
 30
0.0
 11
0.2889989851997039
 21
0.4134850465536983
 31
0.0
  0
LINE
  5
3B8
330
1F
100
AcDbEntity
  8
0
  6
Continuous
 62
     7
370
     5
100
AcDbLine
 10
0.2889989851997039
 20
0.4134850465536983
 30
0.0
 11
0.3339989886997041
 21
0.4134850465536983
 31
0.0
  0
LINE
  5
3B9
330
1F
100
AcDbEntity
  8
0
  6
Continuous
 62
     7
370
     5
100
AcDbLine
 10
0.3339989886997041
 20
0.4134850465536983
 30
0.0
 11
0.3339989886997041
 21
0.3431505391536982
 31
0.0
  0
LINE
  5
3BA
330
1F
100
AcDbEntity
  8
0
  6
Continuous
 62
     7
370
     5
100
AcDbLine
 10
0.3148590264997035
 20
0.2905640332536983
 30
0.0
 11
0.3339989886997041
 21
0.3431505391536982
 31
0.0
  0
ARC
  5
3BB
330
1F
100
AcDbEntity
  8
0
  6
Continuous
 62
     7
370
     5
100
AcDbCircle
 10
0.2960651838997044
 20
0.297404400353698
 30
0.0
 40
0.02
100
AcDbArc
 50
234.9999999999987
 51
340.0000000000005
  0
LINE
  5
3BC
330
1F
100
AcDbEntity
  8
0
  6
Continuous
 62
     7
370
     5
100
AcDbLine
 10
0.2810269739997042
 20
0.2835187613536982
 30
0.0
 11
0.2845936460997041
 21
0.281021350153698
 31
0.0
  0
ARC
  5
3BD
330
1F
100
AcDbEntity
  8
0
  6
Continuous
 62
     7
370
     5
100
AcDbCircle
 10
0.2752912004997028
 20
0.2753272624536982
 30
0.0
 40
0.0100000000000004
100
AcDbArc
 50
54.99999999999947
 51
116.8448848761025
  0
ARC
  5
3BE
330
1F
100
AcDbEntity
  8
0
  6
Continuous
 62
     7
370
     5
100
AcDbCircle
 10
0.2989989743997028
 20
0.228485064953698
 30
0.0
 40
0.0625
100
AcDbArc
 50
116.8448848761004
 51
153.0568549072996
  0
ARC
  5
3BF
330
1F
100
AcDbEntity
  8
0
  6
Continuous
 62
     7
370
     5
100
AcDbCircle
 10
0.2521975037997044
 20
0.2522731365536983
 30
0.0
 40
0.0100000000000005
100
AcDbArc
 50
153.0568549072986
 51
211.9125185249005
  0
ARC
  5
3C0
330
1F
100
AcDbEntity
  8
0
  6
Continuous
 62
     7
370
     5
100
AcDbCircle
 10
0.2139989743997037
 20
0.228485064953698
 30
0.0
 40
0.0350000000000018
100
AcDbArc
 50
328.0874814751004
 51
31.91251852489961
  0
ARC
  5
3C1
330
1F
100
AcDbEntity
  8
0
  6
Continuous
 62
     7
370
     5
100
AcDbCircle
 10
0.2521975037997044
 20
0.2046969933536982
 30
0.0
 40
0.0100000000000002
100
AcDbArc
 50
148.0874814750994
 51
206.9431450927012
  0
ARC
  5
3C2
330
1F
100
AcDbEntity
  8
0
  6
Continuous
 62
     7
370
     5
100
AcDbCircle
 10
0.2989989743997028
 20
0.228485064953698
 30
0.0
 40
0.0625000000000003
100
AcDbArc
 50
206.9431450926997
 51
243.0568549072991
  0
ARC
  5
3C3
330
1F
100
AcDbEntity
  8
0
  6
Continuous
 62
     7
370
     5
100
AcDbCircle
 10
0.2752109027997043
 20
0.1816835943536983
 30
0.0
 40
0.0100000000000004
100
AcDbArc
 50
243.0568549073022
 51
301.9125185249006
  0
ARC
  5
3C4
330
1F
100
AcDbEntity
  8
0
  6
Continuous
 62
     7
370
     5
100
AcDbCircle
 10
0.2989989743997028
 20
0.1434850649536981
 30
0.0
 40
0.0350000000000005
100
AcDbArc
 50
58.08748147510065
 51
121.9125185248993
  0
ARC
  5
3C5
330
1F
100
AcDbEntity
  8
0
  6
Continuous
 62
     7
370
     5
100
AcDbCircle
 10
0.3227870459997031
 20
0.1816835943536983
 30
0.0
 40
0.0100000000000004
100
AcDbArc
 50
238.0874814750994
 51
296.9431450926978
  0
ARC
  5
3C6
330
1F
100
AcDbEntity
  8
0
  6
Continuous
 62
     7
370
     5
100
AcDbCircle
 10
0.2989989743997028
 20
0.228485064953698
 30
0.0
 40
0.0625000000000004
100
AcDbArc
 50
296.9431450926993
 51
333.1551151238999
  0
ARC
  5
3C7
330
1F
100
AcDbEntity
  8
0
  6
Continuous
 62
     7
370
     5
100
AcDbCircle
 10
0.345841171799703
 20
0.204777291153698
 30
0.0
 40
0.010000000000001
100
AcDbArc
 50
333.1551151238986
 51
35.00000000000115
  0
LINE
  5
3C8
330
1F
100
AcDbEntity
  8
0
  6
Continuous
 62
     7
370
     5
100
AcDbLine
 10
0.3515352794997031
 20
0.2140797168536981
 30
0.0
 11
0.3540326905997033
 21
0.2105130446536982
 31
0.0
  0
ARC
  5
3C9
330
1F
100
AcDbEntity
  8
0
  6
Continuous
 62
     7
370
     5
100
AcDbCircle
 10
0.3679183096997032
 20
0.2255512745536983
 30
0.0
 40
0.0199999999999998
100
AcDbArc
 50
110.0000000000014
 51
214.9999999999999
  0
LINE
  5
3CA
330
1F
100
AcDbEntity
  8
0
  6
Continuous
 62
     7
370
     5
100
AcDbLine
 10
0.4136644500997035
 20
0.2634850594536982
 30
0.0
 11
0.3610778892997035
 21
0.2443451338536984
 31
0.0
  0
LINE
  5
3CB
330
1F
100
AcDbEntity
  8
0
  6
Continuous
 62
     7
370
     5
100
AcDbLine
 10
0.4136644500997035
 20
0.2634850594536982
 30
0.0
 11
0.4589989780997032
 21
0.2634850594536982
 31
0.0
  0
LINE
  5
3CC
330
1F
100
AcDbEntity
  8
0
  6
Continuous
 62
     7
370
     5
100
AcDbLine
 10
0.4589989780997032
 20
0.2634850594536982
 30
0.0
 11
0.4589989780997032
 21
0.2184850925536983
 31
0.0
  0
LINE
  5
3CD
330
1F
100
AcDbEntity
  8
0
  6
Continuous
 62
     7
370
     5
100
AcDbLine
 10
0.4589989780997032
 20
0.2184850925536983
 30
0.0
 11
0.5289989701997029
 21
0.2184850925536983
 31
0.0
  0
LINE
  5
3CE
330
1F
100
AcDbEntity
  8
0
  6
Continuous
 62
     7
370
     5
100
AcDbLine
 10
0.5289989701997029
 20
0.2184850925536983
 30
0.0
 11
0.5289989701997029
 21
0.2634850594536982
 31
0.0
  0
LINE
  5
3CF
330
1F
100
AcDbEntity
  8
0
  6
Continuous
 62
     7
370
     5
100
AcDbLine
 10
0.5289989701997029
 20
0.2634850594536982
 30
0.0
 11
0.578998975099704
 21
0.2634850594536982
 31
0.0
  0
LINE
  5
3D0
330
1F
100
AcDbEntity
  8
0
  6
Continuous
 62
     7
370
     5
100
AcDbLine
 10
0.578998975099704
 20
0.2634850594536982
 30
0.0
 11
0.578998975099704
 21
0.2184850925536983
 31
0.0
  0
LINE
  5
3D1
330
1F
100
AcDbEntity
  8
0
  6
Continuous
 62
     7
370
     5
100
AcDbLine
 10
0.578998975099704
 20
0.2184850925536983
 30
0.0
 11
0.6489989741997042
 21
0.2184850925536983
 31
0.0
  0
LINE
  5
3D2
330
1F
100
AcDbEntity
  8
0
  6
Continuous
 62
     7
370
     5
100
AcDbLine
 10
0.6489989741997042
 20
0.2184850925536983
 30
0.0
 11
0.6489989741997042
 21
0.2634850594536982
 31
0.0
  0
LINE
  5
3D3
330
1F
100
AcDbEntity
  8
0
  6
Continuous
 62
     7
370
     5
100
AcDbLine
 10
0.6489989741997042
 20
0.2634850594536982
 30
0.0
 11
0.6989989744997032
 21
0.2634850594536982
 31
0.0
  0
LINE
  5
3D4
330
1F
100
AcDbEntity
  8
0
  6
Continuous
 62
     7
370
     5
100
AcDbLine
 10
0.6989989744997032
 20
0.2634850594536982
 30
0.0
 11
0.6989989744997032
 21
0.2184850925536983
 31
0.0
  0
LINE
  5
3D5
330
1F
100
AcDbEntity
  8
0
  6
Continuous
 62
     7
370
     5
100
AcDbLine
 10
0.6989989744997032
 20
0.2184850925536983
 30
0.0
 11
0.7689989735997034
 21
0.2184850925536983
 31
0.0
  0
LINE
  5
3D6
330
1F
100
AcDbEntity
  8
0
  6
Continuous
 62
     7
370
     5
100
AcDbLine
 10
0.7689989735997034
 20
0.2184850925536983
 30
0.0
 11
0.7689989735997034
 21
0.2634850594536982
 31
0.0
  0
LINE
  5
3D7
330
1F
100
AcDbEntity
  8
0
  6
Continuous
 62
     7
370
     5
100
AcDbLine
 10
0.7689989735997034
 20
0.2634850594536982
 30
0.0
 11
0.8189989784997045
 21
0.2634850594536982
 31
0.0
  0
LINE
  5
3D8
330
1F
100
AcDbEntity
  8
0
  6
Continuous
 62
     7
370
     5
100
AcDbLine
 10
0.8189989784997045
 20
0.2634850594536982
 30
0.0
 11
0.8189989784997045
 21
0.2184850925536983
 31
0.0
  0
LINE
  5
3D9
330
1F
100
AcDbEntity
  8
0
  6
Continuous
 62
     7
370
     5
100
AcDbLine
 10
0.8189989784997045
 20
0.2184850925536983
 30
0.0
 11
0.8889989706997041
 21
0.2184850925536983
 31
0.0
  0
LINE
  5
3DA
330
1F
100
AcDbEntity
  8
0
  6
Continuous
 62
     7
370
     5
100
AcDbLine
 10
0.8889989706997041
 20
0.2184850925536983
 30
0.0
 11
0.8889989706997041
 21
0.2634850594536982
 31
0.0
  0
LINE
  5
3DB
330
1F
100
AcDbEntity
  8
0
  6
Continuous
 62
     7
370
     5
100
AcDbLine
 10
0.8889989706997041
 20
0.2634850594536982
 30
0.0
 11
0.9343334985997038
 21
0.2634850594536982
 31
0.0
  0
LINE
  5
3DC
330
1F
100
AcDbEntity
  8
0
  6
Continuous
 62
     7
370
     5
100
AcDbLine
 10
0.9343334985997038
 20
0.2634850594536982
 30
0.0
 11
0.9869200594997039
 21
0.2443451338536984
 31
0.0
  0
ARC
  5
3DD
330
1F
100
AcDbEntity
  8
0
  6
Continuous
 62
     7
370
     5
100
AcDbCircle
 10
0.9800796389997042
 20
0.2255512745536983
 30
0.0
 40
0.0199999999999999
100
AcDbArc
 50
324.9999999999991
 51
69.99999999999868
  0
LINE
  5
3DE
330
1F
100
AcDbEntity
  8
0
  6
Continuous
 62
     7
370
     5
100
AcDbLine
 10
0.9964626691997043
 20
0.2140797168536981
 30
0.0
 11
0.993965258099704
 21
0.2105130446536982
 31
0.0
  0
LINE
  5
3DF
330
1F
100
AcDbEntity
  8
0
  6
Continuous
 62
     7
370
     5
100
AcDbLine
 10
0.1739989803997033
 20
1.451164549253698
 30
0.0
 11
0.1739989803997033
 21
1.365805571953698
 31
0.0
  0
ARC
  5
3E0
330
1F
100
AcDbEntity
  8
0
  6
Continuous
 62
     7
370
     5
100
AcDbCircle
 10
0.163998974399703
 20
1.468485064953698
 30
0.0
 40
0.0200000000000001
100
AcDbArc
 50
299.9999999999991
 51
60.00000000000084
  0
LINE
  5
3E1
330
1F
100
AcDbEntity
  8
0
  6
Continuous
 62
     7
370
     5
100
AcDbLine
 10
0.1739989803997033
 20
1.571164546353698
 30
0.0
 11
0.1739989803997033
 21
1.485805569053698
 31
0.0
  0
ARC
  5
3E2
330
1F
100
AcDbEntity
  8
0
  6
Continuous
 62
     7
370
     5
100
AcDbCircle
 10
0.163998974399703
 20
1.588485064953698
 30
0.0
 40
0.0199999999999997
100
AcDbArc
 50
300.0000000000001
 51
59.99999999999988
  0
LINE
  5
3E3
330
1F
100
AcDbEntity
  8
0
  6
Continuous
 62
     7
370
     5
100
AcDbLine
 10
0.1739989803997033
 20
1.691164543353698
 30
0.0
 11
0.1739989803997033
 21
1.605805566153698
 31
0.0
  0
ARC
  5
3E4
330
1F
100
AcDbEntity
  8
0
  6
Continuous
 62
     7
370
     5
100
AcDbCircle
 10
0.163998974399703
 20
1.708485064953698
 30
0.0
 40
0.0200000000000002
100
AcDbArc
 50
299.9999999999993
 51
60.0000000000007
  0
LINE
  5
3E5
330
1F
100
AcDbEntity
  8
0
  6
Continuous
 62
     7
370
     5
100
AcDbLine
 10
0.1739989803997033
 20
1.811164540453698
 30
0.0
 11
0.1739989803997033
 21
1.725805563253698
 31
0.0
  0
ARC
  5
3E6
330
1F
100
AcDbEntity
  8
0
  6
Continuous
 62
     7
370
     5
100
AcDbCircle
 10
0.163998974399703
 20
1.828485064953698
 30
0.0
 40
0.0199999999999998
100
AcDbArc
 50
300.0
 51
60.00000000000006
  0
LINE
  5
3E7
330
1F
100
AcDbEntity
  8
0
  6
Continuous
 62
     7
370
     5
100
AcDbLine
 10
0.1739989803997033
 20
1.931164574253698
 30
0.0
 11
0.1739989803997033
 21
1.845805560353698
 31
0.0
  0
ARC
  5
3E8
330
1F
100
AcDbEntity
  8
0
  6
Continuous
 62
     7
370
     5
100
AcDbCircle
 10
0.163998974399703
 20
1.948485064953698
 30
0.0
 40
0.0200000000000003
100
AcDbArc
 50
299.9999999999994
 51
60.00000000000055
  0
LINE
  5
3E9
330
1F
100
AcDbEntity
  8
0
  6
Continuous
 62
     7
370
     5
100
AcDbLine
 10
0.1739989803997033
 20
2.052624291153698
 30
0.0
 11
0.1739989803997033
 21
1.965805594053698
 31
0.0
  0
ARC
  5
3EA
330
1F
100
AcDbEntity
  8
0
  6
Continuous
 62
     7
370
     5
100
AcDbCircle
 10
0.2049989743997034
 20
2.052624285953698
 30
0.0
 40
0.0310000000000006
100
AcDbArc
 50
130.7232820825991
 51
180.0
  0
ARC
  5
3EB
330
1F
100
AcDbEntity
  8
0
  6
Continuous
 62
     7
370
     5
100
AcDbCircle
 10
0.1439989743997034
 20
2.123485064953698
 30
0.0
 40
0.0625
100
AcDbArc
 50
310.7232820825999
 51
49.27671791740011
  0
ARC
  5
3EC
330
1F
100
AcDbEntity
  8
0
  6
Continuous
 62
     7
370
     5
100
AcDbCircle
 10
0.2049989743997034
 20
2.194345843953698
 30
0.0
 40
0.0310000000000006
100
AcDbArc
 50
180.0
 51
229.2767179174016
  0
LINE
  5
3ED
330
1F
100
AcDbEntity
  8
0
  6
Continuous
 62
     7
370
     5
100
AcDbLine
 10
0.1739989803997033
 20
2.228485052853698
 30
0.0
 11
0.1739989803997033
 21
2.194345847253699
 31
0.0
  0
ARC
  5
3EE
330
1F
100
AcDbEntity
  8
0
  6
Continuous
 62
     7
370
     5
100
AcDbCircle
 10
0.2989989743997028
 20
2.228485064953698
 30
0.0
 40
0.125
100
AcDbArc
 50
90.0
 51
180.0
  0
LINE
  5
3EF
330
1F
100
AcDbEntity
  8
0
  6
Continuous
 62
     7
370
     5
100
AcDbLine
 10
0.3331382119997044
 20
2.353485042253698
 30
0.0
 11
0.2989989696997042
 21
2.353485042253698
 31
0.0
  0
ARC
  5
3F0
330
1F
100
AcDbEntity
  8
0
  6
Continuous
 62
     7
370
     5
100
AcDbCircle
 10
0.333138195399703
 20
2.322485064953698
 30
0.0
 40
0.0310000000000006
100
AcDbArc
 50
40.72328208260033
 51
90.0
  0
ARC
  5
3F1
330
1F
100
AcDbEntity
  8
0
  6
Continuous
 62
     7
370
     5
100
AcDbCircle
 10
0.4039989743997032
 20
2.383485064953698
 30
0.0
 40
0.0624999999999995
100
AcDbArc
 50
220.7232820825999
 51
319.2767179174001
  0
ARC
  5
3F2
330
1F
100
AcDbEntity
  8
0
  6
Continuous
 62
     7
370
     5
100
AcDbCircle
 10
0.4748597533997034
 20
2.322485064953698
 30
0.0
 40
0.0310000000000006
100
AcDbArc
 50
90.0
 51
139.2767179173997
  0
LINE
  5
3F3
330
1F
100
AcDbEntity
  8
0
  6
Continuous
 62
     7
370
     5
100
AcDbLine
 10
0.5366784673997045
 20
2.353485042253698
 30
0.0
 11
0.4748597497997031
 21
2.353485042253698
 31
0.0
  0
ARC
  5
3F4
330
1F
100
AcDbEntity
  8
0
  6
Continuous
 62
     7
370
     5
100
AcDbCircle
 10
0.5539989743997036
 20
2.363485064953698
 30
0.0
 40
0.0199999999999998
100
AcDbArc
 50
210.0000000000011
 51
329.9999999999989
  0
LINE
  5
3F5
330
1F
100
AcDbEntity
  8
0
  6
Continuous
 62
     7
370
     5
100
AcDbLine
 10
0.6566784666997036
 20
2.353485042253698
 30
0.0
 11
0.5713194779997042
 21
2.353485042253698
 31
0.0
  0
ARC
  5
3F6
330
1F
100
AcDbEntity
  8
0
  6
Continuous
 62
     7
370
     5
100
AcDbCircle
 10
0.6739989743997028
 20
2.363485064953698
 30
0.0
 40
0.0200000000000007
100
AcDbArc
 50
209.9999999999998
 51
330.0000000000002
  0
LINE
  5
3F7
330
1F
100
AcDbEntity
  8
0
  6
Continuous
 62
     7
370
     5
100
AcDbLine
 10
0.7766784706997032
 20
2.353485042253698
 30
0.0
 11
0.6913194819997037
 21
2.353485042253698
 31
0.0
  0
ARC
  5
3F8
330
1F
100
AcDbEntity
  8
0
  6
Continuous
 62
     7
370
     5
100
AcDbCircle
 10
0.7939989743997038
 20
2.363485064953698
 30
0.0
 40
0.0200000000000007
100
AcDbArc
 50
209.9999999999998
 51
330.0000000000002
  0
LINE
  5
3F9
330
1F
100
AcDbEntity
  8
0
  6
Continuous
 62
     7
370
     5
100
AcDbLine
 10
0.8731381988997042
 20
2.353485042253698
 30
0.0
 11
0.8113194813997029
 21
2.353485042253698
 31
0.0
  0
ARC
  5
3FA
330
1F
100
AcDbEntity
  8
0
  6
Continuous
 62
     7
370
     5
100
AcDbCircle
 10
0.8731381953997039
 20
2.322485064953698
 30
0.0
 40
0.0310000000000006
100
AcDbArc
 50
40.72328208260033
 51
90.0
  0
ARC
  5
3FB
330
1F
100
AcDbEntity
  8
0
  6
Continuous
 62
     7
370
     5
100
AcDbCircle
 10
0.9439989743997041
 20
2.383485064953698
 30
0.0
 40
0.0625000000000008
100
AcDbArc
 50
220.7232820826004
 51
319.2767179173995
  0
ARC
  5
3FC
330
1F
100
AcDbEntity
  8
0
  6
Continuous
 62
     7
370
     5
100
AcDbCircle
 10
1.014859753399704
 20
2.322485064953698
 30
0.0
 40
0.0310000000000006
100
AcDbArc
 50
90.0
 51
139.2767179173997
  0
LINE
  5
3FD
330
1F
100
AcDbEntity
  8
0
  6
Continuous
 62
     7
370
     5
100
AcDbLine
 10
1.048998978999703
 20
2.353485042253698
 30
0.0
 11
1.014859736699703
 21
2.353485042253698
 31
0.0
  0
ARC
  5
3FE
330
1F
100
AcDbEntity
  8
0
  6
Continuous
 62
     7
370
     5
100
AcDbCircle
 10
1.048998974399703
 20
2.228485064953698
 30
0.0
 40
0.125
100
AcDbArc
 50
0.0
 51
90.0
  0
LINE
  5
3FF
330
1F
100
AcDbEntity
  8
0
  6
Continuous
 62
     7
370
     5
100
AcDbLine
 10
1.173998968299704
 20
2.194345847253699
 30
0.0
 11
1.173998968299704
 21
2.228485052853698
 31
0.0
  0
ARC
  5
400
330
1F
100
AcDbEntity
  8
0
  6
Continuous
 62
     7
370
     5
100
AcDbCircle
 10
1.142998974399704
 20
2.194345843953698
 30
0.0
 40
0.0310000000000006
100
AcDbArc
 50
310.7232820825994
 51
0.0
  0
ARC
  5
401
330
1F
100
AcDbEntity
  8
0
  6
Continuous
 62
     7
370
     5
100
AcDbCircle
 10
1.203998974399704
 20
2.123485064953698
 30
0.0
 40
0.0625
100
AcDbArc
 50
130.7232820825999
 51
229.2767179174001
  0
ARC
  5
402
330
1F
100
AcDbEntity
  8
0
  6
Continuous
 62
     7
370
     5
100
AcDbCircle
 10
1.142998974399704
 20
2.052624285953698
 30
0.0
 40
0.0310000000000006
100
AcDbArc
 50
0.0
 51
49.27671791740109
  0
LINE
  5
403
330
1F
100
AcDbEntity
  8
0
  6
Continuous
 62
     7
370
     5
100
AcDbLine
 10
1.173998968299704
 20
1.793485068053698
 30
0.0
 11
1.173998968299704
 21
2.052624291153698
 31
0.0
  0
LINE
  5
404
330
1F
100
AcDbEntity
  8
0
  6
Continuous
 62
     7
370
     5
100
AcDbLine
 10
1.173998968299704
 20
1.793485068053698
 30
0.0
 11
1.172998969899703
 21
1.793485068053698
 31
0.0
  0
LINE
  5
405
330
1F
100
AcDbEntity
  8
0
  6
Continuous
 62
     7
370
     5
100
AcDbLine
 10
1.172998969899703
 20
0.5034850535536983
 30
0.0
 11
1.172998969899703
 21
1.793485068053698
 31
0.0
  0
LINE
  5
406
330
1F
100
AcDbEntity
  8
0
  6
Continuous
 62
     7
370
     5
100
AcDbLine
 10
1.172998969899703
 20
0.5034850535536983
 30
0.0
 11
1.173998968299704
 21
0.5034850535536983
 31
0.0
  0
LINE
  5
407
330
1F
100
AcDbEntity
  8
0
  6
Continuous
 62
     7
370
     5
100
AcDbLine
 10
1.173998968299704
 20
0.4043458388536982
 30
0.0
 11
1.173998968299704
 21
0.5034850535536983
 31
0.0
  0
ARC
  5
408
330
1F
100
AcDbEntity
  8
0
  6
Continuous
 62
     7
370
     5
100
AcDbCircle
 10
1.142998974399704
 20
0.4043458439536982
 30
0.0
 40
0.0310000000000006
100
AcDbArc
 50
310.7232820825989
 51
0.0
  0
ARC
  5
409
330
1F
100
AcDbEntity
  8
0
  6
Continuous
 62
     7
370
     5
100
AcDbCircle
 10
1.203998974399704
 20
0.333485064953698
 30
0.0
 40
0.0625000000000004
100
AcDbArc
 50
130.7232820825995
 51
229.2767179174005
  0
ARC
  5
40A
330
1F
100
AcDbEntity
  8
0
  6
Continuous
 62
     7
370
     5
100
AcDbCircle
 10
1.142998974399704
 20
0.2626242859536982
 30
0.0
 40
0.0310000000000006
100
AcDbArc
 50
0.0
 51
49.27671791740109
  0
LINE
  5
40B
330
1F
100
AcDbEntity
  8
0
  6
Continuous
 62
     7
370
     5
100
AcDbLine
 10
1.173998968299704
 20
0.2284850770536981
 30
0.0
 11
1.173998968299704
 21
0.262624282653698
 31
0.0
  0
ARC
  5
40C
330
1F
100
AcDbEntity
  8
0
  6
Continuous
 62
     7
370
     5
100
AcDbCircle
 10
1.048998974399703
 20
0.228485064953698
 30
0.0
 40
0.125
100
AcDbArc
 50
270.0
 51
0.0
  0
LINE
  5
40D
330
1F
100
AcDbEntity
  8
0
  6
Continuous
 62
     7
370
     5
100
AcDbLine
 10
1.014859736699703
 20
0.1034850877536981
 30
0.0
 11
1.048998978999703
 21
0.1034850877536981
 31
0.0
  0
ARC
  5
40E
330
1F
100
AcDbEntity
  8
0
  6
Continuous
 62
     7
370
     5
100
AcDbCircle
 10
1.014859753399704
 20
0.1344850649536982
 30
0.0
 40
0.0309999999999999
100
AcDbArc
 50
220.7232820826
 51
270.0
  0
ARC
  5
40F
330
1F
100
AcDbEntity
  8
0
  6
Continuous
 62
     7
370
     5
100
AcDbCircle
 10
0.9439989743997041
 20
0.0734850649536982
 30
0.0
 40
0.0625000000000011
100
AcDbArc
 50
40.7232820826004
 51
139.2767179173996
  0
ARC
  5
410
330
1F
100
AcDbEntity
  8
0
  6
Continuous
 62
     7
370
     5
100
AcDbCircle
 10
0.8731381953997039
 20
0.1344850649536982
 30
0.0
 40
0.0309999999999999
100
AcDbArc
 50
270.0
 51
319.2767179174
  0
LINE
  5
411
330
1F
100
AcDbEntity
  8
0
  6
Continuous
 62
     7
370
     5
100
AcDbLine
 10
0.8113194813997029
 20
0.1034850877536981
 30
0.0
 11
0.8731381988997042
 21
0.1034850877536981
 31
0.0
  0
ARC
  5
412
330
1F
100
AcDbEntity
  8
0
  6
Continuous
 62
     7
370
     5
100
AcDbCircle
 10
0.7939989743997038
 20
0.0934850649536982
 30
0.0
 40
0.020000000000001
100
AcDbArc
 50
30.00000000000024
 51
149.9999999999998
  0
LINE
  5
413
330
1F
100
AcDbEntity
  8
0
  6
Continuous
 62
     7
370
     5
100
AcDbLine
 10
0.6913194819997037
 20
0.1034850877536981
 30
0.0
 11
0.7766784706997032
 21
0.1034850877536981
 31
0.0
  0
ARC
  5
414
330
1F
100
AcDbEntity
  8
0
  6
Continuous
 62
     7
370
     5
100
AcDbCircle
 10
0.6739989743997028
 20
0.0934850649536982
 30
0.0
 40
0.020000000000001
100
AcDbArc
 50
30.00000000000024
 51
149.9999999999996
  0
LINE
  5
415
330
1F
100
AcDbEntity
  8
0
  6
Continuous
 62
     7
370
     5
100
AcDbLine
 10
0.5713194779997042
 20
0.1034850877536981
 30
0.0
 11
0.6566784666997036
 21
0.1034850877536981
 31
0.0
  0
ARC
  5
416
330
1F
100
AcDbEntity
  8
0
  6
Continuous
 62
     7
370
     5
100
AcDbCircle
 10
0.5539989743997036
 20
0.0934850649536982
 30
0.0
 40
0.020000000000001
100
AcDbArc
 50
30.0000000000004
 51
149.9999999999996
  0
LINE
  5
417
330
1F
100
AcDbEntity
  8
0
  6
Continuous
 62
     7
370
     5
100
AcDbLine
 10
0.4748597497997031
 20
0.1034850877536981
 30
0.0
 11
0.5366784673997045
 21
0.1034850877536981
 31
0.0
  0
ARC
  5
418
330
1F
100
AcDbEntity
  8
0
  6
Continuous
 62
     7
370
     5
100
AcDbCircle
 10
0.4748597533997034
 20
0.1344850649536982
 30
0.0
 40
0.0309999999999999
100
AcDbArc
 50
220.7232820825999
 51
270.0
  0
ARC
  5
419
330
1F
100
AcDbEntity
  8
0
  6
Continuous
 62
     7
370
     5
100
AcDbCircle
 10
0.4039989743997032
 20
0.0734850649536982
 30
0.0
 40
0.0624999999999998
100
AcDbArc
 50
40.72328208260006
 51
139.2767179173999
  0
ARC
  5
41A
330
1F
100
AcDbEntity
  8
0
  6
Continuous
 62
     7
370
     5
100
AcDbCircle
 10
0.333138195399703
 20
0.1344850649536982
 30
0.0
 40
0.0309999999999999
100
AcDbArc
 50
270.0
 51
319.2767179174
  0
LINE
  5
41B
330
1F
100
AcDbEntity
  8
0
  6
Continuous
 62
     7
370
     5
100
AcDbLine
 10
0.2989989696997042
 20
0.1034850877536981
 30
0.0
 11
0.3331382119997044
 21
0.1034850877536981
 31
0.0
  0
ARC
  5
41C
330
1F
100
AcDbEntity
  8
0
  6
Continuous
 62
     7
370
     5
100
AcDbCircle
 10
0.2989989743997028
 20
0.228485064953698
 30
0.0
 40
0.125
100
AcDbArc
 50
180.0
 51
270.0
  0
LINE
  5
41D
330
1F
100
AcDbEntity
  8
0
  6
Continuous
 62
     7
370
     5
100
AcDbLine
 10
0.1739989803997033
 20
0.262624282653698
 30
0.0
 11
0.1739989803997033
 21
0.2284850770536981
 31
0.0
  0
ARC
  5
41E
330
1F
100
AcDbEntity
  8
0
  6
Continuous
 62
     7
370
     5
100
AcDbCircle
 10
0.2049989743997034
 20
0.2626242859536982
 30
0.0
 40
0.0310000000000006
100
AcDbArc
 50
130.7232820825988
 51
180.0
  0
ARC
  5
41F
330
1F
100
AcDbEntity
  8
0
  6
Continuous
 62
     7
370
     5
100
AcDbCircle
 10
0.1439989743997034
 20
0.333485064953698
 30
0.0
 40
0.0625000000000004
100
AcDbArc
 50
310.7232820825995
 51
49.27671791740048
  0
ARC
  5
420
330
1F
100
AcDbEntity
  8
0
  6
Continuous
 62
     7
370
     5
100
AcDbCircle
 10
0.2049989743997034
 20
0.4043458439536982
 30
0.0
 40
0.0310000000000006
100
AcDbArc
 50
180.0
 51
229.2767179174012
  0
LINE
  5
421
330
1F
100
AcDbEntity
  8
0
  6
Continuous
 62
     7
370
     5
100
AcDbLine
 10
0.1739989803997033
 20
0.4911645358536982
 30
0.0
 11
0.1739989803997033
 21
0.4043458388536982
 31
0.0
  0
ARC
  5
422
330
1F
100
AcDbEntity
  8
0
  6
Continuous
 62
     7
370
     5
100
AcDbCircle
 10
0.163998974399703
 20
0.5084850649536983
 30
0.0
 40
0.02
100
AcDbArc
 50
299.9999999999993
 51
60.00000000000058
  0
LINE
  5
423
330
1F
100
AcDbEntity
  8
0
  6
Continuous
 62
     7
370
     5
100
AcDbLine
 10
0.1739989803997033
 20
0.611164569653698
 30
0.0
 11
0.1739989803997033
 21
0.5258055557536983
 31
0.0
  0
ARC
  5
424
330
1F
100
AcDbEntity
  8
0
  6
Continuous
 62
     7
370
     5
100
AcDbCircle
 10
0.163998974399703
 20
0.6284850649536984
 30
0.0
 40
0.0200000000000004
100
AcDbArc
 50
299.9999999999988
 51
60.00000000000122
  0
LINE
  5
425
330
1F
100
AcDbEntity
  8
0
  6
Continuous
 62
     7
370
     5
100
AcDbLine
 10
0.1739989803997033
 20
0.7311645667536983
 30
0.0
 11
0.1739989803997033
 21
0.645805589453698
 31
0.0
  0
ARC
  5
426
330
1F
100
AcDbEntity
  8
0
  6
Continuous
 62
     7
370
     5
100
AcDbCircle
 10
0.163998974399703
 20
0.748485064953698
 30
0.0
 40
0.02
100
AcDbArc
 50
299.9999999999994
 51
60.00000000000058
  0
LINE
  5
427
330
1F
100
AcDbEntity
  8
0
  6
Continuous
 62
     7
370
     5
100
AcDbLine
 10
0.1739989803997033
 20
0.8511645638536982
 30
0.0
 11
0.1739989803997033
 21
0.7658055865536983
 31
0.0
  0
ARC
  5
428
330
1F
100
AcDbEntity
  8
0
  6
Continuous
 62
     7
370
     5
100
AcDbCircle
 10
0.163998974399703
 20
0.8684850649536981
 30
0.0
 40
0.02
100
AcDbArc
 50
299.9999999999994
 51
60.00000000000058
  0
LINE
  5
429
330
1F
100
AcDbEntity
  8
0
  6
Continuous
 62
     7
370
     5
100
AcDbLine
 10
0.1739989803997033
 20
0.9711645608536981
 30
0.0
 11
0.1739989803997033
 21
0.8858055836536982
 31
0.0
  0
ARC
  5
42A
330
1F
100
AcDbEntity
  8
0
  6
Continuous
 62
     7
370
     5
100
AcDbCircle
 10
0.163998974399703
 20
0.9884850649536983
 30
0.0
 40
0.02
100
AcDbArc
 50
299.9999999999994
 51
60.00000000000058
  0
LINE
  5
42B
330
1F
100
AcDbEntity
  8
0
  6
Continuous
 62
     7
370
     5
100
AcDbLine
 10
0.1739989803997033
 20
1.091164557953698
 30
0.0
 11
0.1739989803997033
 21
1.005805580753698
 31
0.0
  0
ARC
  5
42C
330
1F
100
AcDbEntity
  8
0
  6
Continuous
 62
     7
370
     5
100
AcDbCircle
 10
0.163998974399703
 20
1.108485064953698
 30
0.0
 40
0.02
100
AcDbArc
 50
299.9999999999994
 51
60.00000000000058
  0
LINE
  5
42D
330
1F
100
AcDbEntity
  8
0
  6
Continuous
 62
     7
370
     5
100
AcDbLine
 10
0.1739989803997033
 20
1.211164557353698
 30
0.0
 11
0.1739989803997033
 21
1.125805568653698
 31
0.0
  0
ARC
  5
42E
330
1F
100
AcDbEntity
  8
0
  6
Continuous
 62
     7
370
     5
100
AcDbCircle
 10
0.163998974399703
 20
1.228485064953698
 30
0.0
 40
0.0200000000000004
100
AcDbArc
 50
299.9999999999988
 51
60.00000000000122
  0
LINE
  5
42F
330
1F
100
AcDbEntity
  8
0
  6
Continuous
 62
     7
370
     5
100
AcDbLine
 10
0.1739989803997033
 20
1.331164561353698
 30
0.0
 11
0.1739989803997033
 21
1.245805572553698
 31
0.0
  0
ARC
  5
430
330
1F
100
AcDbEntity
  8
0
  6
Continuous
 62
     7
370
     5
100
AcDbCircle
 10
0.163998974399703
 20
1.348485064953698
 30
0.0
 40
0.0200000000000009
100
AcDbArc
 50
299.999999999998
 51
60.00000000000203
  0
LINE
  5
431
330
1F
100
AcDbEntity
  8
0
  6
Continuous
 62
     7
370
     5
100
AcDbLine
 10
1.172998969899703
 20
0.5534850493536982
 30
0.0
 11
1.173998968299704
 21
0.5534850493536982
 31
0.0
  0
LINE
  5
432
330
1F
100
AcDbEntity
  8
0
  6
Continuous
 62
     7
370
     5
100
AcDbLine
 10
1.173998968299704
 20
0.5034850535536983
 30
0.0
 11
1.173998968299704
 21
0.5534850493536982
 31
0.0
  0
LINE
  5
433
330
1F
100
AcDbEntity
  8
0
  6
Continuous
 62
     7
370
     5
100
AcDbLine
 10
1.172998969899703
 20
1.743485072353698
 30
0.0
 11
1.173998968299704
 21
1.743485072353698
 31
0.0
  0
LINE
  5
434
330
1F
100
AcDbEntity
  8
0
  6
Continuous
 62
     7
370
     5
100
AcDbLine
 10
1.173998968299704
 20
1.743485072353698
 30
0.0
 11
1.173998968299704
 21
1.793485068053698
 31
0.0
  0
LINE
  5
435
330
1F
100
AcDbEntity
  8
0
  6
Continuous
 62
     7
370
     5
100
AcDbLine
 10
1.173998968299704
 20
0.5534850493536982
 30
0.0
 11
1.173998968299704
 21
1.743485072353698
 31
0.0
  0
CIRCLE
  5
436
330
1F
100
AcDbEntity
  8
0
  6
Continuous
 62
     7
370
     5
100
AcDbCircle
 10
1.048998974399703
 20
0.228485064953698
 30
0.0
 40
0.0236220472440953
  0
CIRCLE
  5
437
330
1F
100
AcDbEntity
  8
0
  6
Continuous
 62
     7
370
     5
100
AcDbCircle
 10
1.048998974399703
 20
2.228485064953698
 30
0.0
 40
0.0236220472440944
  0
CIRCLE
  5
438
330
1F
100
AcDbEntity
  8
0
  6
Continuous
 62
     7
370
     5
100
AcDbCircle
 10
0.2989989743997028
 20
0.228485064953698
 30
0.0
 40
0.0236220472440948
  0
CIRCLE
  5
439
330
1F
100
AcDbEntity
  8
0
  6
Continuous
 62
     7
370
     5
100
AcDbCircle
 10
0.2989989743997028
 20
2.228485064953698
 30
0.0
 40
0.0236220472440964
  0
ARC
  5
43A
330
1F
100
AcDbEntity
  8
0
  6
Continuous
 62
     7
370
     5
100
AcDbCircle
 10
1.048998974399703
 20
0.228485064953698
 30
0.0
 40
0.062500000000001
100
AcDbArc
 50
104.1302154358005
 51
165.8697845641998
  0
ARC
  5
43B
330
1F
100
AcDbEntity
  8
0
  6
Continuous
 62
     7
370
     5
100
AcDbCircle
 10
0.2989989743997028
 20
2.228485064953698
 30
0.0
 40
0.0624999999999999
100
AcDbArc
 50
284.1302154358007
 51
345.8697845643001
  0
ARC
  5
43C
330
1F
100
AcDbEntity
  8
0
  6
Continuous
 62
     7
370
     5
100
AcDbCircle
 10
1.048998974399703
 20
2.228485064953698
 30
0.0
 40
0.0625000000000004
100
AcDbArc
 50
194.1302154355999
 51
255.8697845641993
  0
ARC
  5
43D
330
1F
100
AcDbEntity
  8
0
  6
Continuous
 62
     7
370
     5
100
AcDbCircle
 10
0.2989989743997028
 20
0.228485064953698
 30
0.0
 40
0.0625000000000004
100
AcDbArc
 50
14.63961106549998
 51
75.86978456419936
  0
LINE
  5
43E
330
1F
100
AcDbEntity
  8
0
  6
Continuous
 62
     7
370
     5
100
AcDbLine
 10
0.1739989803997033
 20
0.4911645358536982
 30
0.0
 11
0.1739989803997033
 21
0.5258055557536983
 31
0.0
  0
LINE
  5
43F
330
1F
100
AcDbEntity
  8
0
  6
Continuous
 62
     7
370
     5
100
AcDbLine
 10
0.1739989803997033
 20
0.611164569653698
 30
0.0
 11
0.1739989803997033
 21
0.645805589453698
 31
0.0
  0
LINE
  5
440
330
1F
100
AcDbEntity
  8
0
  6
Continuous
 62
     7
370
     5
100
AcDbLine
 10
0.1739989803997033
 20
0.7311645667536983
 30
0.0
 11
0.1739989803997033
 21
0.7658055865536983
 31
0.0
  0
LINE
  5
441
330
1F
100
AcDbEntity
  8
0
  6
Continuous
 62
     7
370
     5
100
AcDbLine
 10
0.1739989803997033
 20
0.8511645638536982
 30
0.0
 11
0.1739989803997033
 21
0.8858055836536982
 31
0.0
  0
LINE
  5
442
330
1F
100
AcDbEntity
  8
0
  6
Continuous
 62
     7
370
     5
100
AcDbLine
 10
0.1739989803997033
 20
0.9711645608536981
 30
0.0
 11
0.1739989803997033
 21
1.005805580753698
 31
0.0
  0
LINE
  5
443
330
1F
100
AcDbEntity
  8
0
  6
Continuous
 62
     7
370
     5
100
AcDbLine
 10
0.1739989803997033
 20
1.091164557953698
 30
0.0
 11
0.1739989803997033
 21
1.125805568653698
 31
0.0
  0
LINE
  5
444
330
1F
100
AcDbEntity
  8
0
  6
Continuous
 62
     7
370
     5
100
AcDbLine
 10
0.1739989803997033
 20
1.211164557353698
 30
0.0
 11
0.1739989803997033
 21
1.245805572553698
 31
0.0
  0
LINE
  5
445
330
1F
100
AcDbEntity
  8
0
  6
Continuous
 62
     7
370
     5
100
AcDbLine
 10
0.1739989803997033
 20
1.331164561353698
 30
0.0
 11
0.1739989803997033
 21
1.365805571953698
 31
0.0
  0
LINE
  5
446
330
1F
100
AcDbEntity
  8
0
  6
Continuous
 62
     7
370
     5
100
AcDbLine
 10
0.1739989803997033
 20
1.451164549253698
 30
0.0
 11
0.1739989803997033
 21
1.485805569053698
 31
0.0
  0
LINE
  5
447
330
1F
100
AcDbEntity
  8
0
  6
Continuous
 62
     7
370
     5
100
AcDbLine
 10
0.1739989803997033
 20
1.571164546353698
 30
0.0
 11
0.1739989803997033
 21
1.605805566153698
 31
0.0
  0
LINE
  5
448
330
1F
100
AcDbEntity
  8
0
  6
Continuous
 62
     7
370
     5
100
AcDbLine
 10
0.1739989803997033
 20
1.691164543353698
 30
0.0
 11
0.1739989803997033
 21
1.725805563253698
 31
0.0
  0
LINE
  5
449
330
1F
100
AcDbEntity
  8
0
  6
Continuous
 62
     7
370
     5
100
AcDbLine
 10
0.1739989803997033
 20
1.811164540453698
 30
0.0
 11
0.1739989803997033
 21
1.845805560353698
 31
0.0
  0
LINE
  5
44A
330
1F
100
AcDbEntity
  8
0
  6
Continuous
 62
     7
370
     5
100
AcDbLine
 10
0.1739989803997033
 20
1.931164574253698
 30
0.0
 11
0.1739989803997033
 21
1.965805594053698
 31
0.0
  0
LINE
  5
44B
330
1F
100
AcDbEntity
  8
0
  6
Continuous
 62
     7
370
     5
100
AcDbLine
 10
0.8113194813997029
 20
0.1034850877536981
 30
0.0
 11
0.7766784706997032
 21
0.1034850877536981
 31
0.0
  0
LINE
  5
44C
330
1F
100
AcDbEntity
  8
0
  6
Continuous
 62
     7
370
     5
100
AcDbLine
 10
0.6913194819997037
 20
0.1034850877536981
 30
0.0
 11
0.6566784666997036
 21
0.1034850877536981
 31
0.0
  0
LINE
  5
44D
330
1F
100
AcDbEntity
  8
0
  6
Continuous
 62
     7
370
     5
100
AcDbLine
 10
0.5713194779997042
 20
0.1034850877536981
 30
0.0
 11
0.5366784673997045
 21
0.1034850877536981
 31
0.0
  0
LINE
  5
44E
330
1F
100
AcDbEntity
  8
0
  6
Continuous
 62
     7
370
     5
100
AcDbLine
 10
0.5366784673997045
 20
2.353485042253698
 30
0.0
 11
0.5713194779997042
 21
2.353485042253698
 31
0.0
  0
LINE
  5
44F
330
1F
100
AcDbEntity
  8
0
  6
Continuous
 62
     7
370
     5
100
AcDbLine
 10
0.6566784666997036
 20
2.353485042253698
 30
0.0
 11
0.6913194819997037
 21
2.353485042253698
 31
0.0
  0
LINE
  5
450
330
1F
100
AcDbEntity
  8
0
  6
Continuous
 62
     7
370
     5
100
AcDbLine
 10
0.7766784706997032
 20
2.353485042253698
 30
0.0
 11
0.8113194813997029
 21
2.353485042253698
 31
0.0
  0
ARC
  5
451
330
1F
100
AcDbEntity
  8
0
  6
Continuous
 62
     7
370
     5
100
AcDbCircle
 10
1.049730430599703
 20
0.2280395342536981
 30
0.0
 40
0.046811482621739
100
AcDbArc
 50
102.3778131037993
 51
39.09044935389917
  0
ARC
  5
452
330
1F
100
AcDbEntity
  8
0
  6
Continuous
 62
     7
370
     5
100
AcDbCircle
 10
1.049478836799703
 20
2.229194546653698
 30
0.0
 40
0.0468114604839488
100
AcDbArc
 50
189.6477905453003
 51
126.3604039902
  0
ARC
  5
453
330
1F
100
AcDbEntity
  8
0
  6
Continuous
 62
     7
370
     5
100
AcDbCircle
 10
0.2998230006997029
 20
0.2287185446536983
 30
0.0
 40
0.0468114742630286
100
AcDbArc
 50
149.5433875304996
 51
86.25604636130085
  0
ARC
  5
454
330
1F
100
AcDbEntity
  8
0
  6
Continuous
 62
     7
370
     5
100
AcDbCircle
 10
0.2993381622997044
 20
2.229271535653698
 30
0.0
 40
0.0468114811015646
100
AcDbArc
 50
200.3948674687999
 51
137.1076163600994
  0
LINE
  5
455
330
1F
100
AcDbEntity
  8
0
  6
Continuous
 62
     7
370
     5
100
AcDbLine
 10
0.5452811746997042
 20
0.111485075353698
 30
0.0
 11
0.5627167706997045
 21
0.111485075353698
 31
0.0
  0
LINE
  5
456
330
1F
100
AcDbEntity
  8
0
  6
Continuous
 62
     7
370
     5
100
AcDbLine
 10
0.6652811762997035
 20
0.111485075353698
 30
0.0
 11
0.6827167723997039
 21
0.111485075353698
 31
0.0
  0
LINE
  5
457
330
1F
100
AcDbEntity
  8
0
  6
Continuous
 62
     7
370
     5
100
AcDbLine
 10
0.7852811779997029
 20
0.111485075353698
 30
0.0
 11
0.8027167740997032
 21
0.111485075353698
 31
0.0
  0
LINE
  5
458
330
1F
100
AcDbEntity
  8
0
  6
Continuous
 62
     7
370
     5
100
AcDbLine
 10
0.1819989679997032
 20
1.957202886753699
 30
0.0
 11
0.1819989679997032
 21
1.939767281553698
 31
0.0
  0
LINE
  5
459
330
1F
100
AcDbEntity
  8
0
  6
Continuous
 62
     7
370
     5
100
AcDbLine
 10
0.1819989679997032
 20
1.837202853053698
 30
0.0
 11
0.1819989679997032
 21
1.819767284453698
 31
0.0
  0
LINE
  5
45A
330
1F
100
AcDbEntity
  8
0
  6
Continuous
 62
     7
370
     5
100
AcDbLine
 10
0.1819989679997032
 20
1.717202855953698
 30
0.0
 11
0.1819989679997032
 21
1.699767250653698
 31
0.0
  0
LINE
  5
45B
330
1F
100
AcDbEntity
  8
0
  6
Continuous
 62
     7
370
     5
100
AcDbLine
 10
0.1819989679997032
 20
1.597202858853698
 30
0.0
 11
0.1819989679997032
 21
1.579767253653698
 31
0.0
  0
LINE
  5
45C
330
1F
100
AcDbEntity
  8
0
  6
Continuous
 62
     7
370
     5
100
AcDbLine
 10
0.1819989679997032
 20
1.477202861753698
 30
0.0
 11
0.1819989679997032
 21
1.459767274853698
 31
0.0
  0
LINE
  5
45D
330
1F
100
AcDbEntity
  8
0
  6
Continuous
 62
     7
370
     5
100
AcDbLine
 10
0.1819989679997032
 20
1.357202864653698
 30
0.0
 11
0.1819989679997032
 21
1.339767268653698
 31
0.0
  0
LINE
  5
45E
330
1F
100
AcDbEntity
  8
0
  6
Continuous
 62
     7
370
     5
100
AcDbLine
 10
0.1819989679997032
 20
1.237202863053698
 30
0.0
 11
0.1819989679997032
 21
1.219767266953698
 31
0.0
  0
LINE
  5
45F
330
1F
100
AcDbEntity
  8
0
  6
Continuous
 62
     7
370
     5
100
AcDbLine
 10
0.1819989679997032
 20
1.117202861353698
 30
0.0
 11
0.1819989679997032
 21
1.099767265253698
 31
0.0
  0
LINE
  5
460
330
1F
100
AcDbEntity
  8
0
  6
Continuous
 62
     7
370
     5
100
AcDbLine
 10
0.1819989679997032
 20
0.9972028551536982
 30
0.0
 11
0.1819989679997032
 21
0.9797672681536982
 31
0.0
  0
LINE
  5
461
330
1F
100
AcDbEntity
  8
0
  6
Continuous
 62
     7
370
     5
100
AcDbLine
 10
0.1819989679997032
 20
0.8772028763536981
 30
0.0
 11
0.1819989679997032
 21
0.8597672711536983
 31
0.0
  0
LINE
  5
462
330
1F
100
AcDbEntity
  8
0
  6
Continuous
 62
     7
370
     5
100
AcDbLine
 10
0.1819989679997032
 20
0.7572028792536982
 30
0.0
 11
0.1819989679997032
 21
0.739767274053698
 31
0.0
  0
LINE
  5
463
330
1F
100
AcDbEntity
  8
0
  6
Continuous
 62
     7
370
     5
100
AcDbLine
 10
0.1819989679997032
 20
0.637202845553698
 30
0.0
 11
0.1819989679997032
 21
0.6197672769536982
 31
0.0
  0
LINE
  5
464
330
1F
100
AcDbEntity
  8
0
  6
Continuous
 62
     7
370
     5
100
AcDbLine
 10
0.1819989679997032
 20
0.5172028484536981
 30
0.0
 11
0.1819989679997032
 21
0.4997672431536984
 31
0.0
  0
LINE
  5
465
330
1F
100
AcDbEntity
  8
0
  6
Continuous
 62
     7
370
     5
100
AcDbLine
 10
0.8027167740997032
 20
2.345485054653698
 30
0.0
 11
0.7852811779997029
 21
2.345485054653698
 31
0.0
  0
LINE
  5
466
330
1F
100
AcDbEntity
  8
0
  6
Continuous
 62
     7
370
     5
100
AcDbLine
 10
0.6827167723997039
 20
2.345485054653698
 30
0.0
 11
0.6652811762997035
 21
2.345485054653698
 31
0.0
  0
LINE
  5
467
330
1F
100
AcDbEntity
  8
0
  6
Continuous
 62
     7
370
     5
100
AcDbLine
 10
0.5627167706997045
 20
2.345485054653698
 30
0.0
 11
0.5452811746997042
 21
2.345485054653698
 31
0.0
  0
INSERT
  5
468
330
1F
100
AcDbEntity
  8
0
  6
Continuous
 62
     7
370
     5
100
AcDbBlockReference
  2
*X2
 10
-8.495788365600296
 20
-2.079536838946302
 30
0.0
  0
ENDSEC
  0
SECTION
  2
OBJECTS
  0
DICTIONARY
  5
C
330
0
100
AcDbDictionary
281
     1
  3
ACAD_COLOR
350
73
  3
ACAD_DETAILVIEWSTYLE
350
122
  3
ACAD_GROUP
350
D
  3
ACAD_IMAGE_VARS
350
DC
  3
ACAD_LAYOUT
350
1A
  3
ACAD_MATERIAL
350
72
  3
ACAD_MLEADERSTYLE
350
B5
  3
ACAD_MLINESTYLE
350
17
  3
ACAD_PLOTSETTINGS
350
19
  3
ACAD_PLOTSTYLENAME
350
E
  3
ACAD_SCALELIST
350
B6
  3
ACAD_SECTIONVIEWSTYLE
350
123
  3
ACAD_TABLESTYLE
350
86
  3
ACAD_VISUALSTYLE
350
99
  3
ACDB_RECOMPOSE_DATA
350
46B
  3
AcDbVariableDictionary
350
66
  3
APPDATA
350
E1
  0
SUN
  5
ED
330
94
100
AcDbSun
 90
        1
290
     0
 63
     7
421
 16777215
 40
1.0
291
     1
 91
  2455826
 92
 54000000
292
     0
 70
     2
 71
   256
280
     1
  0
DICTIONARY
  5
302
330
2
100
AcDbDictionary
280
     1
281
     1
  3
ACAD_LAYERSTATES
360
303
  0
DICTIONARY
  5
73
102
{ACAD_REACTORS
330
C
102
}
330
C
100
AcDbDictionary
281
     1
  0
DICTIONARY
  5
122
102
{ACAD_REACTORS
330
C
102
}
330
C
100
AcDbDictionary
281
     1
  0
DICTIONARY
  5
D
102
{ACAD_REACTORS
330
C
102
}
330
C
100
AcDbDictionary
281
     1
  0
RASTERVARIABLES
  5
DC
102
{ACAD_REACTORS
330
C
102
}
330
C
100
AcDbRasterVariables
 90
        0
 70
     1
 71
     1
 72
     5
  0
DICTIONARY
  5
1A
102
{ACAD_REACTORS
330
C
102
}
330
C
100
AcDbDictionary
281
     1
  3
Model
350
22
  3
Sheet1
350
59
  3
Sheet2
350
5E
  0
DICTIONARY
  5
72
102
{ACAD_REACTORS
330
C
102
}
330
C
100
AcDbDictionary
281
     1
  3
ByBlock
350
E2
  3
ByLayer
350
96
  3
Global
350
98
  0
DICTIONARY
  5
B5
102
{ACAD_REACTORS
330
C
102
}
330
C
100
AcDbDictionary
281
     1
  3
Standard
350
124
  0
DICTIONARY
  5
17
102
{ACAD_REACTORS
330
C
102
}
330
C
100
AcDbDictionary
281
     1
  3
Standard
350
18
  0
DICTIONARY
  5
19
102
{ACAD_REACTORS
330
C
102
}
330
C
100
AcDbDictionary
281
     1
  0
ACDBDICTIONARYWDFLT
  5
E
102
{ACAD_REACTORS
330
C
102
}
330
C
100
AcDbDictionary
281
     1
  3
Normal
350
F
100
AcDbDictionaryWithDefault
340
F
  0
DICTIONARY
  5
B6
102
{ACAD_REACTORS
330
C
102
}
330
C
100
AcDbDictionary
281
     1
  3
A0
350
B7
  3
A1
350
B8
  3
A2
350
B9
  3
A3
350
BA
  3
A4
350
BB
  3
A5
350
BC
  3
A6
350
BD
  3
A7
350
BE
  3
A8
350
BF
  3
A9
350
C0
  3
B0
350
C1
  3
B1
350
C2
  3
B2
350
C3
  3
B3
350
C4
  3
B4
350
C5
  3
B5
350
C6
  3
B6
350
C7
  3
B7
350
C8
  3
B8
350
C9
  3
B9
350
CA
  3
C0
350
CB
  3
C1
350
CC
  3
C2
350
CD
  3
C3
350
CE
  3
C4
350
CF
  3
C5
350
D0
  3
C6
350
D1
  3
C7
350
D2
  3
C8
350
D3
  3
C9
350
D4
  3
D0
350
D5
  3
D1
350
D6
  3
D2
350
D7
  0
DICTIONARY
  5
123
102
{ACAD_REACTORS
330
C
102
}
330
C
100
AcDbDictionary
281
     1
  0
DICTIONARY
  5
86
102
{ACAD_REACTORS
330
C
102
}
330
C
100
AcDbDictionary
281
     1
  3
Standard
350
87
  0
DICTIONARY
  5
99
102
{ACAD_REACTORS
330
C
102
}
330
C
100
AcDbDictionary
281
     1
  3
2dWireframe
350
9F
  3
3D Hidden
350
A1
  3
3dWireframe
350
A0
  3
Basic
350
9E
  3
Brighten
350
A5
  3
ColorChange
350
A9
  3
Conceptual
350
A2
  3
Dim
350
A4
  3
EdgeColorOff
350
E7
  3
Facepattern
350
A8
  3
Flat
350
9A
  3
FlatWithEdges
350
9B
  3
Gouraud
350
9C
  3
GouraudWithEdges
350
9D
  3
Hidden
350
E4
  3
JitterOff
350
E5
  3
Linepattern
350
A7
  3
OverhangOff
350
E6
  3
Realistic
350
A3
  3
Shaded
350
EC
  3
Shaded with edges
350
EB
  3
Shades of Gray
350
E8
  3
Sketchy
350
E9
  3
Thicken
350
A6
  3
Wireframe
350
E3
  3
X-Ray
350
EA
  0
XRECORD
  5
46B
102
{ACAD_REACTORS
330
C
102
}
330
C
100
AcDbXrecord
280
     1
 90
        1
330
87
  0
DICTIONARY
  5
66
102
{ACAD_REACTORS
330
C
102
}
330
C
100
AcDbDictionary
281
     1
  3
CANNOSCALE
350
D8
  3
CMLEADERSTYLE
350
128
  3
CTABLESTYLE
350
89
  3
DIMASSOC
350
67
  3
HIDETEXT
350
6B
  3
LIGHTSINBLOCKS
350
DF
  3
XCLIPFRAME
350
E0
  0
DICTIONARY
  5
E1
102
{ACAD_REACTORS
330
C
102
}
330
C
100
AcDbDictionary
281
     1
  0
DICTIONARY
  5
303
102
{ACAD_REACTORS
330
302
102
}
330
302
100
AcDbDictionary
281
     1
  0
LAYOUT
  5
22
102
{ACAD_REACTORS
330
1A
102
}
330
1A
100
AcDbPlotSettings
  1

  2
none_device
  4
ANSI_A_(8.50_x_11.00_Inches)
  6

 40
6.35
 41
19.05
 42
6.35
 43
19.05
 44
215.9
 45
279.4
 46
11.11250000000003
 47
0.0000000000000142
 48
0.0
 49
0.0
140
0.0
141
0.0
142
1.0
143
1.263157894736842
 70
 11444
 72
     0
 73
     1
 74
     1
  7
monochrome.ctb
 75
     0
 76
     0
 77
     2
 78
   300
147
0.7916666666666665
148
-702.8076765758875
149
-496.2830551296954
100
AcDbLayout
  1
Model
 70
     1
 71
     0
 10
0.0
 20
0.0
 11
12.0
 21
9.0
 12
0.0
 22
0.0
 32
0.0
 14
0.1739989743605932
 24
0.1034850649536985
 34
0.0
 15
1.173998974399705
 25
2.35348506497996
 35
0.0
146
0.0
 13
0.0
 23
0.0
 33
0.0
 16
1.0
 26
0.0
 36
0.0
 17
0.0
 27
1.0
 37
0.0
 76
     0
330
1F
331
94
  0
LAYOUT
  5
59
102
{ACAD_REACTORS
330
1A
102
}
330
1A
100
AcDbPlotSettings
  1

  2
None
  4

  6

 40
0.0
 41
0.0
 42
0.0
 43
0.0
 44
0.0
 45
0.0
 46
0.0
 47
0.0
 48
0.0
 49
0.0
140
0.0
141
0.0
142
1.0
143
1.0
 70
   688
 72
     0
 73
     0
 74
     5
  7

 75
    16
 76
     0
 77
     2
 78
   300
147
1.0
148
0.0
149
0.0
100
AcDbLayout
  1
Sheet1
 70
     1
 71
     1
 10
0.0
 20
0.0
 11
12.0
 21
9.0
 12
0.0
 22
0.0
 32
0.0
 14
0.0
 24
0.0
 34
0.0
 15
0.0
 25
0.0
 35
0.0
146
0.0
 13
0.0
 23
0.0
 33
0.0
 16
1.0
 26
0.0
 36
0.0
 17
0.0
 27
1.0
 37
0.0
 76
     0
330
58
  0
LAYOUT
  5
5E
102
{ACAD_REACTORS
330
1A
102
}
330
1A
100
AcDbPlotSettings
  1

  2
None
  4

  6

 40
0.0
 41
0.0
 42
0.0
 43
0.0
 44
0.0
 45
0.0
 46
0.0
 47
0.0
 48
0.0
 49
0.0
140
0.0
141
0.0
142
1.0
143
1.0
 70
   688
 72
     0
 73
     0
 74
     5
  7

 75
    16
 76
     0
 77
     2
 78
   300
147
1.0
148
0.0
149
0.0
100
AcDbLayout
  1
Sheet2
 70
     1
 71
     2
 10
0.0
 20
0.0
 11
12.0
 21
9.0
 12
0.0
 22
0.0
 32
0.0
 14
0.0
 24
0.0
 34
0.0
 15
0.0
 25
0.0
 35
0.0
146
0.0
 13
0.0
 23
0.0
 33
0.0
 16
1.0
 26
0.0
 36
0.0
 17
0.0
 27
1.0
 37
0.0
 76
     0
330
5D
  0
MATERIAL
  5
E2
102
{ACAD_REACTORS
330
72
102
}
330
72
100
AcDbMaterial
  1
ByBlock
 72
     1
 94
      127
  0
MATERIAL
  5
96
102
{ACAD_REACTORS
330
72
102
}
330
72
100
AcDbMaterial
  1
ByLayer
 72
     1
 94
       63
  0
MATERIAL
  5
98
102
{ACAD_REACTORS
330
72
102
}
330
72
100
AcDbMaterial
  1
Global
 72
     1
 94
       63
  0
MLEADERSTYLE
  5
124
102
{ACAD_REACTORS
330
B5
102
}
330
B5
100
AcDbMLeaderStyle
179
     2
170
     2
171
     1
172
     0
 90
        2
 40
0.0
 41
0.0
173
     1
 91
-1056964608
340
14
 92
       -2
290
     1
 42
0.09
291
     1
 43
0.36
  3
Standard
341
0
 44
0.18
300

342
11
174
     1
178
     6
175
     1
176
     0
 93
-1056964608
 45
0.18
292
     0
297
     0
 46
0.18
343
0
 94
-1056964608
 47
1.0
 49
1.0
140
1.0
293
     1
141
0.0
294
     1
177
     0
142
1.0
295
     0
296
     0
143
0.125
271
     0
272
     9
273
     9
  0
MLINESTYLE
  5
18
102
{ACAD_REACTORS
330
17
102
}
330
17
100
AcDbMlineStyle
  2
STANDARD
 70
     0
  3

 62
   256
 51
90.0
 52
90.0
 71
     2
 49
0.5
 62
   256
  6
BYLAYER
 49
-0.5
 62
   256
  6
BYLAYER
  0
ACDBPLACEHOLDER
  5
F
102
{ACAD_REACTORS
330
E
102
}
330
E
  0
SCALE
  5
B7
102
{ACAD_REACTORS
330
B6
102
}
330
B6
100
AcDbScale
 70
     0
300
1:1
140
1.0
141
1.0
290
     1
  0
SCALE
  5
B8
102
{ACAD_REACTORS
330
B6
102
}
330
B6
100
AcDbScale
 70
     0
300
1:2
140
1.0
141
2.0
290
     0
  0
SCALE
  5
B9
102
{ACAD_REACTORS
330
B6
102
}
330
B6
100
AcDbScale
 70
     0
300
1:4
140
1.0
141
4.0
290
     0
  0
SCALE
  5
BA
102
{ACAD_REACTORS
330
B6
102
}
330
B6
100
AcDbScale
 70
     0
300
1:5
140
1.0
141
5.0
290
     0
  0
SCALE
  5
BB
102
{ACAD_REACTORS
330
B6
102
}
330
B6
100
AcDbScale
 70
     0
300
1:8
140
1.0
141
8.0
290
     0
  0
SCALE
  5
BC
102
{ACAD_REACTORS
330
B6
102
}
330
B6
100
AcDbScale
 70
     0
300
1:10
140
1.0
141
10.0
290
     0
  0
SCALE
  5
BD
102
{ACAD_REACTORS
330
B6
102
}
330
B6
100
AcDbScale
 70
     0
300
1:16
140
1.0
141
16.0
290
     0
  0
SCALE
  5
BE
102
{ACAD_REACTORS
330
B6
102
}
330
B6
100
AcDbScale
 70
     0
300
1:20
140
1.0
141
20.0
290
     0
  0
SCALE
  5
BF
102
{ACAD_REACTORS
330
B6
102
}
330
B6
100
AcDbScale
 70
     0
300
1:30
140
1.0
141
30.0
290
     0
  0
SCALE
  5
C0
102
{ACAD_REACTORS
330
B6
102
}
330
B6
100
AcDbScale
 70
     0
300
1:40
140
1.0
141
40.0
290
     0
  0
SCALE
  5
C1
102
{ACAD_REACTORS
330
B6
102
}
330
B6
100
AcDbScale
 70
     0
300
1:50
140
1.0
141
50.0
290
     0
  0
SCALE
  5
C2
102
{ACAD_REACTORS
330
B6
102
}
330
B6
100
AcDbScale
 70
     0
300
1:100
140
1.0
141
100.0
290
     0
  0
SCALE
  5
C3
102
{ACAD_REACTORS
330
B6
102
}
330
B6
100
AcDbScale
 70
     0
300
2:1
140
2.0
141
1.0
290
     0
  0
SCALE
  5
C4
102
{ACAD_REACTORS
330
B6
102
}
330
B6
100
AcDbScale
 70
     0
300
4:1
140
4.0
141
1.0
290
     0
  0
SCALE
  5
C5
102
{ACAD_REACTORS
330
B6
102
}
330
B6
100
AcDbScale
 70
     0
300
8:1
140
8.0
141
1.0
290
     0
  0
SCALE
  5
C6
102
{ACAD_REACTORS
330
B6
102
}
330
B6
100
AcDbScale
 70
     0
300
10:1
140
10.0
141
1.0
290
     0
  0
SCALE
  5
C7
102
{ACAD_REACTORS
330
B6
102
}
330
B6
100
AcDbScale
 70
     0
300
100:1
140
100.0
141
1.0
290
     0
  0
SCALE
  5
C8
102
{ACAD_REACTORS
330
B6
102
}
330
B6
100
AcDbScale
 70
     0
300
1/128" = 1'-0"
140
0.0078125
141
12.0
290
     0
  0
SCALE
  5
C9
102
{ACAD_REACTORS
330
B6
102
}
330
B6
100
AcDbScale
 70
     0
300
1/64" = 1'-0"
140
0.015625
141
12.0
290
     0
  0
SCALE
  5
CA
102
{ACAD_REACTORS
330
B6
102
}
330
B6
100
AcDbScale
 70
     0
300
1/32" = 1'-0"
140
0.03125
141
12.0
290
     0
  0
SCALE
  5
CB
102
{ACAD_REACTORS
330
B6
102
}
330
B6
100
AcDbScale
 70
     0
300
1/16" = 1'-0"
140
0.0625
141
12.0
290
     0
  0
SCALE
  5
CC
102
{ACAD_REACTORS
330
B6
102
}
330
B6
100
AcDbScale
 70
     0
300
3/32" = 1'-0"
140
0.09375
141
12.0
290
     0
  0
SCALE
  5
CD
102
{ACAD_REACTORS
330
B6
102
}
330
B6
100
AcDbScale
 70
     0
300
1/8" = 1'-0"
140
0.125
141
12.0
290
     0
  0
SCALE
  5
CE
102
{ACAD_REACTORS
330
B6
102
}
330
B6
100
AcDbScale
 70
     0
300
3/16" = 1'-0"
140
0.1875
141
12.0
290
     0
  0
SCALE
  5
CF
102
{ACAD_REACTORS
330
B6
102
}
330
B6
100
AcDbScale
 70
     0
300
1/4" = 1'-0"
140
0.25
141
12.0
290
     0
  0
SCALE
  5
D0
102
{ACAD_REACTORS
330
B6
102
}
330
B6
100
AcDbScale
 70
     0
300
3/8" = 1'-0"
140
0.375
141
12.0
290
     0
  0
SCALE
  5
D1
102
{ACAD_REACTORS
330
B6
102
}
330
B6
100
AcDbScale
 70
     0
300
1/2" = 1'-0"
140
0.5
141
12.0
290
     0
  0
SCALE
  5
D2
102
{ACAD_REACTORS
330
B6
102
}
330
B6
100
AcDbScale
 70
     0
300
3/4" = 1'-0"
140
0.75
141
12.0
290
     0
  0
SCALE
  5
D3
102
{ACAD_REACTORS
330
B6
102
}
330
B6
100
AcDbScale
 70
     0
300
1" = 1'-0"
140
1.0
141
12.0
290
     0
  0
SCALE
  5
D4
102
{ACAD_REACTORS
330
B6
102
}
330
B6
100
AcDbScale
 70
     0
300
1-1/2" = 1'-0"
140
1.5
141
12.0
290
     0
  0
SCALE
  5
D5
102
{ACAD_REACTORS
330
B6
102
}
330
B6
100
AcDbScale
 70
     0
300
3" = 1'-0"
140
3.0
141
12.0
290
     0
  0
SCALE
  5
D6
102
{ACAD_REACTORS
330
B6
102
}
330
B6
100
AcDbScale
 70
     0
300
6" = 1'-0"
140
6.0
141
12.0
290
     0
  0
SCALE
  5
D7
102
{ACAD_REACTORS
330
B6
102
}
330
B6
100
AcDbScale
 70
     0
300
1'-0" = 1'-0"
140
12.0
141
12.0
290
     0
  0
TABLESTYLE
  5
87
102
{ACAD_REACTORS
330
86
102
}
102
{ACAD_XDICTIONARY
360
469
102
}
330
86
100
AcDbTableStyle
  3
Standard
 70
     0
 71
     0
 40
0.06
 41
0.06
280
     0
281
     0
  7
Standard
140
0.18
170
     2
 62
     0
 63
   257
283
     0
 90
      512
 91
        0
  1

274
    -2
284
     1
 64
     0
275
    -2
285
     1
 65
     0
276
    -2
286
     1
 66
     0
277
    -2
287
     1
 67
     0
278
    -2
288
     1
 68
     0
279
    -2
289
     1
 69
     0
  7
Standard
140
0.25
170
     5
 62
     0
 63
   257
283
     0
 90
      512
 91
        0
  1

274
    -2
284
     1
 64
     0
275
    -2
285
     1
 65
     0
276
    -2
286
     1
 66
     0
277
    -2
287
     1
 67
     0
278
    -2
288
     1
 68
     0
279
    -2
289
     1
 69
     0
  7
Standard
140
0.18
170
     5
 62
     0
 63
   257
283
     0
 90
      512
 91
        0
  1

274
    -2
284
     1
 64
     0
275
    -2
285
     1
 65
     0
276
    -2
286
     1
 66
     0
277
    -2
287
     1
 67
     0
278
    -2
288
     1
 68
     0
279
    -2
289
     1
 69
     0
  0
VISUALSTYLE
  5
9F
102
{ACAD_REACTORS
330
99
102
}
330
99
100
AcDbVisualStyle
  2
2dWireframe
 70
     4
177
     2
291
     0
 71
     0
176
     1
 72
     2
176
     1
 73
     1
176
     1
 90
        0
176
     1
 40
-0.6
176
     1
 41
-30.0
176
     1
 62
     5
 63
     7
421
 16777215
176
     1
 74
     1
176
     1
 91
        4
176
     1
 64
     7
176
     1
 65
   257
176
     1
 75
     1
176
     1
175
     1
176
     1
 42
1.0
176
     1
 92
        0
176
     1
 66
   257
176
     1
 43
1.0
176
     1
 76
     1
176
     1
 77
     6
176
     1
 78
     2
176
     1
 67
     7
176
     1
 79
     5
176
     1
170
     0
176
     1
171
     0
176
     1
290
     0
176
     1
 93
        1
176
     1
 44
0.0
176
     1
173
     0
176
     1
  0
VISUALSTYLE
  5
A1
102
{ACAD_REACTORS
330
99
102
}
330
99
100
AcDbVisualStyle
  2
3D Hidden
 70
     6
177
     2
291
     0
 71
     1
176
     1
 72
     2
176
     1
 73
     2
176
     1
 90
        0
176
     1
 40
-0.6
176
     1
 41
-30.0
176
     1
 62
     5
 63
     7
421
 16777215
176
     1
 74
     2
176
     1
 91
        2
176
     1
 64
     7
176
     1
 65
   257
176
     1
 75
     2
176
     1
175
     1
176
     1
 42
40.0
176
     1
 92
        0
176
     1
 66
   257
176
     1
 43
1.0
176
     1
 76
     1
176
     1
 77
     6
176
     1
 78
     2
176
     1
 67
     7
176
     1
 79
     3
176
     1
170
     0
176
     1
171
     0
176
     1
290
     0
176
     1
 93
        1
176
     1
 44
0.0
176
     1
173
     0
176
     1
  0
VISUALSTYLE
  5
A0
102
{ACAD_REACTORS
330
99
102
}
330
99
100
AcDbVisualStyle
  2
3dWireframe
 70
     5
177
     2
291
     0
 71
     0
176
     1
 72
     2
176
     1
 73
     1
176
     1
 90
        0
176
     1
 40
-0.6
176
     1
 41
-30.0
176
     1
 62
     5
 63
     7
421
 16777215
176
     1
 74
     1
176
     1
 91
        4
176
     1
 64
     7
176
     1
 65
   257
176
     1
 75
     1
176
     1
175
     1
176
     1
 42
1.0
176
     1
 92
        0
176
     1
 66
   257
176
     1
 43
1.0
176
     1
 76
     1
176
     1
 77
     6
176
     1
 78
     2
176
     1
 67
     7
176
     1
 79
     5
176
     1
170
     0
176
     1
171
     0
176
     1
290
     0
176
     1
 93
        1
176
     1
 44
0.0
176
     1
173
     0
176
     1
  0
VISUALSTYLE
  5
9E
102
{ACAD_REACTORS
330
99
102
}
330
99
100
AcDbVisualStyle
  2
Basic
 70
     7
177
     2
291
     1
 71
     1
176
     1
 72
     0
176
     1
 73
     1
176
     1
 90
        0
176
     1
 40
-0.6
176
     1
 41
-30.0
176
     1
 62
     5
 63
     7
421
 16777215
176
     1
 74
     0
176
     1
 91
        4
176
     1
 64
     7
176
     1
 65
   257
176
     1
 75
     1
176
     1
175
     1
176
     1
 42
1.0
176
     1
 92
        8
176
     1
 66
     7
176
     1
 43
1.0
176
     1
 76
     1
176
     1
 77
     6
176
     1
 78
     2
176
     1
 67
     7
176
     1
 79
     5
176
     1
170
     0
176
     1
171
     0
176
     1
290
     0
176
     1
 93
        1
176
     1
 44
0.0
176
     1
173
     0
176
     1
  0
VISUALSTYLE
  5
A5
102
{ACAD_REACTORS
330
99
102
}
330
99
100
AcDbVisualStyle
  2
Brighten
 70
    12
177
     2
291
     1
 71
     2
176
     1
 72
     2
176
     1
 73
     1
176
     1
 90
        0
176
     1
 40
-0.6
176
     1
 41
-30.0
176
     1
 62
     5
 63
     7
421
 16777215
176
     1
 74
     1
176
     1
 91
        4
176
     1
 64
     7
176
     1
 65
   257
176
     1
 75
     1
176
     1
175
     1
176
     1
 42
1.0
176
     1
 92
        8
176
     1
 66
     7
176
     1
 43
1.0
176
     1
 76
     1
176
     1
 77
     6
176
     1
 78
     2
176
     1
 67
     7
176
     1
 79
     5
176
     1
170
     0
176
     1
171
     0
176
     1
290
     0
176
     1
 93
        1
176
     1
 44
50.0
176
     1
173
     0
176
     1
  0
VISUALSTYLE
  5
A9
102
{ACAD_REACTORS
330
99
102
}
330
99
100
AcDbVisualStyle
  2
ColorChange
 70
    16
177
     2
291
     1
 71
     2
176
     1
 72
     2
176
     1
 73
     3
176
     1
 90
        0
176
     1
 40
-0.6
176
     1
 41
-30.0
176
     1
 62
     5
 63
     8
421
  8421504
176
     1
 74
     1
176
     1
 91
        4
176
     1
 64
     7
176
     1
 65
   257
176
     1
 75
     1
176
     1
175
     1
176
     1
 42
1.0
176
     1
 92
        8
176
     1
 66
     8
424
  8421504
176
     1
 43
1.0
176
     1
 76
     1
176
     1
 77
     6
176
     1
 78
     2
176
     1
 67
     7
176
     1
 79
     5
176
     1
170
     0
176
     1
171
     0
176
     1
290
     0
176
     1
 93
        1
176
     1
 44
0.0
176
     1
173
     0
176
     1
  0
VISUALSTYLE
  5
A2
102
{ACAD_REACTORS
330
99
102
}
330
99
100
AcDbVisualStyle
  2
Conceptual
 70
     9
177
     2
291
     0
 71
     3
176
     1
 72
     2
176
     1
 73
     1
176
     1
 90
        0
176
     1
 40
-0.6
176
     1
 41
-30.0
176
     1
 62
     5
 63
     7
421
 16777215
176
     1
 74
     2
176
     1
 91
        2
176
     1
 64
     7
176
     1
 65
   257
176
     1
 75
     1
176
     1
175
     1
176
     1
 42
40.0
176
     1
 92
        8
176
     1
 66
     7
176
     1
 43
1.0
176
     1
 76
     1
176
     1
 77
     6
176
     1
 78
     2
176
     1
 67
     7
176
     1
 79
     3
176
     1
170
     0
176
     1
171
     0
176
     1
290
     0
176
     1
 93
        1
176
     1
 44
0.0
176
     1
173
     0
176
     1
  0
VISUALSTYLE
  5
A4
102
{ACAD_REACTORS
330
99
102
}
330
99
100
AcDbVisualStyle
  2
Dim
 70
    11
177
     2
291
     1
 71
     2
176
     1
 72
     2
176
     1
 73
     1
176
     1
 90
        0
176
     1
 40
-0.6
176
     1
 41
-30.0
176
     1
 62
     5
 63
     7
421
 16777215
176
     1
 74
     1
176
     1
 91
        4
176
     1
 64
     7
176
     1
 65
   257
176
     1
 75
     1
176
     1
175
     1
176
     1
 42
1.0
176
     1
 92
        8
176
     1
 66
     7
176
     1
 43
1.0
176
     1
 76
     1
176
     1
 77
     6
176
     1
 78
     2
176
     1
 67
     7
176
     1
 79
     5
176
     1
170
     0
176
     1
171
     0
176
     1
290
     0
176
     1
 93
        1
176
     1
 44
-50.0
176
     1
173
     0
176
     1
  0
VISUALSTYLE
  5
E7
102
{ACAD_REACTORS
330
99
102
}
330
99
100
AcDbVisualStyle
  2
EdgeColorOff
 70
    22
177
     2
291
     1
 71
     2
176
     0
 72
     2
176
     0
 73
     0
176
     0
 90
        0
176
     0
 40
0.6
176
     0
 41
30.0
176
     0
 62
     5
 63
     7
421
 16777215
176
     0
 74
     1
176
     0
 91
        4
176
     0
 64
     7
176
     0
 65
   257
176
     0
 75
     1
176
     0
175
     1
176
     0
 42
1.0
176
     0
 92
        8
176
     2
 66
     7
176
     0
 43
1.0
176
     0
 76
     1
176
     0
 77
     6
176
     0
 78
     2
176
     0
 67
     7
176
     0
 79
     5
176
     0
170
     0
176
     0
171
     0
176
     0
290
     0
176
     0
 93
        1
176
     0
 44
0.0
176
     0
173
     0
176
     0
  0
VISUALSTYLE
  5
A8
102
{ACAD_REACTORS
330
99
102
}
330
99
100
AcDbVisualStyle
  2
Facepattern
 70
    15
177
     2
291
     1
 71
     2
176
     1
 72
     2
176
     1
 73
     1
176
     1
 90
        0
176
     1
 40
-0.6
176
     1
 41
-30.0
176
     1
 62
     5
 63
     7
421
 16777215
176
     1
 74
     1
176
     1
 91
        4
176
     1
 64
     7
176
     1
 65
   257
176
     1
 75
     1
176
     1
175
     1
176
     1
 42
1.0
176
     1
 92
        8
176
     1
 66
     7
176
     1
 43
1.0
176
     1
 76
     1
176
     1
 77
     6
176
     1
 78
     2
176
     1
 67
     7
176
     1
 79
     5
176
     1
170
     0
176
     1
171
     0
176
     1
290
     0
176
     1
 93
        1
176
     1
 44
0.0
176
     1
173
     0
176
     1
  0
VISUALSTYLE
  5
9A
102
{ACAD_REACTORS
330
99
102
}
330
99
100
AcDbVisualStyle
  2
Flat
 70
     0
177
     2
291
     1
 71
     2
176
     1
 72
     1
176
     1
 73
     1
176
     1
 90
        2
176
     1
 40
-0.6
176
     1
 41
30.0
176
     1
 62
     5
 63
     7
421
 16777215
176
     1
 74
     0
176
     1
 91
        4
176
     1
 64
     7
176
     1
 65
   257
176
     1
 75
     1
176
     1
175
     1
176
     1
 42
1.0
176
     1
 92
        8
176
     1
 66
     7
176
     1
 43
1.0
176
     1
 76
     1
176
     1
 77
     6
176
     1
 78
     2
176
     1
 67
     7
176
     1
 79
     5
176
     1
170
     0
176
     1
171
     0
176
     1
290
     0
176
     1
 93
        1
176
     1
 44
0.0
176
     1
173
     0
176
     1
  0
VISUALSTYLE
  5
9B
102
{ACAD_REACTORS
330
99
102
}
330
99
100
AcDbVisualStyle
  2
FlatWithEdges
 70
     1
177
     2
291
     1
 71
     2
176
     1
 72
     1
176
     1
 73
     1
176
     1
 90
        2
176
     1
 40
-0.6
176
     1
 41
30.0
176
     1
 62
     5
 63
     7
421
 16777215
176
     1
 74
     1
176
     1
 91
        4
176
     1
 64
     7
176
     1
 65
   257
176
     1
 75
     1
176
     1
175
     1
176
     1
 42
1.0
176
     1
 92
        0
176
     1
 66
   257
176
     1
 43
1.0
176
     1
 76
     1
176
     1
 77
     6
176
     1
 78
     2
176
     1
 67
     7
176
     1
 79
     5
176
     1
170
     0
176
     1
171
     0
176
     1
290
     0
176
     1
 93
        1
176
     1
 44
0.0
176
     1
173
     0
176
     1
  0
VISUALSTYLE
  5
9C
102
{ACAD_REACTORS
330
99
102
}
330
99
100
AcDbVisualStyle
  2
Gouraud
 70
     2
177
     2
291
     1
 71
     2
176
     1
 72
     2
176
     1
 73
     1
176
     1
 90
        2
176
     1
 40
-0.6
176
     1
 41
30.0
176
     1
 62
     5
 63
     7
421
 16777215
176
     1
 74
     0
176
     1
 91
        4
176
     1
 64
     7
176
     1
 65
   257
176
     1
 75
     1
176
     1
175
     1
176
     1
 42
1.0
176
     1
 92
        0
176
     1
 66
     7
176
     1
 43
1.0
176
     1
 76
     1
176
     1
 77
     6
176
     1
 78
     2
176
     1
 67
     7
176
     1
 79
     5
176
     1
170
     0
176
     1
171
     0
176
     1
290
     0
176
     1
 93
        1
176
     1
 44
0.0
176
     1
173
     0
176
     1
  0
VISUALSTYLE
  5
9D
102
{ACAD_REACTORS
330
99
102
}
330
99
100
AcDbVisualStyle
  2
GouraudWithEdges
 70
     3
177
     2
291
     1
 71
     2
176
     1
 72
     2
176
     1
 73
     1
176
     1
 90
        2
176
     1
 40
-0.6
176
     1
 41
30.0
176
     1
 62
     5
 63
     7
421
 16777215
176
     1
 74
     1
176
     1
 91
        4
176
     1
 64
     7
176
     1
 65
   257
176
     1
 75
     1
176
     1
175
     1
176
     1
 42
1.0
176
     1
 92
        0
176
     1
 66
   257
176
     1
 43
1.0
176
     1
 76
     1
176
     1
 77
     6
176
     1
 78
     2
176
     1
 67
     7
176
     1
 79
     5
176
     1
170
     0
176
     1
171
     0
176
     1
290
     0
176
     1
 93
        1
176
     1
 44
0.0
176
     1
173
     0
176
     1
  0
VISUALSTYLE
  5
E4
102
{ACAD_REACTORS
330
99
102
}
330
99
100
AcDbVisualStyle
  2
Hidden
 70
     6
177
     2
291
     0
 71
     1
176
     1
 72
     2
176
     1
 73
     2
176
     1
 90
        0
176
     1
 40
0.6
176
     1
 41
30.0
176
     1
 62
     5
 63
     7
421
 16777215
176
     1
 74
     2
176
     1
 91
        2
176
     1
 64
     7
176
     1
 65
   257
176
     1
 75
     2
176
     1
175
     1
176
     1
 42
40.0
176
     1
 92
        0
176
     1
 66
   257
176
     1
 43
1.0
176
     1
 76
     1
176
     1
 77
     6
176
     1
 78
     2
176
     1
 67
     7
176
     1
 79
     3
176
     1
170
     0
176
     1
171
     0
176
     1
290
     0
176
     1
 93
        1
176
     1
 44
0.0
176
     1
173
     0
176
     1
  0
VISUALSTYLE
  5
E5
102
{ACAD_REACTORS
330
99
102
}
330
99
100
AcDbVisualStyle
  2
JitterOff
 70
    20
177
     2
291
     1
 71
     2
176
     0
 72
     2
176
     0
 73
     0
176
     0
 90
        0
176
     0
 40
0.6
176
     0
 41
30.0
176
     0
 62
     5
 63
     7
421
 16777215
176
     0
 74
     1
176
     0
 91
        4
176
     0
 64
     7
176
     0
 65
   257
176
     0
 75
     1
176
     0
175
     1
176
     0
 42
1.0
176
     0
 92
       10
176
     2
 66
     7
176
     0
 43
1.0
176
     0
 76
     1
176
     0
 77
     6
176
     0
 78
     2
176
     0
 67
     7
176
     0
 79
     5
176
     0
170
     0
176
     0
171
     0
176
     0
290
     0
176
     0
 93
        1
176
     0
 44
0.0
176
     0
173
     0
176
     0
  0
VISUALSTYLE
  5
A7
102
{ACAD_REACTORS
330
99
102
}
330
99
100
AcDbVisualStyle
  2
Linepattern
 70
    14
177
     2
291
     1
 71
     2
176
     1
 72
     2
176
     1
 73
     1
176
     1
 90
        0
176
     1
 40
-0.6
176
     1
 41
-30.0
176
     1
 62
     5
 63
     7
421
 16777215
176
     1
 74
     1
176
     1
 91
        4
176
     1
 64
     7
176
     1
 65
   257
176
     1
 75
     7
176
     1
175
     7
176
     1
 42
1.0
176
     1
 92
        8
176
     1
 66
     7
176
     1
 43
1.0
176
     1
 76
     1
176
     1
 77
     6
176
     1
 78
     2
176
     1
 67
     7
176
     1
 79
     5
176
     1
170
     0
176
     1
171
     0
176
     1
290
     0
176
     1
 93
        1
176
     1
 44
0.0
176
     1
173
     0
176
     1
  0
VISUALSTYLE
  5
E6
102
{ACAD_REACTORS
330
99
102
}
330
99
100
AcDbVisualStyle
  2
OverhangOff
 70
    21
177
     2
291
     1
 71
     2
176
     0
 72
     2
176
     0
 73
     0
176
     0
 90
        0
176
     0
 40
0.6
176
     0
 41
30.0
176
     0
 62
     5
 63
     7
421
 16777215
176
     0
 74
     1
176
     0
 91
        4
176
     0
 64
     7
176
     0
 65
   257
176
     0
 75
     1
176
     0
175
     1
176
     0
 42
1.0
176
     0
 92
        9
176
     2
 66
     7
176
     0
 43
1.0
176
     0
 76
     1
176
     0
 77
     6
176
     0
 78
     2
176
     0
 67
     7
176
     0
 79
     5
176
     0
170
     0
176
     0
171
     0
176
     0
290
     0
176
     0
 93
        1
176
     0
 44
0.0
176
     0
173
     0
176
     0
  0
VISUALSTYLE
  5
A3
102
{ACAD_REACTORS
330
99
102
}
330
99
100
AcDbVisualStyle
  2
Realistic
 70
     8
177
     2
291
     0
 71
     2
176
     1
 72
     2
176
     1
 73
     1
176
     1
 90
        0
176
     1
 40
-0.6
176
     1
 41
-30.0
176
     1
 62
     5
 63
     7
421
 16777215
176
     1
 74
     1
176
     1
 91
        0
176
     1
 64
     7
176
     1
 65
   257
176
     1
 75
     1
176
     1
175
     1
176
     1
 42
1.0
176
     1
 92
        8
176
     1
 66
     8
424
  7895160
176
     1
 43
1.0
176
     1
 76
     1
176
     1
 77
     6
176
     1
 78
     2
176
     1
 67
     7
176
     1
 79
     5
176
     1
170
     0
176
     1
171
     0
176
     1
290
     0
176
     1
 93
       13
176
     1
 44
0.0
176
     1
173
     0
176
     1
  0
VISUALSTYLE
  5
EC
102
{ACAD_REACTORS
330
99
102
}
330
99
100
AcDbVisualStyle
  2
Shaded
 70
    27
177
     2
291
     0
 71
     2
176
     1
 72
     2
176
     1
 73
     1
176
     1
 90
        2
176
     1
 40
0.6
176
     1
 41
30.0
176
     1
 62
     5
 63
     7
421
 16777215
176
     1
 74
     0
176
     1
 91
        4
176
     1
 64
     7
176
     1
 65
   257
176
     1
 75
     1
176
     1
175
     1
176
     1
 42
1.0
176
     1
 92
        8
176
     1
 66
   257
176
     1
 43
1.0
176
     1
 76
     1
176
     1
 77
     6
176
     1
 78
     2
176
     1
 67
     8
425
  7895160
176
     1
 79
     3
176
     1
170
     0
176
     1
171
     0
176
     1
290
     0
176
     1
 93
        5
176
     1
 44
0.0
176
     1
173
     0
176
     1
  0
VISUALSTYLE
  5
EB
102
{ACAD_REACTORS
330
99
102
}
330
99
100
AcDbVisualStyle
  2
Shaded with edges
 70
    26
177
     2
291
     0
 71
     2
176
     1
 72
     2
176
     1
 73
     1
176
     1
 90
        2
176
     1
 40
0.6
176
     1
 41
30.0
176
     1
 62
     5
 63
     7
421
 16777215
176
     1
 74
     1
176
     1
 91
       10
176
     1
 64
     7
176
     1
 65
   257
176
     1
 75
     2
176
     1
175
     1
176
     1
 42
1.0
176
     1
 92
        8
176
     1
 66
   257
176
     1
 43
1.0
176
     1
 76
     1
176
     1
 77
     6
176
     1
 78
     2
176
     1
 67
     7
176
     1
 79
     3
176
     1
170
     0
176
     1
171
     0
176
     1
290
     0
176
     1
 93
        5
176
     1
 44
0.0
176
     1
173
     0
176
     1
  0
VISUALSTYLE
  5
E8
102
{ACAD_REACTORS
330
99
102
}
330
99
100
AcDbVisualStyle
  2
Shades of Gray
 70
    23
177
     2
291
     0
 71
     2
176
     1
 72
     2
176
     1
 73
     3
176
     1
 90
        0
176
     1
 40
0.6
176
     1
 41
30.0
176
     1
 62
     5
 63
     7
421
 16777215
176
     1
 74
     2
176
     1
 91
        2
176
     1
 64
     7
176
     1
 65
     7
176
     1
 75
     1
176
     1
175
     1
176
     1
 42
40.0
176
     1
 92
        8
176
     1
 66
     7
176
     1
 43
1.0
176
     1
 76
     1
176
     1
 77
     6
176
     1
 78
     2
176
     1
 67
     7
176
     1
 79
     3
176
     1
170
     0
176
     1
171
     0
176
     1
290
     0
176
     1
 93
        1
176
     1
 44
0.0
176
     1
173
     0
176
     1
  0
VISUALSTYLE
  5
E9
102
{ACAD_REACTORS
330
99
102
}
330
99
100
AcDbVisualStyle
  2
Sketchy
 70
    24
177
     2
291
     0
 71
     1
176
     1
 72
     2
176
     1
 73
     2
176
     1
 90
        0
176
     1
 40
0.6
176
     1
 41
30.0
176
     1
 62
     5
 63
     7
421
 16777215
176
     1
 74
     2
176
     1
 91
        2
176
     1
 64
     7
176
     1
 65
     7
176
     1
 75
     1
176
     1
175
     1
176
     1
 42
40.0
176
     1
 92
       11
176
     1
 66
     7
176
     1
 43
1.0
176
     1
 76
     1
176
     1
 77
     6
176
     1
 78
     2
176
     1
 67
     7
176
     1
 79
     6
176
     1
170
     0
176
     1
171
     0
176
     1
290
     0
176
     1
 93
        1
176
     1
 44
0.0
176
     1
173
     0
176
     1
  0
VISUALSTYLE
  5
A6
102
{ACAD_REACTORS
330
99
102
}
330
99
100
AcDbVisualStyle
  2
Thicken
 70
    13
177
     2
291
     1
 71
     2
176
     1
 72
     2
176
     1
 73
     1
176
     1
 90
        0
176
     1
 40
-0.6
176
     1
 41
-30.0
176
     1
 62
     5
 63
     7
421
 16777215
176
     1
 74
     1
176
     1
 91
        4
176
     1
 64
     7
176
     1
 65
   257
176
     1
 75
     1
176
     1
175
     1
176
     1
 42
1.0
176
     1
 92
       12
176
     1
 66
     7
176
     1
 43
1.0
176
     1
 76
     1
176
     1
 77
     6
176
     1
 78
     2
176
     1
 67
     7
176
     1
 79
     5
176
     1
170
     0
176
     1
171
     0
176
     1
290
     0
176
     1
 93
        1
176
     1
 44
0.0
176
     1
173
     0
176
     1
  0
VISUALSTYLE
  5
E3
102
{ACAD_REACTORS
330
99
102
}
330
99
100
AcDbVisualStyle
  2
Wireframe
 70
     5
177
     2
291
     0
 71
     0
176
     1
 72
     2
176
     1
 73
     0
176
     1
 90
        0
176
     1
 40
0.6
176
     1
 41
30.0
176
     1
 62
     5
 63
     7
421
 16777215
176
     1
 74
     1
176
     1
 91
        4
176
     1
 64
     7
176
     1
 65
   257
176
     1
 75
     1
176
     1
175
     1
176
     1
 42
1.0
176
     1
 92
        0
176
     1
 66
   257
176
     1
 43
1.0
176
     1
 76
     1
176
     1
 77
     6
176
     1
 78
     2
176
     1
 67
     7
176
     1
 79
     3
176
     1
170
     0
176
     1
171
     0
176
     1
290
     0
176
     1
 93
        1
176
     1
 44
0.0
176
     1
173
     0
176
     1
  0
VISUALSTYLE
  5
EA
102
{ACAD_REACTORS
330
99
102
}
330
99
100
AcDbVisualStyle
  2
X-Ray
 70
    25
177
     2
291
     0
 71
     2
176
     1
 72
     2
176
     1
 73
     1
176
     1
 90
        1
176
     1
 40
0.5
176
     1
 41
30.0
176
     1
 62
     5
 63
     7
421
 16777215
176
     1
 74
     1
176
     1
 91
        0
176
     1
 64
     7
176
     1
 65
   257
176
     1
 75
     1
176
     1
175
     1
176
     1
 42
1.0
176
     1
 92
        8
176
     1
 66
     7
176
     1
 43
1.0
176
     1
 76
     1
176
     1
 77
     6
176
     1
 78
     2
176
     1
 67
     7
176
     1
 79
     3
176
     1
170
     0
176
     1
171
     0
176
     1
290
     0
176
     1
 93
       13
176
     1
 44
0.0
176
     1
173
     0
176
     1
  0
DICTIONARYVAR
  5
D8
102
{ACAD_REACTORS
330
66
102
}
330
66
100
DictionaryVariables
280
     0
  1
1:1
  0
DICTIONARYVAR
  5
128
102
{ACAD_REACTORS
330
66
102
}
330
66
100
DictionaryVariables
280
     0
  1
Standard
  0
DICTIONARYVAR
  5
89
102
{ACAD_REACTORS
330
66
102
}
330
66
100
DictionaryVariables
280
     0
  1
Standard
  0
DICTIONARYVAR
  5
67
102
{ACAD_REACTORS
330
66
102
}
330
66
100
DictionaryVariables
280
     0
  1
2
  0
DICTIONARYVAR
  5
6B
102
{ACAD_REACTORS
330
66
102
}
330
66
100
DictionaryVariables
280
     0
  1
1
  0
DICTIONARYVAR
  5
DF
102
{ACAD_REACTORS
330
66
102
}
330
66
100
DictionaryVariables
280
     0
  1
0
  0
DICTIONARYVAR
  5
E0
102
{ACAD_REACTORS
330
66
102
}
330
66
100
DictionaryVariables
280
     0
  1
0
  0
DICTIONARY
  5
469
330
87
100
AcDbDictionary
280
     1
281
     1
  3
ACAD_ROUNDTRIP_2008_TABLESTYLE_CELLSTYLEMAP
360
46A
  0
CELLSTYLEMAP
  5
46A
102
{ACAD_REACTORS
330
469
102
}
330
469
100
AcDbCellStyleMap
 90
        3
300
CELLSTYLE
  1
TABLEFORMAT_BEGIN
 90
        5
170
     1
 91
        0
 92
    32768
 62
   257
 93
        1
300
CONTENTFORMAT
  1
CONTENTFORMAT_BEGIN
 90
        0
 91
        0
 92
      512
 93
        0
300

 40
0.0
140
1.0
 94
        5
 62
     0
340
11
144
0.25
309
CONTENTFORMAT_END
171
     0
 94
        6
 95
        1
302
GRIDFORMAT
  1
GRIDFORMAT_BEGIN
 90
        0
 91
        1
 62
     0
 92
       -2
340
0
 93
        0
 40
0.045
309
GRIDFORMAT_END
 95
        2
302
GRIDFORMAT
  1
GRIDFORMAT_BEGIN
 90
        0
 91
        1
 62
     0
 92
       -2
340
0
 93
        0
 40
0.045
309
GRIDFORMAT_END
 95
        4
302
GRIDFORMAT
  1
GRIDFORMAT_BEGIN
 90
        0
 91
        1
 62
     0
 92
       -2
340
0
 93
        0
 40
0.045
309
GRIDFORMAT_END
 95
        8
302
GRIDFORMAT
  1
GRIDFORMAT_BEGIN
 90
        0
 91
        1
 62
     0
 92
       -2
340
0
 93
        0
 40
0.045
309
GRIDFORMAT_END
 95
       16
302
GRIDFORMAT
  1
GRIDFORMAT_BEGIN
 90
        0
 91
        1
 62
     0
 92
       -2
340
0
 93
        0
 40
0.045
309
GRIDFORMAT_END
 95
       32
302
GRIDFORMAT
  1
GRIDFORMAT_BEGIN
 90
        0
 91
        1
 62
     0
 92
       -2
340
0
 93
        0
 40
0.045
309
GRIDFORMAT_END
309
TABLEFORMAT_END
  1
CELLSTYLE_BEGIN
 90
        1
 91
        1
300
_TITLE
309
CELLSTYLE_END
300
CELLSTYLE
  1
TABLEFORMAT_BEGIN
 90
        5
170
     1
 91
        0
 92
        0
 62
   257
 93
        1
300
CONTENTFORMAT
  1
CONTENTFORMAT_BEGIN
 90
        0
 91
        0
 92
      512
 93
        0
300

 40
0.0
140
1.0
 94
        5
 62
     0
340
11
144
0.18
309
CONTENTFORMAT_END
171
     0
 94
        6
 95
        1
302
GRIDFORMAT
  1
GRIDFORMAT_BEGIN
 90
        0
 91
        1
 62
     0
 92
       -2
340
0
 93
        0
 40
0.045
309
GRIDFORMAT_END
 95
        2
302
GRIDFORMAT
  1
GRIDFORMAT_BEGIN
 90
        0
 91
        1
 62
     0
 92
       -2
340
0
 93
        0
 40
0.045
309
GRIDFORMAT_END
 95
        4
302
GRIDFORMAT
  1
GRIDFORMAT_BEGIN
 90
        0
 91
        1
 62
     0
 92
       -2
340
0
 93
        0
 40
0.045
309
GRIDFORMAT_END
 95
        8
302
GRIDFORMAT
  1
GRIDFORMAT_BEGIN
 90
        0
 91
        1
 62
     0
 92
       -2
340
0
 93
        0
 40
0.045
309
GRIDFORMAT_END
 95
       16
302
GRIDFORMAT
  1
GRIDFORMAT_BEGIN
 90
        0
 91
        1
 62
     0
 92
       -2
340
0
 93
        0
 40
0.045
309
GRIDFORMAT_END
 95
       32
302
GRIDFORMAT
  1
GRIDFORMAT_BEGIN
 90
        0
 91
        1
 62
     0
 92
       -2
340
0
 93
        0
 40
0.045
309
GRIDFORMAT_END
309
TABLEFORMAT_END
  1
CELLSTYLE_BEGIN
 90
        2
 91
        1
300
_HEADER
309
CELLSTYLE_END
300
CELLSTYLE
  1
TABLEFORMAT_BEGIN
 90
        5
170
     1
 91
        0
 92
        0
 62
   257
 93
        1
300
CONTENTFORMAT
  1
CONTENTFORMAT_BEGIN
 90
        0
 91
        0
 92
      512
 93
        0
300

 40
0.0
140
1.0
 94
        2
 62
     0
340
11
144
0.18
309
CONTENTFORMAT_END
171
     0
 94
        6
 95
        1
302
GRIDFORMAT
  1
GRIDFORMAT_BEGIN
 90
        0
 91
        1
 62
     0
 92
       -2
340
0
 93
        0
 40
0.045
309
GRIDFORMAT_END
 95
        2
302
GRIDFORMAT
  1
GRIDFORMAT_BEGIN
 90
        0
 91
        1
 62
     0
 92
       -2
340
0
 93
        0
 40
0.045
309
GRIDFORMAT_END
 95
        4
302
GRIDFORMAT
  1
GRIDFORMAT_BEGIN
 90
        0
 91
        1
 62
     0
 92
       -2
340
0
 93
        0
 40
0.045
309
GRIDFORMAT_END
 95
        8
302
GRIDFORMAT
  1
GRIDFORMAT_BEGIN
 90
        0
 91
        1
 62
     0
 92
       -2
340
0
 93
        0
 40
0.045
309
GRIDFORMAT_END
 95
       16
302
GRIDFORMAT
  1
GRIDFORMAT_BEGIN
 90
        0
 91
        1
 62
     0
 92
       -2
340
0
 93
        0
 40
0.045
309
GRIDFORMAT_END
 95
       32
302
GRIDFORMAT
  1
GRIDFORMAT_BEGIN
 90
        0
 91
        1
 62
     0
 92
       -2
340
0
 93
        0
 40
0.045
309
GRIDFORMAT_END
309
TABLEFORMAT_END
  1
CELLSTYLE_BEGIN
 90
        3
 91
        2
300
_DATA
309
CELLSTYLE_END
  0
ENDSEC
  0
EOF
