G04 #@! TF.GenerationSoftware,KiCad,Pcbnew,(6.0.5-0)*
G04 #@! TF.CreationDate,2022-09-19T20:24:44+09:00*
G04 #@! TF.ProjectId,kepler-x,6b65706c-6572-42d7-982e-6b696361645f,rev?*
G04 #@! TF.SameCoordinates,Original*
G04 #@! TF.FileFunction,Legend,Top*
G04 #@! TF.FilePolarity,Positive*
%FSLAX46Y46*%
G04 Gerber Fmt 4.6, Leading zero omitted, Abs format (unit mm)*
G04 Created by KiCad (PCBNEW (6.0.5-0)) date 2022-09-19 20:24:44*
%MOMM*%
%LPD*%
G01*
G04 APERTURE LIST*
%ADD10C,0.150000*%
%ADD11C,0.300000*%
%ADD12C,0.203200*%
%ADD13C,0.254000*%
%ADD14C,0.120000*%
%ADD15C,0.127000*%
%ADD16C,0.200000*%
%ADD17C,0.100000*%
%ADD18R,2.032000X1.727200*%
%ADD19O,2.032000X1.727200*%
G04 APERTURE END LIST*
D10*
X155979761Y-91280714D02*
X156027380Y-91137857D01*
X156027380Y-90899761D01*
X155979761Y-90804523D01*
X155932142Y-90756904D01*
X155836904Y-90709285D01*
X155741666Y-90709285D01*
X155646428Y-90756904D01*
X155598809Y-90804523D01*
X155551190Y-90899761D01*
X155503571Y-91090238D01*
X155455952Y-91185476D01*
X155408333Y-91233095D01*
X155313095Y-91280714D01*
X155217857Y-91280714D01*
X155122619Y-91233095D01*
X155075000Y-91185476D01*
X155027380Y-91090238D01*
X155027380Y-90852142D01*
X155075000Y-90709285D01*
X154979761Y-89566428D02*
X156265476Y-90423571D01*
X156027380Y-89233095D02*
X155027380Y-89233095D01*
X155027380Y-88852142D01*
X155075000Y-88756904D01*
X155122619Y-88709285D01*
X155217857Y-88661666D01*
X155360714Y-88661666D01*
X155455952Y-88709285D01*
X155503571Y-88756904D01*
X155551190Y-88852142D01*
X155551190Y-89233095D01*
X156027380Y-88233095D02*
X155027380Y-88233095D01*
X155027380Y-87995000D01*
X155075000Y-87852142D01*
X155170238Y-87756904D01*
X155265476Y-87709285D01*
X155455952Y-87661666D01*
X155598809Y-87661666D01*
X155789285Y-87709285D01*
X155884523Y-87756904D01*
X155979761Y-87852142D01*
X156027380Y-87995000D01*
X156027380Y-88233095D01*
X156027380Y-87233095D02*
X155027380Y-87233095D01*
X155503571Y-86423571D02*
X155503571Y-86756904D01*
X156027380Y-86756904D02*
X155027380Y-86756904D01*
X155027380Y-86280714D01*
X155027380Y-84947380D02*
X155027380Y-84756904D01*
X155075000Y-84661666D01*
X155170238Y-84566428D01*
X155360714Y-84518809D01*
X155694047Y-84518809D01*
X155884523Y-84566428D01*
X155979761Y-84661666D01*
X156027380Y-84756904D01*
X156027380Y-84947380D01*
X155979761Y-85042619D01*
X155884523Y-85137857D01*
X155694047Y-85185476D01*
X155360714Y-85185476D01*
X155170238Y-85137857D01*
X155075000Y-85042619D01*
X155027380Y-84947380D01*
X155027380Y-84090238D02*
X155836904Y-84090238D01*
X155932142Y-84042619D01*
X155979761Y-83995000D01*
X156027380Y-83899761D01*
X156027380Y-83709285D01*
X155979761Y-83614047D01*
X155932142Y-83566428D01*
X155836904Y-83518809D01*
X155027380Y-83518809D01*
X155027380Y-83185476D02*
X155027380Y-82614047D01*
X156027380Y-82899761D02*
X155027380Y-82899761D01*
D11*
X44403095Y-64180000D02*
X43103095Y-64180000D01*
X44403095Y-62818095D02*
X43784047Y-63251428D01*
X44403095Y-63560952D02*
X43103095Y-63560952D01*
X43103095Y-63065714D01*
X43165000Y-62941904D01*
X43226904Y-62880000D01*
X43350714Y-62818095D01*
X43536428Y-62818095D01*
X43660238Y-62880000D01*
X43722142Y-62941904D01*
X43784047Y-63065714D01*
X43784047Y-63560952D01*
X44526904Y-61394285D02*
X44465000Y-61518095D01*
X44341190Y-61641904D01*
X44155476Y-61827619D01*
X44093571Y-61951428D01*
X44093571Y-62075238D01*
X44403095Y-62013333D02*
X44341190Y-62137142D01*
X44217380Y-62260952D01*
X43969761Y-62322857D01*
X43536428Y-62322857D01*
X43288809Y-62260952D01*
X43165000Y-62137142D01*
X43103095Y-62013333D01*
X43103095Y-61765714D01*
X43165000Y-61641904D01*
X43288809Y-61518095D01*
X43536428Y-61456190D01*
X43969761Y-61456190D01*
X44217380Y-61518095D01*
X44341190Y-61641904D01*
X44403095Y-61765714D01*
X44403095Y-62013333D01*
X43226904Y-60960952D02*
X43165000Y-60899047D01*
X43103095Y-60775238D01*
X43103095Y-60465714D01*
X43165000Y-60341904D01*
X43226904Y-60280000D01*
X43350714Y-60218095D01*
X43474523Y-60218095D01*
X43660238Y-60280000D01*
X44403095Y-61022857D01*
X44403095Y-60218095D01*
D10*
X155979761Y-79819047D02*
X156027380Y-79676190D01*
X156027380Y-79438095D01*
X155979761Y-79342857D01*
X155932142Y-79295238D01*
X155836904Y-79247619D01*
X155741666Y-79247619D01*
X155646428Y-79295238D01*
X155598809Y-79342857D01*
X155551190Y-79438095D01*
X155503571Y-79628571D01*
X155455952Y-79723809D01*
X155408333Y-79771428D01*
X155313095Y-79819047D01*
X155217857Y-79819047D01*
X155122619Y-79771428D01*
X155075000Y-79723809D01*
X155027380Y-79628571D01*
X155027380Y-79390476D01*
X155075000Y-79247619D01*
X154979761Y-78104761D02*
X156265476Y-78961904D01*
X156027380Y-77771428D02*
X155027380Y-77771428D01*
X155027380Y-77390476D01*
X155075000Y-77295238D01*
X155122619Y-77247619D01*
X155217857Y-77200000D01*
X155360714Y-77200000D01*
X155455952Y-77247619D01*
X155503571Y-77295238D01*
X155551190Y-77390476D01*
X155551190Y-77771428D01*
X156027380Y-76771428D02*
X155027380Y-76771428D01*
X155027380Y-76533333D01*
X155075000Y-76390476D01*
X155170238Y-76295238D01*
X155265476Y-76247619D01*
X155455952Y-76200000D01*
X155598809Y-76200000D01*
X155789285Y-76247619D01*
X155884523Y-76295238D01*
X155979761Y-76390476D01*
X156027380Y-76533333D01*
X156027380Y-76771428D01*
X156027380Y-75771428D02*
X155027380Y-75771428D01*
X155503571Y-74961904D02*
X155503571Y-75295238D01*
X156027380Y-75295238D02*
X155027380Y-75295238D01*
X155027380Y-74819047D01*
X156027380Y-73676190D02*
X155027380Y-73676190D01*
X156027380Y-73200000D02*
X155027380Y-73200000D01*
X156027380Y-72628571D01*
X155027380Y-72628571D01*
X57404047Y-45156428D02*
X58165952Y-45156428D01*
X57785000Y-45537380D02*
X57785000Y-44775476D01*
X54236904Y-41410000D02*
X54141666Y-41362380D01*
X53998809Y-41362380D01*
X53855952Y-41410000D01*
X53760714Y-41505238D01*
X53713095Y-41600476D01*
X53665476Y-41790952D01*
X53665476Y-41933809D01*
X53713095Y-42124285D01*
X53760714Y-42219523D01*
X53855952Y-42314761D01*
X53998809Y-42362380D01*
X54094047Y-42362380D01*
X54236904Y-42314761D01*
X54284523Y-42267142D01*
X54284523Y-41933809D01*
X54094047Y-41933809D01*
X164552380Y-62328571D02*
X163552380Y-62328571D01*
X163552380Y-62090476D01*
X163600000Y-61947619D01*
X163695238Y-61852380D01*
X163790476Y-61804761D01*
X163980952Y-61757142D01*
X164123809Y-61757142D01*
X164314285Y-61804761D01*
X164409523Y-61852380D01*
X164504761Y-61947619D01*
X164552380Y-62090476D01*
X164552380Y-62328571D01*
X163552380Y-61471428D02*
X164552380Y-61138095D01*
X163552380Y-60804761D01*
X164552380Y-60471428D02*
X163552380Y-60471428D01*
D11*
X52237142Y-38842142D02*
X53380000Y-38842142D01*
X52808571Y-39413571D02*
X52808571Y-38270714D01*
X54808571Y-37913571D02*
X54094285Y-37913571D01*
X54022857Y-38627857D01*
X54094285Y-38556428D01*
X54237142Y-38485000D01*
X54594285Y-38485000D01*
X54737142Y-38556428D01*
X54808571Y-38627857D01*
X54880000Y-38770714D01*
X54880000Y-39127857D01*
X54808571Y-39270714D01*
X54737142Y-39342142D01*
X54594285Y-39413571D01*
X54237142Y-39413571D01*
X54094285Y-39342142D01*
X54022857Y-39270714D01*
X55308571Y-37913571D02*
X55808571Y-39413571D01*
X56308571Y-37913571D01*
X57951428Y-39413571D02*
X57951428Y-37913571D01*
X58665714Y-39413571D02*
X58665714Y-37913571D01*
X59522857Y-39413571D01*
X59522857Y-37913571D01*
X44403095Y-58465000D02*
X43103095Y-58465000D01*
X44403095Y-57103095D02*
X43784047Y-57536428D01*
X44403095Y-57845952D02*
X43103095Y-57845952D01*
X43103095Y-57350714D01*
X43165000Y-57226904D01*
X43226904Y-57165000D01*
X43350714Y-57103095D01*
X43536428Y-57103095D01*
X43660238Y-57165000D01*
X43722142Y-57226904D01*
X43784047Y-57350714D01*
X43784047Y-57845952D01*
X44526904Y-55679285D02*
X44465000Y-55803095D01*
X44341190Y-55926904D01*
X44155476Y-56112619D01*
X44093571Y-56236428D01*
X44093571Y-56360238D01*
X44403095Y-56298333D02*
X44341190Y-56422142D01*
X44217380Y-56545952D01*
X43969761Y-56607857D01*
X43536428Y-56607857D01*
X43288809Y-56545952D01*
X43165000Y-56422142D01*
X43103095Y-56298333D01*
X43103095Y-56050714D01*
X43165000Y-55926904D01*
X43288809Y-55803095D01*
X43536428Y-55741190D01*
X43969761Y-55741190D01*
X44217380Y-55803095D01*
X44341190Y-55926904D01*
X44403095Y-56050714D01*
X44403095Y-56298333D01*
X43536428Y-54626904D02*
X44403095Y-54626904D01*
X43041190Y-54936428D02*
X43969761Y-55245952D01*
X43969761Y-54441190D01*
D10*
X155614666Y-51331333D02*
X155614666Y-50855142D01*
X155900380Y-51426571D02*
X154900380Y-51093238D01*
X155900380Y-50759904D01*
X154900380Y-50426571D02*
X155709904Y-50426571D01*
X155805142Y-50378952D01*
X155852761Y-50331333D01*
X155900380Y-50236095D01*
X155900380Y-50045619D01*
X155852761Y-49950380D01*
X155805142Y-49902761D01*
X155709904Y-49855142D01*
X154900380Y-49855142D01*
X155900380Y-49378952D02*
X154900380Y-49378952D01*
X154900380Y-49140857D01*
X154948000Y-48998000D01*
X155043238Y-48902761D01*
X155138476Y-48855142D01*
X155328952Y-48807523D01*
X155471809Y-48807523D01*
X155662285Y-48855142D01*
X155757523Y-48902761D01*
X155852761Y-48998000D01*
X155900380Y-49140857D01*
X155900380Y-49378952D01*
X155900380Y-48378952D02*
X154900380Y-48378952D01*
X154900380Y-47712285D02*
X154900380Y-47521809D01*
X154948000Y-47426571D01*
X155043238Y-47331333D01*
X155233714Y-47283714D01*
X155567047Y-47283714D01*
X155757523Y-47331333D01*
X155852761Y-47426571D01*
X155900380Y-47521809D01*
X155900380Y-47712285D01*
X155852761Y-47807523D01*
X155757523Y-47902761D01*
X155567047Y-47950380D01*
X155233714Y-47950380D01*
X155043238Y-47902761D01*
X154948000Y-47807523D01*
X154900380Y-47712285D01*
X154900380Y-45902761D02*
X154900380Y-45712285D01*
X154948000Y-45617047D01*
X155043238Y-45521809D01*
X155233714Y-45474190D01*
X155567047Y-45474190D01*
X155757523Y-45521809D01*
X155852761Y-45617047D01*
X155900380Y-45712285D01*
X155900380Y-45902761D01*
X155852761Y-45998000D01*
X155757523Y-46093238D01*
X155567047Y-46140857D01*
X155233714Y-46140857D01*
X155043238Y-46093238D01*
X154948000Y-45998000D01*
X154900380Y-45902761D01*
X154900380Y-45045619D02*
X155709904Y-45045619D01*
X155805142Y-44998000D01*
X155852761Y-44950380D01*
X155900380Y-44855142D01*
X155900380Y-44664666D01*
X155852761Y-44569428D01*
X155805142Y-44521809D01*
X155709904Y-44474190D01*
X154900380Y-44474190D01*
X154900380Y-44140857D02*
X154900380Y-43569428D01*
X155900380Y-43855142D02*
X154900380Y-43855142D01*
X58046904Y-41410000D02*
X57951666Y-41362380D01*
X57808809Y-41362380D01*
X57665952Y-41410000D01*
X57570714Y-41505238D01*
X57523095Y-41600476D01*
X57475476Y-41790952D01*
X57475476Y-41933809D01*
X57523095Y-42124285D01*
X57570714Y-42219523D01*
X57665952Y-42314761D01*
X57808809Y-42362380D01*
X57904047Y-42362380D01*
X58046904Y-42314761D01*
X58094523Y-42267142D01*
X58094523Y-41933809D01*
X57904047Y-41933809D01*
X53594047Y-45156428D02*
X54355952Y-45156428D01*
X53975000Y-45537380D02*
X53975000Y-44775476D01*
D12*
X87720714Y-33107380D02*
X88446428Y-33107380D01*
X88083571Y-34107380D02*
X88083571Y-33107380D01*
X89353571Y-34059761D02*
X89232619Y-34107380D01*
X88990714Y-34107380D01*
X88869761Y-34059761D01*
X88809285Y-33964523D01*
X88809285Y-33583571D01*
X88869761Y-33488333D01*
X88990714Y-33440714D01*
X89232619Y-33440714D01*
X89353571Y-33488333D01*
X89414047Y-33583571D01*
X89414047Y-33678809D01*
X88809285Y-33774047D01*
X89958333Y-34107380D02*
X89958333Y-33440714D01*
X89958333Y-33631190D02*
X90018809Y-33535952D01*
X90079285Y-33488333D01*
X90200238Y-33440714D01*
X90321190Y-33440714D01*
X90744523Y-34107380D02*
X90744523Y-33440714D01*
X90744523Y-33631190D02*
X90805000Y-33535952D01*
X90865476Y-33488333D01*
X90986428Y-33440714D01*
X91107380Y-33440714D01*
X92075000Y-34107380D02*
X92075000Y-33583571D01*
X92014523Y-33488333D01*
X91893571Y-33440714D01*
X91651666Y-33440714D01*
X91530714Y-33488333D01*
X92075000Y-34059761D02*
X91954047Y-34107380D01*
X91651666Y-34107380D01*
X91530714Y-34059761D01*
X91470238Y-33964523D01*
X91470238Y-33869285D01*
X91530714Y-33774047D01*
X91651666Y-33726428D01*
X91954047Y-33726428D01*
X92075000Y-33678809D01*
X92619285Y-34059761D02*
X92740238Y-34107380D01*
X92982142Y-34107380D01*
X93103095Y-34059761D01*
X93163571Y-33964523D01*
X93163571Y-33916904D01*
X93103095Y-33821666D01*
X92982142Y-33774047D01*
X92800714Y-33774047D01*
X92679761Y-33726428D01*
X92619285Y-33631190D01*
X92619285Y-33583571D01*
X92679761Y-33488333D01*
X92800714Y-33440714D01*
X92982142Y-33440714D01*
X93103095Y-33488333D01*
X93707857Y-34107380D02*
X93707857Y-33440714D01*
X93707857Y-33107380D02*
X93647380Y-33155000D01*
X93707857Y-33202619D01*
X93768333Y-33155000D01*
X93707857Y-33107380D01*
X93707857Y-33202619D01*
X94856904Y-34059761D02*
X94735952Y-34107380D01*
X94494047Y-34107380D01*
X94373095Y-34059761D01*
X94312619Y-34012142D01*
X94252142Y-33916904D01*
X94252142Y-33631190D01*
X94312619Y-33535952D01*
X94373095Y-33488333D01*
X94494047Y-33440714D01*
X94735952Y-33440714D01*
X94856904Y-33488333D01*
X96368809Y-34107380D02*
X96368809Y-33107380D01*
X96671190Y-33107380D01*
X96852619Y-33155000D01*
X96973571Y-33250238D01*
X97034047Y-33345476D01*
X97094523Y-33535952D01*
X97094523Y-33678809D01*
X97034047Y-33869285D01*
X96973571Y-33964523D01*
X96852619Y-34059761D01*
X96671190Y-34107380D01*
X96368809Y-34107380D01*
X97638809Y-33583571D02*
X98062142Y-33583571D01*
X98243571Y-34107380D02*
X97638809Y-34107380D01*
X97638809Y-33107380D01*
X98243571Y-33107380D01*
X99029761Y-33107380D02*
X99150714Y-33107380D01*
X99271666Y-33155000D01*
X99332142Y-33202619D01*
X99392619Y-33297857D01*
X99453095Y-33488333D01*
X99453095Y-33726428D01*
X99392619Y-33916904D01*
X99332142Y-34012142D01*
X99271666Y-34059761D01*
X99150714Y-34107380D01*
X99029761Y-34107380D01*
X98908809Y-34059761D01*
X98848333Y-34012142D01*
X98787857Y-33916904D01*
X98727380Y-33726428D01*
X98727380Y-33488333D01*
X98787857Y-33297857D01*
X98848333Y-33202619D01*
X98908809Y-33155000D01*
X99029761Y-33107380D01*
X100965000Y-34107380D02*
X100965000Y-33107380D01*
X101690714Y-34107380D01*
X101690714Y-33107380D01*
X102839761Y-34107380D02*
X102839761Y-33583571D01*
X102779285Y-33488333D01*
X102658333Y-33440714D01*
X102416428Y-33440714D01*
X102295476Y-33488333D01*
X102839761Y-34059761D02*
X102718809Y-34107380D01*
X102416428Y-34107380D01*
X102295476Y-34059761D01*
X102235000Y-33964523D01*
X102235000Y-33869285D01*
X102295476Y-33774047D01*
X102416428Y-33726428D01*
X102718809Y-33726428D01*
X102839761Y-33678809D01*
X103444523Y-33440714D02*
X103444523Y-34107380D01*
X103444523Y-33535952D02*
X103505000Y-33488333D01*
X103625952Y-33440714D01*
X103807380Y-33440714D01*
X103928333Y-33488333D01*
X103988809Y-33583571D01*
X103988809Y-34107380D01*
X104775000Y-34107380D02*
X104654047Y-34059761D01*
X104593571Y-34012142D01*
X104533095Y-33916904D01*
X104533095Y-33631190D01*
X104593571Y-33535952D01*
X104654047Y-33488333D01*
X104775000Y-33440714D01*
X104956428Y-33440714D01*
X105077380Y-33488333D01*
X105137857Y-33535952D01*
X105198333Y-33631190D01*
X105198333Y-33916904D01*
X105137857Y-34012142D01*
X105077380Y-34059761D01*
X104956428Y-34107380D01*
X104775000Y-34107380D01*
D10*
X146208809Y-79986190D02*
X146208809Y-80462380D01*
X145875476Y-79462380D02*
X146208809Y-79986190D01*
X146542142Y-79462380D01*
X147399285Y-80462380D02*
X146827857Y-80462380D01*
X147113571Y-80462380D02*
X147113571Y-79462380D01*
X147018333Y-79605238D01*
X146923095Y-79700476D01*
X146827857Y-79748095D01*
X149439523Y-80462380D02*
X148868095Y-80462380D01*
X149153809Y-80462380D02*
X149153809Y-79462380D01*
X149058571Y-79605238D01*
X148963333Y-79700476D01*
X148868095Y-79748095D01*
X149820476Y-79557619D02*
X149868095Y-79510000D01*
X149963333Y-79462380D01*
X150201428Y-79462380D01*
X150296666Y-79510000D01*
X150344285Y-79557619D01*
X150391904Y-79652857D01*
X150391904Y-79748095D01*
X150344285Y-79890952D01*
X149772857Y-80462380D01*
X150391904Y-80462380D01*
X150820476Y-80462380D02*
X150820476Y-79462380D01*
X151153809Y-80176666D01*
X151487142Y-79462380D01*
X151487142Y-80462380D01*
X151963333Y-80462380D02*
X151963333Y-79462380D01*
X151963333Y-79938571D02*
X152534761Y-79938571D01*
X152534761Y-80462380D02*
X152534761Y-79462380D01*
X152915714Y-79795714D02*
X153439523Y-79795714D01*
X152915714Y-80462380D01*
X153439523Y-80462380D01*
X67429142Y-173839142D02*
X67381523Y-173886761D01*
X67238666Y-173934380D01*
X67143428Y-173934380D01*
X67000571Y-173886761D01*
X66905333Y-173791523D01*
X66857714Y-173696285D01*
X66810095Y-173505809D01*
X66810095Y-173362952D01*
X66857714Y-173172476D01*
X66905333Y-173077238D01*
X67000571Y-172982000D01*
X67143428Y-172934380D01*
X67238666Y-172934380D01*
X67381523Y-172982000D01*
X67429142Y-173029619D01*
X68381523Y-173934380D02*
X67810095Y-173934380D01*
X68095809Y-173934380D02*
X68095809Y-172934380D01*
X68000571Y-173077238D01*
X67905333Y-173172476D01*
X67810095Y-173220095D01*
X69286285Y-172934380D02*
X68810095Y-172934380D01*
X68762476Y-173410571D01*
X68810095Y-173362952D01*
X68905333Y-173315333D01*
X69143428Y-173315333D01*
X69238666Y-173362952D01*
X69286285Y-173410571D01*
X69333904Y-173505809D01*
X69333904Y-173743904D01*
X69286285Y-173839142D01*
X69238666Y-173886761D01*
X69143428Y-173934380D01*
X68905333Y-173934380D01*
X68810095Y-173886761D01*
X68762476Y-173839142D01*
X148269404Y-70852380D02*
X148269404Y-69852380D01*
X148507500Y-69852380D01*
X148650357Y-69900000D01*
X148745595Y-69995238D01*
X148793214Y-70090476D01*
X148840833Y-70280952D01*
X148840833Y-70423809D01*
X148793214Y-70614285D01*
X148745595Y-70709523D01*
X148650357Y-70804761D01*
X148507500Y-70852380D01*
X148269404Y-70852380D01*
X149793214Y-70852380D02*
X149221785Y-70852380D01*
X149507500Y-70852380D02*
X149507500Y-69852380D01*
X149412261Y-69995238D01*
X149317023Y-70090476D01*
X149221785Y-70138095D01*
X47021904Y-85384880D02*
X47021904Y-86194404D01*
X47069523Y-86289642D01*
X47117142Y-86337261D01*
X47212380Y-86384880D01*
X47402857Y-86384880D01*
X47498095Y-86337261D01*
X47545714Y-86289642D01*
X47593333Y-86194404D01*
X47593333Y-85384880D01*
X48593333Y-86384880D02*
X48021904Y-86384880D01*
X48307619Y-86384880D02*
X48307619Y-85384880D01*
X48212380Y-85527738D01*
X48117142Y-85622976D01*
X48021904Y-85670595D01*
X49212380Y-85384880D02*
X49307619Y-85384880D01*
X49402857Y-85432500D01*
X49450476Y-85480119D01*
X49498095Y-85575357D01*
X49545714Y-85765833D01*
X49545714Y-86003928D01*
X49498095Y-86194404D01*
X49450476Y-86289642D01*
X49402857Y-86337261D01*
X49307619Y-86384880D01*
X49212380Y-86384880D01*
X49117142Y-86337261D01*
X49069523Y-86289642D01*
X49021904Y-86194404D01*
X48974285Y-86003928D01*
X48974285Y-85765833D01*
X49021904Y-85575357D01*
X49069523Y-85480119D01*
X49117142Y-85432500D01*
X49212380Y-85384880D01*
X167036904Y-69937380D02*
X167036904Y-70746904D01*
X167084523Y-70842142D01*
X167132142Y-70889761D01*
X167227380Y-70937380D01*
X167417857Y-70937380D01*
X167513095Y-70889761D01*
X167560714Y-70842142D01*
X167608333Y-70746904D01*
X167608333Y-69937380D01*
X168608333Y-70937380D02*
X168036904Y-70937380D01*
X168322619Y-70937380D02*
X168322619Y-69937380D01*
X168227380Y-70080238D01*
X168132142Y-70175476D01*
X168036904Y-70223095D01*
X169513095Y-69937380D02*
X169036904Y-69937380D01*
X168989285Y-70413571D01*
X169036904Y-70365952D01*
X169132142Y-70318333D01*
X169370238Y-70318333D01*
X169465476Y-70365952D01*
X169513095Y-70413571D01*
X169560714Y-70508809D01*
X169560714Y-70746904D01*
X169513095Y-70842142D01*
X169465476Y-70889761D01*
X169370238Y-70937380D01*
X169132142Y-70937380D01*
X169036904Y-70889761D01*
X168989285Y-70842142D01*
X160552380Y-76652380D02*
X160552380Y-75652380D01*
X160933333Y-75652380D01*
X161028571Y-75700000D01*
X161076190Y-75747619D01*
X161123809Y-75842857D01*
X161123809Y-75985714D01*
X161076190Y-76080952D01*
X161028571Y-76128571D01*
X160933333Y-76176190D01*
X160552380Y-76176190D01*
X162028571Y-76652380D02*
X161552380Y-76652380D01*
X161552380Y-75652380D01*
X162933333Y-76652380D02*
X162600000Y-76176190D01*
X162361904Y-76652380D02*
X162361904Y-75652380D01*
X162742857Y-75652380D01*
X162838095Y-75700000D01*
X162885714Y-75747619D01*
X162933333Y-75842857D01*
X162933333Y-75985714D01*
X162885714Y-76080952D01*
X162838095Y-76128571D01*
X162742857Y-76176190D01*
X162361904Y-76176190D01*
X163885714Y-76652380D02*
X163314285Y-76652380D01*
X163600000Y-76652380D02*
X163600000Y-75652380D01*
X163504761Y-75795238D01*
X163409523Y-75890476D01*
X163314285Y-75938095D01*
X164219047Y-75652380D02*
X164838095Y-75652380D01*
X164504761Y-76033333D01*
X164647619Y-76033333D01*
X164742857Y-76080952D01*
X164790476Y-76128571D01*
X164838095Y-76223809D01*
X164838095Y-76461904D01*
X164790476Y-76557142D01*
X164742857Y-76604761D01*
X164647619Y-76652380D01*
X164361904Y-76652380D01*
X164266666Y-76604761D01*
X164219047Y-76557142D01*
X165742857Y-75652380D02*
X165266666Y-75652380D01*
X165219047Y-76128571D01*
X165266666Y-76080952D01*
X165361904Y-76033333D01*
X165600000Y-76033333D01*
X165695238Y-76080952D01*
X165742857Y-76128571D01*
X165790476Y-76223809D01*
X165790476Y-76461904D01*
X165742857Y-76557142D01*
X165695238Y-76604761D01*
X165600000Y-76652380D01*
X165361904Y-76652380D01*
X165266666Y-76604761D01*
X165219047Y-76557142D01*
X166219047Y-76271428D02*
X166980952Y-76271428D01*
X167314285Y-75652380D02*
X167885714Y-75652380D01*
X167600000Y-76652380D02*
X167600000Y-75652380D01*
X168742857Y-76652380D02*
X168171428Y-76652380D01*
X168457142Y-76652380D02*
X168457142Y-75652380D01*
X168361904Y-75795238D01*
X168266666Y-75890476D01*
X168171428Y-75938095D01*
X169361904Y-75652380D02*
X169457142Y-75652380D01*
X169552380Y-75700000D01*
X169600000Y-75747619D01*
X169647619Y-75842857D01*
X169695238Y-76033333D01*
X169695238Y-76271428D01*
X169647619Y-76461904D01*
X169600000Y-76557142D01*
X169552380Y-76604761D01*
X169457142Y-76652380D01*
X169361904Y-76652380D01*
X169266666Y-76604761D01*
X169219047Y-76557142D01*
X169171428Y-76461904D01*
X169123809Y-76271428D01*
X169123809Y-76033333D01*
X169171428Y-75842857D01*
X169219047Y-75747619D01*
X169266666Y-75700000D01*
X169361904Y-75652380D01*
X157948333Y-70937380D02*
X157615000Y-70461190D01*
X157376904Y-70937380D02*
X157376904Y-69937380D01*
X157757857Y-69937380D01*
X157853095Y-69985000D01*
X157900714Y-70032619D01*
X157948333Y-70127857D01*
X157948333Y-70270714D01*
X157900714Y-70365952D01*
X157853095Y-70413571D01*
X157757857Y-70461190D01*
X157376904Y-70461190D01*
X158853095Y-69937380D02*
X158376904Y-69937380D01*
X158329285Y-70413571D01*
X158376904Y-70365952D01*
X158472142Y-70318333D01*
X158710238Y-70318333D01*
X158805476Y-70365952D01*
X158853095Y-70413571D01*
X158900714Y-70508809D01*
X158900714Y-70746904D01*
X158853095Y-70842142D01*
X158805476Y-70889761D01*
X158710238Y-70937380D01*
X158472142Y-70937380D01*
X158376904Y-70889761D01*
X158329285Y-70842142D01*
X150963333Y-71477142D02*
X150915714Y-71524761D01*
X150772857Y-71572380D01*
X150677619Y-71572380D01*
X150534761Y-71524761D01*
X150439523Y-71429523D01*
X150391904Y-71334285D01*
X150344285Y-71143809D01*
X150344285Y-71000952D01*
X150391904Y-70810476D01*
X150439523Y-70715238D01*
X150534761Y-70620000D01*
X150677619Y-70572380D01*
X150772857Y-70572380D01*
X150915714Y-70620000D01*
X150963333Y-70667619D01*
X151868095Y-70572380D02*
X151391904Y-70572380D01*
X151344285Y-71048571D01*
X151391904Y-71000952D01*
X151487142Y-70953333D01*
X151725238Y-70953333D01*
X151820476Y-71000952D01*
X151868095Y-71048571D01*
X151915714Y-71143809D01*
X151915714Y-71381904D01*
X151868095Y-71477142D01*
X151820476Y-71524761D01*
X151725238Y-71572380D01*
X151487142Y-71572380D01*
X151391904Y-71524761D01*
X151344285Y-71477142D01*
X167013095Y-92162380D02*
X167584523Y-92162380D01*
X167298809Y-93162380D02*
X167298809Y-92162380D01*
X168489285Y-93162380D02*
X168155952Y-92686190D01*
X167917857Y-93162380D02*
X167917857Y-92162380D01*
X168298809Y-92162380D01*
X168394047Y-92210000D01*
X168441666Y-92257619D01*
X168489285Y-92352857D01*
X168489285Y-92495714D01*
X168441666Y-92590952D01*
X168394047Y-92638571D01*
X168298809Y-92686190D01*
X167917857Y-92686190D01*
X169441666Y-93162380D02*
X168870238Y-93162380D01*
X169155952Y-93162380D02*
X169155952Y-92162380D01*
X169060714Y-92305238D01*
X168965476Y-92400476D01*
X168870238Y-92448095D01*
X160195238Y-87209890D02*
X160195238Y-86209890D01*
X160576190Y-86209890D01*
X160671428Y-86257510D01*
X160719047Y-86305129D01*
X160766666Y-86400367D01*
X160766666Y-86543224D01*
X160719047Y-86638462D01*
X160671428Y-86686081D01*
X160576190Y-86733700D01*
X160195238Y-86733700D01*
X161671428Y-87209890D02*
X161195238Y-87209890D01*
X161195238Y-86209890D01*
X161861904Y-86209890D02*
X162433333Y-86209890D01*
X162147619Y-87209890D02*
X162147619Y-86209890D01*
X163290476Y-87209890D02*
X162719047Y-87209890D01*
X163004761Y-87209890D02*
X163004761Y-86209890D01*
X162909523Y-86352748D01*
X162814285Y-86447986D01*
X162719047Y-86495605D01*
X163623809Y-86209890D02*
X164242857Y-86209890D01*
X163909523Y-86590843D01*
X164052380Y-86590843D01*
X164147619Y-86638462D01*
X164195238Y-86686081D01*
X164242857Y-86781319D01*
X164242857Y-87019414D01*
X164195238Y-87114652D01*
X164147619Y-87162271D01*
X164052380Y-87209890D01*
X163766666Y-87209890D01*
X163671428Y-87162271D01*
X163623809Y-87114652D01*
X164576190Y-86209890D02*
X165195238Y-86209890D01*
X164861904Y-86590843D01*
X165004761Y-86590843D01*
X165100000Y-86638462D01*
X165147619Y-86686081D01*
X165195238Y-86781319D01*
X165195238Y-87019414D01*
X165147619Y-87114652D01*
X165100000Y-87162271D01*
X165004761Y-87209890D01*
X164719047Y-87209890D01*
X164623809Y-87162271D01*
X164576190Y-87114652D01*
X166338095Y-86162271D02*
X165480952Y-87447986D01*
X166528571Y-86209890D02*
X167100000Y-86209890D01*
X166814285Y-87209890D02*
X166814285Y-86209890D01*
X167957142Y-87209890D02*
X167385714Y-87209890D01*
X167671428Y-87209890D02*
X167671428Y-86209890D01*
X167576190Y-86352748D01*
X167480952Y-86447986D01*
X167385714Y-86495605D01*
X168576190Y-86209890D02*
X168671428Y-86209890D01*
X168766666Y-86257510D01*
X168814285Y-86305129D01*
X168861904Y-86400367D01*
X168909523Y-86590843D01*
X168909523Y-86828938D01*
X168861904Y-87019414D01*
X168814285Y-87114652D01*
X168766666Y-87162271D01*
X168671428Y-87209890D01*
X168576190Y-87209890D01*
X168480952Y-87162271D01*
X168433333Y-87114652D01*
X168385714Y-87019414D01*
X168338095Y-86828938D01*
X168338095Y-86590843D01*
X168385714Y-86400367D01*
X168433333Y-86305129D01*
X168480952Y-86257510D01*
X168576190Y-86209890D01*
X169242857Y-86209890D02*
X169480952Y-87209890D01*
X169671428Y-86495605D01*
X169861904Y-87209890D01*
X170100000Y-86209890D01*
X100642380Y-88603333D02*
X101356666Y-88603333D01*
X101499523Y-88650952D01*
X101594761Y-88746190D01*
X101642380Y-88889047D01*
X101642380Y-88984285D01*
X101070952Y-87984285D02*
X101023333Y-88079523D01*
X100975714Y-88127142D01*
X100880476Y-88174761D01*
X100832857Y-88174761D01*
X100737619Y-88127142D01*
X100690000Y-88079523D01*
X100642380Y-87984285D01*
X100642380Y-87793809D01*
X100690000Y-87698571D01*
X100737619Y-87650952D01*
X100832857Y-87603333D01*
X100880476Y-87603333D01*
X100975714Y-87650952D01*
X101023333Y-87698571D01*
X101070952Y-87793809D01*
X101070952Y-87984285D01*
X101118571Y-88079523D01*
X101166190Y-88127142D01*
X101261428Y-88174761D01*
X101451904Y-88174761D01*
X101547142Y-88127142D01*
X101594761Y-88079523D01*
X101642380Y-87984285D01*
X101642380Y-87793809D01*
X101594761Y-87698571D01*
X101547142Y-87650952D01*
X101451904Y-87603333D01*
X101261428Y-87603333D01*
X101166190Y-87650952D01*
X101118571Y-87698571D01*
X101070952Y-87793809D01*
X50831904Y-84397371D02*
X50831904Y-85206895D01*
X50879523Y-85302133D01*
X50927142Y-85349752D01*
X51022380Y-85397371D01*
X51212857Y-85397371D01*
X51308095Y-85349752D01*
X51355714Y-85302133D01*
X51403333Y-85206895D01*
X51403333Y-84397371D01*
X52403333Y-85397371D02*
X51831904Y-85397371D01*
X52117619Y-85397371D02*
X52117619Y-84397371D01*
X52022380Y-84540229D01*
X51927142Y-84635467D01*
X51831904Y-84683086D01*
X52736666Y-84397371D02*
X53355714Y-84397371D01*
X53022380Y-84778324D01*
X53165238Y-84778324D01*
X53260476Y-84825943D01*
X53308095Y-84873562D01*
X53355714Y-84968800D01*
X53355714Y-85206895D01*
X53308095Y-85302133D01*
X53260476Y-85349752D01*
X53165238Y-85397371D01*
X52879523Y-85397371D01*
X52784285Y-85349752D01*
X52736666Y-85302133D01*
X59053095Y-152914880D02*
X59053095Y-153724404D01*
X59100714Y-153819642D01*
X59148333Y-153867261D01*
X59243571Y-153914880D01*
X59434047Y-153914880D01*
X59529285Y-153867261D01*
X59576904Y-153819642D01*
X59624523Y-153724404D01*
X59624523Y-152914880D01*
X60576904Y-152914880D02*
X60100714Y-152914880D01*
X60053095Y-153391071D01*
X60100714Y-153343452D01*
X60195952Y-153295833D01*
X60434047Y-153295833D01*
X60529285Y-153343452D01*
X60576904Y-153391071D01*
X60624523Y-153486309D01*
X60624523Y-153724404D01*
X60576904Y-153819642D01*
X60529285Y-153867261D01*
X60434047Y-153914880D01*
X60195952Y-153914880D01*
X60100714Y-153867261D01*
X60053095Y-153819642D01*
X45656666Y-64539761D02*
X45799523Y-64587380D01*
X46037619Y-64587380D01*
X46132857Y-64539761D01*
X46180476Y-64492142D01*
X46228095Y-64396904D01*
X46228095Y-64301666D01*
X46180476Y-64206428D01*
X46132857Y-64158809D01*
X46037619Y-64111190D01*
X45847142Y-64063571D01*
X45751904Y-64015952D01*
X45704285Y-63968333D01*
X45656666Y-63873095D01*
X45656666Y-63777857D01*
X45704285Y-63682619D01*
X45751904Y-63635000D01*
X45847142Y-63587380D01*
X46085238Y-63587380D01*
X46228095Y-63635000D01*
X46561428Y-63587380D02*
X46799523Y-64587380D01*
X46990000Y-63873095D01*
X47180476Y-64587380D01*
X47418571Y-63587380D01*
X48323333Y-64587380D02*
X47751904Y-64587380D01*
X48037619Y-64587380D02*
X48037619Y-63587380D01*
X47942380Y-63730238D01*
X47847142Y-63825476D01*
X47751904Y-63873095D01*
X157448333Y-56707380D02*
X157115000Y-56231190D01*
X156876904Y-56707380D02*
X156876904Y-55707380D01*
X157257857Y-55707380D01*
X157353095Y-55755000D01*
X157400714Y-55802619D01*
X157448333Y-55897857D01*
X157448333Y-56040714D01*
X157400714Y-56135952D01*
X157353095Y-56183571D01*
X157257857Y-56231190D01*
X156876904Y-56231190D01*
X157876904Y-56707380D02*
X157876904Y-55707380D01*
X158257857Y-55707380D01*
X158353095Y-55755000D01*
X158400714Y-55802619D01*
X158448333Y-55897857D01*
X158448333Y-56040714D01*
X158400714Y-56135952D01*
X158353095Y-56183571D01*
X158257857Y-56231190D01*
X157876904Y-56231190D01*
X159353095Y-55707380D02*
X158876904Y-55707380D01*
X158829285Y-56183571D01*
X158876904Y-56135952D01*
X158972142Y-56088333D01*
X159210238Y-56088333D01*
X159305476Y-56135952D01*
X159353095Y-56183571D01*
X159400714Y-56278809D01*
X159400714Y-56516904D01*
X159353095Y-56612142D01*
X159305476Y-56659761D01*
X159210238Y-56707380D01*
X158972142Y-56707380D01*
X158876904Y-56659761D01*
X158829285Y-56612142D01*
X130196904Y-110352380D02*
X130196904Y-111161904D01*
X130244523Y-111257142D01*
X130292142Y-111304761D01*
X130387380Y-111352380D01*
X130577857Y-111352380D01*
X130673095Y-111304761D01*
X130720714Y-111257142D01*
X130768333Y-111161904D01*
X130768333Y-110352380D01*
X131768333Y-111352380D02*
X131196904Y-111352380D01*
X131482619Y-111352380D02*
X131482619Y-110352380D01*
X131387380Y-110495238D01*
X131292142Y-110590476D01*
X131196904Y-110638095D01*
X132339761Y-110780952D02*
X132244523Y-110733333D01*
X132196904Y-110685714D01*
X132149285Y-110590476D01*
X132149285Y-110542857D01*
X132196904Y-110447619D01*
X132244523Y-110400000D01*
X132339761Y-110352380D01*
X132530238Y-110352380D01*
X132625476Y-110400000D01*
X132673095Y-110447619D01*
X132720714Y-110542857D01*
X132720714Y-110590476D01*
X132673095Y-110685714D01*
X132625476Y-110733333D01*
X132530238Y-110780952D01*
X132339761Y-110780952D01*
X132244523Y-110828571D01*
X132196904Y-110876190D01*
X132149285Y-110971428D01*
X132149285Y-111161904D01*
X132196904Y-111257142D01*
X132244523Y-111304761D01*
X132339761Y-111352380D01*
X132530238Y-111352380D01*
X132625476Y-111304761D01*
X132673095Y-111257142D01*
X132720714Y-111161904D01*
X132720714Y-110971428D01*
X132673095Y-110876190D01*
X132625476Y-110828571D01*
X132530238Y-110780952D01*
X54983142Y-104497142D02*
X54935523Y-104544761D01*
X54792666Y-104592380D01*
X54697428Y-104592380D01*
X54554571Y-104544761D01*
X54459333Y-104449523D01*
X54411714Y-104354285D01*
X54364095Y-104163809D01*
X54364095Y-104020952D01*
X54411714Y-103830476D01*
X54459333Y-103735238D01*
X54554571Y-103640000D01*
X54697428Y-103592380D01*
X54792666Y-103592380D01*
X54935523Y-103640000D01*
X54983142Y-103687619D01*
X55935523Y-104592380D02*
X55364095Y-104592380D01*
X55649809Y-104592380D02*
X55649809Y-103592380D01*
X55554571Y-103735238D01*
X55459333Y-103830476D01*
X55364095Y-103878095D01*
X56268857Y-103592380D02*
X56887904Y-103592380D01*
X56554571Y-103973333D01*
X56697428Y-103973333D01*
X56792666Y-104020952D01*
X56840285Y-104068571D01*
X56887904Y-104163809D01*
X56887904Y-104401904D01*
X56840285Y-104497142D01*
X56792666Y-104544761D01*
X56697428Y-104592380D01*
X56411714Y-104592380D01*
X56316476Y-104544761D01*
X56268857Y-104497142D01*
X57777142Y-75287142D02*
X57729523Y-75334761D01*
X57586666Y-75382380D01*
X57491428Y-75382380D01*
X57348571Y-75334761D01*
X57253333Y-75239523D01*
X57205714Y-75144285D01*
X57158095Y-74953809D01*
X57158095Y-74810952D01*
X57205714Y-74620476D01*
X57253333Y-74525238D01*
X57348571Y-74430000D01*
X57491428Y-74382380D01*
X57586666Y-74382380D01*
X57729523Y-74430000D01*
X57777142Y-74477619D01*
X58729523Y-75382380D02*
X58158095Y-75382380D01*
X58443809Y-75382380D02*
X58443809Y-74382380D01*
X58348571Y-74525238D01*
X58253333Y-74620476D01*
X58158095Y-74668095D01*
X59300952Y-74810952D02*
X59205714Y-74763333D01*
X59158095Y-74715714D01*
X59110476Y-74620476D01*
X59110476Y-74572857D01*
X59158095Y-74477619D01*
X59205714Y-74430000D01*
X59300952Y-74382380D01*
X59491428Y-74382380D01*
X59586666Y-74430000D01*
X59634285Y-74477619D01*
X59681904Y-74572857D01*
X59681904Y-74620476D01*
X59634285Y-74715714D01*
X59586666Y-74763333D01*
X59491428Y-74810952D01*
X59300952Y-74810952D01*
X59205714Y-74858571D01*
X59158095Y-74906190D01*
X59110476Y-75001428D01*
X59110476Y-75191904D01*
X59158095Y-75287142D01*
X59205714Y-75334761D01*
X59300952Y-75382380D01*
X59491428Y-75382380D01*
X59586666Y-75334761D01*
X59634285Y-75287142D01*
X59681904Y-75191904D01*
X59681904Y-75001428D01*
X59634285Y-74906190D01*
X59586666Y-74858571D01*
X59491428Y-74810952D01*
X50736666Y-64539761D02*
X50879523Y-64587380D01*
X51117619Y-64587380D01*
X51212857Y-64539761D01*
X51260476Y-64492142D01*
X51308095Y-64396904D01*
X51308095Y-64301666D01*
X51260476Y-64206428D01*
X51212857Y-64158809D01*
X51117619Y-64111190D01*
X50927142Y-64063571D01*
X50831904Y-64015952D01*
X50784285Y-63968333D01*
X50736666Y-63873095D01*
X50736666Y-63777857D01*
X50784285Y-63682619D01*
X50831904Y-63635000D01*
X50927142Y-63587380D01*
X51165238Y-63587380D01*
X51308095Y-63635000D01*
X51641428Y-63587380D02*
X51879523Y-64587380D01*
X52070000Y-63873095D01*
X52260476Y-64587380D01*
X52498571Y-63587380D01*
X52831904Y-63682619D02*
X52879523Y-63635000D01*
X52974761Y-63587380D01*
X53212857Y-63587380D01*
X53308095Y-63635000D01*
X53355714Y-63682619D01*
X53403333Y-63777857D01*
X53403333Y-63873095D01*
X53355714Y-64015952D01*
X52784285Y-64587380D01*
X53403333Y-64587380D01*
X81572380Y-171148333D02*
X82286666Y-171148333D01*
X82429523Y-171195952D01*
X82524761Y-171291190D01*
X82572380Y-171434047D01*
X82572380Y-171529285D01*
X82572380Y-170624523D02*
X82572380Y-170434047D01*
X82524761Y-170338809D01*
X82477142Y-170291190D01*
X82334285Y-170195952D01*
X82143809Y-170148333D01*
X81762857Y-170148333D01*
X81667619Y-170195952D01*
X81620000Y-170243571D01*
X81572380Y-170338809D01*
X81572380Y-170529285D01*
X81620000Y-170624523D01*
X81667619Y-170672142D01*
X81762857Y-170719761D01*
X82000952Y-170719761D01*
X82096190Y-170672142D01*
X82143809Y-170624523D01*
X82191428Y-170529285D01*
X82191428Y-170338809D01*
X82143809Y-170243571D01*
X82096190Y-170195952D01*
X82000952Y-170148333D01*
X154138333Y-70937380D02*
X153805000Y-70461190D01*
X153566904Y-70937380D02*
X153566904Y-69937380D01*
X153947857Y-69937380D01*
X154043095Y-69985000D01*
X154090714Y-70032619D01*
X154138333Y-70127857D01*
X154138333Y-70270714D01*
X154090714Y-70365952D01*
X154043095Y-70413571D01*
X153947857Y-70461190D01*
X153566904Y-70461190D01*
X154995476Y-70270714D02*
X154995476Y-70937380D01*
X154757380Y-69889761D02*
X154519285Y-70604047D01*
X155138333Y-70604047D01*
X159472380Y-67936904D02*
X159472380Y-67365476D01*
X160472380Y-67651190D02*
X159472380Y-67651190D01*
X160472380Y-67032142D02*
X159472380Y-67032142D01*
X159472380Y-66651190D01*
X159520000Y-66555952D01*
X159567619Y-66508333D01*
X159662857Y-66460714D01*
X159805714Y-66460714D01*
X159900952Y-66508333D01*
X159948571Y-66555952D01*
X159996190Y-66651190D01*
X159996190Y-67032142D01*
X159567619Y-66079761D02*
X159520000Y-66032142D01*
X159472380Y-65936904D01*
X159472380Y-65698809D01*
X159520000Y-65603571D01*
X159567619Y-65555952D01*
X159662857Y-65508333D01*
X159758095Y-65508333D01*
X159900952Y-65555952D01*
X160472380Y-66127380D01*
X160472380Y-65508333D01*
X50831904Y-72967371D02*
X50831904Y-73776895D01*
X50879523Y-73872133D01*
X50927142Y-73919752D01*
X51022380Y-73967371D01*
X51212857Y-73967371D01*
X51308095Y-73919752D01*
X51355714Y-73872133D01*
X51403333Y-73776895D01*
X51403333Y-72967371D01*
X52403333Y-73967371D02*
X51831904Y-73967371D01*
X52117619Y-73967371D02*
X52117619Y-72967371D01*
X52022380Y-73110229D01*
X51927142Y-73205467D01*
X51831904Y-73253086D01*
X52784285Y-73062610D02*
X52831904Y-73014991D01*
X52927142Y-72967371D01*
X53165238Y-72967371D01*
X53260476Y-73014991D01*
X53308095Y-73062610D01*
X53355714Y-73157848D01*
X53355714Y-73253086D01*
X53308095Y-73395943D01*
X52736666Y-73967371D01*
X53355714Y-73967371D01*
X67683142Y-154027142D02*
X67635523Y-154074761D01*
X67492666Y-154122380D01*
X67397428Y-154122380D01*
X67254571Y-154074761D01*
X67159333Y-153979523D01*
X67111714Y-153884285D01*
X67064095Y-153693809D01*
X67064095Y-153550952D01*
X67111714Y-153360476D01*
X67159333Y-153265238D01*
X67254571Y-153170000D01*
X67397428Y-153122380D01*
X67492666Y-153122380D01*
X67635523Y-153170000D01*
X67683142Y-153217619D01*
X68635523Y-154122380D02*
X68064095Y-154122380D01*
X68349809Y-154122380D02*
X68349809Y-153122380D01*
X68254571Y-153265238D01*
X68159333Y-153360476D01*
X68064095Y-153408095D01*
X69492666Y-153455714D02*
X69492666Y-154122380D01*
X69254571Y-153074761D02*
X69016476Y-153789047D01*
X69635523Y-153789047D01*
X168871666Y-54452380D02*
X168871666Y-55166666D01*
X168824047Y-55309523D01*
X168728809Y-55404761D01*
X168585952Y-55452380D01*
X168490714Y-55452380D01*
X169871666Y-55452380D02*
X169300238Y-55452380D01*
X169585952Y-55452380D02*
X169585952Y-54452380D01*
X169490714Y-54595238D01*
X169395476Y-54690476D01*
X169300238Y-54738095D01*
X156027380Y-62896666D02*
X155551190Y-63230000D01*
X156027380Y-63468095D02*
X155027380Y-63468095D01*
X155027380Y-63087142D01*
X155075000Y-62991904D01*
X155122619Y-62944285D01*
X155217857Y-62896666D01*
X155360714Y-62896666D01*
X155455952Y-62944285D01*
X155503571Y-62991904D01*
X155551190Y-63087142D01*
X155551190Y-63468095D01*
X156027380Y-62468095D02*
X155027380Y-62468095D01*
X155027380Y-62087142D01*
X155075000Y-61991904D01*
X155122619Y-61944285D01*
X155217857Y-61896666D01*
X155360714Y-61896666D01*
X155455952Y-61944285D01*
X155503571Y-61991904D01*
X155551190Y-62087142D01*
X155551190Y-62468095D01*
X155027380Y-61039523D02*
X155027380Y-61230000D01*
X155075000Y-61325238D01*
X155122619Y-61372857D01*
X155265476Y-61468095D01*
X155455952Y-61515714D01*
X155836904Y-61515714D01*
X155932142Y-61468095D01*
X155979761Y-61420476D01*
X156027380Y-61325238D01*
X156027380Y-61134761D01*
X155979761Y-61039523D01*
X155932142Y-60991904D01*
X155836904Y-60944285D01*
X155598809Y-60944285D01*
X155503571Y-60991904D01*
X155455952Y-61039523D01*
X155408333Y-61134761D01*
X155408333Y-61325238D01*
X155455952Y-61420476D01*
X155503571Y-61468095D01*
X155598809Y-61515714D01*
X146372066Y-71477142D02*
X146324447Y-71524761D01*
X146181590Y-71572380D01*
X146086352Y-71572380D01*
X145943494Y-71524761D01*
X145848256Y-71429523D01*
X145800637Y-71334285D01*
X145753018Y-71143809D01*
X145753018Y-71000952D01*
X145800637Y-70810476D01*
X145848256Y-70715238D01*
X145943494Y-70620000D01*
X146086352Y-70572380D01*
X146181590Y-70572380D01*
X146324447Y-70620000D01*
X146372066Y-70667619D01*
X147229209Y-70905714D02*
X147229209Y-71572380D01*
X146991113Y-70524761D02*
X146753018Y-71239047D01*
X147372066Y-71239047D01*
X167941666Y-41997380D02*
X167941666Y-42711666D01*
X167894047Y-42854523D01*
X167798809Y-42949761D01*
X167655952Y-42997380D01*
X167560714Y-42997380D01*
X168894047Y-41997380D02*
X168417857Y-41997380D01*
X168370238Y-42473571D01*
X168417857Y-42425952D01*
X168513095Y-42378333D01*
X168751190Y-42378333D01*
X168846428Y-42425952D01*
X168894047Y-42473571D01*
X168941666Y-42568809D01*
X168941666Y-42806904D01*
X168894047Y-42902142D01*
X168846428Y-42949761D01*
X168751190Y-42997380D01*
X168513095Y-42997380D01*
X168417857Y-42949761D01*
X168370238Y-42902142D01*
X59356666Y-40092380D02*
X59356666Y-40806666D01*
X59309047Y-40949523D01*
X59213809Y-41044761D01*
X59070952Y-41092380D01*
X58975714Y-41092380D01*
X59785238Y-40187619D02*
X59832857Y-40140000D01*
X59928095Y-40092380D01*
X60166190Y-40092380D01*
X60261428Y-40140000D01*
X60309047Y-40187619D01*
X60356666Y-40282857D01*
X60356666Y-40378095D01*
X60309047Y-40520952D01*
X59737619Y-41092380D01*
X60356666Y-41092380D01*
X67683142Y-134469142D02*
X67635523Y-134516761D01*
X67492666Y-134564380D01*
X67397428Y-134564380D01*
X67254571Y-134516761D01*
X67159333Y-134421523D01*
X67111714Y-134326285D01*
X67064095Y-134135809D01*
X67064095Y-133992952D01*
X67111714Y-133802476D01*
X67159333Y-133707238D01*
X67254571Y-133612000D01*
X67397428Y-133564380D01*
X67492666Y-133564380D01*
X67635523Y-133612000D01*
X67683142Y-133659619D01*
X68635523Y-134564380D02*
X68064095Y-134564380D01*
X68349809Y-134564380D02*
X68349809Y-133564380D01*
X68254571Y-133707238D01*
X68159333Y-133802476D01*
X68064095Y-133850095D01*
X69492666Y-133564380D02*
X69302190Y-133564380D01*
X69206952Y-133612000D01*
X69159333Y-133659619D01*
X69064095Y-133802476D01*
X69016476Y-133992952D01*
X69016476Y-134373904D01*
X69064095Y-134469142D01*
X69111714Y-134516761D01*
X69206952Y-134564380D01*
X69397428Y-134564380D01*
X69492666Y-134516761D01*
X69540285Y-134469142D01*
X69587904Y-134373904D01*
X69587904Y-134135809D01*
X69540285Y-134040571D01*
X69492666Y-133992952D01*
X69397428Y-133945333D01*
X69206952Y-133945333D01*
X69111714Y-133992952D01*
X69064095Y-134040571D01*
X69016476Y-134135809D01*
X59301142Y-85447142D02*
X59253523Y-85494761D01*
X59110666Y-85542380D01*
X59015428Y-85542380D01*
X58872571Y-85494761D01*
X58777333Y-85399523D01*
X58729714Y-85304285D01*
X58682095Y-85113809D01*
X58682095Y-84970952D01*
X58729714Y-84780476D01*
X58777333Y-84685238D01*
X58872571Y-84590000D01*
X59015428Y-84542380D01*
X59110666Y-84542380D01*
X59253523Y-84590000D01*
X59301142Y-84637619D01*
X60253523Y-85542380D02*
X59682095Y-85542380D01*
X59967809Y-85542380D02*
X59967809Y-84542380D01*
X59872571Y-84685238D01*
X59777333Y-84780476D01*
X59682095Y-84828095D01*
X60586857Y-84542380D02*
X61253523Y-84542380D01*
X60824952Y-85542380D01*
D13*
X58234523Y-111094761D02*
X56964523Y-111094761D01*
X58113571Y-109764285D02*
X58174047Y-109824761D01*
X58234523Y-110006190D01*
X58234523Y-110127142D01*
X58174047Y-110308571D01*
X58053095Y-110429523D01*
X57932142Y-110490000D01*
X57690238Y-110550476D01*
X57508809Y-110550476D01*
X57266904Y-110490000D01*
X57145952Y-110429523D01*
X57025000Y-110308571D01*
X56964523Y-110127142D01*
X56964523Y-110006190D01*
X57025000Y-109824761D01*
X57085476Y-109764285D01*
X58234523Y-108554761D02*
X58234523Y-109280476D01*
X58234523Y-108917619D02*
X56964523Y-108917619D01*
X57145952Y-109038571D01*
X57266904Y-109159523D01*
X57327380Y-109280476D01*
D10*
X48982380Y-110688333D02*
X49696666Y-110688333D01*
X49839523Y-110735952D01*
X49934761Y-110831190D01*
X49982380Y-110974047D01*
X49982380Y-111069285D01*
X49982380Y-110212142D02*
X48982380Y-110212142D01*
X48982380Y-109831190D01*
X49030000Y-109735952D01*
X49077619Y-109688333D01*
X49172857Y-109640714D01*
X49315714Y-109640714D01*
X49410952Y-109688333D01*
X49458571Y-109735952D01*
X49506190Y-109831190D01*
X49506190Y-110212142D01*
X49982380Y-108688333D02*
X49982380Y-109259761D01*
X49982380Y-108974047D02*
X48982380Y-108974047D01*
X49125238Y-109069285D01*
X49220476Y-109164523D01*
X49268095Y-109259761D01*
X147042142Y-40647857D02*
X147089761Y-40695476D01*
X147137380Y-40838333D01*
X147137380Y-40933571D01*
X147089761Y-41076428D01*
X146994523Y-41171666D01*
X146899285Y-41219285D01*
X146708809Y-41266904D01*
X146565952Y-41266904D01*
X146375476Y-41219285D01*
X146280238Y-41171666D01*
X146185000Y-41076428D01*
X146137380Y-40933571D01*
X146137380Y-40838333D01*
X146185000Y-40695476D01*
X146232619Y-40647857D01*
X147137380Y-39695476D02*
X147137380Y-40266904D01*
X147137380Y-39981190D02*
X146137380Y-39981190D01*
X146280238Y-40076428D01*
X146375476Y-40171666D01*
X146423095Y-40266904D01*
X147137380Y-38743095D02*
X147137380Y-39314523D01*
X147137380Y-39028809D02*
X146137380Y-39028809D01*
X146280238Y-39124047D01*
X146375476Y-39219285D01*
X146423095Y-39314523D01*
X155241666Y-102322380D02*
X155241666Y-103036666D01*
X155194047Y-103179523D01*
X155098809Y-103274761D01*
X154955952Y-103322380D01*
X154860714Y-103322380D01*
X155622619Y-102322380D02*
X156241666Y-102322380D01*
X155908333Y-102703333D01*
X156051190Y-102703333D01*
X156146428Y-102750952D01*
X156194047Y-102798571D01*
X156241666Y-102893809D01*
X156241666Y-103131904D01*
X156194047Y-103227142D01*
X156146428Y-103274761D01*
X156051190Y-103322380D01*
X155765476Y-103322380D01*
X155670238Y-103274761D01*
X155622619Y-103227142D01*
X155241666Y-109942380D02*
X155241666Y-110656666D01*
X155194047Y-110799523D01*
X155098809Y-110894761D01*
X154955952Y-110942380D01*
X154860714Y-110942380D01*
X156146428Y-109942380D02*
X155955952Y-109942380D01*
X155860714Y-109990000D01*
X155813095Y-110037619D01*
X155717857Y-110180476D01*
X155670238Y-110370952D01*
X155670238Y-110751904D01*
X155717857Y-110847142D01*
X155765476Y-110894761D01*
X155860714Y-110942380D01*
X156051190Y-110942380D01*
X156146428Y-110894761D01*
X156194047Y-110847142D01*
X156241666Y-110751904D01*
X156241666Y-110513809D01*
X156194047Y-110418571D01*
X156146428Y-110370952D01*
X156051190Y-110323333D01*
X155860714Y-110323333D01*
X155765476Y-110370952D01*
X155717857Y-110418571D01*
X155670238Y-110513809D01*
X151852380Y-67936904D02*
X151852380Y-67365476D01*
X152852380Y-67651190D02*
X151852380Y-67651190D01*
X152852380Y-67032142D02*
X151852380Y-67032142D01*
X151852380Y-66651190D01*
X151900000Y-66555952D01*
X151947619Y-66508333D01*
X152042857Y-66460714D01*
X152185714Y-66460714D01*
X152280952Y-66508333D01*
X152328571Y-66555952D01*
X152376190Y-66651190D01*
X152376190Y-67032142D01*
X151852380Y-66127380D02*
X151852380Y-65508333D01*
X152233333Y-65841666D01*
X152233333Y-65698809D01*
X152280952Y-65603571D01*
X152328571Y-65555952D01*
X152423809Y-65508333D01*
X152661904Y-65508333D01*
X152757142Y-65555952D01*
X152804761Y-65603571D01*
X152852380Y-65698809D01*
X152852380Y-65984523D01*
X152804761Y-66079761D01*
X152757142Y-66127380D01*
X108251666Y-169552380D02*
X108251666Y-170266666D01*
X108204047Y-170409523D01*
X108108809Y-170504761D01*
X107965952Y-170552380D01*
X107870714Y-170552380D01*
X109156428Y-169885714D02*
X109156428Y-170552380D01*
X108918333Y-169504761D02*
X108680238Y-170219047D01*
X109299285Y-170219047D01*
X59053095Y-172599880D02*
X59053095Y-173409404D01*
X59100714Y-173504642D01*
X59148333Y-173552261D01*
X59243571Y-173599880D01*
X59434047Y-173599880D01*
X59529285Y-173552261D01*
X59576904Y-173504642D01*
X59624523Y-173409404D01*
X59624523Y-172599880D01*
X60529285Y-172599880D02*
X60338809Y-172599880D01*
X60243571Y-172647500D01*
X60195952Y-172695119D01*
X60100714Y-172837976D01*
X60053095Y-173028452D01*
X60053095Y-173409404D01*
X60100714Y-173504642D01*
X60148333Y-173552261D01*
X60243571Y-173599880D01*
X60434047Y-173599880D01*
X60529285Y-173552261D01*
X60576904Y-173504642D01*
X60624523Y-173409404D01*
X60624523Y-173171309D01*
X60576904Y-173076071D01*
X60529285Y-173028452D01*
X60434047Y-172980833D01*
X60243571Y-172980833D01*
X60148333Y-173028452D01*
X60100714Y-173076071D01*
X60053095Y-173171309D01*
X61317142Y-50376554D02*
X61364761Y-50424173D01*
X61412380Y-50567030D01*
X61412380Y-50662268D01*
X61364761Y-50805126D01*
X61269523Y-50900364D01*
X61174285Y-50947983D01*
X60983809Y-50995602D01*
X60840952Y-50995602D01*
X60650476Y-50947983D01*
X60555238Y-50900364D01*
X60460000Y-50805126D01*
X60412380Y-50662268D01*
X60412380Y-50567030D01*
X60460000Y-50424173D01*
X60507619Y-50376554D01*
X61412380Y-49424173D02*
X61412380Y-49995602D01*
X61412380Y-49709888D02*
X60412380Y-49709888D01*
X60555238Y-49805126D01*
X60650476Y-49900364D01*
X60698095Y-49995602D01*
X59053095Y-133229880D02*
X59053095Y-134039404D01*
X59100714Y-134134642D01*
X59148333Y-134182261D01*
X59243571Y-134229880D01*
X59434047Y-134229880D01*
X59529285Y-134182261D01*
X59576904Y-134134642D01*
X59624523Y-134039404D01*
X59624523Y-133229880D01*
X60529285Y-133563214D02*
X60529285Y-134229880D01*
X60291190Y-133182261D02*
X60053095Y-133896547D01*
X60672142Y-133896547D01*
X146982142Y-47042745D02*
X147029761Y-47090364D01*
X147077380Y-47233221D01*
X147077380Y-47328459D01*
X147029761Y-47471316D01*
X146934523Y-47566554D01*
X146839285Y-47614173D01*
X146648809Y-47661792D01*
X146505952Y-47661792D01*
X146315476Y-47614173D01*
X146220238Y-47566554D01*
X146125000Y-47471316D01*
X146077380Y-47328459D01*
X146077380Y-47233221D01*
X146125000Y-47090364D01*
X146172619Y-47042745D01*
X147077380Y-46090364D02*
X147077380Y-46661792D01*
X147077380Y-46376078D02*
X146077380Y-46376078D01*
X146220238Y-46471316D01*
X146315476Y-46566554D01*
X146363095Y-46661792D01*
X146172619Y-45709411D02*
X146125000Y-45661792D01*
X146077380Y-45566554D01*
X146077380Y-45328459D01*
X146125000Y-45233221D01*
X146172619Y-45185602D01*
X146267857Y-45137983D01*
X146363095Y-45137983D01*
X146505952Y-45185602D01*
X147077380Y-45757030D01*
X147077380Y-45137983D01*
X61317142Y-56636779D02*
X61364761Y-56684398D01*
X61412380Y-56827255D01*
X61412380Y-56922493D01*
X61364761Y-57065351D01*
X61269523Y-57160589D01*
X61174285Y-57208208D01*
X60983809Y-57255827D01*
X60840952Y-57255827D01*
X60650476Y-57208208D01*
X60555238Y-57160589D01*
X60460000Y-57065351D01*
X60412380Y-56922493D01*
X60412380Y-56827255D01*
X60460000Y-56684398D01*
X60507619Y-56636779D01*
X60507619Y-56255827D02*
X60460000Y-56208208D01*
X60412380Y-56112970D01*
X60412380Y-55874874D01*
X60460000Y-55779636D01*
X60507619Y-55732017D01*
X60602857Y-55684398D01*
X60698095Y-55684398D01*
X60840952Y-55732017D01*
X61412380Y-56303446D01*
X61412380Y-55684398D01*
X51736666Y-40092380D02*
X51736666Y-40806666D01*
X51689047Y-40949523D01*
X51593809Y-41044761D01*
X51450952Y-41092380D01*
X51355714Y-41092380D01*
X52117619Y-40092380D02*
X52784285Y-40092380D01*
X52355714Y-41092380D01*
D14*
X146000000Y-73675000D02*
X152250000Y-73675000D01*
X146000000Y-78725000D02*
X152250000Y-78725000D01*
X152250000Y-78725000D02*
G75*
G03*
X152250000Y-73675000I0J2525000D01*
G01*
X146000000Y-73675000D02*
G75*
G03*
X146000000Y-78725000I0J-2525000D01*
G01*
X64877733Y-172972000D02*
X65170267Y-172972000D01*
X64877733Y-173992000D02*
X65170267Y-173992000D01*
X151467500Y-67445000D02*
X147407500Y-67445000D01*
X151467500Y-69715000D02*
X151467500Y-67445000D01*
X147407500Y-69715000D02*
X151467500Y-69715000D01*
D10*
X48526200Y-86857500D02*
X56276200Y-86857500D01*
X48526200Y-86857500D02*
X48526200Y-87205000D01*
X48526200Y-103007500D02*
X48526200Y-102660000D01*
X48526200Y-87205000D02*
X47101200Y-87205000D01*
X56276200Y-103007500D02*
X56276200Y-102660000D01*
X48526200Y-103007500D02*
X56276200Y-103007500D01*
X56276200Y-86857500D02*
X56276200Y-87205000D01*
D15*
X170495010Y-71350000D02*
X156995010Y-71350000D01*
X170495010Y-81050000D02*
X170495010Y-71350000D01*
X156995010Y-81050000D02*
X156995010Y-71350000D01*
X170495010Y-81050000D02*
X156995010Y-81050000D01*
D16*
X159485010Y-81600000D02*
G75*
G03*
X159485010Y-81600000I-100000J0D01*
G01*
D14*
X157860276Y-69737500D02*
X158369724Y-69737500D01*
X157860276Y-68692500D02*
X158369724Y-68692500D01*
X151276267Y-71880000D02*
X150983733Y-71880000D01*
X151276267Y-72900000D02*
X150983733Y-72900000D01*
D15*
X156995010Y-91607510D02*
X156995010Y-81907510D01*
X170495010Y-91607510D02*
X156995010Y-91607510D01*
X170495010Y-81907510D02*
X156995010Y-81907510D01*
X170495010Y-91607510D02*
X170495010Y-81907510D01*
D16*
X159485010Y-92157510D02*
G75*
G03*
X159485010Y-92157510I-100000J0D01*
G01*
D14*
X102190000Y-85670000D02*
X122630000Y-85670000D01*
X102190000Y-90870000D02*
X102190000Y-89540000D01*
X103520000Y-90870000D02*
X102190000Y-90870000D01*
X104790000Y-88270000D02*
X102190000Y-88270000D01*
X104790000Y-90870000D02*
X104790000Y-88270000D01*
X104790000Y-90870000D02*
X122630000Y-90870000D01*
X102190000Y-88270000D02*
X102190000Y-85670000D01*
X122630000Y-90870000D02*
X122630000Y-85670000D01*
D10*
X53025000Y-77270000D02*
X48575000Y-77270000D01*
X54550000Y-84020000D02*
X48575000Y-84020000D01*
X63358800Y-136387500D02*
X55608800Y-136387500D01*
X63358800Y-152537500D02*
X63358800Y-152190000D01*
X63358800Y-152537500D02*
X55608800Y-152537500D01*
X63358800Y-136387500D02*
X63358800Y-136735000D01*
X55608800Y-136387500D02*
X55608800Y-136735000D01*
X63358800Y-152190000D02*
X64783800Y-152190000D01*
X55608800Y-152537500D02*
X55608800Y-152190000D01*
X48260000Y-60325000D02*
X48260000Y-55245000D01*
X45720000Y-60325000D02*
X48260000Y-60325000D01*
X48260000Y-55245000D02*
X45720000Y-55245000D01*
X45720000Y-55245000D02*
X45720000Y-60325000D01*
X48540000Y-63145000D02*
X45440000Y-63145000D01*
X45440000Y-63145000D02*
X45440000Y-61595000D01*
X48540000Y-61595000D02*
X48540000Y-63145000D01*
D14*
X158615000Y-57375000D02*
X157615000Y-57375000D01*
X158615000Y-60735000D02*
X157615000Y-60735000D01*
X134085000Y-109900000D02*
X134085000Y-102160000D01*
X134085000Y-102160000D02*
X128785000Y-102160000D01*
X132435000Y-109900000D02*
X134085000Y-109900000D01*
X128785000Y-102160000D02*
X128785000Y-109900000D01*
X128785000Y-109900000D02*
X130435000Y-109900000D01*
X132435000Y-109900000D02*
G75*
G03*
X130435000Y-109900000I-1000000J0D01*
G01*
X52177733Y-104650000D02*
X52470267Y-104650000D01*
X52177733Y-103630000D02*
X52470267Y-103630000D01*
X55225733Y-73912000D02*
X55518267Y-73912000D01*
X55225733Y-74932000D02*
X55518267Y-74932000D01*
D10*
X50520000Y-63155000D02*
X50520000Y-61605000D01*
X53340000Y-55255000D02*
X50800000Y-55255000D01*
X50800000Y-55255000D02*
X50800000Y-60335000D01*
X53340000Y-60335000D02*
X53340000Y-55255000D01*
X50800000Y-60335000D02*
X53340000Y-60335000D01*
X53620000Y-61605000D02*
X53620000Y-63155000D01*
X53620000Y-63155000D02*
X50520000Y-63155000D01*
D14*
X88320000Y-172145000D02*
X88320000Y-169485000D01*
X85720000Y-172145000D02*
X88320000Y-172145000D01*
X85720000Y-172145000D02*
X85720000Y-169485000D01*
X83120000Y-172145000D02*
X83120000Y-170815000D01*
X85720000Y-169485000D02*
X88320000Y-169485000D01*
X84450000Y-172145000D02*
X83120000Y-172145000D01*
X154050276Y-69737500D02*
X154559724Y-69737500D01*
X154050276Y-68692500D02*
X154559724Y-68692500D01*
X159315000Y-65475000D02*
X159315000Y-67875000D01*
X159315000Y-67875000D02*
X156915000Y-67875000D01*
X156915000Y-65475000D02*
X159315000Y-65475000D01*
X156915000Y-67875000D02*
X156915000Y-65475000D01*
D10*
X53025000Y-65840000D02*
X48575000Y-65840000D01*
X54550000Y-72590000D02*
X48575000Y-72590000D01*
D15*
X130855000Y-34805000D02*
X68405000Y-34805000D01*
X130975000Y-83305000D02*
X68525000Y-83305000D01*
X137405000Y-41055000D02*
X137405000Y-77105000D01*
X62655000Y-41235000D02*
X62655000Y-77285000D01*
D14*
X64877733Y-154180000D02*
X65170267Y-154180000D01*
X64877733Y-153160000D02*
X65170267Y-153160000D01*
D17*
X170520000Y-56505000D02*
X170807500Y-56505000D01*
X166195000Y-57530000D02*
X166195000Y-58455000D01*
X170520000Y-67955000D02*
X170820000Y-67955000D01*
X166195000Y-58455000D02*
X165895000Y-58455000D01*
D14*
X158615000Y-64545000D02*
X157615000Y-64545000D01*
X158615000Y-61185000D02*
X157615000Y-61185000D01*
X146538733Y-71880000D02*
X146831267Y-71880000D01*
X146538733Y-72900000D02*
X146831267Y-72900000D01*
X164265000Y-51425000D02*
X159165000Y-51425000D01*
X169165000Y-50325000D02*
X169165000Y-51075000D01*
X164265000Y-43825000D02*
X157265000Y-43825000D01*
X166665000Y-44175000D02*
X169165000Y-44175000D01*
X157265000Y-48675000D02*
X157265000Y-46575000D01*
X169165000Y-51075000D02*
X166665000Y-51075000D01*
X169165000Y-44175000D02*
X169165000Y-44925000D01*
X61020000Y-45720000D02*
X61020000Y-47050000D01*
X61020000Y-47050000D02*
X59690000Y-47050000D01*
X61020000Y-44450000D02*
X61020000Y-41850000D01*
X58360000Y-44450000D02*
X58360000Y-41850000D01*
X61020000Y-41850000D02*
X58360000Y-41850000D01*
X61020000Y-44450000D02*
X58360000Y-44450000D01*
X64877733Y-133602000D02*
X65170267Y-133602000D01*
X64877733Y-134622000D02*
X65170267Y-134622000D01*
X56495733Y-84580000D02*
X56788267Y-84580000D01*
X56495733Y-85600000D02*
X56788267Y-85600000D01*
D16*
X54160000Y-113505000D02*
X54160000Y-112055000D01*
X60910000Y-111705000D02*
X54410000Y-111705000D01*
X54410000Y-108005000D02*
X60910000Y-108005000D01*
X54410000Y-111705000D02*
X54410000Y-108005000D01*
X60910000Y-108005000D02*
X60910000Y-111705000D01*
D17*
X53470000Y-112485000D02*
X52970000Y-112485000D01*
X53470000Y-107185000D02*
X53470000Y-107685000D01*
X50670000Y-112485000D02*
X50670000Y-111985000D01*
X50670000Y-107185000D02*
X51170000Y-107185000D01*
X53470000Y-112485000D02*
X53470000Y-111985000D01*
X53470000Y-107185000D02*
X52970000Y-107185000D01*
X50670000Y-112485000D02*
X51170000Y-112485000D01*
X50670000Y-107185000D02*
X50670000Y-107685000D01*
D14*
X143915000Y-37719113D02*
X144194000Y-37719113D01*
X143915000Y-38159113D02*
X144739000Y-38159113D01*
X141321000Y-37879113D02*
X141835000Y-37879113D01*
X143915000Y-38079113D02*
X144660000Y-38079113D01*
X140319000Y-39600113D02*
X141835000Y-39600113D01*
X143915000Y-38319113D02*
X144879000Y-38319113D01*
X143915000Y-38879113D02*
X145223000Y-38879113D01*
X143915000Y-37679113D02*
X144126000Y-37679113D01*
X140374000Y-39320113D02*
X141835000Y-39320113D01*
X143915000Y-37759113D02*
X144258000Y-37759113D01*
X143915000Y-38999113D02*
X145273000Y-38999113D01*
X143915000Y-39360113D02*
X145386000Y-39360113D01*
X143915000Y-39119113D02*
X145317000Y-39119113D01*
X142070000Y-37479113D02*
X143680000Y-37479113D01*
X143915000Y-37879113D02*
X144429000Y-37879113D01*
X143915000Y-38639113D02*
X145099000Y-38639113D01*
X140607000Y-38719113D02*
X141835000Y-38719113D01*
X140420000Y-39159113D02*
X141835000Y-39159113D01*
X143915000Y-39440113D02*
X145403000Y-39440113D01*
X143915000Y-39159113D02*
X145330000Y-39159113D01*
X140565000Y-38799113D02*
X141835000Y-38799113D01*
X143915000Y-39320113D02*
X145376000Y-39320113D01*
X143915000Y-38199113D02*
X144776000Y-38199113D01*
X140306000Y-39720113D02*
X141835000Y-39720113D01*
X141375000Y-37839113D02*
X141835000Y-37839113D01*
X140493000Y-38959113D02*
X141835000Y-38959113D01*
X143915000Y-38119113D02*
X144701000Y-38119113D01*
X140780000Y-38439113D02*
X141835000Y-38439113D01*
X140299000Y-39800113D02*
X145451000Y-39800113D01*
X143915000Y-39039113D02*
X145289000Y-39039113D01*
X141697000Y-37639113D02*
X144053000Y-37639113D01*
X142591000Y-37359113D02*
X143159000Y-37359113D01*
X143915000Y-37959113D02*
X144528000Y-37959113D01*
X141492000Y-37759113D02*
X141835000Y-37759113D01*
X143915000Y-39600113D02*
X145431000Y-39600113D01*
X140810000Y-38399113D02*
X141835000Y-38399113D01*
X143915000Y-38359113D02*
X144910000Y-38359113D01*
X140310000Y-39680113D02*
X141835000Y-39680113D01*
X141222000Y-37959113D02*
X141835000Y-37959113D01*
X141049000Y-38119113D02*
X141835000Y-38119113D01*
X141176000Y-37999113D02*
X141835000Y-37999113D01*
X140302000Y-39760113D02*
X145448000Y-39760113D01*
X143915000Y-38039113D02*
X144618000Y-38039113D01*
X143915000Y-39560113D02*
X145425000Y-39560113D01*
X141624000Y-37679113D02*
X141835000Y-37679113D01*
X140871000Y-38319113D02*
X141835000Y-38319113D01*
X143915000Y-39640113D02*
X145436000Y-39640113D01*
X140628000Y-38679113D02*
X141835000Y-38679113D01*
X143915000Y-38399113D02*
X144940000Y-38399113D01*
X142357000Y-37399113D02*
X143393000Y-37399113D01*
X143915000Y-38439113D02*
X144970000Y-38439113D01*
X143915000Y-39400113D02*
X145395000Y-39400113D01*
X140297000Y-39840113D02*
X145453000Y-39840113D01*
X140904000Y-38279113D02*
X141835000Y-38279113D01*
X140651000Y-38639113D02*
X141835000Y-38639113D01*
X141777000Y-37599113D02*
X143973000Y-37599113D01*
X140364000Y-39360113D02*
X141835000Y-39360113D01*
X140461000Y-39039113D02*
X141835000Y-39039113D01*
X141011000Y-38159113D02*
X141835000Y-38159113D01*
X141864000Y-37559113D02*
X143886000Y-37559113D01*
X143915000Y-39480113D02*
X145411000Y-39480113D01*
X140974000Y-38199113D02*
X141835000Y-38199113D01*
X143915000Y-38479113D02*
X144997000Y-38479113D01*
X141090000Y-38079113D02*
X141835000Y-38079113D01*
X143915000Y-38719113D02*
X145143000Y-38719113D01*
X142198000Y-37439113D02*
X143552000Y-37439113D01*
X140339000Y-39480113D02*
X141835000Y-39480113D01*
X140347000Y-39440113D02*
X141835000Y-39440113D01*
X143915000Y-38919113D02*
X145240000Y-38919113D01*
X143915000Y-39680113D02*
X145440000Y-39680113D01*
X140840000Y-38359113D02*
X141835000Y-38359113D01*
X140314000Y-39640113D02*
X141835000Y-39640113D01*
X143915000Y-39520113D02*
X145418000Y-39520113D01*
X141400000Y-42764888D02*
X141400000Y-42264888D01*
X143915000Y-38839113D02*
X145204000Y-38839113D01*
X143915000Y-37839113D02*
X144375000Y-37839113D01*
X140726000Y-38519113D02*
X141835000Y-38519113D01*
X140938000Y-38239113D02*
X141835000Y-38239113D01*
X140295000Y-39920113D02*
X145455000Y-39920113D01*
X143915000Y-38759113D02*
X145165000Y-38759113D01*
X141270000Y-37919113D02*
X141835000Y-37919113D01*
X141132000Y-38039113D02*
X141835000Y-38039113D01*
X143915000Y-37999113D02*
X144574000Y-37999113D01*
X143915000Y-38279113D02*
X144846000Y-38279113D01*
X140753000Y-38479113D02*
X141835000Y-38479113D01*
X140477000Y-38999113D02*
X141835000Y-38999113D01*
X143915000Y-39199113D02*
X145343000Y-39199113D01*
X141960000Y-37519113D02*
X143790000Y-37519113D01*
X140384000Y-39280113D02*
X141835000Y-39280113D01*
X140433000Y-39119113D02*
X141835000Y-39119113D01*
X143915000Y-38799113D02*
X145185000Y-38799113D01*
X143915000Y-38959113D02*
X145257000Y-38959113D01*
X141556000Y-37719113D02*
X141835000Y-37719113D01*
X140700000Y-38559113D02*
X141835000Y-38559113D01*
X143915000Y-38239113D02*
X144812000Y-38239113D01*
X140527000Y-38879113D02*
X141835000Y-38879113D01*
X141432000Y-37799113D02*
X141835000Y-37799113D01*
X140407000Y-39199113D02*
X141835000Y-39199113D01*
X140395000Y-39239113D02*
X141835000Y-39239113D01*
X141150000Y-42514888D02*
X141650000Y-42514888D01*
X140546000Y-38839113D02*
X141835000Y-38839113D01*
X143915000Y-38559113D02*
X145050000Y-38559113D01*
X143915000Y-37919113D02*
X144480000Y-37919113D01*
X140510000Y-38919113D02*
X141835000Y-38919113D01*
X143915000Y-38599113D02*
X145075000Y-38599113D01*
X140585000Y-38759113D02*
X141835000Y-38759113D01*
X143915000Y-39079113D02*
X145303000Y-39079113D01*
X140675000Y-38599113D02*
X141835000Y-38599113D01*
X143915000Y-39239113D02*
X145355000Y-39239113D01*
X143915000Y-38519113D02*
X145024000Y-38519113D01*
X140355000Y-39400113D02*
X141835000Y-39400113D01*
X143915000Y-37799113D02*
X144318000Y-37799113D01*
X143915000Y-39720113D02*
X145444000Y-39720113D01*
X140295000Y-39960113D02*
X145455000Y-39960113D01*
X140325000Y-39560113D02*
X141835000Y-39560113D01*
X143915000Y-39280113D02*
X145366000Y-39280113D01*
X140447000Y-39079113D02*
X141835000Y-39079113D01*
X140332000Y-39520113D02*
X141835000Y-39520113D01*
X143915000Y-38679113D02*
X145122000Y-38679113D01*
X140296000Y-39880113D02*
X145454000Y-39880113D01*
X145495000Y-39960113D02*
G75*
G03*
X145495000Y-39960113I-2620000J0D01*
G01*
X157265000Y-98840000D02*
X157265000Y-96740000D01*
X169165000Y-94340000D02*
X169165000Y-95090000D01*
X169165000Y-100490000D02*
X169165000Y-101240000D01*
X164265000Y-93990000D02*
X157265000Y-93990000D01*
X164265000Y-101590000D02*
X159165000Y-101590000D01*
X166665000Y-94340000D02*
X169165000Y-94340000D01*
X169165000Y-101240000D02*
X166665000Y-101240000D01*
X164265000Y-103515000D02*
X157265000Y-103515000D01*
X169165000Y-110015000D02*
X169165000Y-110765000D01*
X166665000Y-103865000D02*
X169165000Y-103865000D01*
X169165000Y-103865000D02*
X169165000Y-104615000D01*
X169165000Y-110765000D02*
X166665000Y-110765000D01*
X157265000Y-108365000D02*
X157265000Y-106265000D01*
X164265000Y-111115000D02*
X159165000Y-111115000D01*
X155505000Y-65475000D02*
X155505000Y-67875000D01*
X153105000Y-67875000D02*
X153105000Y-65475000D01*
X153105000Y-65475000D02*
X155505000Y-65475000D01*
X155505000Y-67875000D02*
X153105000Y-67875000D01*
X83125000Y-163830000D02*
X83125000Y-162500000D01*
X141145000Y-141600000D02*
X141115000Y-115690000D01*
X134045000Y-167700000D02*
X134045000Y-162500000D01*
X83125000Y-167700000D02*
X134045000Y-167700000D01*
X83125000Y-162500000D02*
X84455000Y-162500000D01*
X138085000Y-138540000D02*
X134145000Y-138540000D01*
X141145000Y-162160000D02*
X141145000Y-165600000D01*
X142345000Y-162160000D02*
X142345000Y-145040000D01*
X83125000Y-167700000D02*
X83125000Y-165100000D01*
X82775000Y-138540000D02*
X79085000Y-138540000D01*
X76025000Y-165600000D02*
X76025000Y-141600000D01*
X142345000Y-145040000D02*
X141145000Y-145040000D01*
X76025000Y-141600000D02*
X76025000Y-115830000D01*
X134145000Y-136740000D02*
X126025000Y-136740000D01*
X138085000Y-168660000D02*
X79085000Y-168660000D01*
X94195000Y-137840000D02*
X82775000Y-137840000D01*
X113425000Y-138540000D02*
X94195000Y-138540000D01*
X85725000Y-162500000D02*
X134045000Y-162500000D01*
X82775000Y-137840000D02*
X82775000Y-138540000D01*
X126025000Y-136740000D02*
X126025000Y-138540000D01*
X126025000Y-138540000D02*
X121545000Y-138540000D01*
X141145000Y-145040000D02*
X141145000Y-141600000D01*
X141145000Y-162160000D02*
X142345000Y-162160000D01*
X83125000Y-165100000D02*
X85725000Y-165100000D01*
X121545000Y-136740000D02*
X113425000Y-136740000D01*
X138055000Y-112630000D02*
X79145000Y-112630000D01*
X134145000Y-138540000D02*
X134145000Y-136740000D01*
X94195000Y-138540000D02*
X94195000Y-137840000D01*
X85725000Y-165100000D02*
X85725000Y-162500000D01*
X113425000Y-136740000D02*
X113425000Y-138540000D01*
X121545000Y-138540000D02*
X121545000Y-136740000D01*
X79145001Y-112630025D02*
G75*
G03*
X76025000Y-115830000I80999J-3199975D01*
G01*
X79085000Y-138540000D02*
G75*
G03*
X76025000Y-141600000I0J-3060000D01*
G01*
X138085000Y-168660000D02*
G75*
G03*
X141145000Y-165600000I1J3059999D01*
G01*
X141145000Y-141600000D02*
G75*
G03*
X138085000Y-138540000I-3060000J0D01*
G01*
X141115000Y-115690000D02*
G75*
G03*
X138055000Y-112630000I-3060000J0D01*
G01*
X76025000Y-165600000D02*
G75*
G03*
X79085000Y-168660000I3059999J-1D01*
G01*
D10*
X63358800Y-156072500D02*
X55608800Y-156072500D01*
X63358800Y-172222500D02*
X63358800Y-171875000D01*
X55608800Y-156072500D02*
X55608800Y-156420000D01*
X63358800Y-171875000D02*
X64783800Y-171875000D01*
X63358800Y-156072500D02*
X63358800Y-156420000D01*
X55608800Y-172222500D02*
X55608800Y-171875000D01*
X63358800Y-172222500D02*
X55608800Y-172222500D01*
D14*
X58803000Y-52210888D02*
X58190000Y-52210888D01*
X59670000Y-50769888D02*
X58190000Y-50769888D01*
X59630000Y-50930888D02*
X58190000Y-50930888D01*
X58755000Y-52250888D02*
X58190000Y-52250888D01*
X56110000Y-51570888D02*
X54950000Y-51570888D01*
X56110000Y-52130888D02*
X55407000Y-52130888D01*
X59014000Y-52010888D02*
X58190000Y-52010888D01*
X56110000Y-51370888D02*
X54840000Y-51370888D01*
X56110000Y-52170888D02*
X55451000Y-52170888D01*
X56110000Y-51210888D02*
X54768000Y-51210888D01*
X56110000Y-50449888D02*
X54581000Y-50449888D01*
X58248000Y-52570888D02*
X56052000Y-52570888D01*
X56110000Y-52370888D02*
X55707000Y-52370888D01*
X56110000Y-50569888D02*
X54594000Y-50569888D01*
X56110000Y-51730888D02*
X55055000Y-51730888D01*
X56110000Y-50729888D02*
X54622000Y-50729888D01*
X56110000Y-52410888D02*
X55767000Y-52410888D01*
X58401000Y-52490888D02*
X58190000Y-52490888D01*
X59051000Y-51970888D02*
X58190000Y-51970888D01*
X59564000Y-51130888D02*
X58190000Y-51130888D01*
X56110000Y-51650888D02*
X55001000Y-51650888D01*
X59729000Y-50289888D02*
X54571000Y-50289888D01*
X58976000Y-52050888D02*
X58190000Y-52050888D01*
X56110000Y-52050888D02*
X55324000Y-52050888D01*
X56110000Y-51330888D02*
X54821000Y-51330888D01*
X56110000Y-52090888D02*
X55365000Y-52090888D01*
X56110000Y-51610888D02*
X54975000Y-51610888D01*
X56110000Y-52210888D02*
X55497000Y-52210888D01*
X58625000Y-47405113D02*
X58625000Y-47905113D01*
X59678000Y-50729888D02*
X58190000Y-50729888D01*
X56110000Y-50609888D02*
X54600000Y-50609888D01*
X57434000Y-52810888D02*
X56866000Y-52810888D01*
X59185000Y-51810888D02*
X58190000Y-51810888D01*
X58161000Y-52610888D02*
X56139000Y-52610888D01*
X58328000Y-52530888D02*
X55972000Y-52530888D01*
X56110000Y-51890888D02*
X55179000Y-51890888D01*
X56110000Y-50970888D02*
X54682000Y-50970888D01*
X56110000Y-51490888D02*
X54903000Y-51490888D01*
X59726000Y-50369888D02*
X54574000Y-50369888D01*
X56110000Y-52010888D02*
X55286000Y-52010888D01*
X59728000Y-50329888D02*
X54572000Y-50329888D01*
X59515000Y-51250888D02*
X58190000Y-51250888D01*
X56110000Y-51930888D02*
X55213000Y-51930888D01*
X59532000Y-51210888D02*
X58190000Y-51210888D01*
X57668000Y-52770888D02*
X56632000Y-52770888D01*
X56110000Y-51130888D02*
X54736000Y-51130888D01*
X59693000Y-50649888D02*
X58190000Y-50649888D01*
X56110000Y-50930888D02*
X54670000Y-50930888D01*
X59479000Y-51330888D02*
X58190000Y-51330888D01*
X56110000Y-50769888D02*
X54630000Y-50769888D01*
X56110000Y-51410888D02*
X54860000Y-51410888D01*
X59686000Y-50689888D02*
X58190000Y-50689888D01*
X56110000Y-51530888D02*
X54926000Y-51530888D01*
X59719000Y-50449888D02*
X58190000Y-50449888D01*
X58650000Y-52330888D02*
X58190000Y-52330888D01*
X56110000Y-52290888D02*
X55596000Y-52290888D01*
X59245000Y-51730888D02*
X58190000Y-51730888D01*
X56110000Y-51050888D02*
X54708000Y-51050888D01*
X58065000Y-52650888D02*
X56235000Y-52650888D01*
X56110000Y-50689888D02*
X54614000Y-50689888D01*
X56110000Y-51970888D02*
X55249000Y-51970888D01*
X57955000Y-52690888D02*
X56345000Y-52690888D01*
X59350000Y-51570888D02*
X58190000Y-51570888D01*
X59272000Y-51690888D02*
X58190000Y-51690888D01*
X59418000Y-51450888D02*
X58190000Y-51450888D01*
X58893000Y-52130888D02*
X58190000Y-52130888D01*
X56110000Y-50809888D02*
X54639000Y-50809888D01*
X59730000Y-50249888D02*
X54570000Y-50249888D01*
X59440000Y-51410888D02*
X58190000Y-51410888D01*
X59723000Y-50409888D02*
X54577000Y-50409888D01*
X59661000Y-50809888D02*
X58190000Y-50809888D01*
X57827000Y-52730888D02*
X56473000Y-52730888D01*
X59299000Y-51650888D02*
X58190000Y-51650888D01*
X59641000Y-50889888D02*
X58190000Y-50889888D01*
X56110000Y-52250888D02*
X55545000Y-52250888D01*
X58469000Y-52450888D02*
X58190000Y-52450888D01*
X56110000Y-52490888D02*
X55899000Y-52490888D01*
X59548000Y-51170888D02*
X58190000Y-51170888D01*
X59605000Y-51010888D02*
X58190000Y-51010888D01*
X58849000Y-52170888D02*
X58190000Y-52170888D01*
X58875000Y-47655113D02*
X58375000Y-47655113D01*
X56110000Y-52450888D02*
X55831000Y-52450888D01*
X58593000Y-52370888D02*
X58190000Y-52370888D01*
X56110000Y-52330888D02*
X55650000Y-52330888D01*
X58533000Y-52410888D02*
X58190000Y-52410888D01*
X56110000Y-51170888D02*
X54752000Y-51170888D01*
X59397000Y-51490888D02*
X58190000Y-51490888D01*
X59711000Y-50529888D02*
X58190000Y-50529888D01*
X58704000Y-52290888D02*
X58190000Y-52290888D01*
X59578000Y-51090888D02*
X58190000Y-51090888D01*
X56110000Y-50529888D02*
X54589000Y-50529888D01*
X59651000Y-50849888D02*
X58190000Y-50849888D01*
X56110000Y-51010888D02*
X54695000Y-51010888D01*
X59592000Y-51050888D02*
X58190000Y-51050888D01*
X56110000Y-51690888D02*
X55028000Y-51690888D01*
X59700000Y-50609888D02*
X58190000Y-50609888D01*
X59325000Y-51610888D02*
X58190000Y-51610888D01*
X59121000Y-51890888D02*
X58190000Y-51890888D01*
X56110000Y-50849888D02*
X54649000Y-50849888D01*
X56110000Y-51850888D02*
X55146000Y-51850888D01*
X59618000Y-50970888D02*
X58190000Y-50970888D01*
X56110000Y-51250888D02*
X54785000Y-51250888D01*
X59498000Y-51290888D02*
X58190000Y-51290888D01*
X59715000Y-50489888D02*
X58190000Y-50489888D01*
X59154000Y-51850888D02*
X58190000Y-51850888D01*
X58935000Y-52090888D02*
X58190000Y-52090888D01*
X59374000Y-51530888D02*
X58190000Y-51530888D01*
X56110000Y-51090888D02*
X54722000Y-51090888D01*
X59460000Y-51370888D02*
X58190000Y-51370888D01*
X56110000Y-50889888D02*
X54659000Y-50889888D01*
X56110000Y-51810888D02*
X55115000Y-51810888D01*
X56110000Y-51450888D02*
X54882000Y-51450888D01*
X59730000Y-50209888D02*
X54570000Y-50209888D01*
X56110000Y-50649888D02*
X54607000Y-50649888D01*
X59215000Y-51770888D02*
X58190000Y-51770888D01*
X56110000Y-50489888D02*
X54585000Y-50489888D01*
X59087000Y-51930888D02*
X58190000Y-51930888D01*
X59706000Y-50569888D02*
X58190000Y-50569888D01*
X56110000Y-51770888D02*
X55085000Y-51770888D01*
X56110000Y-51290888D02*
X54802000Y-51290888D01*
X59770000Y-50209888D02*
G75*
G03*
X59770000Y-50209888I-2620000J0D01*
G01*
D10*
X63358800Y-132852500D02*
X63358800Y-132505000D01*
X55608800Y-132852500D02*
X55608800Y-132505000D01*
X63358800Y-132852500D02*
X55608800Y-132852500D01*
X55608800Y-116702500D02*
X55608800Y-117050000D01*
X63358800Y-116702500D02*
X55608800Y-116702500D01*
X63358800Y-116702500D02*
X63358800Y-117050000D01*
X63358800Y-132505000D02*
X64783800Y-132505000D01*
D14*
X141835000Y-47400888D02*
X140493000Y-47400888D01*
X145403000Y-46919888D02*
X143915000Y-46919888D01*
X141835000Y-47120888D02*
X140395000Y-47120888D01*
X141835000Y-48680888D02*
X141624000Y-48680888D01*
X141835000Y-47160888D02*
X140407000Y-47160888D01*
X145075000Y-47760888D02*
X143915000Y-47760888D01*
X145240000Y-47440888D02*
X143915000Y-47440888D01*
X144660000Y-48280888D02*
X143915000Y-48280888D01*
X141835000Y-48600888D02*
X141492000Y-48600888D01*
X145431000Y-46759888D02*
X143915000Y-46759888D01*
X141835000Y-46719888D02*
X140314000Y-46719888D01*
X141835000Y-48640888D02*
X141556000Y-48640888D01*
X145453000Y-46519888D02*
X140297000Y-46519888D01*
X141835000Y-46959888D02*
X140355000Y-46959888D01*
X141835000Y-47920888D02*
X140780000Y-47920888D01*
X145165000Y-47600888D02*
X143915000Y-47600888D01*
X141835000Y-47600888D02*
X140585000Y-47600888D01*
X144618000Y-48320888D02*
X143915000Y-48320888D01*
X143552000Y-48920888D02*
X142198000Y-48920888D01*
X145257000Y-47400888D02*
X143915000Y-47400888D01*
X145143000Y-47640888D02*
X143915000Y-47640888D01*
X145376000Y-47039888D02*
X143915000Y-47039888D01*
X145451000Y-46559888D02*
X140299000Y-46559888D01*
X145455000Y-46439888D02*
X140295000Y-46439888D01*
X144776000Y-48160888D02*
X143915000Y-48160888D01*
X145122000Y-47680888D02*
X143915000Y-47680888D01*
X141835000Y-47560888D02*
X140565000Y-47560888D01*
X144053000Y-48720888D02*
X141697000Y-48720888D01*
X145024000Y-47840888D02*
X143915000Y-47840888D01*
X143886000Y-48800888D02*
X141864000Y-48800888D01*
X144879000Y-48040888D02*
X143915000Y-48040888D01*
X141835000Y-47280888D02*
X140447000Y-47280888D01*
X145454000Y-46479888D02*
X140296000Y-46479888D01*
X145289000Y-47320888D02*
X143915000Y-47320888D01*
X144318000Y-48560888D02*
X143915000Y-48560888D01*
X141835000Y-46759888D02*
X140319000Y-46759888D01*
X143680000Y-48880888D02*
X142070000Y-48880888D01*
X144846000Y-48080888D02*
X143915000Y-48080888D01*
X144528000Y-48400888D02*
X143915000Y-48400888D01*
X141835000Y-46799888D02*
X140325000Y-46799888D01*
X145425000Y-46799888D02*
X143915000Y-46799888D01*
X143159000Y-49000888D02*
X142591000Y-49000888D01*
X145223000Y-47480888D02*
X143915000Y-47480888D01*
X141835000Y-48440888D02*
X141270000Y-48440888D01*
X144194000Y-48640888D02*
X143915000Y-48640888D01*
X143790000Y-48840888D02*
X141960000Y-48840888D01*
X141835000Y-48160888D02*
X140974000Y-48160888D01*
X144480000Y-48440888D02*
X143915000Y-48440888D01*
X141835000Y-46879888D02*
X140339000Y-46879888D01*
X141835000Y-48240888D02*
X141049000Y-48240888D01*
X141835000Y-46839888D02*
X140332000Y-46839888D01*
X141835000Y-47880888D02*
X140753000Y-47880888D01*
X141835000Y-46999888D02*
X140364000Y-46999888D01*
X145386000Y-46999888D02*
X143915000Y-46999888D01*
X141835000Y-48560888D02*
X141432000Y-48560888D01*
X144910000Y-48000888D02*
X143915000Y-48000888D01*
X145330000Y-47200888D02*
X143915000Y-47200888D01*
X144574000Y-48360888D02*
X143915000Y-48360888D01*
X141835000Y-47720888D02*
X140651000Y-47720888D01*
X141835000Y-47360888D02*
X140477000Y-47360888D01*
X141835000Y-48040888D02*
X140871000Y-48040888D01*
X144739000Y-48200888D02*
X143915000Y-48200888D01*
X141835000Y-46639888D02*
X140306000Y-46639888D01*
X141835000Y-46679888D02*
X140310000Y-46679888D01*
X141835000Y-48080888D02*
X140904000Y-48080888D01*
X144375000Y-48520888D02*
X143915000Y-48520888D01*
X141835000Y-48400888D02*
X141222000Y-48400888D01*
X145444000Y-46639888D02*
X143915000Y-46639888D01*
X145303000Y-47280888D02*
X143915000Y-47280888D01*
X141835000Y-48480888D02*
X141321000Y-48480888D01*
X144429000Y-48480888D02*
X143915000Y-48480888D01*
X141835000Y-47039888D02*
X140374000Y-47039888D01*
X141835000Y-48120888D02*
X140938000Y-48120888D01*
X141835000Y-47079888D02*
X140384000Y-47079888D01*
X141835000Y-47200888D02*
X140420000Y-47200888D01*
X145185000Y-47560888D02*
X143915000Y-47560888D01*
X145355000Y-47120888D02*
X143915000Y-47120888D01*
X145411000Y-46879888D02*
X143915000Y-46879888D01*
X145395000Y-46959888D02*
X143915000Y-46959888D01*
X144997000Y-47880888D02*
X143915000Y-47880888D01*
X141835000Y-48200888D02*
X141011000Y-48200888D01*
X141835000Y-46919888D02*
X140347000Y-46919888D01*
X141835000Y-47240888D02*
X140433000Y-47240888D01*
X144940000Y-47960888D02*
X143915000Y-47960888D01*
X141835000Y-48360888D02*
X141176000Y-48360888D01*
X145099000Y-47720888D02*
X143915000Y-47720888D01*
X141835000Y-48280888D02*
X141090000Y-48280888D01*
X141835000Y-48000888D02*
X140840000Y-48000888D01*
X145366000Y-47079888D02*
X143915000Y-47079888D01*
X141835000Y-47800888D02*
X140700000Y-47800888D01*
X144126000Y-48680888D02*
X143915000Y-48680888D01*
X141835000Y-47680888D02*
X140628000Y-47680888D01*
X144600000Y-43845113D02*
X144100000Y-43845113D01*
X145273000Y-47360888D02*
X143915000Y-47360888D01*
X145440000Y-46679888D02*
X143915000Y-46679888D01*
X144350000Y-43595113D02*
X144350000Y-44095113D01*
X145448000Y-46599888D02*
X140302000Y-46599888D01*
X143393000Y-48960888D02*
X142357000Y-48960888D01*
X141835000Y-47520888D02*
X140546000Y-47520888D01*
X141835000Y-47440888D02*
X140510000Y-47440888D01*
X141835000Y-47960888D02*
X140810000Y-47960888D01*
X145436000Y-46719888D02*
X143915000Y-46719888D01*
X141835000Y-47480888D02*
X140527000Y-47480888D01*
X143973000Y-48760888D02*
X141777000Y-48760888D01*
X144258000Y-48600888D02*
X143915000Y-48600888D01*
X144970000Y-47920888D02*
X143915000Y-47920888D01*
X144812000Y-48120888D02*
X143915000Y-48120888D01*
X141835000Y-47640888D02*
X140607000Y-47640888D01*
X144701000Y-48240888D02*
X143915000Y-48240888D01*
X145317000Y-47240888D02*
X143915000Y-47240888D01*
X145050000Y-47800888D02*
X143915000Y-47800888D01*
X145455000Y-46399888D02*
X140295000Y-46399888D01*
X145418000Y-46839888D02*
X143915000Y-46839888D01*
X141835000Y-47320888D02*
X140461000Y-47320888D01*
X141835000Y-48520888D02*
X141375000Y-48520888D01*
X141835000Y-47840888D02*
X140726000Y-47840888D01*
X145204000Y-47520888D02*
X143915000Y-47520888D01*
X141835000Y-48320888D02*
X141132000Y-48320888D01*
X145343000Y-47160888D02*
X143915000Y-47160888D01*
X141835000Y-47760888D02*
X140675000Y-47760888D01*
X145495000Y-46399888D02*
G75*
G03*
X145495000Y-46399888I-2620000J0D01*
G01*
X54821000Y-55349113D02*
X56110000Y-55349113D01*
X54736000Y-55549113D02*
X56110000Y-55549113D01*
X55425000Y-59024888D02*
X55925000Y-59024888D01*
X58190000Y-54189113D02*
X58401000Y-54189113D01*
X54722000Y-55589113D02*
X56110000Y-55589113D01*
X54572000Y-56350113D02*
X59728000Y-56350113D01*
X55451000Y-54509113D02*
X56110000Y-54509113D01*
X55407000Y-54549113D02*
X56110000Y-54549113D01*
X58190000Y-55950113D02*
X59678000Y-55950113D01*
X55055000Y-54949113D02*
X56110000Y-54949113D01*
X55115000Y-54869113D02*
X56110000Y-54869113D01*
X58190000Y-55309113D02*
X59460000Y-55309113D01*
X54840000Y-55309113D02*
X56110000Y-55309113D01*
X54600000Y-56070113D02*
X56110000Y-56070113D01*
X58190000Y-55629113D02*
X59592000Y-55629113D01*
X58190000Y-55709113D02*
X59618000Y-55709113D01*
X58190000Y-55830113D02*
X59651000Y-55830113D01*
X56345000Y-53989113D02*
X57955000Y-53989113D01*
X54860000Y-55269113D02*
X56110000Y-55269113D01*
X58190000Y-54469113D02*
X58803000Y-54469113D01*
X58190000Y-55389113D02*
X59498000Y-55389113D01*
X58190000Y-55109113D02*
X59350000Y-55109113D01*
X54752000Y-55509113D02*
X56110000Y-55509113D01*
X54649000Y-55830113D02*
X56110000Y-55830113D01*
X55028000Y-54989113D02*
X56110000Y-54989113D01*
X54639000Y-55870113D02*
X56110000Y-55870113D01*
X56052000Y-54109113D02*
X58248000Y-54109113D01*
X56235000Y-54029113D02*
X58065000Y-54029113D01*
X55179000Y-54789113D02*
X56110000Y-54789113D01*
X56473000Y-53949113D02*
X57827000Y-53949113D01*
X55831000Y-54229113D02*
X56110000Y-54229113D01*
X54577000Y-56270113D02*
X59723000Y-56270113D01*
X54768000Y-55469113D02*
X56110000Y-55469113D01*
X55286000Y-54669113D02*
X56110000Y-54669113D01*
X58190000Y-55069113D02*
X59325000Y-55069113D01*
X55596000Y-54389113D02*
X56110000Y-54389113D01*
X55146000Y-54829113D02*
X56110000Y-54829113D01*
X58190000Y-55429113D02*
X59515000Y-55429113D01*
X58190000Y-56150113D02*
X59711000Y-56150113D01*
X54670000Y-55749113D02*
X56110000Y-55749113D01*
X56139000Y-54069113D02*
X58161000Y-54069113D01*
X54950000Y-55109113D02*
X56110000Y-55109113D01*
X58190000Y-54429113D02*
X58755000Y-54429113D01*
X58190000Y-55870113D02*
X59661000Y-55870113D01*
X58190000Y-55990113D02*
X59686000Y-55990113D01*
X58190000Y-55910113D02*
X59670000Y-55910113D01*
X56632000Y-53909113D02*
X57668000Y-53909113D01*
X55365000Y-54589113D02*
X56110000Y-54589113D01*
X58190000Y-54909113D02*
X59215000Y-54909113D01*
X58190000Y-54229113D02*
X58469000Y-54229113D01*
X58190000Y-55589113D02*
X59578000Y-55589113D01*
X58190000Y-55029113D02*
X59299000Y-55029113D01*
X55675000Y-59274888D02*
X55675000Y-58774888D01*
X58190000Y-54669113D02*
X59014000Y-54669113D01*
X58190000Y-54589113D02*
X58935000Y-54589113D01*
X58190000Y-54269113D02*
X58533000Y-54269113D01*
X54607000Y-56030113D02*
X56110000Y-56030113D01*
X55545000Y-54429113D02*
X56110000Y-54429113D01*
X58190000Y-56110113D02*
X59706000Y-56110113D01*
X54926000Y-55149113D02*
X56110000Y-55149113D01*
X58190000Y-56190113D02*
X59715000Y-56190113D01*
X54589000Y-56150113D02*
X56110000Y-56150113D01*
X54614000Y-55990113D02*
X56110000Y-55990113D01*
X55213000Y-54749113D02*
X56110000Y-54749113D01*
X58190000Y-56070113D02*
X59700000Y-56070113D01*
X58190000Y-54869113D02*
X59185000Y-54869113D01*
X58190000Y-54389113D02*
X58704000Y-54389113D01*
X54708000Y-55629113D02*
X56110000Y-55629113D01*
X58190000Y-56230113D02*
X59719000Y-56230113D01*
X54975000Y-55069113D02*
X56110000Y-55069113D01*
X54785000Y-55429113D02*
X56110000Y-55429113D01*
X54659000Y-55790113D02*
X56110000Y-55790113D01*
X58190000Y-55189113D02*
X59397000Y-55189113D01*
X58190000Y-55790113D02*
X59641000Y-55790113D01*
X54903000Y-55189113D02*
X56110000Y-55189113D01*
X55707000Y-54309113D02*
X56110000Y-54309113D01*
X58190000Y-55549113D02*
X59564000Y-55549113D01*
X58190000Y-54709113D02*
X59051000Y-54709113D01*
X58190000Y-56030113D02*
X59693000Y-56030113D01*
X58190000Y-55509113D02*
X59548000Y-55509113D01*
X58190000Y-54309113D02*
X58593000Y-54309113D01*
X55899000Y-54189113D02*
X56110000Y-54189113D01*
X54802000Y-55389113D02*
X56110000Y-55389113D01*
X55972000Y-54149113D02*
X58328000Y-54149113D01*
X54682000Y-55709113D02*
X56110000Y-55709113D01*
X58190000Y-54749113D02*
X59087000Y-54749113D01*
X58190000Y-54949113D02*
X59245000Y-54949113D01*
X58190000Y-54789113D02*
X59121000Y-54789113D01*
X55767000Y-54269113D02*
X56110000Y-54269113D01*
X58190000Y-55149113D02*
X59374000Y-55149113D01*
X55324000Y-54629113D02*
X56110000Y-54629113D01*
X54570000Y-56430113D02*
X59730000Y-56430113D01*
X55001000Y-55029113D02*
X56110000Y-55029113D01*
X58190000Y-55349113D02*
X59479000Y-55349113D01*
X54630000Y-55910113D02*
X56110000Y-55910113D01*
X58190000Y-54829113D02*
X59154000Y-54829113D01*
X54622000Y-55950113D02*
X56110000Y-55950113D01*
X58190000Y-54549113D02*
X58893000Y-54549113D01*
X54581000Y-56230113D02*
X56110000Y-56230113D01*
X58190000Y-55469113D02*
X59532000Y-55469113D01*
X56866000Y-53869113D02*
X57434000Y-53869113D01*
X55249000Y-54709113D02*
X56110000Y-54709113D01*
X58190000Y-55229113D02*
X59418000Y-55229113D01*
X55650000Y-54349113D02*
X56110000Y-54349113D01*
X58190000Y-55269113D02*
X59440000Y-55269113D01*
X54570000Y-56470113D02*
X59730000Y-56470113D01*
X55497000Y-54469113D02*
X56110000Y-54469113D01*
X58190000Y-54989113D02*
X59272000Y-54989113D01*
X54585000Y-56190113D02*
X56110000Y-56190113D01*
X54695000Y-55669113D02*
X56110000Y-55669113D01*
X54594000Y-56110113D02*
X56110000Y-56110113D01*
X58190000Y-55669113D02*
X59605000Y-55669113D01*
X58190000Y-54349113D02*
X58650000Y-54349113D01*
X54882000Y-55229113D02*
X56110000Y-55229113D01*
X54574000Y-56310113D02*
X59726000Y-56310113D01*
X58190000Y-54629113D02*
X58976000Y-54629113D01*
X58190000Y-55749113D02*
X59630000Y-55749113D01*
X55085000Y-54909113D02*
X56110000Y-54909113D01*
X54571000Y-56390113D02*
X59729000Y-56390113D01*
X58190000Y-54509113D02*
X58849000Y-54509113D01*
X59770000Y-56470113D02*
G75*
G03*
X59770000Y-56470113I-2620000J0D01*
G01*
X53400000Y-45720000D02*
X53400000Y-47050000D01*
X53400000Y-41850000D02*
X50740000Y-41850000D01*
X50740000Y-44450000D02*
X50740000Y-41850000D01*
X53400000Y-44450000D02*
X50740000Y-44450000D01*
X53400000Y-47050000D02*
X52070000Y-47050000D01*
X53400000Y-44450000D02*
X53400000Y-41850000D01*
D18*
X46990000Y-61595000D03*
D19*
X46990000Y-59055000D03*
X46990000Y-56515000D03*
D18*
X52070000Y-61605000D03*
D19*
X52070000Y-59065000D03*
X52070000Y-56525000D03*
M02*
