G04 #@! TF.GenerationSoftware,KiCad,Pcbnew,(6.0.5-0)*
G04 #@! TF.CreationDate,2022-09-19T20:24:45+09:00*
G04 #@! TF.ProjectId,kepler-x,6b65706c-6572-42d7-982e-6b696361645f,rev?*
G04 #@! TF.SameCoordinates,Original*
G04 #@! TF.FileFunction,Soldermask,Bot*
G04 #@! TF.FilePolarity,Negative*
%FSLAX46Y46*%
G04 Gerber Fmt 4.6, Leading zero omitted, Abs format (unit mm)*
G04 Created by KiCad (PCBNEW (6.0.5-0)) date 2022-09-19 20:24:45*
%MOMM*%
%LPD*%
G01*
G04 APERTURE LIST*
G04 Aperture macros list*
%AMRoundRect*
0 Rectangle with rounded corners*
0 $1 Rounding radius*
0 $2 $3 $4 $5 $6 $7 $8 $9 X,Y pos of 4 corners*
0 Add a 4 corners polygon primitive as box body*
4,1,4,$2,$3,$4,$5,$6,$7,$8,$9,$2,$3,0*
0 Add four circle primitives for the rounded corners*
1,1,$1+$1,$2,$3*
1,1,$1+$1,$4,$5*
1,1,$1+$1,$6,$7*
1,1,$1+$1,$8,$9*
0 Add four rect primitives between the rounded corners*
20,1,$1+$1,$2,$3,$4,$5,0*
20,1,$1+$1,$4,$5,$6,$7,0*
20,1,$1+$1,$6,$7,$8,$9,0*
20,1,$1+$1,$8,$9,$2,$3,0*%
%AMFreePoly0*
4,1,22,0.500000,-0.750000,0.000000,-0.750000,0.000000,-0.745033,-0.079941,-0.743568,-0.215256,-0.701293,-0.333266,-0.622738,-0.424486,-0.514219,-0.481581,-0.384460,-0.499164,-0.250000,-0.500000,-0.250000,-0.500000,0.250000,-0.499164,0.250000,-0.499963,0.256109,-0.478152,0.396186,-0.417904,0.524511,-0.324060,0.630769,-0.204165,0.706417,-0.067858,0.745374,0.000000,0.744959,0.000000,0.750000,
0.500000,0.750000,0.500000,-0.750000,0.500000,-0.750000,$1*%
%AMFreePoly1*
4,1,20,0.000000,0.744959,0.073905,0.744508,0.209726,0.703889,0.328688,0.626782,0.421226,0.519385,0.479903,0.390333,0.500000,0.250000,0.500000,-0.250000,0.499851,-0.262216,0.476331,-0.402017,0.414519,-0.529596,0.319384,-0.634700,0.198574,-0.708877,0.061801,-0.746166,0.000000,-0.745033,0.000000,-0.750000,-0.500000,-0.750000,-0.500000,0.750000,0.000000,0.750000,0.000000,0.744959,
0.000000,0.744959,$1*%
G04 Aperture macros list end*
%ADD10C,0.120000*%
%ADD11RoundRect,0.300000X-4.200000X-0.450000X4.200000X-0.450000X4.200000X0.450000X-4.200000X0.450000X0*%
%ADD12C,2.700000*%
%ADD13C,1.500000*%
%ADD14C,3.700000*%
%ADD15R,1.358000X1.358000*%
%ADD16C,1.358000*%
%ADD17C,1.725000*%
%ADD18R,1.700000X1.700000*%
%ADD19O,1.700000X1.700000*%
%ADD20R,2.032000X1.727200*%
%ADD21O,2.032000X1.727200*%
%ADD22R,1.600000X1.600000*%
%ADD23O,1.600000X1.600000*%
%ADD24R,2.000000X2.000000*%
%ADD25R,1.590000X1.590000*%
%ADD26C,1.590000*%
%ADD27C,6.350000*%
%ADD28O,2.000000X1.250000*%
%ADD29O,2.600000X1.220000*%
%ADD30O,2.600000X1.200000*%
%ADD31O,2.000000X1.200000*%
%ADD32C,1.000000*%
%ADD33R,2.100000X2.100000*%
%ADD34C,2.200000*%
%ADD35RoundRect,0.450000X0.550000X0.450000X-0.550000X0.450000X-0.550000X-0.450000X0.550000X-0.450000X0*%
%ADD36C,1.524000*%
%ADD37C,1.600000*%
%ADD38C,6.000000*%
%ADD39RoundRect,0.237500X-0.250000X-0.237500X0.250000X-0.237500X0.250000X0.237500X-0.250000X0.237500X0*%
%ADD40RoundRect,0.237500X0.250000X0.237500X-0.250000X0.237500X-0.250000X-0.237500X0.250000X-0.237500X0*%
%ADD41R,0.800000X1.800000*%
%ADD42FreePoly0,90.000000*%
%ADD43FreePoly1,90.000000*%
%ADD44R,1.651000X0.431800*%
%ADD45RoundRect,0.250001X-0.462499X-0.624999X0.462499X-0.624999X0.462499X0.624999X-0.462499X0.624999X0*%
%ADD46RoundRect,0.249999X-1.425001X0.450001X-1.425001X-0.450001X1.425001X-0.450001X1.425001X0.450001X0*%
%ADD47RoundRect,0.250001X0.462499X0.624999X-0.462499X0.624999X-0.462499X-0.624999X0.462499X-0.624999X0*%
%ADD48RoundRect,0.237500X-0.237500X0.300000X-0.237500X-0.300000X0.237500X-0.300000X0.237500X0.300000X0*%
%ADD49R,0.800000X0.500000*%
%ADD50R,0.800000X0.400000*%
%ADD51RoundRect,0.237500X-0.237500X0.287500X-0.237500X-0.287500X0.237500X-0.287500X0.237500X0.287500X0*%
%ADD52RoundRect,0.237500X0.237500X-0.250000X0.237500X0.250000X-0.237500X0.250000X-0.237500X-0.250000X0*%
%ADD53R,2.000000X1.800000*%
%ADD54R,1.200000X0.400000*%
%ADD55RoundRect,0.237500X0.300000X0.237500X-0.300000X0.237500X-0.300000X-0.237500X0.300000X-0.237500X0*%
%ADD56RoundRect,0.250001X0.624999X-0.462499X0.624999X0.462499X-0.624999X0.462499X-0.624999X-0.462499X0*%
%ADD57R,2.000000X1.500000*%
%ADD58R,2.000000X3.800000*%
%ADD59RoundRect,0.237500X0.237500X-0.300000X0.237500X0.300000X-0.237500X0.300000X-0.237500X-0.300000X0*%
%ADD60RoundRect,0.237500X-0.237500X0.250000X-0.237500X-0.250000X0.237500X-0.250000X0.237500X0.250000X0*%
%ADD61RoundRect,0.100000X0.637500X0.100000X-0.637500X0.100000X-0.637500X-0.100000X0.637500X-0.100000X0*%
%ADD62R,0.800000X0.350000*%
%ADD63R,0.350000X0.800000*%
%ADD64R,1.250000X1.250000*%
%ADD65FreePoly0,0.000000*%
%ADD66FreePoly1,0.000000*%
%ADD67R,1.800000X0.800000*%
%ADD68RoundRect,0.237500X-0.300000X-0.237500X0.300000X-0.237500X0.300000X0.237500X-0.300000X0.237500X0*%
%ADD69R,1.500000X2.000000*%
%ADD70R,3.800000X2.000000*%
%ADD71FreePoly0,270.000000*%
%ADD72FreePoly1,270.000000*%
G04 APERTURE END LIST*
D10*
X40000000Y-37100000D02*
X30000000Y-37100000D01*
X30000000Y-37100000D02*
X30000000Y-166100000D01*
X30000000Y-166100000D02*
X40000000Y-166100000D01*
X40000000Y-166100000D02*
X40000000Y-37100000D01*
G36*
X40000000Y-37100000D02*
G01*
X30000000Y-37100000D01*
X30000000Y-166100000D01*
X40000000Y-166100000D01*
X40000000Y-37100000D01*
G37*
D11*
X35555000Y-163830000D03*
X35555000Y-161290000D03*
X35555000Y-158750000D03*
X35555000Y-156210000D03*
X35555000Y-153670000D03*
X35555000Y-151130000D03*
X35555000Y-148590000D03*
X35555000Y-146050000D03*
X35555000Y-143510000D03*
X35555000Y-140970000D03*
X35555000Y-138430000D03*
X35555000Y-135890000D03*
X35555000Y-133350000D03*
X35555000Y-130810000D03*
X35555000Y-128270000D03*
X35555000Y-125730000D03*
X35555000Y-123190000D03*
X35555000Y-120650000D03*
X35555000Y-118110000D03*
X35555000Y-115570000D03*
X35555000Y-113030000D03*
X35555000Y-110490000D03*
X35555000Y-107950000D03*
X35555000Y-105410000D03*
X35555000Y-102870000D03*
X35555000Y-100330000D03*
X35555000Y-97790000D03*
X35555000Y-95250000D03*
X35555000Y-92710000D03*
X35555000Y-90170000D03*
X35555000Y-87630000D03*
X35555000Y-85090000D03*
X35555000Y-82550000D03*
X35555000Y-80010000D03*
X35555000Y-77470000D03*
X35555000Y-74930000D03*
X35555000Y-72390000D03*
X35555000Y-69850000D03*
X35555000Y-67310000D03*
X35555000Y-64770000D03*
X35555000Y-62230000D03*
X35555000Y-59690000D03*
X35555000Y-57150000D03*
X35555000Y-54610000D03*
X35555000Y-52070000D03*
X35555000Y-49530000D03*
X35555000Y-46990000D03*
X35555000Y-44450000D03*
X35555000Y-41910000D03*
X35555000Y-39370000D03*
D12*
X152500000Y-108000000D03*
D13*
X146685000Y-76200000D03*
X151565000Y-76200000D03*
D14*
X166000000Y-173000000D03*
D15*
X159385010Y-78740000D03*
D16*
X159385010Y-76200000D03*
X159385010Y-73660000D03*
D17*
X162005010Y-78740000D03*
X162005010Y-73660000D03*
D15*
X159385010Y-89297510D03*
D16*
X159385010Y-86757510D03*
X159385010Y-84217510D03*
D17*
X162005010Y-89297510D03*
X162005010Y-84217510D03*
D18*
X103520000Y-89540000D03*
D19*
X103520000Y-87000000D03*
X106060000Y-89540000D03*
X106060000Y-87000000D03*
X108600000Y-89540000D03*
X108600000Y-87000000D03*
X111140000Y-89540000D03*
X111140000Y-87000000D03*
X113680000Y-89540000D03*
X113680000Y-87000000D03*
X116220000Y-89540000D03*
X116220000Y-87000000D03*
X118760000Y-89540000D03*
X118760000Y-87000000D03*
X121300000Y-89540000D03*
X121300000Y-87000000D03*
D20*
X46990000Y-61595000D03*
D21*
X46990000Y-59055000D03*
X46990000Y-56515000D03*
D22*
X135245000Y-108570000D03*
D23*
X135245000Y-106030000D03*
X135245000Y-103490000D03*
X127625000Y-103490000D03*
X127625000Y-106030000D03*
X127625000Y-108570000D03*
D20*
X52070000Y-61605000D03*
D21*
X52070000Y-59065000D03*
X52070000Y-56525000D03*
D18*
X84450000Y-170815000D03*
D19*
X86990000Y-170815000D03*
D24*
X158115000Y-66675000D03*
D25*
X121285000Y-38735000D03*
D26*
X121285000Y-36195000D03*
X118745000Y-38735000D03*
X118745000Y-36195000D03*
X116205000Y-38735000D03*
X116205000Y-36195000D03*
X113665000Y-38735000D03*
X113665000Y-36195000D03*
X111125000Y-38735000D03*
X111125000Y-36195000D03*
X108585000Y-38735000D03*
X108585000Y-36195000D03*
X106045000Y-38735000D03*
X106045000Y-36195000D03*
X103505000Y-38735000D03*
X103505000Y-36195000D03*
X100965000Y-38735000D03*
X100965000Y-36195000D03*
X98425000Y-38735000D03*
X98425000Y-36195000D03*
X95885000Y-38735000D03*
X95885000Y-36195000D03*
X93345000Y-38735000D03*
X93345000Y-36195000D03*
X90805000Y-38735000D03*
X90805000Y-36195000D03*
X88265000Y-38735000D03*
X88265000Y-36195000D03*
X85725000Y-38735000D03*
X85725000Y-36195000D03*
X83185000Y-38735000D03*
X83185000Y-36195000D03*
X80645000Y-38735000D03*
X80645000Y-36195000D03*
X78105000Y-38735000D03*
X78105000Y-36195000D03*
X75565000Y-38735000D03*
X75565000Y-36195000D03*
X73025000Y-38735000D03*
X73025000Y-36195000D03*
D25*
X73025000Y-79375000D03*
D26*
X73025000Y-81915000D03*
X75565000Y-79375000D03*
X75565000Y-81915000D03*
X78105000Y-79375000D03*
X78105000Y-81915000D03*
X80645000Y-79375000D03*
X80645000Y-81915000D03*
X83185000Y-79375000D03*
X83185000Y-81915000D03*
X85725000Y-79375000D03*
X85725000Y-81915000D03*
X88265000Y-79375000D03*
X88265000Y-81915000D03*
X90805000Y-79375000D03*
X90805000Y-81915000D03*
X93345000Y-79375000D03*
X93345000Y-81915000D03*
X95885000Y-79375000D03*
X95885000Y-81915000D03*
X98425000Y-79375000D03*
X98425000Y-81915000D03*
X100965000Y-79375000D03*
X100965000Y-81915000D03*
X103505000Y-79375000D03*
X103505000Y-81915000D03*
X106045000Y-79375000D03*
X106045000Y-81915000D03*
X108585000Y-79375000D03*
X108585000Y-81915000D03*
X111125000Y-79375000D03*
X111125000Y-81915000D03*
X113665000Y-79375000D03*
X113665000Y-81915000D03*
X116205000Y-79375000D03*
X116205000Y-81915000D03*
X118745000Y-79375000D03*
X118745000Y-81915000D03*
X121285000Y-79375000D03*
X121285000Y-81915000D03*
D27*
X134570000Y-37845000D03*
X134570000Y-80265000D03*
X65740000Y-37845000D03*
X65740000Y-80265000D03*
D12*
X152500000Y-174000000D03*
D28*
X166420000Y-56805000D03*
D29*
X169120000Y-56805000D03*
D30*
X169120000Y-67655000D03*
D31*
X166420000Y-67655000D03*
D32*
X161965000Y-50125000D03*
X161965000Y-45125000D03*
D33*
X157965000Y-49875000D03*
D34*
X157965000Y-45375000D03*
X165465000Y-44725000D03*
X165465000Y-50525000D03*
D35*
X163465000Y-50325000D03*
X163465000Y-44925000D03*
D18*
X59690000Y-45720000D03*
D19*
X59690000Y-43180000D03*
D36*
X52070000Y-108585000D03*
X52050000Y-111125000D03*
D22*
X142875000Y-41210113D03*
D37*
X142875000Y-38710113D03*
D32*
X161965000Y-100290000D03*
X161965000Y-95290000D03*
D33*
X157965000Y-100040000D03*
D34*
X157965000Y-95540000D03*
X165465000Y-100690000D03*
X165465000Y-94890000D03*
D35*
X163465000Y-100490000D03*
X163465000Y-95090000D03*
D32*
X161965000Y-109815000D03*
X161965000Y-104815000D03*
D33*
X157965000Y-109565000D03*
D34*
X157965000Y-105065000D03*
D35*
X163465000Y-104615000D03*
D34*
X165465000Y-110215000D03*
D35*
X163465000Y-110015000D03*
D34*
X165465000Y-104415000D03*
D24*
X154305000Y-66675000D03*
D38*
X79585000Y-165100000D03*
X79585000Y-142100000D03*
X137585000Y-165100000D03*
X137585000Y-142100000D03*
X79585000Y-116100000D03*
X137585000Y-116100000D03*
D18*
X84455000Y-163830000D03*
D19*
X84455000Y-166370000D03*
X86995000Y-163830000D03*
X86995000Y-166370000D03*
X89535000Y-163830000D03*
X89535000Y-166370000D03*
X92075000Y-163830000D03*
X92075000Y-166370000D03*
X94615000Y-163830000D03*
X94615000Y-166370000D03*
X97155000Y-163830000D03*
X97155000Y-166370000D03*
X99695000Y-163830000D03*
X99695000Y-166370000D03*
X102235000Y-163830000D03*
X102235000Y-166370000D03*
X104775000Y-163830000D03*
X104775000Y-166370000D03*
X107315000Y-163830000D03*
X107315000Y-166370000D03*
X109855000Y-163830000D03*
X109855000Y-166370000D03*
X112395000Y-163830000D03*
X112395000Y-166370000D03*
X114935000Y-163830000D03*
X114935000Y-166370000D03*
X117475000Y-163830000D03*
X117475000Y-166370000D03*
X120015000Y-163830000D03*
X120015000Y-166370000D03*
X122555000Y-163830000D03*
X122555000Y-166370000D03*
X125095000Y-163830000D03*
X125095000Y-166370000D03*
X127635000Y-163830000D03*
X127635000Y-166370000D03*
X130175000Y-163830000D03*
X130175000Y-166370000D03*
X132715000Y-163830000D03*
X132715000Y-166370000D03*
D22*
X57150000Y-48959888D03*
D37*
X57150000Y-51459888D03*
D22*
X142875000Y-45149888D03*
D37*
X142875000Y-47649888D03*
D22*
X57150000Y-57720113D03*
D37*
X57150000Y-55220113D03*
D18*
X52070000Y-45720000D03*
D19*
X52070000Y-43180000D03*
D14*
X166000000Y-37000000D03*
D39*
X145495000Y-95250000D03*
X147320000Y-95250000D03*
D40*
X147320000Y-97155000D03*
X145495000Y-97155000D03*
D41*
X147640000Y-99315000D03*
X149540000Y-99315000D03*
X148590000Y-102615000D03*
D42*
X94615000Y-158130000D03*
D43*
X94615000Y-156830000D03*
D44*
X144957800Y-86110000D03*
X144957800Y-85459999D03*
X144957800Y-84810001D03*
X144957800Y-84159999D03*
X144957800Y-83510001D03*
X144957800Y-82860002D03*
X144957800Y-82210001D03*
X144957800Y-81560002D03*
X144957800Y-80910001D03*
X144957800Y-80260002D03*
X152222200Y-80260000D03*
X152222200Y-80909998D03*
X152222200Y-81559999D03*
X152222200Y-82209998D03*
X152222200Y-82859999D03*
X152222200Y-83509998D03*
X152222200Y-84159999D03*
X152222200Y-84809998D03*
X152222200Y-85459999D03*
X152222200Y-86109998D03*
D45*
X145197500Y-106045000D03*
X148172500Y-106045000D03*
D46*
X48260000Y-38860000D03*
X48260000Y-44960000D03*
D47*
X154522500Y-91440000D03*
X151547500Y-91440000D03*
D48*
X148590000Y-53112500D03*
X148590000Y-54837500D03*
D49*
X52970000Y-81350000D03*
D50*
X52970000Y-82150000D03*
X52970000Y-82950000D03*
D49*
X52970000Y-83750000D03*
X51170000Y-83750000D03*
D50*
X51170000Y-82950000D03*
X51170000Y-82150000D03*
D49*
X51170000Y-81350000D03*
D51*
X142240000Y-73420000D03*
X142240000Y-75170000D03*
D52*
X140335000Y-71397500D03*
X140335000Y-69572500D03*
D53*
X67215000Y-74295000D03*
X67215000Y-69215000D03*
X71215000Y-69215000D03*
X71215000Y-74295000D03*
D41*
X143825000Y-102615000D03*
X141925000Y-102615000D03*
X142875000Y-99315000D03*
D54*
X54811200Y-171450000D03*
X54811200Y-170815000D03*
X54811200Y-170180000D03*
X54811200Y-169545000D03*
X54811200Y-168910000D03*
X54811200Y-168275000D03*
X54811200Y-167640000D03*
X54811200Y-167005000D03*
X54811200Y-166370000D03*
X54811200Y-165735000D03*
X54811200Y-165100000D03*
X54811200Y-164465000D03*
X54811200Y-163830000D03*
X54811200Y-163195000D03*
X54811200Y-162560000D03*
X54811200Y-161925000D03*
X54811200Y-161290000D03*
X54811200Y-160655000D03*
X54811200Y-160020000D03*
X54811200Y-159385000D03*
X54811200Y-158750000D03*
X54811200Y-158115000D03*
X54811200Y-157480000D03*
X54811200Y-156845000D03*
X64211200Y-156845000D03*
X64211200Y-157480000D03*
X64211200Y-158115000D03*
X64211200Y-158750000D03*
X64211200Y-159385000D03*
X64211200Y-160020000D03*
X64211200Y-160655000D03*
X64211200Y-161290000D03*
X64211200Y-161925000D03*
X64211200Y-162560000D03*
X64211200Y-163195000D03*
X64211200Y-163830000D03*
X64211200Y-164465000D03*
X64211200Y-165100000D03*
X64211200Y-165735000D03*
X64211200Y-166370000D03*
X64211200Y-167005000D03*
X64211200Y-167640000D03*
X64211200Y-168275000D03*
X64211200Y-168910000D03*
X64211200Y-169545000D03*
X64211200Y-170180000D03*
X64211200Y-170815000D03*
X64211200Y-171450000D03*
D55*
X156437500Y-53975000D03*
X154712500Y-53975000D03*
D41*
X149540000Y-93090000D03*
X147640000Y-93090000D03*
X148590000Y-89790000D03*
D39*
X150852500Y-52070000D03*
X152677500Y-52070000D03*
D56*
X85725000Y-76417500D03*
X85725000Y-73442500D03*
D54*
X54811200Y-151765000D03*
X54811200Y-151130000D03*
X54811200Y-150495000D03*
X54811200Y-149860000D03*
X54811200Y-149225000D03*
X54811200Y-148590000D03*
X54811200Y-147955000D03*
X54811200Y-147320000D03*
X54811200Y-146685000D03*
X54811200Y-146050000D03*
X54811200Y-145415000D03*
X54811200Y-144780000D03*
X54811200Y-144145000D03*
X54811200Y-143510000D03*
X54811200Y-142875000D03*
X54811200Y-142240000D03*
X54811200Y-141605000D03*
X54811200Y-140970000D03*
X54811200Y-140335000D03*
X54811200Y-139700000D03*
X54811200Y-139065000D03*
X54811200Y-138430000D03*
X54811200Y-137795000D03*
X54811200Y-137160000D03*
X64211200Y-137160000D03*
X64211200Y-137795000D03*
X64211200Y-138430000D03*
X64211200Y-139065000D03*
X64211200Y-139700000D03*
X64211200Y-140335000D03*
X64211200Y-140970000D03*
X64211200Y-141605000D03*
X64211200Y-142240000D03*
X64211200Y-142875000D03*
X64211200Y-143510000D03*
X64211200Y-144145000D03*
X64211200Y-144780000D03*
X64211200Y-145415000D03*
X64211200Y-146050000D03*
X64211200Y-146685000D03*
X64211200Y-147320000D03*
X64211200Y-147955000D03*
X64211200Y-148590000D03*
X64211200Y-149225000D03*
X64211200Y-149860000D03*
X64211200Y-150495000D03*
X64211200Y-151130000D03*
X64211200Y-151765000D03*
D57*
X146075000Y-46750000D03*
D58*
X152375000Y-44450000D03*
D57*
X146075000Y-44450000D03*
X146075000Y-42150000D03*
D59*
X165100000Y-86587500D03*
X165100000Y-84862500D03*
D49*
X52970000Y-77540000D03*
D50*
X52970000Y-78340000D03*
X52970000Y-79140000D03*
D49*
X52970000Y-79940000D03*
X51170000Y-79940000D03*
D50*
X51170000Y-79140000D03*
X51170000Y-78340000D03*
D49*
X51170000Y-77540000D03*
D60*
X139700000Y-91162500D03*
X139700000Y-92987500D03*
D39*
X150852500Y-53975000D03*
X152677500Y-53975000D03*
D40*
X122832500Y-92710000D03*
X121007500Y-92710000D03*
D24*
X67310000Y-66040000D03*
D61*
X146372500Y-52955000D03*
X146372500Y-53605000D03*
X146372500Y-54255000D03*
X146372500Y-54905000D03*
X146372500Y-55555000D03*
X146372500Y-56205000D03*
X146372500Y-56855000D03*
X146372500Y-57505000D03*
X146372500Y-58155000D03*
X146372500Y-58805000D03*
X140647500Y-58805000D03*
X140647500Y-58155000D03*
X140647500Y-57505000D03*
X140647500Y-56855000D03*
X140647500Y-56205000D03*
X140647500Y-55555000D03*
X140647500Y-54905000D03*
X140647500Y-54255000D03*
X140647500Y-53605000D03*
X140647500Y-52955000D03*
D62*
X46355000Y-51450000D03*
X46355000Y-50800000D03*
X46355000Y-50150000D03*
X46355000Y-49500000D03*
D63*
X47380000Y-48475000D03*
X48030000Y-48475000D03*
X48680000Y-48475000D03*
X49330000Y-48475000D03*
D62*
X50355000Y-49500000D03*
X50355000Y-50150000D03*
X50355000Y-50800000D03*
X50355000Y-51450000D03*
D63*
X49330000Y-52475000D03*
X48680000Y-52475000D03*
X48030000Y-52475000D03*
X47380000Y-52475000D03*
D64*
X48980000Y-49850000D03*
X48980000Y-51100000D03*
X47730000Y-49850000D03*
X47730000Y-51100000D03*
D51*
X140335000Y-73420000D03*
X140335000Y-75170000D03*
X138430000Y-73420000D03*
X138430000Y-75170000D03*
D65*
X142225000Y-50800000D03*
D66*
X143525000Y-50800000D03*
D39*
X137517500Y-102870000D03*
X139342500Y-102870000D03*
D67*
X139320000Y-106995000D03*
X139320000Y-105095000D03*
X142620000Y-106045000D03*
D45*
X151547500Y-102870000D03*
X154522500Y-102870000D03*
D41*
X141925000Y-89790000D03*
X143825000Y-89790000D03*
X142875000Y-93090000D03*
D55*
X143737500Y-60960000D03*
X142012500Y-60960000D03*
D68*
X143282500Y-78105000D03*
X145007500Y-78105000D03*
D39*
X134977500Y-111125000D03*
X136802500Y-111125000D03*
D46*
X43815000Y-38860000D03*
X43815000Y-44960000D03*
D68*
X154712500Y-52070000D03*
X156437500Y-52070000D03*
D52*
X138430000Y-71397500D03*
X138430000Y-69572500D03*
D60*
X139700000Y-99417500D03*
X139700000Y-101242500D03*
D40*
X122832500Y-94615000D03*
X121007500Y-94615000D03*
D54*
X54811200Y-132080000D03*
X54811200Y-131445000D03*
X54811200Y-130810000D03*
X54811200Y-130175000D03*
X54811200Y-129540000D03*
X54811200Y-128905000D03*
X54811200Y-128270000D03*
X54811200Y-127635000D03*
X54811200Y-127000000D03*
X54811200Y-126365000D03*
X54811200Y-125730000D03*
X54811200Y-125095000D03*
X54811200Y-124460000D03*
X54811200Y-123825000D03*
X54811200Y-123190000D03*
X54811200Y-122555000D03*
X54811200Y-121920000D03*
X54811200Y-121285000D03*
X54811200Y-120650000D03*
X54811200Y-120015000D03*
X54811200Y-119380000D03*
X54811200Y-118745000D03*
X54811200Y-118110000D03*
X54811200Y-117475000D03*
X64211200Y-117475000D03*
X64211200Y-118110000D03*
X64211200Y-118745000D03*
X64211200Y-119380000D03*
X64211200Y-120015000D03*
X64211200Y-120650000D03*
X64211200Y-121285000D03*
X64211200Y-121920000D03*
X64211200Y-122555000D03*
X64211200Y-123190000D03*
X64211200Y-123825000D03*
X64211200Y-124460000D03*
X64211200Y-125095000D03*
X64211200Y-125730000D03*
X64211200Y-126365000D03*
X64211200Y-127000000D03*
X64211200Y-127635000D03*
X64211200Y-128270000D03*
X64211200Y-128905000D03*
X64211200Y-129540000D03*
X64211200Y-130175000D03*
X64211200Y-130810000D03*
X64211200Y-131445000D03*
X64211200Y-132080000D03*
D42*
X92075000Y-158130000D03*
D43*
X92075000Y-156830000D03*
D49*
X52970000Y-66110000D03*
D50*
X52970000Y-66910000D03*
X52970000Y-67710000D03*
D49*
X52970000Y-68510000D03*
X51170000Y-68510000D03*
D50*
X51170000Y-67710000D03*
X51170000Y-66910000D03*
D49*
X51170000Y-66110000D03*
D45*
X151547500Y-99060000D03*
X154522500Y-99060000D03*
D49*
X52440000Y-51365000D03*
D50*
X52440000Y-50565000D03*
X52440000Y-49765000D03*
D49*
X52440000Y-48965000D03*
X54240000Y-48965000D03*
D50*
X54240000Y-49765000D03*
X54240000Y-50565000D03*
D49*
X54240000Y-51365000D03*
D59*
X165100000Y-78332500D03*
X165100000Y-76607500D03*
D55*
X138657500Y-52070000D03*
X136932500Y-52070000D03*
D59*
X154305000Y-85317500D03*
X154305000Y-83592500D03*
D52*
X142240000Y-71397500D03*
X142240000Y-69572500D03*
D45*
X145197500Y-109855000D03*
X148172500Y-109855000D03*
D69*
X65645000Y-49555000D03*
X67945000Y-49555000D03*
D70*
X67945000Y-55855000D03*
D69*
X70245000Y-49555000D03*
D67*
X139320000Y-110805000D03*
X139320000Y-108905000D03*
X142620000Y-109855000D03*
D71*
X43815000Y-46960000D03*
D72*
X43815000Y-48260000D03*
D46*
X55880000Y-38860000D03*
X55880000Y-44960000D03*
D55*
X138657500Y-53975000D03*
X136932500Y-53975000D03*
D49*
X52970000Y-69920000D03*
D50*
X52970000Y-70720000D03*
X52970000Y-71520000D03*
D49*
X52970000Y-72320000D03*
X51170000Y-72320000D03*
D50*
X51170000Y-71520000D03*
X51170000Y-70720000D03*
D49*
X51170000Y-69920000D03*
M02*
