M48
; DRILL file {KiCad (6.0.5-0)} date 
; FORMAT={-:-/ absolute / metric / decimal}
; #@! TF.CreationDate,2022-09-19T20:24:48+09:00
; #@! TF.GenerationSoftware,Kicad,Pcbnew,(6.0.5-0)
; #@! TF.FileFunction,MixedPlating,1,4
FMAT,2
METRIC
; #@! TA.AperFunction,Plated,PTH,ViaDrill
T1C0.300
; #@! TA.AperFunction,Plated,PTH,ComponentDrill
T2C0.600
; #@! TA.AperFunction,Plated,PTH,ComponentDrill
T3C0.650
; #@! TA.AperFunction,Plated,PTH,ComponentDrill
T4C0.762
; #@! TA.AperFunction,Plated,PTH,ComponentDrill
T5C0.800
; #@! TA.AperFunction,Plated,PTH,ComponentDrill
T6C0.850
; #@! TA.AperFunction,Plated,PTH,ComponentDrill
T7C1.000
; #@! TA.AperFunction,Plated,PTH,ComponentDrill
T8C1.016
; #@! TA.AperFunction,Plated,PTH,ComponentDrill
T9C1.060
; #@! TA.AperFunction,Plated,PTH,ComponentDrill
T10C1.150
; #@! TA.AperFunction,Plated,PTH,ComponentDrill
T11C1.300
; #@! TA.AperFunction,Plated,PTH,ComponentDrill
T12C3.200
; #@! TA.AperFunction,NonPlated,NPTH,ComponentDrill
T13C1.000
; #@! TA.AperFunction,NonPlated,NPTH,ComponentDrill
T14C2.700
; #@! TA.AperFunction,NonPlated,NPTH,ComponentDrill
T15C2.750
; #@! TA.AperFunction,NonPlated,NPTH,ComponentDrill
T16C3.700
%
G90
G05
T1
X38.735Y-62.23
X38.735Y-113.03
X38.735Y-138.43
X38.735Y-163.83
X40.005Y-62.23
X40.005Y-113.03
X40.005Y-138.43
X40.005Y-163.83
X40.64Y-39.37
X40.64Y-41.91
X40.64Y-49.53
X40.64Y-107.315
X40.64Y-109.855
X40.64Y-158.75
X40.64Y-161.29
X41.275Y-56.515
X41.91Y-88.9
X42.545Y-50.8
X42.545Y-64.77
X42.545Y-70.485
X42.545Y-78.74
X42.545Y-93.345
X42.673Y-53.212
X43.18Y-69.85
X43.18Y-74.295
X43.18Y-93.98
X43.18Y-101.6
X43.687Y-53.212
X43.815Y-41.91
X43.815Y-72.39
X43.815Y-94.615
X44.45Y-66.675
X44.45Y-95.25
X45.085Y-83.185
X45.085Y-95.885
X45.212Y-49.276
X45.212Y-51.816
X45.212Y-53.34
X45.26Y-50.15
X45.715Y-64.77
X45.72Y-46.355
X46.355Y-71.755
X46.355Y-83.185
X46.355Y-87.63
X46.355Y-89.535
X46.355Y-91.44
X46.355Y-93.345
X46.355Y-95.885
X46.355Y-98.425
X46.355Y-100.33
X46.355Y-102.235
X47.45Y-50.5
X47.625Y-53.975
X48.26Y-41.91
X48.35Y-49.6
X48.35Y-50.5
X48.35Y-51.35
X48.895Y-46.228
X48.895Y-53.975
X49.1Y-71.781
X49.1Y-83.211
X49.25Y-50.5
X50.292Y-104.14
X51.435Y-53.34
X51.435Y-65.405
X51.435Y-84.455
X51.44Y-52.455
X52.705Y-121.285
X52.705Y-122.555
X52.705Y-123.825
X52.705Y-125.095
X52.705Y-126.365
X52.705Y-127.635
X52.705Y-128.905
X52.705Y-130.175
X52.705Y-131.445
X52.705Y-138.43
X52.705Y-139.7
X52.705Y-140.97
X52.705Y-142.24
X52.705Y-143.51
X52.705Y-144.78
X52.705Y-146.05
X52.705Y-147.32
X52.705Y-148.59
X52.705Y-149.86
X52.705Y-158.115
X52.705Y-159.385
X52.705Y-160.655
X52.705Y-161.925
X52.705Y-163.195
X52.705Y-164.465
X52.705Y-165.735
X52.705Y-167.005
X52.705Y-168.275
X52.705Y-169.545
X52.705Y-170.815
X53.086Y-102.87
X53.34Y-119.38
X53.34Y-123.19
X53.34Y-124.46
X53.34Y-125.73
X53.34Y-127.0
X53.34Y-128.27
X53.34Y-129.54
X53.34Y-130.81
X53.34Y-137.795
X53.34Y-139.065
X53.34Y-140.335
X53.34Y-141.605
X53.34Y-142.875
X53.34Y-144.145
X53.34Y-145.415
X53.34Y-146.685
X53.34Y-147.955
X53.34Y-149.225
X53.34Y-150.495
X53.34Y-157.48
X53.34Y-158.75
X53.34Y-160.02
X53.34Y-161.29
X53.34Y-162.56
X53.34Y-163.83
X53.34Y-165.1
X53.34Y-166.37
X53.34Y-167.64
X53.34Y-168.91
X53.34Y-170.18
X53.975Y-48.26
X53.975Y-65.405
X53.975Y-73.025
X53.975Y-76.835
X53.975Y-84.455
X53.975Y-106.68
X55.245Y-47.625
X55.245Y-52.705
X55.37Y-116.745
X55.88Y-41.275
X55.88Y-66.675
X55.88Y-71.755
X55.88Y-78.105
X55.88Y-80.01
X55.88Y-81.599
X55.88Y-83.185
X56.515Y-66.04
X56.515Y-67.8
X56.515Y-77.47
X56.515Y-79.375
X56.515Y-80.645
X56.515Y-82.55
X56.515Y-134.62
X56.69Y-115.524
X57.15Y-72.39
X57.15Y-135.89
X57.785Y-62.23
X57.785Y-68.58
X57.785Y-73.025
X57.785Y-80.645
X57.785Y-117.475
X57.785Y-132.08
X57.785Y-137.16
X58.42Y-62.865
X58.42Y-69.215
X58.42Y-73.66
X58.42Y-79.375
X58.42Y-87.63
X58.42Y-89.535
X58.42Y-91.44
X58.42Y-93.345
X58.42Y-96.52
X58.42Y-98.425
X58.42Y-100.33
X58.42Y-102.235
X58.93Y-111.125
X59.055Y-63.5
X59.055Y-69.85
X59.055Y-78.105
X59.69Y-64.135
X59.69Y-70.485
X59.69Y-155.575
X60.325Y-71.12
X60.325Y-108.585
X60.325Y-109.855
X60.325Y-111.125
X60.96Y-155.575
X61.595Y-71.755
X62.23Y-117.475
X62.23Y-135.89
X62.992Y-134.112
X62.992Y-153.67
X62.992Y-173.482
X63.5Y-109.855
X63.5Y-111.125
X65.405Y-47.625
X65.405Y-69.215
X65.405Y-118.11
X65.405Y-119.38
X65.405Y-120.65
X65.405Y-121.92
X65.405Y-123.19
X65.405Y-124.46
X65.405Y-125.73
X65.405Y-127.0
X65.405Y-128.27
X65.405Y-129.54
X65.405Y-130.81
X65.405Y-137.795
X65.405Y-139.065
X65.405Y-140.335
X65.405Y-141.605
X65.405Y-142.875
X65.405Y-144.145
X65.405Y-145.415
X65.405Y-146.685
X65.405Y-147.955
X65.405Y-149.225
X65.405Y-150.495
X65.405Y-157.48
X65.405Y-158.75
X65.405Y-160.02
X65.405Y-161.29
X65.405Y-162.56
X65.405Y-163.83
X65.405Y-165.1
X65.405Y-166.37
X65.405Y-167.64
X65.405Y-168.91
X65.405Y-170.18
X65.786Y-133.096
X65.786Y-152.654
X65.786Y-172.466
X66.04Y-118.745
X66.04Y-120.015
X66.04Y-121.285
X66.04Y-122.555
X66.04Y-123.825
X66.04Y-125.095
X66.04Y-126.365
X66.04Y-127.635
X66.04Y-128.905
X66.04Y-130.175
X66.04Y-131.445
X66.04Y-138.43
X66.04Y-139.7
X66.04Y-140.97
X66.04Y-142.24
X66.04Y-143.51
X66.04Y-144.78
X66.04Y-146.05
X66.04Y-147.32
X66.04Y-148.59
X66.04Y-149.86
X66.04Y-151.13
X66.04Y-158.115
X66.04Y-159.385
X66.04Y-160.655
X66.04Y-161.925
X66.04Y-163.195
X66.04Y-164.465
X66.04Y-165.735
X66.04Y-167.005
X66.04Y-168.275
X66.04Y-169.545
X66.04Y-170.815
X66.675Y-118.11
X66.675Y-137.795
X66.675Y-157.48
X67.31Y-118.745
X67.31Y-138.43
X67.31Y-158.115
X67.945Y-47.625
X67.945Y-57.785
X67.945Y-59.055
X67.945Y-60.325
X67.945Y-61.595
X67.945Y-120.015
X67.945Y-139.7
X67.945Y-159.385
X68.58Y-120.65
X68.58Y-140.335
X68.58Y-160.02
X69.215Y-121.92
X69.215Y-141.605
X69.215Y-161.29
X69.85Y-116.205
X69.85Y-122.555
X69.85Y-142.24
X69.85Y-161.925
X70.485Y-47.625
X70.485Y-123.825
X70.485Y-143.51
X70.485Y-163.195
X71.12Y-124.46
X71.12Y-144.145
X71.12Y-163.83
X71.755Y-125.095
X71.755Y-144.78
X71.755Y-164.465
X72.39Y-125.73
X72.39Y-145.415
X72.39Y-165.1
X73.025Y-57.785
X73.025Y-59.055
X73.025Y-60.325
X73.025Y-61.595
X73.025Y-71.12
X73.025Y-99.695
X73.025Y-127.0
X73.025Y-146.685
X73.025Y-166.37
X73.66Y-101.6
X73.66Y-127.635
X73.66Y-147.32
X73.66Y-167.005
X74.295Y-128.905
X74.295Y-148.59
X74.295Y-168.275
X74.93Y-100.965
X74.93Y-129.54
X74.93Y-149.225
X74.93Y-168.91
X75.565Y-130.81
X75.565Y-150.495
X75.565Y-170.18
X76.2Y-131.445
X76.2Y-151.13
X76.2Y-170.815
X76.835Y-62.865
X76.835Y-99.06
X77.47Y-97.79
X77.47Y-132.715
X78.105Y-74.295
X79.375Y-71.755
X79.375Y-95.885
X80.01Y-95.25
X80.645Y-73.66
X81.915Y-74.93
X83.185Y-72.999
X83.82Y-116.205
X83.82Y-131.445
X84.455Y-115.57
X84.455Y-130.81
X85.09Y-116.205
X85.09Y-129.54
X85.725Y-72.39
X85.725Y-115.57
X85.725Y-128.905
X86.36Y-116.205
X86.36Y-127.635
X86.995Y-41.275
X86.995Y-77.47
X86.995Y-115.57
X86.995Y-127.0
X87.63Y-86.36
X87.63Y-106.045
X87.63Y-125.73
X88.265Y-63.5
X88.265Y-116.205
X88.265Y-125.095
X88.9Y-115.57
X88.9Y-124.46
X89.535Y-41.275
X89.535Y-77.47
X89.535Y-105.41
X89.535Y-123.825
X90.17Y-116.205
X90.17Y-123.19
X90.805Y-52.705
X90.805Y-57.785
X90.805Y-59.055
X90.805Y-60.325
X90.805Y-61.595
X90.805Y-115.57
X90.805Y-122.555
X91.44Y-104.775
X92.075Y-41.275
X92.075Y-53.975
X92.075Y-77.47
X92.075Y-85.09
X92.075Y-116.205
X92.71Y-115.57
X93.345Y-55.88
X93.345Y-104.14
X93.98Y-116.205
X93.98Y-120.65
X94.615Y-41.275
X94.615Y-56.515
X94.615Y-77.47
X94.615Y-85.725
X94.615Y-115.57
X94.615Y-120.015
X95.25Y-103.505
X95.885Y-53.34
X95.885Y-116.205
X95.885Y-118.745
X97.155Y-41.275
X97.155Y-77.47
X97.155Y-85.725
X97.79Y-100.965
X98.425Y-99.695
X99.06Y-111.125
X99.06Y-160.02
X99.695Y-41.275
X99.695Y-77.47
X99.695Y-85.725
X99.695Y-110.49
X99.695Y-160.655
X102.235Y-41.275
X102.235Y-62.865
X103.505Y-62.23
X104.775Y-41.275
X104.775Y-52.07
X106.045Y-63.5
X107.315Y-85.09
X107.315Y-156.845
X108.585Y-156.21
X109.22Y-158.115
X109.855Y-41.275
X109.855Y-64.77
X109.855Y-155.575
X109.855Y-158.75
X111.125Y-64.135
X111.125Y-154.94
X111.125Y-159.385
X112.395Y-65.405
X112.395Y-154.305
X112.395Y-160.02
X113.665Y-49.53
X113.665Y-153.035
X114.935Y-66.675
X114.935Y-152.4
X116.205Y-66.04
X116.205Y-151.765
X116.205Y-156.21
X117.475Y-85.09
X117.475Y-91.44
X117.475Y-111.125
X117.475Y-155.575
X118.745Y-83.82
X118.745Y-95.885
X118.745Y-110.49
X118.745Y-154.305
X120.015Y-41.275
X120.015Y-85.09
X120.015Y-97.155
X120.015Y-151.13
X120.015Y-156.845
X120.65Y-91.44
X120.65Y-95.885
X120.65Y-154.94
X121.285Y-153.035
X121.92Y-152.4
X122.555Y-52.07
X122.555Y-83.82
X122.555Y-91.44
X122.555Y-158.115
X123.19Y-49.53
X123.19Y-84.455
X123.19Y-88.265
X123.19Y-158.75
X123.825Y-159.385
X124.46Y-41.275
X124.46Y-160.02
X125.095Y-40.64
X125.095Y-161.29
X125.73Y-38.735
X126.365Y-52.705
X126.365Y-86.36
X127.0Y-53.34
X127.0Y-57.785
X127.025Y-88.9
X127.635Y-53.975
X127.635Y-57.15
X127.66Y-87.63
X128.27Y-55.88
X128.27Y-88.265
X128.905Y-56.515
X128.905Y-86.995
X129.514Y-79.375
X129.54Y-100.965
X130.175Y-81.915
X130.175Y-99.695
X130.175Y-151.765
X130.81Y-88.265
X131.445Y-88.9
X131.445Y-151.13
X134.62Y-84.455
X135.89Y-52.07
X135.89Y-53.975
X137.16Y-57.785
X137.16Y-83.82
X137.795Y-57.15
X138.43Y-50.8
X138.43Y-55.245
X138.43Y-56.515
X138.43Y-68.58
X138.43Y-76.2
X139.065Y-55.88
X139.7Y-93.98
X140.335Y-68.58
X140.647Y-60.637
X140.97Y-38.735
X140.97Y-47.625
X140.97Y-50.8
X140.97Y-102.87
X142.24Y-68.58
X142.24Y-108.585
X142.875Y-82.55
X143.51Y-76.835
X143.51Y-94.615
X143.775Y-85.46
X144.145Y-97.79
X144.78Y-50.8
X144.78Y-99.06
X145.415Y-89.535
X146.05Y-66.675
X146.05Y-78.105
X146.685Y-81.28
X146.685Y-82.55
X146.685Y-99.06
X147.32Y-68.58
X147.955Y-58.42
X147.955Y-66.04
X147.955Y-81.28
X148.567Y-81.892
X149.225Y-57.785
X149.225Y-82.55
X149.225Y-94.615
X149.86Y-64.77
X149.86Y-74.295
X149.86Y-85.725
X150.495Y-84.2
X150.495Y-86.36
X151.765Y-64.135
X151.765Y-65.405
X152.4Y-41.91
X152.4Y-46.99
X152.4Y-66.04
X153.67Y-60.96
X153.67Y-62.23
X154.286Y-59.055
X154.305Y-61.595
X154.94Y-57.785
X154.94Y-59.625
X156.21Y-86.724
X157.48Y-52.07
X157.48Y-53.975
X161.6Y-61.0
X162.6Y-62.6
X163.4Y-59.264
X163.6Y-57.4
X164.0Y-63.639
T4
X52.05Y-111.125
X52.07Y-108.585
T5
X57.15Y-48.96
X57.15Y-51.46
X57.15Y-55.22
X57.15Y-57.72
X127.625Y-103.49
X127.625Y-106.03
X127.625Y-108.57
X135.245Y-103.49
X135.245Y-106.03
X135.245Y-108.57
X142.875Y-38.71
X142.875Y-41.21
X142.875Y-45.15
X142.875Y-47.65
X146.685Y-76.2
X151.565Y-76.2
T6
X159.385Y-73.66
X159.385Y-76.2
X159.385Y-78.74
X159.385Y-84.218
X159.385Y-86.758
X159.385Y-89.298
T7
X52.07Y-43.18
X52.07Y-45.72
X59.69Y-43.18
X59.69Y-45.72
X67.31Y-66.04
X84.45Y-170.815
X84.455Y-163.83
X84.455Y-166.37
X86.99Y-170.815
X86.995Y-163.83
X86.995Y-166.37
X89.535Y-163.83
X89.535Y-166.37
X92.075Y-163.83
X92.075Y-166.37
X94.615Y-163.83
X94.615Y-166.37
X97.155Y-163.83
X97.155Y-166.37
X99.695Y-163.83
X99.695Y-166.37
X102.235Y-163.83
X102.235Y-166.37
X103.52Y-87.0
X103.52Y-89.54
X104.775Y-163.83
X104.775Y-166.37
X106.06Y-87.0
X106.06Y-89.54
X107.315Y-163.83
X107.315Y-166.37
X108.6Y-87.0
X108.6Y-89.54
X109.855Y-163.83
X109.855Y-166.37
X111.14Y-87.0
X111.14Y-89.54
X112.395Y-163.83
X112.395Y-166.37
X113.68Y-87.0
X113.68Y-89.54
X114.935Y-163.83
X114.935Y-166.37
X116.22Y-87.0
X116.22Y-89.54
X117.475Y-163.83
X117.475Y-166.37
X118.76Y-87.0
X118.76Y-89.54
X120.015Y-163.83
X120.015Y-166.37
X121.3Y-87.0
X121.3Y-89.54
X122.555Y-163.83
X122.555Y-166.37
X125.095Y-163.83
X125.095Y-166.37
X127.635Y-163.83
X127.635Y-166.37
X130.175Y-163.83
X130.175Y-166.37
X132.715Y-163.83
X132.715Y-166.37
X154.305Y-66.675
X158.115Y-66.675
T8
X46.99Y-56.515
X46.99Y-59.055
X46.99Y-61.595
X52.07Y-56.525
X52.07Y-59.065
X52.07Y-61.605
T9
X73.025Y-36.195
X73.025Y-38.735
X73.025Y-79.375
X73.025Y-81.915
X75.565Y-36.195
X75.565Y-38.735
X75.565Y-79.375
X75.565Y-81.915
X78.105Y-36.195
X78.105Y-38.735
X78.105Y-79.375
X78.105Y-81.915
X80.645Y-36.195
X80.645Y-38.735
X80.645Y-79.375
X80.645Y-81.915
X83.185Y-36.195
X83.185Y-38.735
X83.185Y-79.375
X83.185Y-81.915
X85.725Y-36.195
X85.725Y-38.735
X85.725Y-79.375
X85.725Y-81.915
X88.265Y-36.195
X88.265Y-38.735
X88.265Y-79.375
X88.265Y-81.915
X90.805Y-36.195
X90.805Y-38.735
X90.805Y-79.375
X90.805Y-81.915
X93.345Y-36.195
X93.345Y-38.735
X93.345Y-79.375
X93.345Y-81.915
X95.885Y-36.195
X95.885Y-38.735
X95.885Y-79.375
X95.885Y-81.915
X98.425Y-36.195
X98.425Y-38.735
X98.425Y-79.375
X98.425Y-81.915
X100.965Y-36.195
X100.965Y-38.735
X100.965Y-79.375
X100.965Y-81.915
X103.505Y-36.195
X103.505Y-38.735
X103.505Y-79.375
X103.505Y-81.915
X106.045Y-36.195
X106.045Y-38.735
X106.045Y-79.375
X106.045Y-81.915
X108.585Y-36.195
X108.585Y-38.735
X108.585Y-79.375
X108.585Y-81.915
X111.125Y-36.195
X111.125Y-38.735
X111.125Y-79.375
X111.125Y-81.915
X113.665Y-36.195
X113.665Y-38.735
X113.665Y-79.375
X113.665Y-81.915
X116.205Y-36.195
X116.205Y-38.735
X116.205Y-79.375
X116.205Y-81.915
X118.745Y-36.195
X118.745Y-38.735
X118.745Y-79.375
X118.745Y-81.915
X121.285Y-36.195
X121.285Y-38.735
X121.285Y-79.375
X121.285Y-81.915
T10
X162.005Y-73.66
X162.005Y-78.74
X162.005Y-84.218
X162.005Y-89.298
T11
X157.965Y-45.375
X157.965Y-49.875
X157.965Y-95.54
X157.965Y-100.04
X157.965Y-105.065
X157.965Y-109.565
X165.465Y-44.725
X165.465Y-50.525
X165.465Y-94.89
X165.465Y-100.69
X165.465Y-104.415
X165.465Y-110.215
T12
X65.74Y-37.845
X65.74Y-80.265
X134.57Y-37.845
X134.57Y-80.265
T13
X161.965Y-45.125
X161.965Y-50.125
X161.965Y-95.29
X161.965Y-100.29
X161.965Y-104.815
X161.965Y-109.815
T14
X152.5Y-108.0
X152.5Y-174.0
T15
X79.585Y-116.1
X79.585Y-142.1
X79.585Y-165.1
X137.585Y-116.1
X137.585Y-142.1
X137.585Y-165.1
T16
X166.0Y-37.0
X166.0Y-173.0
T2
G00X166.12Y-67.655
M15
G01X166.72Y-67.655
M16
G05
G00X168.47Y-56.805
M15
G01X169.77Y-56.805
M16
G05
G00X168.47Y-67.655
M15
G01X169.77Y-67.655
M16
G05
T3
G00X166.145Y-56.805
M15
G01X166.695Y-56.805
M16
G05
T7
G00X163.615Y-44.925
M15
G01X163.315Y-44.925
M16
G05
G00X163.615Y-50.325
M15
G01X163.315Y-50.325
M16
G05
G00X163.615Y-95.09
M15
G01X163.315Y-95.09
M16
G05
G00X163.615Y-100.49
M15
G01X163.315Y-100.49
M16
G05
G00X163.615Y-104.615
M15
G01X163.315Y-104.615
M16
G05
G00X163.615Y-110.015
M15
G01X163.315Y-110.015
M16
G05
T0
M30
