G04 #@! TF.GenerationSoftware,KiCad,Pcbnew,(6.0.5-0)*
G04 #@! TF.CreationDate,2022-09-21T23:29:34+09:00*
G04 #@! TF.ProjectId,kepler-x,6b65706c-6572-42d7-982e-6b696361645f,rev?*
G04 #@! TF.SameCoordinates,Original*
G04 #@! TF.FileFunction,Profile,NP*
%FSLAX46Y46*%
G04 Gerber Fmt 4.6, Leading zero omitted, Abs format (unit mm)*
G04 Created by KiCad (PCBNEW (6.0.5-0)) date 2022-09-21 23:29:34*
%MOMM*%
%LPD*%
G01*
G04 APERTURE LIST*
G04 #@! TA.AperFunction,Profile*
%ADD10C,0.100000*%
G04 #@! TD*
G04 #@! TA.AperFunction,Profile*
%ADD11C,0.150000*%
G04 #@! TD*
%ADD12C,0.150000*%
G04 #@! TA.AperFunction,Profile*
%ADD13C,0.120000*%
G04 #@! TD*
G04 APERTURE END LIST*
D10*
X169500000Y-64500000D02*
G75*
G03*
X170000000Y-65000000I500000J0D01*
G01*
X170500000Y-59500000D02*
X170500000Y-31600000D01*
X169999999Y-59499999D02*
X170500000Y-59500000D01*
X169999999Y-63499999D02*
X170500000Y-63500000D01*
X169999999Y-59499999D02*
G75*
G03*
X169499999Y-59999999I1J-500001D01*
G01*
D11*
X164000000Y-169000000D02*
X141000000Y-169000000D01*
X141000000Y-169000000D02*
X141000000Y-113000000D01*
X141000000Y-113000000D02*
X164000000Y-113000000D01*
X164000000Y-113000000D02*
X164000000Y-169000000D01*
D10*
X170500000Y-61000000D02*
X170000000Y-61000000D01*
X30000000Y-23400000D02*
X30000000Y-186800000D01*
X170500000Y-178100000D02*
X170500000Y-65000000D01*
X169500000Y-64500000D02*
X169499999Y-63999999D01*
X169500000Y-60500000D02*
X169499999Y-59999999D01*
X169500000Y-60500000D02*
G75*
G03*
X170000000Y-61000000I500000J0D01*
G01*
X170500000Y-65000000D02*
X170000000Y-65000000D01*
X169999999Y-63499999D02*
G75*
G03*
X169499999Y-63999999I1J-500001D01*
G01*
X170500000Y-63500000D02*
X170500000Y-61000000D01*
D12*
X23176190Y-120147619D02*
X22938095Y-119671428D01*
X22938095Y-118719047D01*
X23176190Y-118242857D01*
X23414285Y-118004761D01*
X23890476Y-117766666D01*
X25319047Y-117766666D01*
X25795238Y-118004761D01*
X26033333Y-118242857D01*
X26271428Y-118719047D01*
X26271428Y-119671428D01*
X26033333Y-120147619D01*
X22938095Y-122290476D02*
X27938095Y-122290476D01*
X22938095Y-124433333D02*
X25557142Y-124433333D01*
X26033333Y-124195238D01*
X26271428Y-123719047D01*
X26271428Y-123004761D01*
X26033333Y-122528571D01*
X25795238Y-122290476D01*
X22938095Y-128957142D02*
X25557142Y-128957142D01*
X26033333Y-128719047D01*
X26271428Y-128242857D01*
X26271428Y-127290476D01*
X26033333Y-126814285D01*
X23176190Y-128957142D02*
X22938095Y-128480952D01*
X22938095Y-127290476D01*
X23176190Y-126814285D01*
X23652380Y-126576190D01*
X24128571Y-126576190D01*
X24604761Y-126814285D01*
X24842857Y-127290476D01*
X24842857Y-128480952D01*
X25080952Y-128957142D01*
X22938095Y-131338095D02*
X26271428Y-131338095D01*
X25795238Y-131338095D02*
X26033333Y-131576190D01*
X26271428Y-132052380D01*
X26271428Y-132766666D01*
X26033333Y-133242857D01*
X25557142Y-133480952D01*
X22938095Y-133480952D01*
X25557142Y-133480952D02*
X26033333Y-133719047D01*
X26271428Y-134195238D01*
X26271428Y-134909523D01*
X26033333Y-135385714D01*
X25557142Y-135623809D01*
X22938095Y-135623809D01*
X26271428Y-137290476D02*
X26271428Y-139195238D01*
X22938095Y-138004761D02*
X27223809Y-138004761D01*
X27700000Y-138242857D01*
X27938095Y-138719047D01*
X27938095Y-139195238D01*
X23176190Y-142766666D02*
X22938095Y-142290476D01*
X22938095Y-141338095D01*
X23176190Y-140861904D01*
X23652380Y-140623809D01*
X25557142Y-140623809D01*
X26033333Y-140861904D01*
X26271428Y-141338095D01*
X26271428Y-142290476D01*
X26033333Y-142766666D01*
X25557142Y-143004761D01*
X25080952Y-143004761D01*
X24604761Y-140623809D01*
X22938095Y-145147619D02*
X26271428Y-145147619D01*
X25319047Y-145147619D02*
X25795238Y-145385714D01*
X26033333Y-145623809D01*
X26271428Y-146100000D01*
X26271428Y-146576190D01*
X22938095Y-148242857D02*
X26271428Y-148242857D01*
X25319047Y-148242857D02*
X25795238Y-148480952D01*
X26033333Y-148719047D01*
X26271428Y-149195238D01*
X26271428Y-149671428D01*
X23176190Y-153242857D02*
X22938095Y-152766666D01*
X22938095Y-151814285D01*
X23176190Y-151338095D01*
X23652380Y-151100000D01*
X25557142Y-151100000D01*
X26033333Y-151338095D01*
X26271428Y-151814285D01*
X26271428Y-152766666D01*
X26033333Y-153242857D01*
X25557142Y-153480952D01*
X25080952Y-153480952D01*
X24604761Y-151100000D01*
X22938095Y-157766666D02*
X27938095Y-157766666D01*
X23176190Y-157766666D02*
X22938095Y-157290476D01*
X22938095Y-156338095D01*
X23176190Y-155861904D01*
X23414285Y-155623809D01*
X23890476Y-155385714D01*
X25319047Y-155385714D01*
X25795238Y-155623809D01*
X26033333Y-155861904D01*
X26271428Y-156338095D01*
X26271428Y-157290476D01*
X26033333Y-157766666D01*
X23176190Y-165861904D02*
X22938095Y-165385714D01*
X22938095Y-164433333D01*
X23176190Y-163957142D01*
X23652380Y-163719047D01*
X25557142Y-163719047D01*
X26033333Y-163957142D01*
X26271428Y-164433333D01*
X26271428Y-165385714D01*
X26033333Y-165861904D01*
X25557142Y-166100000D01*
X25080952Y-166100000D01*
X24604761Y-163719047D01*
X22938095Y-170385714D02*
X27938095Y-170385714D01*
X23176190Y-170385714D02*
X22938095Y-169909523D01*
X22938095Y-168957142D01*
X23176190Y-168480952D01*
X23414285Y-168242857D01*
X23890476Y-168004761D01*
X25319047Y-168004761D01*
X25795238Y-168242857D01*
X26033333Y-168480952D01*
X26271428Y-168957142D01*
X26271428Y-169909523D01*
X26033333Y-170385714D01*
X26271428Y-174909523D02*
X22223809Y-174909523D01*
X21747619Y-174671428D01*
X21509523Y-174433333D01*
X21271428Y-173957142D01*
X21271428Y-173242857D01*
X21509523Y-172766666D01*
X23176190Y-174909523D02*
X22938095Y-174433333D01*
X22938095Y-173480952D01*
X23176190Y-173004761D01*
X23414285Y-172766666D01*
X23890476Y-172528571D01*
X25319047Y-172528571D01*
X25795238Y-172766666D01*
X26033333Y-173004761D01*
X26271428Y-173480952D01*
X26271428Y-174433333D01*
X26033333Y-174909523D01*
X23176190Y-179195238D02*
X22938095Y-178719047D01*
X22938095Y-177766666D01*
X23176190Y-177290476D01*
X23652380Y-177052380D01*
X25557142Y-177052380D01*
X26033333Y-177290476D01*
X26271428Y-177766666D01*
X26271428Y-178719047D01*
X26033333Y-179195238D01*
X25557142Y-179433333D01*
X25080952Y-179433333D01*
X24604761Y-177052380D01*
D13*
X43000000Y-180100000D02*
X50000000Y-180100000D01*
X40000000Y-37100000D02*
X31000000Y-37100000D01*
X40000000Y-166100000D02*
X31000000Y-166100000D01*
X50000000Y-180100000D02*
X168500000Y-180100000D01*
X30000000Y-165100000D02*
X30000000Y-101600000D01*
X40000000Y-177100000D02*
X40000000Y-166100000D01*
X43000000Y-30100000D02*
X169000000Y-30100000D01*
X30000000Y-38100000D02*
X30000000Y-101600000D01*
X40000000Y-33100000D02*
X40000000Y-37100000D01*
X43000000Y-30100000D02*
G75*
G03*
X40000000Y-33100000I0J-3000000D01*
G01*
X40000000Y-177100000D02*
G75*
G03*
X43000000Y-180100000I3000000J0D01*
G01*
X31000000Y-37100000D02*
G75*
G03*
X30000000Y-38100000I-1J-999999D01*
G01*
X168500000Y-180100000D02*
G75*
G03*
X170500000Y-178100000I0J2000000D01*
G01*
X30000000Y-165100000D02*
G75*
G03*
X31000000Y-166100000I999999J-1D01*
G01*
X170500000Y-31600000D02*
G75*
G03*
X169000000Y-30100000I-1500000J0D01*
G01*
M02*
