  0
SECTION
  2
HEADER
  9
$ANGBASE
  50
0.0
  9
$ANGDIR
  70
1
  9
$MEASUREMENT
  70
0
  0
ENDSEC
  0
SECTION
  2
TABLES
  0
TABLE
  2
LTYPE
  70
4
  0
LTYPE
  5
40F
  2
CONTINUOUS
  70
0
  3
Solid line
  72
65
  73
0
  40
0.0
  0
LTYPE
  5
410
  2
DASHDOT
 70
0
  3
Dash Dot ____ _ ____ _
 72
65
 73
4
 40
2.0
 49
1.25
 49
-0.25
 49
0.25
 49
-0.25
  0
LTYPE
  5
411
  2
DASHED
 70
0
  3
Dashed __ __ __ __ __
 72
65
 73
2
 40
0.75
 49
0.5
 49
-0.25
  0
LTYPE
  5
43B
  2
DOTTED
 70
0
  3
Dotted .  .  .  .
 72
65
 73
2
 40
0.2
 49
0.0
 49
-0.2
  0
ENDTAB
  0
TABLE
  2
STYLE
  70
4
  0
STYLE
  2
KICAD
  70
0
  40
0
  41
1
  42
1
  50
0
  71
0
  3
isocp.shx
  0
STYLE
  2
KICADB
  70
0
  40
0
  41
1
  42
1
  50
0
  71
0
  3
isocp.shx
  0
STYLE
  2
KICADI
  70
0
  40
0
  41
1
  42
1
  50
15
  71
0
  3
isocp.shx
  0
STYLE
  2
KICADBI
  70
0
  40
0
  41
1
  42
1
  50
15
  71
0
  3
isocp.shx
  0
ENDTAB
  0
TABLE
  2
LAYER
  70
1
  0
LAYER
  2
BLACK
  70
0
  62
7
  6
CONTINUOUS
  0
ENDTAB
  0
ENDSEC
  0
SECTION
  2
ENTITIES
0
LINE
8
BLACK
6
CONTINUOUS
10
3.68608
20
-5.86743
11
3.67149
21
-5.8654
0
LINE
8
BLACK
6
CONTINUOUS
10
3.67149
20
-5.8654
11
3.65715
21
-5.86202
0
LINE
8
BLACK
6
CONTINUOUS
10
3.65715
20
-5.86202
11
3.64319
21
-5.85734
0
LINE
8
BLACK
6
CONTINUOUS
10
3.64319
20
-5.85734
11
3.62971
21
-5.85139
0
LINE
8
BLACK
6
CONTINUOUS
10
3.62971
20
-5.85139
11
3.61685
21
-5.84423
0
LINE
8
BLACK
6
CONTINUOUS
10
3.61685
20
-5.84423
11
3.6047
21
-5.8359
0
LINE
8
BLACK
6
CONTINUOUS
10
3.6047
20
-5.8359
11
3.59337
21
-5.8265
0
LINE
8
BLACK
6
CONTINUOUS
10
3.59337
20
-5.8265
11
3.58295
21
-5.81608
0
LINE
8
BLACK
6
CONTINUOUS
10
3.58295
20
-5.81608
11
3.57354
21
-5.80475
0
LINE
8
BLACK
6
CONTINUOUS
10
3.57354
20
-5.80475
11
3.56522
21
-5.7926
0
LINE
8
BLACK
6
CONTINUOUS
10
3.56522
20
-5.7926
11
3.55805
21
-5.77973
0
LINE
8
BLACK
6
CONTINUOUS
10
3.55805
20
-5.77973
11
3.55211
21
-5.76626
0
LINE
8
BLACK
6
CONTINUOUS
10
3.55211
20
-5.76626
11
3.54743
21
-5.7523
0
LINE
8
BLACK
6
CONTINUOUS
10
3.54743
20
-5.7523
11
3.54405
21
-5.73796
0
LINE
8
BLACK
6
CONTINUOUS
10
3.54405
20
-5.73796
11
3.54202
21
-5.72337
0
LINE
8
BLACK
6
CONTINUOUS
10
3.54202
20
-5.72337
11
3.54134
21
-5.70866
0
LINE
8
BLACK
6
CONTINUOUS
10
3.54134
20
-5.70866
11
3.54134
21
-4.05512
0
LINE
8
BLACK
6
CONTINUOUS
10
3.54134
20
-4.05512
11
3.54202
21
-4.04041
0
LINE
8
BLACK
6
CONTINUOUS
10
3.54202
20
-4.04041
11
3.54405
21
-4.02582
0
LINE
8
BLACK
6
CONTINUOUS
10
3.54405
20
-4.02582
11
3.54743
21
-4.01148
0
LINE
8
BLACK
6
CONTINUOUS
10
3.54743
20
-4.01148
11
3.55211
21
-3.99752
0
LINE
8
BLACK
6
CONTINUOUS
10
3.55211
20
-3.99752
11
3.55805
21
-3.98405
0
LINE
8
BLACK
6
CONTINUOUS
10
3.55805
20
-3.98405
11
3.56522
21
-3.97118
0
LINE
8
BLACK
6
CONTINUOUS
10
3.56522
20
-3.97118
11
3.57354
21
-3.95903
0
LINE
8
BLACK
6
CONTINUOUS
10
3.57354
20
-3.95903
11
3.58295
21
-3.9477
0
LINE
8
BLACK
6
CONTINUOUS
10
3.58295
20
-3.9477
11
3.59337
21
-3.93728
0
LINE
8
BLACK
6
CONTINUOUS
10
3.59337
20
-3.93728
11
3.6047
21
-3.92788
0
LINE
8
BLACK
6
CONTINUOUS
10
3.6047
20
-3.92788
11
3.61685
21
-3.91955
0
LINE
8
BLACK
6
CONTINUOUS
10
3.61685
20
-3.91955
11
3.62971
21
-3.91239
0
LINE
8
BLACK
6
CONTINUOUS
10
3.62971
20
-3.91239
11
3.64319
21
-3.90644
0
LINE
8
BLACK
6
CONTINUOUS
10
3.64319
20
-3.90644
11
3.65715
21
-3.90176
0
LINE
8
BLACK
6
CONTINUOUS
10
3.65715
20
-3.90176
11
3.67149
21
-3.89838
0
LINE
8
BLACK
6
CONTINUOUS
10
3.67149
20
-3.89838
11
3.68608
21
-3.89635
0
LINE
8
BLACK
6
CONTINUOUS
10
3.68608
20
-3.89635
11
3.70079
21
-3.89567
0
LINE
8
BLACK
6
CONTINUOUS
10
3.70079
20
-3.89567
11
6.92913
21
-3.89567
0
LINE
8
BLACK
6
CONTINUOUS
10
6.92913
20
-3.89567
11
6.94385
21
-3.89635
0
LINE
8
BLACK
6
CONTINUOUS
10
6.94385
20
-3.89635
11
6.95843
21
-3.89838
0
LINE
8
BLACK
6
CONTINUOUS
10
6.95843
20
-3.89838
11
6.97277
21
-3.90176
0
LINE
8
BLACK
6
CONTINUOUS
10
6.97277
20
-3.90176
11
6.98673
21
-3.90644
0
LINE
8
BLACK
6
CONTINUOUS
10
6.98673
20
-3.90644
11
7.00021
21
-3.91239
0
LINE
8
BLACK
6
CONTINUOUS
10
7.00021
20
-3.91239
11
7.01307
21
-3.91955
0
LINE
8
BLACK
6
CONTINUOUS
10
7.01307
20
-3.91955
11
7.02522
21
-3.92788
0
LINE
8
BLACK
6
CONTINUOUS
10
7.02522
20
-3.92788
11
7.03655
21
-3.93728
0
LINE
8
BLACK
6
CONTINUOUS
10
7.03655
20
-3.93728
11
7.04697
21
-3.9477
0
LINE
8
BLACK
6
CONTINUOUS
10
7.04697
20
-3.9477
11
7.05638
21
-3.95903
0
LINE
8
BLACK
6
CONTINUOUS
10
7.05638
20
-3.95903
11
7.0647
21
-3.97118
0
LINE
8
BLACK
6
CONTINUOUS
10
7.0647
20
-3.97118
11
7.07187
21
-3.98405
0
LINE
8
BLACK
6
CONTINUOUS
10
7.07187
20
-3.98405
11
7.07782
21
-3.99752
0
LINE
8
BLACK
6
CONTINUOUS
10
7.07782
20
-3.99752
11
7.0825
21
-4.01148
0
LINE
8
BLACK
6
CONTINUOUS
10
7.0825
20
-4.01148
11
7.08587
21
-4.02582
0
LINE
8
BLACK
6
CONTINUOUS
10
7.08587
20
-4.02582
11
7.0879
21
-4.04041
0
LINE
8
BLACK
6
CONTINUOUS
10
7.0879
20
-4.04041
11
7.08858
21
-4.05512
0
LINE
8
BLACK
6
CONTINUOUS
10
7.08858
20
-4.05512
11
7.08858
21
-5.70866
0
LINE
8
BLACK
6
CONTINUOUS
10
7.08858
20
-5.70866
11
7.0879
21
-5.72337
0
LINE
8
BLACK
6
CONTINUOUS
10
7.0879
20
-5.72337
11
7.08587
21
-5.73796
0
LINE
8
BLACK
6
CONTINUOUS
10
7.08587
20
-5.73796
11
7.0825
21
-5.7523
0
LINE
8
BLACK
6
CONTINUOUS
10
7.0825
20
-5.7523
11
7.07782
21
-5.76626
0
LINE
8
BLACK
6
CONTINUOUS
10
7.07782
20
-5.76626
11
7.07187
21
-5.77973
0
LINE
8
BLACK
6
CONTINUOUS
10
7.07187
20
-5.77973
11
7.0647
21
-5.7926
0
LINE
8
BLACK
6
CONTINUOUS
10
7.0647
20
-5.7926
11
7.05638
21
-5.80475
0
LINE
8
BLACK
6
CONTINUOUS
10
7.05638
20
-5.80475
11
7.04697
21
-5.81608
0
LINE
8
BLACK
6
CONTINUOUS
10
7.04697
20
-5.81608
11
7.03655
21
-5.8265
0
LINE
8
BLACK
6
CONTINUOUS
10
7.03655
20
-5.8265
11
7.02522
21
-5.8359
0
LINE
8
BLACK
6
CONTINUOUS
10
7.02522
20
-5.8359
11
7.01307
21
-5.84423
0
LINE
8
BLACK
6
CONTINUOUS
10
7.01307
20
-5.84423
11
7.00021
21
-5.85139
0
LINE
8
BLACK
6
CONTINUOUS
10
7.00021
20
-5.85139
11
6.98673
21
-5.85734
0
LINE
8
BLACK
6
CONTINUOUS
10
6.98673
20
-5.85734
11
6.97277
21
-5.86202
0
LINE
8
BLACK
6
CONTINUOUS
10
6.97277
20
-5.86202
11
6.95843
21
-5.8654
0
LINE
8
BLACK
6
CONTINUOUS
10
6.95843
20
-5.8654
11
6.94385
21
-5.86743
0
LINE
8
BLACK
6
CONTINUOUS
10
6.94385
20
-5.86743
11
6.92913
21
-5.86811
0
LINE
8
BLACK
6
CONTINUOUS
10
6.92913
20
-5.86811
11
3.70079
21
-5.86811
0
LINE
8
BLACK
6
CONTINUOUS
10
3.70079
20
-5.86811
11
3.68608
21
-5.86743
0
LINE
8
BLACK
6
CONTINUOUS
10
3.70043
20
-3.89946
11
3.68642
21
-3.9001
0
LINE
8
BLACK
6
CONTINUOUS
10
3.68642
20
-3.9001
11
3.67218
21
-3.90209
0
LINE
8
BLACK
6
CONTINUOUS
10
3.67218
20
-3.90209
11
3.65818
21
-3.90538
0
LINE
8
BLACK
6
CONTINUOUS
10
3.65818
20
-3.90538
11
3.64455
21
-3.90995
0
LINE
8
BLACK
6
CONTINUOUS
10
3.64455
20
-3.90995
11
3.6314
21
-3.91576
0
LINE
8
BLACK
6
CONTINUOUS
10
3.6314
20
-3.91576
11
3.61883
21
-3.92276
0
LINE
8
BLACK
6
CONTINUOUS
10
3.61883
20
-3.92276
11
3.60697
21
-3.93088
0
LINE
8
BLACK
6
CONTINUOUS
10
3.60697
20
-3.93088
11
3.59591
21
-3.94007
0
LINE
8
BLACK
6
CONTINUOUS
10
3.59591
20
-3.94007
11
3.58574
21
-3.95024
0
LINE
8
BLACK
6
CONTINUOUS
10
3.58574
20
-3.95024
11
3.57655
21
-3.9613
0
LINE
8
BLACK
6
CONTINUOUS
10
3.57655
20
-3.9613
11
3.56843
21
-3.97316
0
LINE
8
BLACK
6
CONTINUOUS
10
3.56843
20
-3.97316
11
3.56143
21
-3.98573
0
LINE
8
BLACK
6
CONTINUOUS
10
3.56143
20
-3.98573
11
3.55562
21
-3.99888
0
LINE
8
BLACK
6
CONTINUOUS
10
3.55562
20
-3.99888
11
3.55105
21
-4.01251
0
LINE
8
BLACK
6
CONTINUOUS
10
3.55105
20
-4.01251
11
3.54776
21
-4.02651
0
LINE
8
BLACK
6
CONTINUOUS
10
3.54776
20
-4.02651
11
3.54577
21
-4.04075
0
LINE
8
BLACK
6
CONTINUOUS
10
3.54577
20
-4.04075
11
3.54513
21
-4.05476
0
LINE
8
BLACK
6
CONTINUOUS
10
3.54513
20
-4.05476
11
3.54528
21
-4.05512
0
LINE
8
BLACK
6
CONTINUOUS
10
3.54528
20
-4.05512
11
3.54528
21
-5.70866
0
LINE
8
BLACK
6
CONTINUOUS
10
3.54528
20
-5.70866
11
3.54513
21
-5.70902
0
LINE
8
BLACK
6
CONTINUOUS
10
3.54513
20
-5.70902
11
3.54577
21
-5.72303
0
LINE
8
BLACK
6
CONTINUOUS
10
3.54577
20
-5.72303
11
3.54776
21
-5.73727
0
LINE
8
BLACK
6
CONTINUOUS
10
3.54776
20
-5.73727
11
3.55105
21
-5.75126
0
LINE
8
BLACK
6
CONTINUOUS
10
3.55105
20
-5.75126
11
3.55562
21
-5.7649
0
LINE
8
BLACK
6
CONTINUOUS
10
3.55562
20
-5.7649
11
3.56143
21
-5.77805
0
LINE
8
BLACK
6
CONTINUOUS
10
3.56143
20
-5.77805
11
3.56843
21
-5.79062
0
LINE
8
BLACK
6
CONTINUOUS
10
3.56843
20
-5.79062
11
3.57655
21
-5.80248
0
LINE
8
BLACK
6
CONTINUOUS
10
3.57655
20
-5.80248
11
3.58574
21
-5.81354
0
LINE
8
BLACK
6
CONTINUOUS
10
3.58574
20
-5.81354
11
3.59591
21
-5.82371
0
LINE
8
BLACK
6
CONTINUOUS
10
3.59591
20
-5.82371
11
3.60697
21
-5.8329
0
LINE
8
BLACK
6
CONTINUOUS
10
3.60697
20
-5.8329
11
3.61883
21
-5.84102
0
LINE
8
BLACK
6
CONTINUOUS
10
3.61883
20
-5.84102
11
3.6314
21
-5.84802
0
LINE
8
BLACK
6
CONTINUOUS
10
3.6314
20
-5.84802
11
3.64455
21
-5.85383
0
LINE
8
BLACK
6
CONTINUOUS
10
3.64455
20
-5.85383
11
3.65818
21
-5.8584
0
LINE
8
BLACK
6
CONTINUOUS
10
3.65818
20
-5.8584
11
3.67218
21
-5.86169
0
LINE
8
BLACK
6
CONTINUOUS
10
3.67218
20
-5.86169
11
3.68642
21
-5.86368
0
LINE
8
BLACK
6
CONTINUOUS
10
3.68642
20
-5.86368
11
3.70043
21
-5.86432
0
LINE
8
BLACK
6
CONTINUOUS
10
3.70043
20
-5.86432
11
3.70079
21
-5.86417
0
LINE
8
BLACK
6
CONTINUOUS
10
3.70079
20
-5.86417
11
6.92913
21
-5.86417
0
LINE
8
BLACK
6
CONTINUOUS
10
6.92913
20
-5.86417
11
6.92949
21
-5.86432
0
LINE
8
BLACK
6
CONTINUOUS
10
6.92949
20
-5.86432
11
6.9435
21
-5.86368
0
LINE
8
BLACK
6
CONTINUOUS
10
6.9435
20
-5.86368
11
6.95774
21
-5.86169
0
LINE
8
BLACK
6
CONTINUOUS
10
6.95774
20
-5.86169
11
6.97174
21
-5.8584
0
LINE
8
BLACK
6
CONTINUOUS
10
6.97174
20
-5.8584
11
6.98537
21
-5.85383
0
LINE
8
BLACK
6
CONTINUOUS
10
6.98537
20
-5.85383
11
6.99853
21
-5.84802
0
LINE
8
BLACK
6
CONTINUOUS
10
6.99853
20
-5.84802
11
7.01109
21
-5.84102
0
LINE
8
BLACK
6
CONTINUOUS
10
7.01109
20
-5.84102
11
7.02295
21
-5.8329
0
LINE
8
BLACK
6
CONTINUOUS
10
7.02295
20
-5.8329
11
7.03401
21
-5.82371
0
LINE
8
BLACK
6
CONTINUOUS
10
7.03401
20
-5.82371
11
7.04418
21
-5.81354
0
LINE
8
BLACK
6
CONTINUOUS
10
7.04418
20
-5.81354
11
7.05337
21
-5.80248
0
LINE
8
BLACK
6
CONTINUOUS
10
7.05337
20
-5.80248
11
7.06149
21
-5.79062
0
LINE
8
BLACK
6
CONTINUOUS
10
7.06149
20
-5.79062
11
7.06849
21
-5.77805
0
LINE
8
BLACK
6
CONTINUOUS
10
7.06849
20
-5.77805
11
7.0743
21
-5.7649
0
LINE
8
BLACK
6
CONTINUOUS
10
7.0743
20
-5.7649
11
7.07887
21
-5.75126
0
LINE
8
BLACK
6
CONTINUOUS
10
7.07887
20
-5.75126
11
7.08216
21
-5.73727
0
LINE
8
BLACK
6
CONTINUOUS
10
7.08216
20
-5.73727
11
7.08415
21
-5.72303
0
LINE
8
BLACK
6
CONTINUOUS
10
7.08415
20
-5.72303
11
7.0848
21
-5.70902
0
LINE
8
BLACK
6
CONTINUOUS
10
7.0848
20
-5.70902
11
7.08465
21
-5.70866
0
LINE
8
BLACK
6
CONTINUOUS
10
7.08465
20
-5.70866
11
7.08465
21
-4.05512
0
LINE
8
BLACK
6
CONTINUOUS
10
7.08465
20
-4.05512
11
7.0848
21
-4.05476
0
LINE
8
BLACK
6
CONTINUOUS
10
7.0848
20
-4.05476
11
7.08415
21
-4.04075
0
LINE
8
BLACK
6
CONTINUOUS
10
7.08415
20
-4.04075
11
7.08216
21
-4.02651
0
LINE
8
BLACK
6
CONTINUOUS
10
7.08216
20
-4.02651
11
7.07887
21
-4.01251
0
LINE
8
BLACK
6
CONTINUOUS
10
7.07887
20
-4.01251
11
7.0743
21
-3.99888
0
LINE
8
BLACK
6
CONTINUOUS
10
7.0743
20
-3.99888
11
7.06849
21
-3.98573
0
LINE
8
BLACK
6
CONTINUOUS
10
7.06849
20
-3.98573
11
7.06149
21
-3.97316
0
LINE
8
BLACK
6
CONTINUOUS
10
7.06149
20
-3.97316
11
7.05337
21
-3.9613
0
LINE
8
BLACK
6
CONTINUOUS
10
7.05337
20
-3.9613
11
7.04418
21
-3.95024
0
LINE
8
BLACK
6
CONTINUOUS
10
7.04418
20
-3.95024
11
7.03401
21
-3.94007
0
LINE
8
BLACK
6
CONTINUOUS
10
7.03401
20
-3.94007
11
7.02295
21
-3.93088
0
LINE
8
BLACK
6
CONTINUOUS
10
7.02295
20
-3.93088
11
7.01109
21
-3.92276
0
LINE
8
BLACK
6
CONTINUOUS
10
7.01109
20
-3.92276
11
6.99853
21
-3.91576
0
LINE
8
BLACK
6
CONTINUOUS
10
6.99853
20
-3.91576
11
6.98537
21
-3.90995
0
LINE
8
BLACK
6
CONTINUOUS
10
6.98537
20
-3.90995
11
6.97174
21
-3.90538
0
LINE
8
BLACK
6
CONTINUOUS
10
6.97174
20
-3.90538
11
6.95774
21
-3.90209
0
LINE
8
BLACK
6
CONTINUOUS
10
6.95774
20
-3.90209
11
6.9435
21
-3.9001
0
LINE
8
BLACK
6
CONTINUOUS
10
6.9435
20
-3.9001
11
6.92949
21
-3.89946
0
LINE
8
BLACK
6
CONTINUOUS
10
6.92949
20
-3.89946
11
6.92913
21
-3.89961
0
LINE
8
BLACK
6
CONTINUOUS
10
6.92913
20
-3.89961
11
3.70079
21
-3.89961
0
LINE
8
BLACK
6
CONTINUOUS
10
3.70079
20
-3.89961
11
3.70043
21
-3.89946
0
LINE
8
BLACK
6
CONTINUOUS
10
3.63901
20
-5.68859
11
3.64291
21
-5.67917
0
LINE
8
BLACK
6
CONTINUOUS
10
3.64291
20
-5.67917
11
3.64823
21
-5.67048
0
LINE
8
BLACK
6
CONTINUOUS
10
3.64823
20
-5.67048
11
3.65485
21
-5.66273
0
LINE
8
BLACK
6
CONTINUOUS
10
3.65485
20
-5.66273
11
3.6626
21
-5.65611
0
LINE
8
BLACK
6
CONTINUOUS
10
3.6626
20
-5.65611
11
3.6713
21
-5.65078
0
LINE
8
BLACK
6
CONTINUOUS
10
3.6713
20
-5.65078
11
3.68071
21
-5.64688
0
LINE
8
BLACK
6
CONTINUOUS
10
3.68071
20
-5.64688
11
3.69063
21
-5.6445
0
LINE
8
BLACK
6
CONTINUOUS
10
3.69063
20
-5.6445
11
3.70079
21
-5.6437
0
LINE
8
BLACK
6
CONTINUOUS
10
3.70079
20
-5.6437
11
3.71095
21
-5.6445
0
LINE
8
BLACK
6
CONTINUOUS
10
3.71095
20
-5.6445
11
3.72086
21
-5.64688
0
LINE
8
BLACK
6
CONTINUOUS
10
3.72086
20
-5.64688
11
3.73028
21
-5.65078
0
LINE
8
BLACK
6
CONTINUOUS
10
3.73028
20
-5.65078
11
3.73897
21
-5.65611
0
LINE
8
BLACK
6
CONTINUOUS
10
3.73897
20
-5.65611
11
3.74672
21
-5.66273
0
LINE
8
BLACK
6
CONTINUOUS
10
3.74672
20
-5.66273
11
3.75334
21
-5.67048
0
LINE
8
BLACK
6
CONTINUOUS
10
3.75334
20
-5.67048
11
3.75867
21
-5.67917
0
LINE
8
BLACK
6
CONTINUOUS
10
3.75867
20
-5.67917
11
3.76257
21
-5.68859
0
LINE
8
BLACK
6
CONTINUOUS
10
3.76257
20
-5.68859
11
3.76495
21
-5.6985
0
LINE
8
BLACK
6
CONTINUOUS
10
3.76495
20
-5.6985
11
3.76575
21
-5.70866
0
LINE
8
BLACK
6
CONTINUOUS
10
3.76575
20
-5.70866
11
3.76495
21
-5.71882
0
LINE
8
BLACK
6
CONTINUOUS
10
3.76495
20
-5.71882
11
3.76257
21
-5.72874
0
LINE
8
BLACK
6
CONTINUOUS
10
3.76257
20
-5.72874
11
3.75867
21
-5.73815
0
LINE
8
BLACK
6
CONTINUOUS
10
3.75867
20
-5.73815
11
3.75334
21
-5.74684
0
LINE
8
BLACK
6
CONTINUOUS
10
3.75334
20
-5.74684
11
3.74672
21
-5.7546
0
LINE
8
BLACK
6
CONTINUOUS
10
3.74672
20
-5.7546
11
3.73897
21
-5.76122
0
LINE
8
BLACK
6
CONTINUOUS
10
3.73897
20
-5.76122
11
3.73028
21
-5.76654
0
LINE
8
BLACK
6
CONTINUOUS
10
3.73028
20
-5.76654
11
3.72086
21
-5.77044
0
LINE
8
BLACK
6
CONTINUOUS
10
3.72086
20
-5.77044
11
3.71095
21
-5.77282
0
LINE
8
BLACK
6
CONTINUOUS
10
3.71095
20
-5.77282
11
3.70079
21
-5.77362
0
LINE
8
BLACK
6
CONTINUOUS
10
3.70079
20
-5.77362
11
3.69063
21
-5.77282
0
LINE
8
BLACK
6
CONTINUOUS
10
3.69063
20
-5.77282
11
3.68071
21
-5.77044
0
LINE
8
BLACK
6
CONTINUOUS
10
3.68071
20
-5.77044
11
3.6713
21
-5.76654
0
LINE
8
BLACK
6
CONTINUOUS
10
3.6713
20
-5.76654
11
3.6626
21
-5.76122
0
LINE
8
BLACK
6
CONTINUOUS
10
3.6626
20
-5.76122
11
3.65485
21
-5.7546
0
LINE
8
BLACK
6
CONTINUOUS
10
3.65485
20
-5.7546
11
3.64823
21
-5.74684
0
LINE
8
BLACK
6
CONTINUOUS
10
3.64823
20
-5.74684
11
3.64291
21
-5.73815
0
LINE
8
BLACK
6
CONTINUOUS
10
3.64291
20
-5.73815
11
3.63901
21
-5.72874
0
LINE
8
BLACK
6
CONTINUOUS
10
3.63901
20
-5.72874
11
3.63663
21
-5.71882
0
LINE
8
BLACK
6
CONTINUOUS
10
3.63663
20
-5.71882
11
3.63583
21
-5.70866
0
LINE
8
BLACK
6
CONTINUOUS
10
3.63583
20
-5.70866
11
3.63663
21
-5.6985
0
LINE
8
BLACK
6
CONTINUOUS
10
3.63663
20
-5.6985
11
3.63901
21
-5.68859
0
LINE
8
BLACK
6
CONTINUOUS
10
3.64257
20
-5.72758
11
3.64625
21
-5.73645
0
LINE
8
BLACK
6
CONTINUOUS
10
3.64625
20
-5.73645
11
3.65127
21
-5.74464
0
LINE
8
BLACK
6
CONTINUOUS
10
3.65127
20
-5.74464
11
3.6575
21
-5.75195
0
LINE
8
BLACK
6
CONTINUOUS
10
3.6575
20
-5.75195
11
3.66481
21
-5.75818
0
LINE
8
BLACK
6
CONTINUOUS
10
3.66481
20
-5.75818
11
3.673
21
-5.7632
0
LINE
8
BLACK
6
CONTINUOUS
10
3.673
20
-5.7632
11
3.68187
21
-5.76688
0
LINE
8
BLACK
6
CONTINUOUS
10
3.68187
20
-5.76688
11
3.69121
21
-5.76912
0
LINE
8
BLACK
6
CONTINUOUS
10
3.69121
20
-5.76912
11
3.70079
21
-5.76987
0
LINE
8
BLACK
6
CONTINUOUS
10
3.70079
20
-5.76987
11
3.71036
21
-5.76912
0
LINE
8
BLACK
6
CONTINUOUS
10
3.71036
20
-5.76912
11
3.7197
21
-5.76688
0
LINE
8
BLACK
6
CONTINUOUS
10
3.7197
20
-5.76688
11
3.72858
21
-5.7632
0
LINE
8
BLACK
6
CONTINUOUS
10
3.72858
20
-5.7632
11
3.73677
21
-5.75818
0
LINE
8
BLACK
6
CONTINUOUS
10
3.73677
20
-5.75818
11
3.74407
21
-5.75195
0
LINE
8
BLACK
6
CONTINUOUS
10
3.74407
20
-5.75195
11
3.75031
21
-5.74464
0
LINE
8
BLACK
6
CONTINUOUS
10
3.75031
20
-5.74464
11
3.75533
21
-5.73645
0
LINE
8
BLACK
6
CONTINUOUS
10
3.75533
20
-5.73645
11
3.759
21
-5.72758
0
LINE
8
BLACK
6
CONTINUOUS
10
3.759
20
-5.72758
11
3.76125
21
-5.71824
0
LINE
8
BLACK
6
CONTINUOUS
10
3.76125
20
-5.71824
11
3.762
21
-5.70866
0
LINE
8
BLACK
6
CONTINUOUS
10
3.762
20
-5.70866
11
3.76125
21
-5.69909
0
LINE
8
BLACK
6
CONTINUOUS
10
3.76125
20
-5.69909
11
3.759
21
-5.68975
0
LINE
8
BLACK
6
CONTINUOUS
10
3.759
20
-5.68975
11
3.75533
21
-5.68087
0
LINE
8
BLACK
6
CONTINUOUS
10
3.75533
20
-5.68087
11
3.75031
21
-5.67268
0
LINE
8
BLACK
6
CONTINUOUS
10
3.75031
20
-5.67268
11
3.74407
21
-5.66538
0
LINE
8
BLACK
6
CONTINUOUS
10
3.74407
20
-5.66538
11
3.73677
21
-5.65914
0
LINE
8
BLACK
6
CONTINUOUS
10
3.73677
20
-5.65914
11
3.72858
21
-5.65412
0
LINE
8
BLACK
6
CONTINUOUS
10
3.72858
20
-5.65412
11
3.7197
21
-5.65045
0
LINE
8
BLACK
6
CONTINUOUS
10
3.7197
20
-5.65045
11
3.71036
21
-5.6482
0
LINE
8
BLACK
6
CONTINUOUS
10
3.71036
20
-5.6482
11
3.70079
21
-5.64745
0
LINE
8
BLACK
6
CONTINUOUS
10
3.70079
20
-5.64745
11
3.69121
21
-5.6482
0
LINE
8
BLACK
6
CONTINUOUS
10
3.69121
20
-5.6482
11
3.68187
21
-5.65045
0
LINE
8
BLACK
6
CONTINUOUS
10
3.68187
20
-5.65045
11
3.673
21
-5.65412
0
LINE
8
BLACK
6
CONTINUOUS
10
3.673
20
-5.65412
11
3.66481
21
-5.65914
0
LINE
8
BLACK
6
CONTINUOUS
10
3.66481
20
-5.65914
11
3.6575
21
-5.66538
0
LINE
8
BLACK
6
CONTINUOUS
10
3.6575
20
-5.66538
11
3.65127
21
-5.67268
0
LINE
8
BLACK
6
CONTINUOUS
10
3.65127
20
-5.67268
11
3.64625
21
-5.68087
0
LINE
8
BLACK
6
CONTINUOUS
10
3.64625
20
-5.68087
11
3.64257
21
-5.68975
0
LINE
8
BLACK
6
CONTINUOUS
10
3.64257
20
-5.68975
11
3.64033
21
-5.69909
0
LINE
8
BLACK
6
CONTINUOUS
10
3.64033
20
-5.69909
11
3.63958
21
-5.70866
0
LINE
8
BLACK
6
CONTINUOUS
10
3.63958
20
-5.70866
11
3.64033
21
-5.71824
0
LINE
8
BLACK
6
CONTINUOUS
10
3.64033
20
-5.71824
11
3.64257
21
-5.72758
0
LINE
8
BLACK
6
CONTINUOUS
10
6.86735
20
-5.68859
11
6.87125
21
-5.67917
0
LINE
8
BLACK
6
CONTINUOUS
10
6.87125
20
-5.67917
11
6.87658
21
-5.67048
0
LINE
8
BLACK
6
CONTINUOUS
10
6.87658
20
-5.67048
11
6.8832
21
-5.66273
0
LINE
8
BLACK
6
CONTINUOUS
10
6.8832
20
-5.66273
11
6.89095
21
-5.65611
0
LINE
8
BLACK
6
CONTINUOUS
10
6.89095
20
-5.65611
11
6.89964
21
-5.65078
0
LINE
8
BLACK
6
CONTINUOUS
10
6.89964
20
-5.65078
11
6.90906
21
-5.64688
0
LINE
8
BLACK
6
CONTINUOUS
10
6.90906
20
-5.64688
11
6.91897
21
-5.6445
0
LINE
8
BLACK
6
CONTINUOUS
10
6.91897
20
-5.6445
11
6.92913
21
-5.6437
0
LINE
8
BLACK
6
CONTINUOUS
10
6.92913
20
-5.6437
11
6.9393
21
-5.6445
0
LINE
8
BLACK
6
CONTINUOUS
10
6.9393
20
-5.6445
11
6.94921
21
-5.64688
0
LINE
8
BLACK
6
CONTINUOUS
10
6.94921
20
-5.64688
11
6.95863
21
-5.65078
0
LINE
8
BLACK
6
CONTINUOUS
10
6.95863
20
-5.65078
11
6.96732
21
-5.65611
0
LINE
8
BLACK
6
CONTINUOUS
10
6.96732
20
-5.65611
11
6.97507
21
-5.66273
0
LINE
8
BLACK
6
CONTINUOUS
10
6.97507
20
-5.66273
11
6.98169
21
-5.67048
0
LINE
8
BLACK
6
CONTINUOUS
10
6.98169
20
-5.67048
11
6.98701
21
-5.67917
0
LINE
8
BLACK
6
CONTINUOUS
10
6.98701
20
-5.67917
11
6.99092
21
-5.68859
0
LINE
8
BLACK
6
CONTINUOUS
10
6.99092
20
-5.68859
11
6.99329
21
-5.6985
0
LINE
8
BLACK
6
CONTINUOUS
10
6.99329
20
-5.6985
11
6.99409
21
-5.70866
0
LINE
8
BLACK
6
CONTINUOUS
10
6.99409
20
-5.70866
11
6.99329
21
-5.71882
0
LINE
8
BLACK
6
CONTINUOUS
10
6.99329
20
-5.71882
11
6.99092
21
-5.72874
0
LINE
8
BLACK
6
CONTINUOUS
10
6.99092
20
-5.72874
11
6.98701
21
-5.73815
0
LINE
8
BLACK
6
CONTINUOUS
10
6.98701
20
-5.73815
11
6.98169
21
-5.74684
0
LINE
8
BLACK
6
CONTINUOUS
10
6.98169
20
-5.74684
11
6.97507
21
-5.7546
0
LINE
8
BLACK
6
CONTINUOUS
10
6.97507
20
-5.7546
11
6.96732
21
-5.76122
0
LINE
8
BLACK
6
CONTINUOUS
10
6.96732
20
-5.76122
11
6.95863
21
-5.76654
0
LINE
8
BLACK
6
CONTINUOUS
10
6.95863
20
-5.76654
11
6.94921
21
-5.77044
0
LINE
8
BLACK
6
CONTINUOUS
10
6.94921
20
-5.77044
11
6.9393
21
-5.77282
0
LINE
8
BLACK
6
CONTINUOUS
10
6.9393
20
-5.77282
11
6.92913
21
-5.77362
0
LINE
8
BLACK
6
CONTINUOUS
10
6.92913
20
-5.77362
11
6.91897
21
-5.77282
0
LINE
8
BLACK
6
CONTINUOUS
10
6.91897
20
-5.77282
11
6.90906
21
-5.77044
0
LINE
8
BLACK
6
CONTINUOUS
10
6.90906
20
-5.77044
11
6.89964
21
-5.76654
0
LINE
8
BLACK
6
CONTINUOUS
10
6.89964
20
-5.76654
11
6.89095
21
-5.76122
0
LINE
8
BLACK
6
CONTINUOUS
10
6.89095
20
-5.76122
11
6.8832
21
-5.7546
0
LINE
8
BLACK
6
CONTINUOUS
10
6.8832
20
-5.7546
11
6.87658
21
-5.74684
0
LINE
8
BLACK
6
CONTINUOUS
10
6.87658
20
-5.74684
11
6.87125
21
-5.73815
0
LINE
8
BLACK
6
CONTINUOUS
10
6.87125
20
-5.73815
11
6.86735
21
-5.72874
0
LINE
8
BLACK
6
CONTINUOUS
10
6.86735
20
-5.72874
11
6.86497
21
-5.71882
0
LINE
8
BLACK
6
CONTINUOUS
10
6.86497
20
-5.71882
11
6.86417
21
-5.70866
0
LINE
8
BLACK
6
CONTINUOUS
10
6.86417
20
-5.70866
11
6.86497
21
-5.6985
0
LINE
8
BLACK
6
CONTINUOUS
10
6.86497
20
-5.6985
11
6.86735
21
-5.68859
0
LINE
8
BLACK
6
CONTINUOUS
10
6.87092
20
-5.72758
11
6.87459
21
-5.73645
0
LINE
8
BLACK
6
CONTINUOUS
10
6.87459
20
-5.73645
11
6.87961
21
-5.74464
0
LINE
8
BLACK
6
CONTINUOUS
10
6.87961
20
-5.74464
11
6.88585
21
-5.75195
0
LINE
8
BLACK
6
CONTINUOUS
10
6.88585
20
-5.75195
11
6.89315
21
-5.75818
0
LINE
8
BLACK
6
CONTINUOUS
10
6.89315
20
-5.75818
11
6.90134
21
-5.7632
0
LINE
8
BLACK
6
CONTINUOUS
10
6.90134
20
-5.7632
11
6.91022
21
-5.76688
0
LINE
8
BLACK
6
CONTINUOUS
10
6.91022
20
-5.76688
11
6.91956
21
-5.76912
0
LINE
8
BLACK
6
CONTINUOUS
10
6.91956
20
-5.76912
11
6.92913
21
-5.76987
0
LINE
8
BLACK
6
CONTINUOUS
10
6.92913
20
-5.76987
11
6.93871
21
-5.76912
0
LINE
8
BLACK
6
CONTINUOUS
10
6.93871
20
-5.76912
11
6.94805
21
-5.76688
0
LINE
8
BLACK
6
CONTINUOUS
10
6.94805
20
-5.76688
11
6.95692
21
-5.7632
0
LINE
8
BLACK
6
CONTINUOUS
10
6.95692
20
-5.7632
11
6.96511
21
-5.75818
0
LINE
8
BLACK
6
CONTINUOUS
10
6.96511
20
-5.75818
11
6.97242
21
-5.75195
0
LINE
8
BLACK
6
CONTINUOUS
10
6.97242
20
-5.75195
11
6.97866
21
-5.74464
0
LINE
8
BLACK
6
CONTINUOUS
10
6.97866
20
-5.74464
11
6.98367
21
-5.73645
0
LINE
8
BLACK
6
CONTINUOUS
10
6.98367
20
-5.73645
11
6.98735
21
-5.72758
0
LINE
8
BLACK
6
CONTINUOUS
10
6.98735
20
-5.72758
11
6.98959
21
-5.71824
0
LINE
8
BLACK
6
CONTINUOUS
10
6.98959
20
-5.71824
11
6.99035
21
-5.70866
0
LINE
8
BLACK
6
CONTINUOUS
10
6.99035
20
-5.70866
11
6.98959
21
-5.69909
0
LINE
8
BLACK
6
CONTINUOUS
10
6.98959
20
-5.69909
11
6.98735
21
-5.68975
0
LINE
8
BLACK
6
CONTINUOUS
10
6.98735
20
-5.68975
11
6.98367
21
-5.68087
0
LINE
8
BLACK
6
CONTINUOUS
10
6.98367
20
-5.68087
11
6.97866
21
-5.67268
0
LINE
8
BLACK
6
CONTINUOUS
10
6.97866
20
-5.67268
11
6.97242
21
-5.66538
0
LINE
8
BLACK
6
CONTINUOUS
10
6.97242
20
-5.66538
11
6.96511
21
-5.65914
0
LINE
8
BLACK
6
CONTINUOUS
10
6.96511
20
-5.65914
11
6.95692
21
-5.65412
0
LINE
8
BLACK
6
CONTINUOUS
10
6.95692
20
-5.65412
11
6.94805
21
-5.65045
0
LINE
8
BLACK
6
CONTINUOUS
10
6.94805
20
-5.65045
11
6.93871
21
-5.6482
0
LINE
8
BLACK
6
CONTINUOUS
10
6.93871
20
-5.6482
11
6.92913
21
-5.64745
0
LINE
8
BLACK
6
CONTINUOUS
10
6.92913
20
-5.64745
11
6.91956
21
-5.6482
0
LINE
8
BLACK
6
CONTINUOUS
10
6.91956
20
-5.6482
11
6.91022
21
-5.65045
0
LINE
8
BLACK
6
CONTINUOUS
10
6.91022
20
-5.65045
11
6.90134
21
-5.65412
0
LINE
8
BLACK
6
CONTINUOUS
10
6.90134
20
-5.65412
11
6.89315
21
-5.65914
0
LINE
8
BLACK
6
CONTINUOUS
10
6.89315
20
-5.65914
11
6.88585
21
-5.66538
0
LINE
8
BLACK
6
CONTINUOUS
10
6.88585
20
-5.66538
11
6.87961
21
-5.67268
0
LINE
8
BLACK
6
CONTINUOUS
10
6.87961
20
-5.67268
11
6.87459
21
-5.68087
0
LINE
8
BLACK
6
CONTINUOUS
10
6.87459
20
-5.68087
11
6.87092
21
-5.68975
0
LINE
8
BLACK
6
CONTINUOUS
10
6.87092
20
-5.68975
11
6.86868
21
-5.69909
0
LINE
8
BLACK
6
CONTINUOUS
10
6.86868
20
-5.69909
11
6.86792
21
-5.70866
0
LINE
8
BLACK
6
CONTINUOUS
10
6.86792
20
-5.70866
11
6.86868
21
-5.71824
0
LINE
8
BLACK
6
CONTINUOUS
10
6.86868
20
-5.71824
11
6.87092
21
-5.72758
0
LINE
8
BLACK
6
CONTINUOUS
10
6.86735
20
-4.03504
11
6.87125
21
-4.02563
0
LINE
8
BLACK
6
CONTINUOUS
10
6.87125
20
-4.02563
11
6.87658
21
-4.01694
0
LINE
8
BLACK
6
CONTINUOUS
10
6.87658
20
-4.01694
11
6.8832
21
-4.00918
0
LINE
8
BLACK
6
CONTINUOUS
10
6.8832
20
-4.00918
11
6.89095
21
-4.00256
0
LINE
8
BLACK
6
CONTINUOUS
10
6.89095
20
-4.00256
11
6.89964
21
-3.99724
0
LINE
8
BLACK
6
CONTINUOUS
10
6.89964
20
-3.99724
11
6.90906
21
-3.99334
0
LINE
8
BLACK
6
CONTINUOUS
10
6.90906
20
-3.99334
11
6.91897
21
-3.99096
0
LINE
8
BLACK
6
CONTINUOUS
10
6.91897
20
-3.99096
11
6.92913
21
-3.99016
0
LINE
8
BLACK
6
CONTINUOUS
10
6.92913
20
-3.99016
11
6.9393
21
-3.99096
0
LINE
8
BLACK
6
CONTINUOUS
10
6.9393
20
-3.99096
11
6.94921
21
-3.99334
0
LINE
8
BLACK
6
CONTINUOUS
10
6.94921
20
-3.99334
11
6.95863
21
-3.99724
0
LINE
8
BLACK
6
CONTINUOUS
10
6.95863
20
-3.99724
11
6.96732
21
-4.00256
0
LINE
8
BLACK
6
CONTINUOUS
10
6.96732
20
-4.00256
11
6.97507
21
-4.00918
0
LINE
8
BLACK
6
CONTINUOUS
10
6.97507
20
-4.00918
11
6.98169
21
-4.01694
0
LINE
8
BLACK
6
CONTINUOUS
10
6.98169
20
-4.01694
11
6.98701
21
-4.02563
0
LINE
8
BLACK
6
CONTINUOUS
10
6.98701
20
-4.02563
11
6.99092
21
-4.03504
0
LINE
8
BLACK
6
CONTINUOUS
10
6.99092
20
-4.03504
11
6.99329
21
-4.04496
0
LINE
8
BLACK
6
CONTINUOUS
10
6.99329
20
-4.04496
11
6.99409
21
-4.05512
0
LINE
8
BLACK
6
CONTINUOUS
10
6.99409
20
-4.05512
11
6.99329
21
-4.06528
0
LINE
8
BLACK
6
CONTINUOUS
10
6.99329
20
-4.06528
11
6.99092
21
-4.07519
0
LINE
8
BLACK
6
CONTINUOUS
10
6.99092
20
-4.07519
11
6.98701
21
-4.08461
0
LINE
8
BLACK
6
CONTINUOUS
10
6.98701
20
-4.08461
11
6.98169
21
-4.0933
0
LINE
8
BLACK
6
CONTINUOUS
10
6.98169
20
-4.0933
11
6.97507
21
-4.10105
0
LINE
8
BLACK
6
CONTINUOUS
10
6.97507
20
-4.10105
11
6.96732
21
-4.10767
0
LINE
8
BLACK
6
CONTINUOUS
10
6.96732
20
-4.10767
11
6.95863
21
-4.113
0
LINE
8
BLACK
6
CONTINUOUS
10
6.95863
20
-4.113
11
6.94921
21
-4.1169
0
LINE
8
BLACK
6
CONTINUOUS
10
6.94921
20
-4.1169
11
6.9393
21
-4.11928
0
LINE
8
BLACK
6
CONTINUOUS
10
6.9393
20
-4.11928
11
6.92913
21
-4.12008
0
LINE
8
BLACK
6
CONTINUOUS
10
6.92913
20
-4.12008
11
6.91897
21
-4.11928
0
LINE
8
BLACK
6
CONTINUOUS
10
6.91897
20
-4.11928
11
6.90906
21
-4.1169
0
LINE
8
BLACK
6
CONTINUOUS
10
6.90906
20
-4.1169
11
6.89964
21
-4.113
0
LINE
8
BLACK
6
CONTINUOUS
10
6.89964
20
-4.113
11
6.89095
21
-4.10767
0
LINE
8
BLACK
6
CONTINUOUS
10
6.89095
20
-4.10767
11
6.8832
21
-4.10105
0
LINE
8
BLACK
6
CONTINUOUS
10
6.8832
20
-4.10105
11
6.87658
21
-4.0933
0
LINE
8
BLACK
6
CONTINUOUS
10
6.87658
20
-4.0933
11
6.87125
21
-4.08461
0
LINE
8
BLACK
6
CONTINUOUS
10
6.87125
20
-4.08461
11
6.86735
21
-4.07519
0
LINE
8
BLACK
6
CONTINUOUS
10
6.86735
20
-4.07519
11
6.86497
21
-4.06528
0
LINE
8
BLACK
6
CONTINUOUS
10
6.86497
20
-4.06528
11
6.86417
21
-4.05512
0
LINE
8
BLACK
6
CONTINUOUS
10
6.86417
20
-4.05512
11
6.86497
21
-4.04496
0
LINE
8
BLACK
6
CONTINUOUS
10
6.86497
20
-4.04496
11
6.86735
21
-4.03504
0
LINE
8
BLACK
6
CONTINUOUS
10
6.87092
20
-4.07403
11
6.87459
21
-4.08291
0
LINE
8
BLACK
6
CONTINUOUS
10
6.87459
20
-4.08291
11
6.87961
21
-4.0911
0
LINE
8
BLACK
6
CONTINUOUS
10
6.87961
20
-4.0911
11
6.88585
21
-4.0984
0
LINE
8
BLACK
6
CONTINUOUS
10
6.88585
20
-4.0984
11
6.89315
21
-4.10464
0
LINE
8
BLACK
6
CONTINUOUS
10
6.89315
20
-4.10464
11
6.90134
21
-4.10966
0
LINE
8
BLACK
6
CONTINUOUS
10
6.90134
20
-4.10966
11
6.91022
21
-4.11333
0
LINE
8
BLACK
6
CONTINUOUS
10
6.91022
20
-4.11333
11
6.91956
21
-4.11558
0
LINE
8
BLACK
6
CONTINUOUS
10
6.91956
20
-4.11558
11
6.92913
21
-4.11633
0
LINE
8
BLACK
6
CONTINUOUS
10
6.92913
20
-4.11633
11
6.93871
21
-4.11558
0
LINE
8
BLACK
6
CONTINUOUS
10
6.93871
20
-4.11558
11
6.94805
21
-4.11333
0
LINE
8
BLACK
6
CONTINUOUS
10
6.94805
20
-4.11333
11
6.95692
21
-4.10966
0
LINE
8
BLACK
6
CONTINUOUS
10
6.95692
20
-4.10966
11
6.96511
21
-4.10464
0
LINE
8
BLACK
6
CONTINUOUS
10
6.96511
20
-4.10464
11
6.97242
21
-4.0984
0
LINE
8
BLACK
6
CONTINUOUS
10
6.97242
20
-4.0984
11
6.97866
21
-4.0911
0
LINE
8
BLACK
6
CONTINUOUS
10
6.97866
20
-4.0911
11
6.98367
21
-4.08291
0
LINE
8
BLACK
6
CONTINUOUS
10
6.98367
20
-4.08291
11
6.98735
21
-4.07403
0
LINE
8
BLACK
6
CONTINUOUS
10
6.98735
20
-4.07403
11
6.98959
21
-4.06469
0
LINE
8
BLACK
6
CONTINUOUS
10
6.98959
20
-4.06469
11
6.99035
21
-4.05512
0
LINE
8
BLACK
6
CONTINUOUS
10
6.99035
20
-4.05512
11
6.98959
21
-4.04554
0
LINE
8
BLACK
6
CONTINUOUS
10
6.98959
20
-4.04554
11
6.98735
21
-4.0362
0
LINE
8
BLACK
6
CONTINUOUS
10
6.98735
20
-4.0362
11
6.98367
21
-4.02733
0
LINE
8
BLACK
6
CONTINUOUS
10
6.98367
20
-4.02733
11
6.97866
21
-4.01914
0
LINE
8
BLACK
6
CONTINUOUS
10
6.97866
20
-4.01914
11
6.97242
21
-4.01183
0
LINE
8
BLACK
6
CONTINUOUS
10
6.97242
20
-4.01183
11
6.96511
21
-4.0056
0
LINE
8
BLACK
6
CONTINUOUS
10
6.96511
20
-4.0056
11
6.95692
21
-4.00058
0
LINE
8
BLACK
6
CONTINUOUS
10
6.95692
20
-4.00058
11
6.94805
21
-3.9969
0
LINE
8
BLACK
6
CONTINUOUS
10
6.94805
20
-3.9969
11
6.93871
21
-3.99466
0
LINE
8
BLACK
6
CONTINUOUS
10
6.93871
20
-3.99466
11
6.92913
21
-3.99391
0
LINE
8
BLACK
6
CONTINUOUS
10
6.92913
20
-3.99391
11
6.91956
21
-3.99466
0
LINE
8
BLACK
6
CONTINUOUS
10
6.91956
20
-3.99466
11
6.91022
21
-3.9969
0
LINE
8
BLACK
6
CONTINUOUS
10
6.91022
20
-3.9969
11
6.90134
21
-4.00058
0
LINE
8
BLACK
6
CONTINUOUS
10
6.90134
20
-4.00058
11
6.89315
21
-4.0056
0
LINE
8
BLACK
6
CONTINUOUS
10
6.89315
20
-4.0056
11
6.88585
21
-4.01183
0
LINE
8
BLACK
6
CONTINUOUS
10
6.88585
20
-4.01183
11
6.87961
21
-4.01914
0
LINE
8
BLACK
6
CONTINUOUS
10
6.87961
20
-4.01914
11
6.87459
21
-4.02733
0
LINE
8
BLACK
6
CONTINUOUS
10
6.87459
20
-4.02733
11
6.87092
21
-4.0362
0
LINE
8
BLACK
6
CONTINUOUS
10
6.87092
20
-4.0362
11
6.86868
21
-4.04554
0
LINE
8
BLACK
6
CONTINUOUS
10
6.86868
20
-4.04554
11
6.86792
21
-4.05512
0
LINE
8
BLACK
6
CONTINUOUS
10
6.86792
20
-4.05512
11
6.86868
21
-4.06469
0
LINE
8
BLACK
6
CONTINUOUS
10
6.86868
20
-4.06469
11
6.87092
21
-4.07403
0
LINE
8
BLACK
6
CONTINUOUS
10
3.63901
20
-4.03504
11
3.64291
21
-4.02563
0
LINE
8
BLACK
6
CONTINUOUS
10
3.64291
20
-4.02563
11
3.64823
21
-4.01694
0
LINE
8
BLACK
6
CONTINUOUS
10
3.64823
20
-4.01694
11
3.65485
21
-4.00918
0
LINE
8
BLACK
6
CONTINUOUS
10
3.65485
20
-4.00918
11
3.6626
21
-4.00256
0
LINE
8
BLACK
6
CONTINUOUS
10
3.6626
20
-4.00256
11
3.6713
21
-3.99724
0
LINE
8
BLACK
6
CONTINUOUS
10
3.6713
20
-3.99724
11
3.68071
21
-3.99334
0
LINE
8
BLACK
6
CONTINUOUS
10
3.68071
20
-3.99334
11
3.69063
21
-3.99096
0
LINE
8
BLACK
6
CONTINUOUS
10
3.69063
20
-3.99096
11
3.70079
21
-3.99016
0
LINE
8
BLACK
6
CONTINUOUS
10
3.70079
20
-3.99016
11
3.71095
21
-3.99096
0
LINE
8
BLACK
6
CONTINUOUS
10
3.71095
20
-3.99096
11
3.72086
21
-3.99334
0
LINE
8
BLACK
6
CONTINUOUS
10
3.72086
20
-3.99334
11
3.73028
21
-3.99724
0
LINE
8
BLACK
6
CONTINUOUS
10
3.73028
20
-3.99724
11
3.73897
21
-4.00256
0
LINE
8
BLACK
6
CONTINUOUS
10
3.73897
20
-4.00256
11
3.74672
21
-4.00918
0
LINE
8
BLACK
6
CONTINUOUS
10
3.74672
20
-4.00918
11
3.75334
21
-4.01694
0
LINE
8
BLACK
6
CONTINUOUS
10
3.75334
20
-4.01694
11
3.75867
21
-4.02563
0
LINE
8
BLACK
6
CONTINUOUS
10
3.75867
20
-4.02563
11
3.76257
21
-4.03504
0
LINE
8
BLACK
6
CONTINUOUS
10
3.76257
20
-4.03504
11
3.76495
21
-4.04496
0
LINE
8
BLACK
6
CONTINUOUS
10
3.76495
20
-4.04496
11
3.76575
21
-4.05512
0
LINE
8
BLACK
6
CONTINUOUS
10
3.76575
20
-4.05512
11
3.76495
21
-4.06528
0
LINE
8
BLACK
6
CONTINUOUS
10
3.76495
20
-4.06528
11
3.76257
21
-4.07519
0
LINE
8
BLACK
6
CONTINUOUS
10
3.76257
20
-4.07519
11
3.75867
21
-4.08461
0
LINE
8
BLACK
6
CONTINUOUS
10
3.75867
20
-4.08461
11
3.75334
21
-4.0933
0
LINE
8
BLACK
6
CONTINUOUS
10
3.75334
20
-4.0933
11
3.74672
21
-4.10105
0
LINE
8
BLACK
6
CONTINUOUS
10
3.74672
20
-4.10105
11
3.73897
21
-4.10767
0
LINE
8
BLACK
6
CONTINUOUS
10
3.73897
20
-4.10767
11
3.73028
21
-4.113
0
LINE
8
BLACK
6
CONTINUOUS
10
3.73028
20
-4.113
11
3.72086
21
-4.1169
0
LINE
8
BLACK
6
CONTINUOUS
10
3.72086
20
-4.1169
11
3.71095
21
-4.11928
0
LINE
8
BLACK
6
CONTINUOUS
10
3.71095
20
-4.11928
11
3.70079
21
-4.12008
0
LINE
8
BLACK
6
CONTINUOUS
10
3.70079
20
-4.12008
11
3.69063
21
-4.11928
0
LINE
8
BLACK
6
CONTINUOUS
10
3.69063
20
-4.11928
11
3.68071
21
-4.1169
0
LINE
8
BLACK
6
CONTINUOUS
10
3.68071
20
-4.1169
11
3.6713
21
-4.113
0
LINE
8
BLACK
6
CONTINUOUS
10
3.6713
20
-4.113
11
3.6626
21
-4.10767
0
LINE
8
BLACK
6
CONTINUOUS
10
3.6626
20
-4.10767
11
3.65485
21
-4.10105
0
LINE
8
BLACK
6
CONTINUOUS
10
3.65485
20
-4.10105
11
3.64823
21
-4.0933
0
LINE
8
BLACK
6
CONTINUOUS
10
3.64823
20
-4.0933
11
3.64291
21
-4.08461
0
LINE
8
BLACK
6
CONTINUOUS
10
3.64291
20
-4.08461
11
3.63901
21
-4.07519
0
LINE
8
BLACK
6
CONTINUOUS
10
3.63901
20
-4.07519
11
3.63663
21
-4.06528
0
LINE
8
BLACK
6
CONTINUOUS
10
3.63663
20
-4.06528
11
3.63583
21
-4.05512
0
LINE
8
BLACK
6
CONTINUOUS
10
3.63583
20
-4.05512
11
3.63663
21
-4.04496
0
LINE
8
BLACK
6
CONTINUOUS
10
3.63663
20
-4.04496
11
3.63901
21
-4.03504
0
LINE
8
BLACK
6
CONTINUOUS
10
3.64257
20
-4.07403
11
3.64625
21
-4.08291
0
LINE
8
BLACK
6
CONTINUOUS
10
3.64625
20
-4.08291
11
3.65127
21
-4.0911
0
LINE
8
BLACK
6
CONTINUOUS
10
3.65127
20
-4.0911
11
3.6575
21
-4.0984
0
LINE
8
BLACK
6
CONTINUOUS
10
3.6575
20
-4.0984
11
3.66481
21
-4.10464
0
LINE
8
BLACK
6
CONTINUOUS
10
3.66481
20
-4.10464
11
3.673
21
-4.10966
0
LINE
8
BLACK
6
CONTINUOUS
10
3.673
20
-4.10966
11
3.68187
21
-4.11333
0
LINE
8
BLACK
6
CONTINUOUS
10
3.68187
20
-4.11333
11
3.69121
21
-4.11558
0
LINE
8
BLACK
6
CONTINUOUS
10
3.69121
20
-4.11558
11
3.70079
21
-4.11633
0
LINE
8
BLACK
6
CONTINUOUS
10
3.70079
20
-4.11633
11
3.71036
21
-4.11558
0
LINE
8
BLACK
6
CONTINUOUS
10
3.71036
20
-4.11558
11
3.7197
21
-4.11333
0
LINE
8
BLACK
6
CONTINUOUS
10
3.7197
20
-4.11333
11
3.72858
21
-4.10966
0
LINE
8
BLACK
6
CONTINUOUS
10
3.72858
20
-4.10966
11
3.73677
21
-4.10464
0
LINE
8
BLACK
6
CONTINUOUS
10
3.73677
20
-4.10464
11
3.74407
21
-4.0984
0
LINE
8
BLACK
6
CONTINUOUS
10
3.74407
20
-4.0984
11
3.75031
21
-4.0911
0
LINE
8
BLACK
6
CONTINUOUS
10
3.75031
20
-4.0911
11
3.75533
21
-4.08291
0
LINE
8
BLACK
6
CONTINUOUS
10
3.75533
20
-4.08291
11
3.759
21
-4.07403
0
LINE
8
BLACK
6
CONTINUOUS
10
3.759
20
-4.07403
11
3.76125
21
-4.06469
0
LINE
8
BLACK
6
CONTINUOUS
10
3.76125
20
-4.06469
11
3.762
21
-4.05512
0
LINE
8
BLACK
6
CONTINUOUS
10
3.762
20
-4.05512
11
3.76125
21
-4.04554
0
LINE
8
BLACK
6
CONTINUOUS
10
3.76125
20
-4.04554
11
3.759
21
-4.0362
0
LINE
8
BLACK
6
CONTINUOUS
10
3.759
20
-4.0362
11
3.75533
21
-4.02733
0
LINE
8
BLACK
6
CONTINUOUS
10
3.75533
20
-4.02733
11
3.75031
21
-4.01914
0
LINE
8
BLACK
6
CONTINUOUS
10
3.75031
20
-4.01914
11
3.74407
21
-4.01183
0
LINE
8
BLACK
6
CONTINUOUS
10
3.74407
20
-4.01183
11
3.73677
21
-4.0056
0
LINE
8
BLACK
6
CONTINUOUS
10
3.73677
20
-4.0056
11
3.72858
21
-4.00058
0
LINE
8
BLACK
6
CONTINUOUS
10
3.72858
20
-4.00058
11
3.7197
21
-3.9969
0
LINE
8
BLACK
6
CONTINUOUS
10
3.7197
20
-3.9969
11
3.71036
21
-3.99466
0
LINE
8
BLACK
6
CONTINUOUS
10
3.71036
20
-3.99466
11
3.70079
21
-3.99391
0
LINE
8
BLACK
6
CONTINUOUS
10
3.70079
20
-3.99391
11
3.69121
21
-3.99466
0
LINE
8
BLACK
6
CONTINUOUS
10
3.69121
20
-3.99466
11
3.68187
21
-3.9969
0
LINE
8
BLACK
6
CONTINUOUS
10
3.68187
20
-3.9969
11
3.673
21
-4.00058
0
LINE
8
BLACK
6
CONTINUOUS
10
3.673
20
-4.00058
11
3.66481
21
-4.0056
0
LINE
8
BLACK
6
CONTINUOUS
10
3.66481
20
-4.0056
11
3.6575
21
-4.01183
0
LINE
8
BLACK
6
CONTINUOUS
10
3.6575
20
-4.01183
11
3.65127
21
-4.01914
0
LINE
8
BLACK
6
CONTINUOUS
10
3.65127
20
-4.01914
11
3.64625
21
-4.02733
0
LINE
8
BLACK
6
CONTINUOUS
10
3.64625
20
-4.02733
11
3.64257
21
-4.0362
0
LINE
8
BLACK
6
CONTINUOUS
10
3.64257
20
-4.0362
11
3.64033
21
-4.04554
0
LINE
8
BLACK
6
CONTINUOUS
10
3.64033
20
-4.04554
11
3.63958
21
-4.05512
0
LINE
8
BLACK
6
CONTINUOUS
10
3.63958
20
-4.05512
11
3.64033
21
-4.06469
0
LINE
8
BLACK
6
CONTINUOUS
10
3.64033
20
-4.06469
11
3.64257
21
-4.07403
0
LINE
8
BLACK
6
CONTINUOUS
10
3.68608
20
-3.72176
11
3.67149
21
-3.71973
0
LINE
8
BLACK
6
CONTINUOUS
10
3.67149
20
-3.71973
11
3.65715
21
-3.71635
0
LINE
8
BLACK
6
CONTINUOUS
10
3.65715
20
-3.71635
11
3.64319
21
-3.71167
0
LINE
8
BLACK
6
CONTINUOUS
10
3.64319
20
-3.71167
11
3.62971
21
-3.70572
0
LINE
8
BLACK
6
CONTINUOUS
10
3.62971
20
-3.70572
11
3.61685
21
-3.69856
0
LINE
8
BLACK
6
CONTINUOUS
10
3.61685
20
-3.69856
11
3.6047
21
-3.69024
0
LINE
8
BLACK
6
CONTINUOUS
10
3.6047
20
-3.69024
11
3.59337
21
-3.68083
0
LINE
8
BLACK
6
CONTINUOUS
10
3.59337
20
-3.68083
11
3.58295
21
-3.67041
0
LINE
8
BLACK
6
CONTINUOUS
10
3.58295
20
-3.67041
11
3.57354
21
-3.65908
0
LINE
8
BLACK
6
CONTINUOUS
10
3.57354
20
-3.65908
11
3.56522
21
-3.64693
0
LINE
8
BLACK
6
CONTINUOUS
10
3.56522
20
-3.64693
11
3.55805
21
-3.63406
0
LINE
8
BLACK
6
CONTINUOUS
10
3.55805
20
-3.63406
11
3.55211
21
-3.62059
0
LINE
8
BLACK
6
CONTINUOUS
10
3.55211
20
-3.62059
11
3.54743
21
-3.60663
0
LINE
8
BLACK
6
CONTINUOUS
10
3.54743
20
-3.60663
11
3.54405
21
-3.59229
0
LINE
8
BLACK
6
CONTINUOUS
10
3.54405
20
-3.59229
11
3.54202
21
-3.5777
0
LINE
8
BLACK
6
CONTINUOUS
10
3.54202
20
-3.5777
11
3.54134
21
-3.56299
0
LINE
8
BLACK
6
CONTINUOUS
10
3.54134
20
-3.56299
11
3.54134
21
-1.90945
0
LINE
8
BLACK
6
CONTINUOUS
10
3.54134
20
-1.90945
11
3.54202
21
-1.89474
0
LINE
8
BLACK
6
CONTINUOUS
10
3.54202
20
-1.89474
11
3.54405
21
-1.88015
0
LINE
8
BLACK
6
CONTINUOUS
10
3.54405
20
-1.88015
11
3.54743
21
-1.86581
0
LINE
8
BLACK
6
CONTINUOUS
10
3.54743
20
-1.86581
11
3.55211
21
-1.85185
0
LINE
8
BLACK
6
CONTINUOUS
10
3.55211
20
-1.85185
11
3.55805
21
-1.83838
0
LINE
8
BLACK
6
CONTINUOUS
10
3.55805
20
-1.83838
11
3.56522
21
-1.82551
0
LINE
8
BLACK
6
CONTINUOUS
10
3.56522
20
-1.82551
11
3.57354
21
-1.81336
0
LINE
8
BLACK
6
CONTINUOUS
10
3.57354
20
-1.81336
11
3.58295
21
-1.80203
0
LINE
8
BLACK
6
CONTINUOUS
10
3.58295
20
-1.80203
11
3.59337
21
-1.79161
0
LINE
8
BLACK
6
CONTINUOUS
10
3.59337
20
-1.79161
11
3.6047
21
-1.78221
0
LINE
8
BLACK
6
CONTINUOUS
10
3.6047
20
-1.78221
11
3.61685
21
-1.77388
0
LINE
8
BLACK
6
CONTINUOUS
10
3.61685
20
-1.77388
11
3.62971
21
-1.76672
0
LINE
8
BLACK
6
CONTINUOUS
10
3.62971
20
-1.76672
11
3.64319
21
-1.76077
0
LINE
8
BLACK
6
CONTINUOUS
10
3.64319
20
-1.76077
11
3.65715
21
-1.75609
0
LINE
8
BLACK
6
CONTINUOUS
10
3.65715
20
-1.75609
11
3.67149
21
-1.75271
0
LINE
8
BLACK
6
CONTINUOUS
10
3.67149
20
-1.75271
11
3.68608
21
-1.75068
0
LINE
8
BLACK
6
CONTINUOUS
10
3.68608
20
-1.75068
11
3.70079
21
-1.75
0
LINE
8
BLACK
6
CONTINUOUS
10
3.70079
20
-1.75
11
6.92913
21
-1.75
0
LINE
8
BLACK
6
CONTINUOUS
10
6.92913
20
-1.75
11
6.94385
21
-1.75068
0
LINE
8
BLACK
6
CONTINUOUS
10
6.94385
20
-1.75068
11
6.95843
21
-1.75271
0
LINE
8
BLACK
6
CONTINUOUS
10
6.95843
20
-1.75271
11
6.97277
21
-1.75609
0
LINE
8
BLACK
6
CONTINUOUS
10
6.97277
20
-1.75609
11
6.98673
21
-1.76077
0
LINE
8
BLACK
6
CONTINUOUS
10
6.98673
20
-1.76077
11
7.00021
21
-1.76672
0
LINE
8
BLACK
6
CONTINUOUS
10
7.00021
20
-1.76672
11
7.01307
21
-1.77388
0
LINE
8
BLACK
6
CONTINUOUS
10
7.01307
20
-1.77388
11
7.02522
21
-1.78221
0
LINE
8
BLACK
6
CONTINUOUS
10
7.02522
20
-1.78221
11
7.03655
21
-1.79161
0
LINE
8
BLACK
6
CONTINUOUS
10
7.03655
20
-1.79161
11
7.04697
21
-1.80203
0
LINE
8
BLACK
6
CONTINUOUS
10
7.04697
20
-1.80203
11
7.05638
21
-1.81336
0
LINE
8
BLACK
6
CONTINUOUS
10
7.05638
20
-1.81336
11
7.0647
21
-1.82551
0
LINE
8
BLACK
6
CONTINUOUS
10
7.0647
20
-1.82551
11
7.07187
21
-1.83838
0
LINE
8
BLACK
6
CONTINUOUS
10
7.07187
20
-1.83838
11
7.07782
21
-1.85185
0
LINE
8
BLACK
6
CONTINUOUS
10
7.07782
20
-1.85185
11
7.0825
21
-1.86581
0
LINE
8
BLACK
6
CONTINUOUS
10
7.0825
20
-1.86581
11
7.08587
21
-1.88015
0
LINE
8
BLACK
6
CONTINUOUS
10
7.08587
20
-1.88015
11
7.0879
21
-1.89474
0
LINE
8
BLACK
6
CONTINUOUS
10
7.0879
20
-1.89474
11
7.08858
21
-1.90945
0
LINE
8
BLACK
6
CONTINUOUS
10
7.08858
20
-1.90945
11
7.08858
21
-3.56299
0
LINE
8
BLACK
6
CONTINUOUS
10
7.08858
20
-3.56299
11
7.0879
21
-3.5777
0
LINE
8
BLACK
6
CONTINUOUS
10
7.0879
20
-3.5777
11
7.08587
21
-3.59229
0
LINE
8
BLACK
6
CONTINUOUS
10
7.08587
20
-3.59229
11
7.0825
21
-3.60663
0
LINE
8
BLACK
6
CONTINUOUS
10
7.0825
20
-3.60663
11
7.07782
21
-3.62059
0
LINE
8
BLACK
6
CONTINUOUS
10
7.07782
20
-3.62059
11
7.07187
21
-3.63406
0
LINE
8
BLACK
6
CONTINUOUS
10
7.07187
20
-3.63406
11
7.0647
21
-3.64693
0
LINE
8
BLACK
6
CONTINUOUS
10
7.0647
20
-3.64693
11
7.05638
21
-3.65908
0
LINE
8
BLACK
6
CONTINUOUS
10
7.05638
20
-3.65908
11
7.04697
21
-3.67041
0
LINE
8
BLACK
6
CONTINUOUS
10
7.04697
20
-3.67041
11
7.03655
21
-3.68083
0
LINE
8
BLACK
6
CONTINUOUS
10
7.03655
20
-3.68083
11
7.02522
21
-3.69024
0
LINE
8
BLACK
6
CONTINUOUS
10
7.02522
20
-3.69024
11
7.01307
21
-3.69856
0
LINE
8
BLACK
6
CONTINUOUS
10
7.01307
20
-3.69856
11
7.00021
21
-3.70572
0
LINE
8
BLACK
6
CONTINUOUS
10
7.00021
20
-3.70572
11
6.98673
21
-3.71167
0
LINE
8
BLACK
6
CONTINUOUS
10
6.98673
20
-3.71167
11
6.97277
21
-3.71635
0
LINE
8
BLACK
6
CONTINUOUS
10
6.97277
20
-3.71635
11
6.95843
21
-3.71973
0
LINE
8
BLACK
6
CONTINUOUS
10
6.95843
20
-3.71973
11
6.94385
21
-3.72176
0
LINE
8
BLACK
6
CONTINUOUS
10
6.94385
20
-3.72176
11
6.92913
21
-3.72244
0
LINE
8
BLACK
6
CONTINUOUS
10
6.92913
20
-3.72244
11
3.70079
21
-3.72244
0
LINE
8
BLACK
6
CONTINUOUS
10
3.70079
20
-3.72244
11
3.68608
21
-3.72176
0
LINE
8
BLACK
6
CONTINUOUS
10
3.70043
20
-1.75379
11
3.68642
21
-1.75443
0
LINE
8
BLACK
6
CONTINUOUS
10
3.68642
20
-1.75443
11
3.67218
21
-1.75642
0
LINE
8
BLACK
6
CONTINUOUS
10
3.67218
20
-1.75642
11
3.65818
21
-1.75971
0
LINE
8
BLACK
6
CONTINUOUS
10
3.65818
20
-1.75971
11
3.64455
21
-1.76428
0
LINE
8
BLACK
6
CONTINUOUS
10
3.64455
20
-1.76428
11
3.6314
21
-1.77009
0
LINE
8
BLACK
6
CONTINUOUS
10
3.6314
20
-1.77009
11
3.61883
21
-1.77709
0
LINE
8
BLACK
6
CONTINUOUS
10
3.61883
20
-1.77709
11
3.60697
21
-1.78522
0
LINE
8
BLACK
6
CONTINUOUS
10
3.60697
20
-1.78522
11
3.59591
21
-1.7944
0
LINE
8
BLACK
6
CONTINUOUS
10
3.59591
20
-1.7944
11
3.58574
21
-1.80457
0
LINE
8
BLACK
6
CONTINUOUS
10
3.58574
20
-1.80457
11
3.57655
21
-1.81563
0
LINE
8
BLACK
6
CONTINUOUS
10
3.57655
20
-1.81563
11
3.56843
21
-1.82749
0
LINE
8
BLACK
6
CONTINUOUS
10
3.56843
20
-1.82749
11
3.56143
21
-1.84006
0
LINE
8
BLACK
6
CONTINUOUS
10
3.56143
20
-1.84006
11
3.55562
21
-1.85321
0
LINE
8
BLACK
6
CONTINUOUS
10
3.55562
20
-1.85321
11
3.55105
21
-1.86685
0
LINE
8
BLACK
6
CONTINUOUS
10
3.55105
20
-1.86685
11
3.54776
21
-1.88084
0
LINE
8
BLACK
6
CONTINUOUS
10
3.54776
20
-1.88084
11
3.54577
21
-1.89508
0
LINE
8
BLACK
6
CONTINUOUS
10
3.54577
20
-1.89508
11
3.54513
21
-1.90909
0
LINE
8
BLACK
6
CONTINUOUS
10
3.54513
20
-1.90909
11
3.54528
21
-1.90945
0
LINE
8
BLACK
6
CONTINUOUS
10
3.54528
20
-1.90945
11
3.54528
21
-3.56299
0
LINE
8
BLACK
6
CONTINUOUS
10
3.54528
20
-3.56299
11
3.54513
21
-3.56335
0
LINE
8
BLACK
6
CONTINUOUS
10
3.54513
20
-3.56335
11
3.54577
21
-3.57736
0
LINE
8
BLACK
6
CONTINUOUS
10
3.54577
20
-3.57736
11
3.54776
21
-3.5916
0
LINE
8
BLACK
6
CONTINUOUS
10
3.54776
20
-3.5916
11
3.55105
21
-3.6056
0
LINE
8
BLACK
6
CONTINUOUS
10
3.55105
20
-3.6056
11
3.55562
21
-3.61923
0
LINE
8
BLACK
6
CONTINUOUS
10
3.55562
20
-3.61923
11
3.56143
21
-3.63238
0
LINE
8
BLACK
6
CONTINUOUS
10
3.56143
20
-3.63238
11
3.56843
21
-3.64495
0
LINE
8
BLACK
6
CONTINUOUS
10
3.56843
20
-3.64495
11
3.57655
21
-3.65681
0
LINE
8
BLACK
6
CONTINUOUS
10
3.57655
20
-3.65681
11
3.58574
21
-3.66787
0
LINE
8
BLACK
6
CONTINUOUS
10
3.58574
20
-3.66787
11
3.59591
21
-3.67804
0
LINE
8
BLACK
6
CONTINUOUS
10
3.59591
20
-3.67804
11
3.60697
21
-3.68723
0
LINE
8
BLACK
6
CONTINUOUS
10
3.60697
20
-3.68723
11
3.61883
21
-3.69535
0
LINE
8
BLACK
6
CONTINUOUS
10
3.61883
20
-3.69535
11
3.6314
21
-3.70235
0
LINE
8
BLACK
6
CONTINUOUS
10
3.6314
20
-3.70235
11
3.64455
21
-3.70816
0
LINE
8
BLACK
6
CONTINUOUS
10
3.64455
20
-3.70816
11
3.65818
21
-3.71273
0
LINE
8
BLACK
6
CONTINUOUS
10
3.65818
20
-3.71273
11
3.67218
21
-3.71602
0
LINE
8
BLACK
6
CONTINUOUS
10
3.67218
20
-3.71602
11
3.68642
21
-3.71801
0
LINE
8
BLACK
6
CONTINUOUS
10
3.68642
20
-3.71801
11
3.70043
21
-3.71865
0
LINE
8
BLACK
6
CONTINUOUS
10
3.70043
20
-3.71865
11
3.70079
21
-3.7185
0
LINE
8
BLACK
6
CONTINUOUS
10
3.70079
20
-3.7185
11
6.92913
21
-3.7185
0
LINE
8
BLACK
6
CONTINUOUS
10
6.92913
20
-3.7185
11
6.92949
21
-3.71865
0
LINE
8
BLACK
6
CONTINUOUS
10
6.92949
20
-3.71865
11
6.9435
21
-3.71801
0
LINE
8
BLACK
6
CONTINUOUS
10
6.9435
20
-3.71801
11
6.95774
21
-3.71602
0
LINE
8
BLACK
6
CONTINUOUS
10
6.95774
20
-3.71602
11
6.97174
21
-3.71273
0
LINE
8
BLACK
6
CONTINUOUS
10
6.97174
20
-3.71273
11
6.98537
21
-3.70816
0
LINE
8
BLACK
6
CONTINUOUS
10
6.98537
20
-3.70816
11
6.99853
21
-3.70235
0
LINE
8
BLACK
6
CONTINUOUS
10
6.99853
20
-3.70235
11
7.01109
21
-3.69535
0
LINE
8
BLACK
6
CONTINUOUS
10
7.01109
20
-3.69535
11
7.02295
21
-3.68723
0
LINE
8
BLACK
6
CONTINUOUS
10
7.02295
20
-3.68723
11
7.03401
21
-3.67804
0
LINE
8
BLACK
6
CONTINUOUS
10
7.03401
20
-3.67804
11
7.04418
21
-3.66787
0
LINE
8
BLACK
6
CONTINUOUS
10
7.04418
20
-3.66787
11
7.05337
21
-3.65681
0
LINE
8
BLACK
6
CONTINUOUS
10
7.05337
20
-3.65681
11
7.06149
21
-3.64495
0
LINE
8
BLACK
6
CONTINUOUS
10
7.06149
20
-3.64495
11
7.06849
21
-3.63238
0
LINE
8
BLACK
6
CONTINUOUS
10
7.06849
20
-3.63238
11
7.0743
21
-3.61923
0
LINE
8
BLACK
6
CONTINUOUS
10
7.0743
20
-3.61923
11
7.07887
21
-3.6056
0
LINE
8
BLACK
6
CONTINUOUS
10
7.07887
20
-3.6056
11
7.08216
21
-3.5916
0
LINE
8
BLACK
6
CONTINUOUS
10
7.08216
20
-3.5916
11
7.08415
21
-3.57736
0
LINE
8
BLACK
6
CONTINUOUS
10
7.08415
20
-3.57736
11
7.0848
21
-3.56335
0
LINE
8
BLACK
6
CONTINUOUS
10
7.0848
20
-3.56335
11
7.08465
21
-3.56299
0
LINE
8
BLACK
6
CONTINUOUS
10
7.08465
20
-3.56299
11
7.08465
21
-1.90945
0
LINE
8
BLACK
6
CONTINUOUS
10
7.08465
20
-1.90945
11
7.0848
21
-1.90909
0
LINE
8
BLACK
6
CONTINUOUS
10
7.0848
20
-1.90909
11
7.08415
21
-1.89508
0
LINE
8
BLACK
6
CONTINUOUS
10
7.08415
20
-1.89508
11
7.08216
21
-1.88084
0
LINE
8
BLACK
6
CONTINUOUS
10
7.08216
20
-1.88084
11
7.07887
21
-1.86685
0
LINE
8
BLACK
6
CONTINUOUS
10
7.07887
20
-1.86685
11
7.0743
21
-1.85321
0
LINE
8
BLACK
6
CONTINUOUS
10
7.0743
20
-1.85321
11
7.06849
21
-1.84006
0
LINE
8
BLACK
6
CONTINUOUS
10
7.06849
20
-1.84006
11
7.06149
21
-1.82749
0
LINE
8
BLACK
6
CONTINUOUS
10
7.06149
20
-1.82749
11
7.05337
21
-1.81563
0
LINE
8
BLACK
6
CONTINUOUS
10
7.05337
20
-1.81563
11
7.04418
21
-1.80457
0
LINE
8
BLACK
6
CONTINUOUS
10
7.04418
20
-1.80457
11
7.03401
21
-1.7944
0
LINE
8
BLACK
6
CONTINUOUS
10
7.03401
20
-1.7944
11
7.02295
21
-1.78522
0
LINE
8
BLACK
6
CONTINUOUS
10
7.02295
20
-1.78522
11
7.01109
21
-1.77709
0
LINE
8
BLACK
6
CONTINUOUS
10
7.01109
20
-1.77709
11
6.99853
21
-1.77009
0
LINE
8
BLACK
6
CONTINUOUS
10
6.99853
20
-1.77009
11
6.98537
21
-1.76428
0
LINE
8
BLACK
6
CONTINUOUS
10
6.98537
20
-1.76428
11
6.97174
21
-1.75971
0
LINE
8
BLACK
6
CONTINUOUS
10
6.97174
20
-1.75971
11
6.95774
21
-1.75642
0
LINE
8
BLACK
6
CONTINUOUS
10
6.95774
20
-1.75642
11
6.9435
21
-1.75443
0
LINE
8
BLACK
6
CONTINUOUS
10
6.9435
20
-1.75443
11
6.92949
21
-1.75379
0
LINE
8
BLACK
6
CONTINUOUS
10
6.92949
20
-1.75379
11
6.92913
21
-1.75394
0
LINE
8
BLACK
6
CONTINUOUS
10
6.92913
20
-1.75394
11
3.70079
21
-1.75394
0
LINE
8
BLACK
6
CONTINUOUS
10
3.70079
20
-1.75394
11
3.70043
21
-1.75379
0
LINE
8
BLACK
6
CONTINUOUS
10
3.63901
20
-3.54292
11
3.64291
21
-3.5335
0
LINE
8
BLACK
6
CONTINUOUS
10
3.64291
20
-3.5335
11
3.64823
21
-3.52481
0
LINE
8
BLACK
6
CONTINUOUS
10
3.64823
20
-3.52481
11
3.65485
21
-3.51706
0
LINE
8
BLACK
6
CONTINUOUS
10
3.65485
20
-3.51706
11
3.6626
21
-3.51044
0
LINE
8
BLACK
6
CONTINUOUS
10
3.6626
20
-3.51044
11
3.6713
21
-3.50511
0
LINE
8
BLACK
6
CONTINUOUS
10
3.6713
20
-3.50511
11
3.68071
21
-3.50121
0
LINE
8
BLACK
6
CONTINUOUS
10
3.68071
20
-3.50121
11
3.69063
21
-3.49883
0
LINE
8
BLACK
6
CONTINUOUS
10
3.69063
20
-3.49883
11
3.70079
21
-3.49803
0
LINE
8
BLACK
6
CONTINUOUS
10
3.70079
20
-3.49803
11
3.71095
21
-3.49883
0
LINE
8
BLACK
6
CONTINUOUS
10
3.71095
20
-3.49883
11
3.72086
21
-3.50121
0
LINE
8
BLACK
6
CONTINUOUS
10
3.72086
20
-3.50121
11
3.73028
21
-3.50511
0
LINE
8
BLACK
6
CONTINUOUS
10
3.73028
20
-3.50511
11
3.73897
21
-3.51044
0
LINE
8
BLACK
6
CONTINUOUS
10
3.73897
20
-3.51044
11
3.74672
21
-3.51706
0
LINE
8
BLACK
6
CONTINUOUS
10
3.74672
20
-3.51706
11
3.75334
21
-3.52481
0
LINE
8
BLACK
6
CONTINUOUS
10
3.75334
20
-3.52481
11
3.75867
21
-3.5335
0
LINE
8
BLACK
6
CONTINUOUS
10
3.75867
20
-3.5335
11
3.76257
21
-3.54292
0
LINE
8
BLACK
6
CONTINUOUS
10
3.76257
20
-3.54292
11
3.76495
21
-3.55283
0
LINE
8
BLACK
6
CONTINUOUS
10
3.76495
20
-3.55283
11
3.76575
21
-3.56299
0
LINE
8
BLACK
6
CONTINUOUS
10
3.76575
20
-3.56299
11
3.76495
21
-3.57315
0
LINE
8
BLACK
6
CONTINUOUS
10
3.76495
20
-3.57315
11
3.76257
21
-3.58307
0
LINE
8
BLACK
6
CONTINUOUS
10
3.76257
20
-3.58307
11
3.75867
21
-3.59248
0
LINE
8
BLACK
6
CONTINUOUS
10
3.75867
20
-3.59248
11
3.75334
21
-3.60118
0
LINE
8
BLACK
6
CONTINUOUS
10
3.75334
20
-3.60118
11
3.74672
21
-3.60893
0
LINE
8
BLACK
6
CONTINUOUS
10
3.74672
20
-3.60893
11
3.73897
21
-3.61555
0
LINE
8
BLACK
6
CONTINUOUS
10
3.73897
20
-3.61555
11
3.73028
21
-3.62087
0
LINE
8
BLACK
6
CONTINUOUS
10
3.73028
20
-3.62087
11
3.72086
21
-3.62477
0
LINE
8
BLACK
6
CONTINUOUS
10
3.72086
20
-3.62477
11
3.71095
21
-3.62715
0
LINE
8
BLACK
6
CONTINUOUS
10
3.71095
20
-3.62715
11
3.70079
21
-3.62795
0
LINE
8
BLACK
6
CONTINUOUS
10
3.70079
20
-3.62795
11
3.69063
21
-3.62715
0
LINE
8
BLACK
6
CONTINUOUS
10
3.69063
20
-3.62715
11
3.68071
21
-3.62477
0
LINE
8
BLACK
6
CONTINUOUS
10
3.68071
20
-3.62477
11
3.6713
21
-3.62087
0
LINE
8
BLACK
6
CONTINUOUS
10
3.6713
20
-3.62087
11
3.6626
21
-3.61555
0
LINE
8
BLACK
6
CONTINUOUS
10
3.6626
20
-3.61555
11
3.65485
21
-3.60893
0
LINE
8
BLACK
6
CONTINUOUS
10
3.65485
20
-3.60893
11
3.64823
21
-3.60118
0
LINE
8
BLACK
6
CONTINUOUS
10
3.64823
20
-3.60118
11
3.64291
21
-3.59248
0
LINE
8
BLACK
6
CONTINUOUS
10
3.64291
20
-3.59248
11
3.63901
21
-3.58307
0
LINE
8
BLACK
6
CONTINUOUS
10
3.63901
20
-3.58307
11
3.63663
21
-3.57315
0
LINE
8
BLACK
6
CONTINUOUS
10
3.63663
20
-3.57315
11
3.63583
21
-3.56299
0
LINE
8
BLACK
6
CONTINUOUS
10
3.63583
20
-3.56299
11
3.63663
21
-3.55283
0
LINE
8
BLACK
6
CONTINUOUS
10
3.63663
20
-3.55283
11
3.63901
21
-3.54292
0
LINE
8
BLACK
6
CONTINUOUS
10
3.64257
20
-3.58191
11
3.64625
21
-3.59078
0
LINE
8
BLACK
6
CONTINUOUS
10
3.64625
20
-3.59078
11
3.65127
21
-3.59897
0
LINE
8
BLACK
6
CONTINUOUS
10
3.65127
20
-3.59897
11
3.6575
21
-3.60628
0
LINE
8
BLACK
6
CONTINUOUS
10
3.6575
20
-3.60628
11
3.66481
21
-3.61251
0
LINE
8
BLACK
6
CONTINUOUS
10
3.66481
20
-3.61251
11
3.673
21
-3.61753
0
LINE
8
BLACK
6
CONTINUOUS
10
3.673
20
-3.61753
11
3.68187
21
-3.62121
0
LINE
8
BLACK
6
CONTINUOUS
10
3.68187
20
-3.62121
11
3.69121
21
-3.62345
0
LINE
8
BLACK
6
CONTINUOUS
10
3.69121
20
-3.62345
11
3.70079
21
-3.6242
0
LINE
8
BLACK
6
CONTINUOUS
10
3.70079
20
-3.6242
11
3.71036
21
-3.62345
0
LINE
8
BLACK
6
CONTINUOUS
10
3.71036
20
-3.62345
11
3.7197
21
-3.62121
0
LINE
8
BLACK
6
CONTINUOUS
10
3.7197
20
-3.62121
11
3.72858
21
-3.61753
0
LINE
8
BLACK
6
CONTINUOUS
10
3.72858
20
-3.61753
11
3.73677
21
-3.61251
0
LINE
8
BLACK
6
CONTINUOUS
10
3.73677
20
-3.61251
11
3.74407
21
-3.60628
0
LINE
8
BLACK
6
CONTINUOUS
10
3.74407
20
-3.60628
11
3.75031
21
-3.59897
0
LINE
8
BLACK
6
CONTINUOUS
10
3.75031
20
-3.59897
11
3.75533
21
-3.59078
0
LINE
8
BLACK
6
CONTINUOUS
10
3.75533
20
-3.59078
11
3.759
21
-3.58191
0
LINE
8
BLACK
6
CONTINUOUS
10
3.759
20
-3.58191
11
3.76125
21
-3.57257
0
LINE
8
BLACK
6
CONTINUOUS
10
3.76125
20
-3.57257
11
3.762
21
-3.56299
0
LINE
8
BLACK
6
CONTINUOUS
10
3.762
20
-3.56299
11
3.76125
21
-3.55342
0
LINE
8
BLACK
6
CONTINUOUS
10
3.76125
20
-3.55342
11
3.759
21
-3.54408
0
LINE
8
BLACK
6
CONTINUOUS
10
3.759
20
-3.54408
11
3.75533
21
-3.5352
0
LINE
8
BLACK
6
CONTINUOUS
10
3.75533
20
-3.5352
11
3.75031
21
-3.52701
0
LINE
8
BLACK
6
CONTINUOUS
10
3.75031
20
-3.52701
11
3.74407
21
-3.51971
0
LINE
8
BLACK
6
CONTINUOUS
10
3.74407
20
-3.51971
11
3.73677
21
-3.51347
0
LINE
8
BLACK
6
CONTINUOUS
10
3.73677
20
-3.51347
11
3.72858
21
-3.50845
0
LINE
8
BLACK
6
CONTINUOUS
10
3.72858
20
-3.50845
11
3.7197
21
-3.50478
0
LINE
8
BLACK
6
CONTINUOUS
10
3.7197
20
-3.50478
11
3.71036
21
-3.50253
0
LINE
8
BLACK
6
CONTINUOUS
10
3.71036
20
-3.50253
11
3.70079
21
-3.50178
0
LINE
8
BLACK
6
CONTINUOUS
10
3.70079
20
-3.50178
11
3.69121
21
-3.50253
0
LINE
8
BLACK
6
CONTINUOUS
10
3.69121
20
-3.50253
11
3.68187
21
-3.50478
0
LINE
8
BLACK
6
CONTINUOUS
10
3.68187
20
-3.50478
11
3.673
21
-3.50845
0
LINE
8
BLACK
6
CONTINUOUS
10
3.673
20
-3.50845
11
3.66481
21
-3.51347
0
LINE
8
BLACK
6
CONTINUOUS
10
3.66481
20
-3.51347
11
3.6575
21
-3.51971
0
LINE
8
BLACK
6
CONTINUOUS
10
3.6575
20
-3.51971
11
3.65127
21
-3.52701
0
LINE
8
BLACK
6
CONTINUOUS
10
3.65127
20
-3.52701
11
3.64625
21
-3.5352
0
LINE
8
BLACK
6
CONTINUOUS
10
3.64625
20
-3.5352
11
3.64257
21
-3.54408
0
LINE
8
BLACK
6
CONTINUOUS
10
3.64257
20
-3.54408
11
3.64033
21
-3.55342
0
LINE
8
BLACK
6
CONTINUOUS
10
3.64033
20
-3.55342
11
3.63958
21
-3.56299
0
LINE
8
BLACK
6
CONTINUOUS
10
3.63958
20
-3.56299
11
3.64033
21
-3.57257
0
LINE
8
BLACK
6
CONTINUOUS
10
3.64033
20
-3.57257
11
3.64257
21
-3.58191
0
LINE
8
BLACK
6
CONTINUOUS
10
6.86735
20
-3.54292
11
6.87125
21
-3.5335
0
LINE
8
BLACK
6
CONTINUOUS
10
6.87125
20
-3.5335
11
6.87658
21
-3.52481
0
LINE
8
BLACK
6
CONTINUOUS
10
6.87658
20
-3.52481
11
6.8832
21
-3.51706
0
LINE
8
BLACK
6
CONTINUOUS
10
6.8832
20
-3.51706
11
6.89095
21
-3.51044
0
LINE
8
BLACK
6
CONTINUOUS
10
6.89095
20
-3.51044
11
6.89964
21
-3.50511
0
LINE
8
BLACK
6
CONTINUOUS
10
6.89964
20
-3.50511
11
6.90906
21
-3.50121
0
LINE
8
BLACK
6
CONTINUOUS
10
6.90906
20
-3.50121
11
6.91897
21
-3.49883
0
LINE
8
BLACK
6
CONTINUOUS
10
6.91897
20
-3.49883
11
6.92913
21
-3.49803
0
LINE
8
BLACK
6
CONTINUOUS
10
6.92913
20
-3.49803
11
6.9393
21
-3.49883
0
LINE
8
BLACK
6
CONTINUOUS
10
6.9393
20
-3.49883
11
6.94921
21
-3.50121
0
LINE
8
BLACK
6
CONTINUOUS
10
6.94921
20
-3.50121
11
6.95863
21
-3.50511
0
LINE
8
BLACK
6
CONTINUOUS
10
6.95863
20
-3.50511
11
6.96732
21
-3.51044
0
LINE
8
BLACK
6
CONTINUOUS
10
6.96732
20
-3.51044
11
6.97507
21
-3.51706
0
LINE
8
BLACK
6
CONTINUOUS
10
6.97507
20
-3.51706
11
6.98169
21
-3.52481
0
LINE
8
BLACK
6
CONTINUOUS
10
6.98169
20
-3.52481
11
6.98701
21
-3.5335
0
LINE
8
BLACK
6
CONTINUOUS
10
6.98701
20
-3.5335
11
6.99092
21
-3.54292
0
LINE
8
BLACK
6
CONTINUOUS
10
6.99092
20
-3.54292
11
6.99329
21
-3.55283
0
LINE
8
BLACK
6
CONTINUOUS
10
6.99329
20
-3.55283
11
6.99409
21
-3.56299
0
LINE
8
BLACK
6
CONTINUOUS
10
6.99409
20
-3.56299
11
6.99329
21
-3.57315
0
LINE
8
BLACK
6
CONTINUOUS
10
6.99329
20
-3.57315
11
6.99092
21
-3.58307
0
LINE
8
BLACK
6
CONTINUOUS
10
6.99092
20
-3.58307
11
6.98701
21
-3.59248
0
LINE
8
BLACK
6
CONTINUOUS
10
6.98701
20
-3.59248
11
6.98169
21
-3.60118
0
LINE
8
BLACK
6
CONTINUOUS
10
6.98169
20
-3.60118
11
6.97507
21
-3.60893
0
LINE
8
BLACK
6
CONTINUOUS
10
6.97507
20
-3.60893
11
6.96732
21
-3.61555
0
LINE
8
BLACK
6
CONTINUOUS
10
6.96732
20
-3.61555
11
6.95863
21
-3.62087
0
LINE
8
BLACK
6
CONTINUOUS
10
6.95863
20
-3.62087
11
6.94921
21
-3.62477
0
LINE
8
BLACK
6
CONTINUOUS
10
6.94921
20
-3.62477
11
6.9393
21
-3.62715
0
LINE
8
BLACK
6
CONTINUOUS
10
6.9393
20
-3.62715
11
6.92913
21
-3.62795
0
LINE
8
BLACK
6
CONTINUOUS
10
6.92913
20
-3.62795
11
6.91897
21
-3.62715
0
LINE
8
BLACK
6
CONTINUOUS
10
6.91897
20
-3.62715
11
6.90906
21
-3.62477
0
LINE
8
BLACK
6
CONTINUOUS
10
6.90906
20
-3.62477
11
6.89964
21
-3.62087
0
LINE
8
BLACK
6
CONTINUOUS
10
6.89964
20
-3.62087
11
6.89095
21
-3.61555
0
LINE
8
BLACK
6
CONTINUOUS
10
6.89095
20
-3.61555
11
6.8832
21
-3.60893
0
LINE
8
BLACK
6
CONTINUOUS
10
6.8832
20
-3.60893
11
6.87658
21
-3.60118
0
LINE
8
BLACK
6
CONTINUOUS
10
6.87658
20
-3.60118
11
6.87125
21
-3.59248
0
LINE
8
BLACK
6
CONTINUOUS
10
6.87125
20
-3.59248
11
6.86735
21
-3.58307
0
LINE
8
BLACK
6
CONTINUOUS
10
6.86735
20
-3.58307
11
6.86497
21
-3.57315
0
LINE
8
BLACK
6
CONTINUOUS
10
6.86497
20
-3.57315
11
6.86417
21
-3.56299
0
LINE
8
BLACK
6
CONTINUOUS
10
6.86417
20
-3.56299
11
6.86497
21
-3.55283
0
LINE
8
BLACK
6
CONTINUOUS
10
6.86497
20
-3.55283
11
6.86735
21
-3.54292
0
LINE
8
BLACK
6
CONTINUOUS
10
6.87092
20
-3.58191
11
6.87459
21
-3.59078
0
LINE
8
BLACK
6
CONTINUOUS
10
6.87459
20
-3.59078
11
6.87961
21
-3.59897
0
LINE
8
BLACK
6
CONTINUOUS
10
6.87961
20
-3.59897
11
6.88585
21
-3.60628
0
LINE
8
BLACK
6
CONTINUOUS
10
6.88585
20
-3.60628
11
6.89315
21
-3.61251
0
LINE
8
BLACK
6
CONTINUOUS
10
6.89315
20
-3.61251
11
6.90134
21
-3.61753
0
LINE
8
BLACK
6
CONTINUOUS
10
6.90134
20
-3.61753
11
6.91022
21
-3.62121
0
LINE
8
BLACK
6
CONTINUOUS
10
6.91022
20
-3.62121
11
6.91956
21
-3.62345
0
LINE
8
BLACK
6
CONTINUOUS
10
6.91956
20
-3.62345
11
6.92913
21
-3.6242
0
LINE
8
BLACK
6
CONTINUOUS
10
6.92913
20
-3.6242
11
6.93871
21
-3.62345
0
LINE
8
BLACK
6
CONTINUOUS
10
6.93871
20
-3.62345
11
6.94805
21
-3.62121
0
LINE
8
BLACK
6
CONTINUOUS
10
6.94805
20
-3.62121
11
6.95692
21
-3.61753
0
LINE
8
BLACK
6
CONTINUOUS
10
6.95692
20
-3.61753
11
6.96511
21
-3.61251
0
LINE
8
BLACK
6
CONTINUOUS
10
6.96511
20
-3.61251
11
6.97242
21
-3.60628
0
LINE
8
BLACK
6
CONTINUOUS
10
6.97242
20
-3.60628
11
6.97866
21
-3.59897
0
LINE
8
BLACK
6
CONTINUOUS
10
6.97866
20
-3.59897
11
6.98367
21
-3.59078
0
LINE
8
BLACK
6
CONTINUOUS
10
6.98367
20
-3.59078
11
6.98735
21
-3.58191
0
LINE
8
BLACK
6
CONTINUOUS
10
6.98735
20
-3.58191
11
6.98959
21
-3.57257
0
LINE
8
BLACK
6
CONTINUOUS
10
6.98959
20
-3.57257
11
6.99035
21
-3.56299
0
LINE
8
BLACK
6
CONTINUOUS
10
6.99035
20
-3.56299
11
6.98959
21
-3.55342
0
LINE
8
BLACK
6
CONTINUOUS
10
6.98959
20
-3.55342
11
6.98735
21
-3.54408
0
LINE
8
BLACK
6
CONTINUOUS
10
6.98735
20
-3.54408
11
6.98367
21
-3.5352
0
LINE
8
BLACK
6
CONTINUOUS
10
6.98367
20
-3.5352
11
6.97866
21
-3.52701
0
LINE
8
BLACK
6
CONTINUOUS
10
6.97866
20
-3.52701
11
6.97242
21
-3.51971
0
LINE
8
BLACK
6
CONTINUOUS
10
6.97242
20
-3.51971
11
6.96511
21
-3.51347
0
LINE
8
BLACK
6
CONTINUOUS
10
6.96511
20
-3.51347
11
6.95692
21
-3.50845
0
LINE
8
BLACK
6
CONTINUOUS
10
6.95692
20
-3.50845
11
6.94805
21
-3.50478
0
LINE
8
BLACK
6
CONTINUOUS
10
6.94805
20
-3.50478
11
6.93871
21
-3.50253
0
LINE
8
BLACK
6
CONTINUOUS
10
6.93871
20
-3.50253
11
6.92913
21
-3.50178
0
LINE
8
BLACK
6
CONTINUOUS
10
6.92913
20
-3.50178
11
6.91956
21
-3.50253
0
LINE
8
BLACK
6
CONTINUOUS
10
6.91956
20
-3.50253
11
6.91022
21
-3.50478
0
LINE
8
BLACK
6
CONTINUOUS
10
6.91022
20
-3.50478
11
6.90134
21
-3.50845
0
LINE
8
BLACK
6
CONTINUOUS
10
6.90134
20
-3.50845
11
6.89315
21
-3.51347
0
LINE
8
BLACK
6
CONTINUOUS
10
6.89315
20
-3.51347
11
6.88585
21
-3.51971
0
LINE
8
BLACK
6
CONTINUOUS
10
6.88585
20
-3.51971
11
6.87961
21
-3.52701
0
LINE
8
BLACK
6
CONTINUOUS
10
6.87961
20
-3.52701
11
6.87459
21
-3.5352
0
LINE
8
BLACK
6
CONTINUOUS
10
6.87459
20
-3.5352
11
6.87092
21
-3.54408
0
LINE
8
BLACK
6
CONTINUOUS
10
6.87092
20
-3.54408
11
6.86868
21
-3.55342
0
LINE
8
BLACK
6
CONTINUOUS
10
6.86868
20
-3.55342
11
6.86792
21
-3.56299
0
LINE
8
BLACK
6
CONTINUOUS
10
6.86792
20
-3.56299
11
6.86868
21
-3.57257
0
LINE
8
BLACK
6
CONTINUOUS
10
6.86868
20
-3.57257
11
6.87092
21
-3.58191
0
LINE
8
BLACK
6
CONTINUOUS
10
4.04449
20
-3.2713
11
4.04706
21
-3.25887
0
LINE
8
BLACK
6
CONTINUOUS
10
4.04706
20
-3.25887
11
4.05105
21
-3.24682
0
LINE
8
BLACK
6
CONTINUOUS
10
4.05105
20
-3.24682
11
4.05639
21
-3.23531
0
LINE
8
BLACK
6
CONTINUOUS
10
4.05639
20
-3.23531
11
4.06302
21
-3.22449
0
LINE
8
BLACK
6
CONTINUOUS
10
4.06302
20
-3.22449
11
4.07085
21
-3.2145
0
LINE
8
BLACK
6
CONTINUOUS
10
4.07085
20
-3.2145
11
4.07978
21
-3.20548
0
LINE
8
BLACK
6
CONTINUOUS
10
4.07978
20
-3.20548
11
4.08969
21
-3.19754
0
LINE
8
BLACK
6
CONTINUOUS
10
4.08969
20
-3.19754
11
4.10044
21
-3.1908
0
LINE
8
BLACK
6
CONTINUOUS
10
4.10044
20
-3.1908
11
4.11189
21
-3.18534
0
LINE
8
BLACK
6
CONTINUOUS
10
4.11189
20
-3.18534
11
4.1239
21
-3.18123
0
LINE
8
BLACK
6
CONTINUOUS
10
4.1239
20
-3.18123
11
4.1363
21
-3.17852
0
LINE
8
BLACK
6
CONTINUOUS
10
4.1363
20
-3.17852
11
4.14893
21
-3.17726
0
LINE
8
BLACK
6
CONTINUOUS
10
4.14893
20
-3.17726
11
4.16162
21
-3.17746
0
LINE
8
BLACK
6
CONTINUOUS
10
4.16162
20
-3.17746
11
4.1742
21
-3.17912
0
LINE
8
BLACK
6
CONTINUOUS
10
4.1742
20
-3.17912
11
4.18651
21
-3.18221
0
LINE
8
BLACK
6
CONTINUOUS
10
4.18651
20
-3.18221
11
4.19838
21
-3.1867
0
LINE
8
BLACK
6
CONTINUOUS
10
4.19838
20
-3.1867
11
4.20966
21
-3.19252
0
LINE
8
BLACK
6
CONTINUOUS
10
4.20966
20
-3.19252
11
4.22019
21
-3.1996
0
LINE
8
BLACK
6
CONTINUOUS
10
4.22019
20
-3.1996
11
4.22984
21
-3.20784
0
LINE
8
BLACK
6
CONTINUOUS
10
4.22984
20
-3.20784
11
4.23848
21
-3.21713
0
LINE
8
BLACK
6
CONTINUOUS
10
4.23848
20
-3.21713
11
4.246
21
-3.22736
0
LINE
8
BLACK
6
CONTINUOUS
10
4.246
20
-3.22736
11
4.25228
21
-3.23839
0
LINE
8
BLACK
6
CONTINUOUS
10
4.25228
20
-3.23839
11
4.25726
21
-3.25006
0
LINE
8
BLACK
6
CONTINUOUS
10
4.25726
20
-3.25006
11
4.26087
21
-3.26223
0
LINE
8
BLACK
6
CONTINUOUS
10
4.26087
20
-3.26223
11
4.26305
21
-3.27473
0
LINE
8
BLACK
6
CONTINUOUS
10
4.26305
20
-3.27473
11
4.26378
21
-3.2874
0
LINE
8
BLACK
6
CONTINUOUS
10
4.26378
20
-3.2874
11
4.26356
21
-3.29432
0
LINE
8
BLACK
6
CONTINUOUS
10
4.26356
20
-3.29432
11
4.26204
21
-3.30692
0
LINE
8
BLACK
6
CONTINUOUS
10
4.26204
20
-3.30692
11
4.25907
21
-3.31926
0
LINE
8
BLACK
6
CONTINUOUS
10
4.25907
20
-3.31926
11
4.25471
21
-3.33118
0
LINE
8
BLACK
6
CONTINUOUS
10
4.25471
20
-3.33118
11
4.24901
21
-3.34252
0
LINE
8
BLACK
6
CONTINUOUS
10
4.24901
20
-3.34252
11
4.24204
21
-3.35313
0
LINE
8
BLACK
6
CONTINUOUS
10
4.24204
20
-3.35313
11
4.2339
21
-3.36286
0
LINE
8
BLACK
6
CONTINUOUS
10
4.2339
20
-3.36286
11
4.2247
21
-3.3716
0
LINE
8
BLACK
6
CONTINUOUS
10
4.2247
20
-3.3716
11
4.21455
21
-3.37922
0
LINE
8
BLACK
6
CONTINUOUS
10
4.21455
20
-3.37922
11
4.20359
21
-3.38562
0
LINE
8
BLACK
6
CONTINUOUS
10
4.20359
20
-3.38562
11
4.19197
21
-3.39072
0
LINE
8
BLACK
6
CONTINUOUS
10
4.19197
20
-3.39072
11
4.17984
21
-3.39446
0
LINE
8
BLACK
6
CONTINUOUS
10
4.17984
20
-3.39446
11
4.16736
21
-3.39677
0
LINE
8
BLACK
6
CONTINUOUS
10
4.16736
20
-3.39677
11
4.1547
21
-3.39763
0
LINE
8
BLACK
6
CONTINUOUS
10
4.1547
20
-3.39763
11
4.14202
21
-3.39703
0
LINE
8
BLACK
6
CONTINUOUS
10
4.14202
20
-3.39703
11
4.1295
21
-3.39498
0
LINE
8
BLACK
6
CONTINUOUS
10
4.1295
20
-3.39498
11
4.11729
21
-3.39151
0
LINE
8
BLACK
6
CONTINUOUS
10
4.11729
20
-3.39151
11
4.10557
21
-3.38665
0
LINE
8
BLACK
6
CONTINUOUS
10
4.10557
20
-3.38665
11
4.09448
21
-3.38048
0
LINE
8
BLACK
6
CONTINUOUS
10
4.09448
20
-3.38048
11
4.08417
21
-3.37307
0
LINE
8
BLACK
6
CONTINUOUS
10
4.08417
20
-3.37307
11
4.07478
21
-3.36453
0
LINE
8
BLACK
6
CONTINUOUS
10
4.07478
20
-3.36453
11
4.06644
21
-3.35497
0
LINE
8
BLACK
6
CONTINUOUS
10
4.06644
20
-3.35497
11
4.05925
21
-3.34451
0
LINE
8
BLACK
6
CONTINUOUS
10
4.05925
20
-3.34451
11
4.05331
21
-3.33329
0
LINE
8
BLACK
6
CONTINUOUS
10
4.05331
20
-3.33329
11
4.0487
21
-3.32147
0
LINE
8
BLACK
6
CONTINUOUS
10
4.0487
20
-3.32147
11
4.04548
21
-3.30919
0
LINE
8
BLACK
6
CONTINUOUS
10
4.04548
20
-3.30919
11
4.04369
21
-3.29663
0
LINE
8
BLACK
6
CONTINUOUS
10
4.04369
20
-3.29663
11
4.04342
21
-3.28629
0
LINE
8
BLACK
6
CONTINUOUS
10
4.04342
20
-3.28629
11
4.04336
21
-3.28394
0
LINE
8
BLACK
6
CONTINUOUS
10
4.04336
20
-3.28394
11
4.04449
21
-3.2713
0
LINE
8
BLACK
6
CONTINUOUS
10
4.04986
20
-3.31172
11
4.05354
21
-3.324
0
LINE
8
BLACK
6
CONTINUOUS
10
4.05354
20
-3.324
11
4.05866
21
-3.33575
0
LINE
8
BLACK
6
CONTINUOUS
10
4.05866
20
-3.33575
11
4.06515
21
-3.3468
0
LINE
8
BLACK
6
CONTINUOUS
10
4.06515
20
-3.3468
11
4.07293
21
-3.35699
0
LINE
8
BLACK
6
CONTINUOUS
10
4.07293
20
-3.35699
11
4.08187
21
-3.36617
0
LINE
8
BLACK
6
CONTINUOUS
10
4.08187
20
-3.36617
11
4.09185
21
-3.37421
0
LINE
8
BLACK
6
CONTINUOUS
10
4.09185
20
-3.37421
11
4.10273
21
-3.38099
0
LINE
8
BLACK
6
CONTINUOUS
10
4.10273
20
-3.38099
11
4.11434
21
-3.38642
0
LINE
8
BLACK
6
CONTINUOUS
10
4.11434
20
-3.38642
11
4.12652
21
-3.39041
0
LINE
8
BLACK
6
CONTINUOUS
10
4.12652
20
-3.39041
11
4.13909
21
-3.39291
0
LINE
8
BLACK
6
CONTINUOUS
10
4.13909
20
-3.39291
11
4.15187
21
-3.39388
0
LINE
8
BLACK
6
CONTINUOUS
10
4.15187
20
-3.39388
11
4.16467
21
-3.39331
0
LINE
8
BLACK
6
CONTINUOUS
10
4.16467
20
-3.39331
11
4.17732
21
-3.39121
0
LINE
8
BLACK
6
CONTINUOUS
10
4.17732
20
-3.39121
11
4.18962
21
-3.3876
0
LINE
8
BLACK
6
CONTINUOUS
10
4.18962
20
-3.3876
11
4.20139
21
-3.38254
0
LINE
8
BLACK
6
CONTINUOUS
10
4.20139
20
-3.38254
11
4.21248
21
-3.3761
0
LINE
8
BLACK
6
CONTINUOUS
10
4.21248
20
-3.3761
11
4.22271
21
-3.36838
0
LINE
8
BLACK
6
CONTINUOUS
10
4.22271
20
-3.36838
11
4.23193
21
-3.35948
0
LINE
8
BLACK
6
CONTINUOUS
10
4.23193
20
-3.35948
11
4.24002
21
-3.34954
0
LINE
8
BLACK
6
CONTINUOUS
10
4.24002
20
-3.34954
11
4.24686
21
-3.33871
0
LINE
8
BLACK
6
CONTINUOUS
10
4.24686
20
-3.33871
11
4.25235
21
-3.32712
0
LINE
8
BLACK
6
CONTINUOUS
10
4.25235
20
-3.32712
11
4.25641
21
-3.31496
0
LINE
8
BLACK
6
CONTINUOUS
10
4.25641
20
-3.31496
11
4.25897
21
-3.30241
0
LINE
8
BLACK
6
CONTINUOUS
10
4.25897
20
-3.30241
11
4.26001
21
-3.28963
0
LINE
8
BLACK
6
CONTINUOUS
10
4.26001
20
-3.28963
11
4.26004
21
-3.2874
0
LINE
8
BLACK
6
CONTINUOUS
10
4.26004
20
-3.2874
11
4.25927
21
-3.27461
0
LINE
8
BLACK
6
CONTINUOUS
10
4.25927
20
-3.27461
11
4.25696
21
-3.262
0
LINE
8
BLACK
6
CONTINUOUS
10
4.25696
20
-3.262
11
4.25316
21
-3.24976
0
LINE
8
BLACK
6
CONTINUOUS
10
4.25316
20
-3.24976
11
4.24792
21
-3.23806
0
LINE
8
BLACK
6
CONTINUOUS
10
4.24792
20
-3.23806
11
4.24131
21
-3.22708
0
LINE
8
BLACK
6
CONTINUOUS
10
4.24131
20
-3.22708
11
4.23343
21
-3.21698
0
LINE
8
BLACK
6
CONTINUOUS
10
4.23343
20
-3.21698
11
4.22439
21
-3.20789
0
LINE
8
BLACK
6
CONTINUOUS
10
4.22439
20
-3.20789
11
4.21432
21
-3.19995
0
LINE
8
BLACK
6
CONTINUOUS
10
4.21432
20
-3.19995
11
4.20337
21
-3.19329
0
LINE
8
BLACK
6
CONTINUOUS
10
4.20337
20
-3.19329
11
4.19171
21
-3.18798
0
LINE
8
BLACK
6
CONTINUOUS
10
4.19171
20
-3.18798
11
4.17949
21
-3.18412
0
LINE
8
BLACK
6
CONTINUOUS
10
4.17949
20
-3.18412
11
4.16689
21
-3.18175
0
LINE
8
BLACK
6
CONTINUOUS
10
4.16689
20
-3.18175
11
4.1541
21
-3.18091
0
LINE
8
BLACK
6
CONTINUOUS
10
4.1541
20
-3.18091
11
4.1413
21
-3.18161
0
LINE
8
BLACK
6
CONTINUOUS
10
4.1413
20
-3.18161
11
4.12868
21
-3.18385
0
LINE
8
BLACK
6
CONTINUOUS
10
4.12868
20
-3.18385
11
4.11642
21
-3.18759
0
LINE
8
BLACK
6
CONTINUOUS
10
4.11642
20
-3.18759
11
4.1047
21
-3.19277
0
LINE
8
BLACK
6
CONTINUOUS
10
4.1047
20
-3.19277
11
4.09369
21
-3.19932
0
LINE
8
BLACK
6
CONTINUOUS
10
4.09369
20
-3.19932
11
4.08354
21
-3.20715
0
LINE
8
BLACK
6
CONTINUOUS
10
4.08354
20
-3.20715
11
4.0744
21
-3.21614
0
LINE
8
BLACK
6
CONTINUOUS
10
4.0744
20
-3.21614
11
4.06642
21
-3.22617
0
LINE
8
BLACK
6
CONTINUOUS
10
4.06642
20
-3.22617
11
4.05969
21
-3.23708
0
LINE
8
BLACK
6
CONTINUOUS
10
4.05969
20
-3.23708
11
4.05432
21
-3.24872
0
LINE
8
BLACK
6
CONTINUOUS
10
4.05432
20
-3.24872
11
4.0504
21
-3.26092
0
LINE
8
BLACK
6
CONTINUOUS
10
4.0504
20
-3.26092
11
4.04796
21
-3.2735
0
LINE
8
BLACK
6
CONTINUOUS
10
4.04796
20
-3.2735
11
4.04706
21
-3.28629
0
LINE
8
BLACK
6
CONTINUOUS
10
4.04706
20
-3.28629
11
4.04769
21
-3.29909
0
LINE
8
BLACK
6
CONTINUOUS
10
4.04769
20
-3.29909
11
4.04986
21
-3.31172
0
LINE
8
BLACK
6
CONTINUOUS
10
6.29042
20
-2.85918
11
6.29418
21
-2.84224
0
LINE
8
BLACK
6
CONTINUOUS
10
6.29418
20
-2.84224
11
6.29939
21
-2.8257
0
LINE
8
BLACK
6
CONTINUOUS
10
6.29939
20
-2.8257
11
6.30603
21
-2.80968
0
LINE
8
BLACK
6
CONTINUOUS
10
6.30603
20
-2.80968
11
6.31404
21
-2.79429
0
LINE
8
BLACK
6
CONTINUOUS
10
6.31404
20
-2.79429
11
6.32336
21
-2.77966
0
LINE
8
BLACK
6
CONTINUOUS
10
6.32336
20
-2.77966
11
6.33392
21
-2.7659
0
LINE
8
BLACK
6
CONTINUOUS
10
6.33392
20
-2.7659
11
6.34563
21
-2.75311
0
LINE
8
BLACK
6
CONTINUOUS
10
6.34563
20
-2.75311
11
6.35842
21
-2.7414
0
LINE
8
BLACK
6
CONTINUOUS
10
6.35842
20
-2.7414
11
6.37218
21
-2.73084
0
LINE
8
BLACK
6
CONTINUOUS
10
6.37218
20
-2.73084
11
6.38681
21
-2.72152
0
LINE
8
BLACK
6
CONTINUOUS
10
6.38681
20
-2.72152
11
6.4022
21
-2.71351
0
LINE
8
BLACK
6
CONTINUOUS
10
6.4022
20
-2.71351
11
6.41822
21
-2.70687
0
LINE
8
BLACK
6
CONTINUOUS
10
6.41822
20
-2.70687
11
6.43476
21
-2.70166
0
LINE
8
BLACK
6
CONTINUOUS
10
6.43476
20
-2.70166
11
6.4517
21
-2.6979
0
LINE
8
BLACK
6
CONTINUOUS
10
6.4517
20
-2.6979
11
6.46889
21
-2.69564
0
LINE
8
BLACK
6
CONTINUOUS
10
6.46889
20
-2.69564
11
6.48622
21
-2.69488
0
LINE
8
BLACK
6
CONTINUOUS
10
6.48622
20
-2.69488
11
6.50355
21
-2.69564
0
LINE
8
BLACK
6
CONTINUOUS
10
6.50355
20
-2.69564
11
6.52074
21
-2.6979
0
LINE
8
BLACK
6
CONTINUOUS
10
6.52074
20
-2.6979
11
6.53768
21
-2.70166
0
LINE
8
BLACK
6
CONTINUOUS
10
6.53768
20
-2.70166
11
6.55422
21
-2.70687
0
LINE
8
BLACK
6
CONTINUOUS
10
6.55422
20
-2.70687
11
6.57024
21
-2.71351
0
LINE
8
BLACK
6
CONTINUOUS
10
6.57024
20
-2.71351
11
6.58563
21
-2.72152
0
LINE
8
BLACK
6
CONTINUOUS
10
6.58563
20
-2.72152
11
6.60026
21
-2.73084
0
LINE
8
BLACK
6
CONTINUOUS
10
6.60026
20
-2.73084
11
6.61402
21
-2.7414
0
LINE
8
BLACK
6
CONTINUOUS
10
6.61402
20
-2.7414
11
6.62681
21
-2.75311
0
LINE
8
BLACK
6
CONTINUOUS
10
6.62681
20
-2.75311
11
6.63852
21
-2.7659
0
LINE
8
BLACK
6
CONTINUOUS
10
6.63852
20
-2.7659
11
6.64908
21
-2.77966
0
LINE
8
BLACK
6
CONTINUOUS
10
6.64908
20
-2.77966
11
6.6584
21
-2.79429
0
LINE
8
BLACK
6
CONTINUOUS
10
6.6584
20
-2.79429
11
6.66641
21
-2.80968
0
LINE
8
BLACK
6
CONTINUOUS
10
6.66641
20
-2.80968
11
6.67305
21
-2.8257
0
LINE
8
BLACK
6
CONTINUOUS
10
6.67305
20
-2.8257
11
6.67826
21
-2.84224
0
LINE
8
BLACK
6
CONTINUOUS
10
6.67826
20
-2.84224
11
6.68202
21
-2.85918
0
LINE
8
BLACK
6
CONTINUOUS
10
6.68202
20
-2.85918
11
6.68428
21
-2.87637
0
LINE
8
BLACK
6
CONTINUOUS
10
6.68428
20
-2.87637
11
6.68504
21
-2.8937
0
LINE
8
BLACK
6
CONTINUOUS
10
6.68504
20
-2.8937
11
6.68428
21
-2.91103
0
LINE
8
BLACK
6
CONTINUOUS
10
6.68428
20
-2.91103
11
6.68202
21
-2.92823
0
LINE
8
BLACK
6
CONTINUOUS
10
6.68202
20
-2.92823
11
6.67826
21
-2.94516
0
LINE
8
BLACK
6
CONTINUOUS
10
6.67826
20
-2.94516
11
6.67305
21
-2.9617
0
LINE
8
BLACK
6
CONTINUOUS
10
6.67305
20
-2.9617
11
6.66641
21
-2.97773
0
LINE
8
BLACK
6
CONTINUOUS
10
6.66641
20
-2.97773
11
6.6584
21
-2.99311
0
LINE
8
BLACK
6
CONTINUOUS
10
6.6584
20
-2.99311
11
6.64908
21
-3.00774
0
LINE
8
BLACK
6
CONTINUOUS
10
6.64908
20
-3.00774
11
6.63852
21
-3.0215
0
LINE
8
BLACK
6
CONTINUOUS
10
6.63852
20
-3.0215
11
6.62681
21
-3.03429
0
LINE
8
BLACK
6
CONTINUOUS
10
6.62681
20
-3.03429
11
6.61402
21
-3.046
0
LINE
8
BLACK
6
CONTINUOUS
10
6.61402
20
-3.046
11
6.60026
21
-3.05656
0
LINE
8
BLACK
6
CONTINUOUS
10
6.60026
20
-3.05656
11
6.58563
21
-3.06588
0
LINE
8
BLACK
6
CONTINUOUS
10
6.58563
20
-3.06588
11
6.57024
21
-3.07389
0
LINE
8
BLACK
6
CONTINUOUS
10
6.57024
20
-3.07389
11
6.55422
21
-3.08053
0
LINE
8
BLACK
6
CONTINUOUS
10
6.55422
20
-3.08053
11
6.53768
21
-3.08575
0
LINE
8
BLACK
6
CONTINUOUS
10
6.53768
20
-3.08575
11
6.52074
21
-3.0895
0
LINE
8
BLACK
6
CONTINUOUS
10
6.52074
20
-3.0895
11
6.50355
21
-3.09176
0
LINE
8
BLACK
6
CONTINUOUS
10
6.50355
20
-3.09176
11
6.48622
21
-3.09252
0
LINE
8
BLACK
6
CONTINUOUS
10
6.48622
20
-3.09252
11
6.46889
21
-3.09176
0
LINE
8
BLACK
6
CONTINUOUS
10
6.46889
20
-3.09176
11
6.4517
21
-3.0895
0
LINE
8
BLACK
6
CONTINUOUS
10
6.4517
20
-3.0895
11
6.43476
21
-3.08575
0
LINE
8
BLACK
6
CONTINUOUS
10
6.43476
20
-3.08575
11
6.41822
21
-3.08053
0
LINE
8
BLACK
6
CONTINUOUS
10
6.41822
20
-3.08053
11
6.4022
21
-3.07389
0
LINE
8
BLACK
6
CONTINUOUS
10
6.4022
20
-3.07389
11
6.38681
21
-3.06588
0
LINE
8
BLACK
6
CONTINUOUS
10
6.38681
20
-3.06588
11
6.37218
21
-3.05656
0
LINE
8
BLACK
6
CONTINUOUS
10
6.37218
20
-3.05656
11
6.35842
21
-3.046
0
LINE
8
BLACK
6
CONTINUOUS
10
6.35842
20
-3.046
11
6.34563
21
-3.03429
0
LINE
8
BLACK
6
CONTINUOUS
10
6.34563
20
-3.03429
11
6.33392
21
-3.0215
0
LINE
8
BLACK
6
CONTINUOUS
10
6.33392
20
-3.0215
11
6.32336
21
-3.00774
0
LINE
8
BLACK
6
CONTINUOUS
10
6.32336
20
-3.00774
11
6.31404
21
-2.99311
0
LINE
8
BLACK
6
CONTINUOUS
10
6.31404
20
-2.99311
11
6.30603
21
-2.97773
0
LINE
8
BLACK
6
CONTINUOUS
10
6.30603
20
-2.97773
11
6.29939
21
-2.9617
0
LINE
8
BLACK
6
CONTINUOUS
10
6.29939
20
-2.9617
11
6.29418
21
-2.94516
0
LINE
8
BLACK
6
CONTINUOUS
10
6.29418
20
-2.94516
11
6.29042
21
-2.92823
0
LINE
8
BLACK
6
CONTINUOUS
10
6.29042
20
-2.92823
11
6.28816
21
-2.91103
0
LINE
8
BLACK
6
CONTINUOUS
10
6.28816
20
-2.91103
11
6.2874
21
-2.8937
0
LINE
8
BLACK
6
CONTINUOUS
10
6.2874
20
-2.8937
11
6.28762
21
-2.88859
0
LINE
8
BLACK
6
CONTINUOUS
10
6.28762
20
-2.88859
11
6.28816
21
-2.87637
0
LINE
8
BLACK
6
CONTINUOUS
10
6.28816
20
-2.87637
11
6.29042
21
-2.85918
0
LINE
8
BLACK
6
CONTINUOUS
10
6.29339
20
-2.92321
11
6.29677
21
-2.94023
0
LINE
8
BLACK
6
CONTINUOUS
10
6.29677
20
-2.94023
11
6.30166
21
-2.95689
0
LINE
8
BLACK
6
CONTINUOUS
10
6.30166
20
-2.95689
11
6.30801
21
-2.97305
0
LINE
8
BLACK
6
CONTINUOUS
10
6.30801
20
-2.97305
11
6.31577
21
-2.98857
0
LINE
8
BLACK
6
CONTINUOUS
10
6.31577
20
-2.98857
11
6.32487
21
-3.00335
0
LINE
8
BLACK
6
CONTINUOUS
10
6.32487
20
-3.00335
11
6.33526
21
-3.01726
0
LINE
8
BLACK
6
CONTINUOUS
10
6.33526
20
-3.01726
11
6.34684
21
-3.03019
0
LINE
8
BLACK
6
CONTINUOUS
10
6.34684
20
-3.03019
11
6.35953
21
-3.04204
0
LINE
8
BLACK
6
CONTINUOUS
10
6.35953
20
-3.04204
11
6.37322
21
-3.05271
0
LINE
8
BLACK
6
CONTINUOUS
10
6.37322
20
-3.05271
11
6.3878
21
-3.06213
0
LINE
8
BLACK
6
CONTINUOUS
10
6.3878
20
-3.06213
11
6.40316
21
-3.07021
0
LINE
8
BLACK
6
CONTINUOUS
10
6.40316
20
-3.07021
11
6.41918
21
-3.0769
0
LINE
8
BLACK
6
CONTINUOUS
10
6.41918
20
-3.0769
11
6.43573
21
-3.08213
0
LINE
8
BLACK
6
CONTINUOUS
10
6.43573
20
-3.08213
11
6.45268
21
-3.08587
0
LINE
8
BLACK
6
CONTINUOUS
10
6.45268
20
-3.08587
11
6.4699
21
-3.08809
0
LINE
8
BLACK
6
CONTINUOUS
10
6.4699
20
-3.08809
11
6.48724
21
-3.08878
0
LINE
8
BLACK
6
CONTINUOUS
10
6.48724
20
-3.08878
11
6.50458
21
-3.08791
0
LINE
8
BLACK
6
CONTINUOUS
10
6.50458
20
-3.08791
11
6.52177
21
-3.08551
0
LINE
8
BLACK
6
CONTINUOUS
10
6.52177
20
-3.08551
11
6.53868
21
-3.08159
0
LINE
8
BLACK
6
CONTINUOUS
10
6.53868
20
-3.08159
11
6.55518
21
-3.07619
0
LINE
8
BLACK
6
CONTINUOUS
10
6.55518
20
-3.07619
11
6.57112
21
-3.06933
0
LINE
8
BLACK
6
CONTINUOUS
10
6.57112
20
-3.06933
11
6.5864
21
-3.06109
0
LINE
8
BLACK
6
CONTINUOUS
10
6.5864
20
-3.06109
11
6.60088
21
-3.05152
0
LINE
8
BLACK
6
CONTINUOUS
10
6.60088
20
-3.05152
11
6.61446
21
-3.0407
0
LINE
8
BLACK
6
CONTINUOUS
10
6.61446
20
-3.0407
11
6.62702
21
-3.02872
0
LINE
8
BLACK
6
CONTINUOUS
10
6.62702
20
-3.02872
11
6.63847
21
-3.01567
0
LINE
8
BLACK
6
CONTINUOUS
10
6.63847
20
-3.01567
11
6.64871
21
-3.00166
0
LINE
8
BLACK
6
CONTINUOUS
10
6.64871
20
-3.00166
11
6.65766
21
-2.98678
0
LINE
8
BLACK
6
CONTINUOUS
10
6.65766
20
-2.98678
11
6.66525
21
-2.97118
0
LINE
8
BLACK
6
CONTINUOUS
10
6.66525
20
-2.97118
11
6.67143
21
-2.95495
0
LINE
8
BLACK
6
CONTINUOUS
10
6.67143
20
-2.95495
11
6.67614
21
-2.93825
0
LINE
8
BLACK
6
CONTINUOUS
10
6.67614
20
-2.93825
11
6.67935
21
-2.92119
0
LINE
8
BLACK
6
CONTINUOUS
10
6.67935
20
-2.92119
11
6.68103
21
-2.90391
0
LINE
8
BLACK
6
CONTINUOUS
10
6.68103
20
-2.90391
11
6.6813
21
-2.8937
0
LINE
8
BLACK
6
CONTINUOUS
10
6.6813
20
-2.8937
11
6.68053
21
-2.87636
0
LINE
8
BLACK
6
CONTINUOUS
10
6.68053
20
-2.87636
11
6.67822
21
-2.85916
0
LINE
8
BLACK
6
CONTINUOUS
10
6.67822
20
-2.85916
11
6.67438
21
-2.84222
0
LINE
8
BLACK
6
CONTINUOUS
10
6.67438
20
-2.84222
11
6.66906
21
-2.8257
0
LINE
8
BLACK
6
CONTINUOUS
10
6.66906
20
-2.8257
11
6.6623
21
-2.80972
0
LINE
8
BLACK
6
CONTINUOUS
10
6.6623
20
-2.80972
11
6.65413
21
-2.7944
0
LINE
8
BLACK
6
CONTINUOUS
10
6.65413
20
-2.7944
11
6.64464
21
-2.77986
0
LINE
8
BLACK
6
CONTINUOUS
10
6.64464
20
-2.77986
11
6.63389
21
-2.76623
0
LINE
8
BLACK
6
CONTINUOUS
10
6.63389
20
-2.76623
11
6.62198
21
-2.75361
0
LINE
8
BLACK
6
CONTINUOUS
10
6.62198
20
-2.75361
11
6.60899
21
-2.7421
0
LINE
8
BLACK
6
CONTINUOUS
10
6.60899
20
-2.7421
11
6.59502
21
-2.73178
0
LINE
8
BLACK
6
CONTINUOUS
10
6.59502
20
-2.73178
11
6.5802
21
-2.72275
0
LINE
8
BLACK
6
CONTINUOUS
10
6.5802
20
-2.72275
11
6.56463
21
-2.71507
0
LINE
8
BLACK
6
CONTINUOUS
10
6.56463
20
-2.71507
11
6.54844
21
-2.70881
0
LINE
8
BLACK
6
CONTINUOUS
10
6.54844
20
-2.70881
11
6.53176
21
-2.70401
0
LINE
8
BLACK
6
CONTINUOUS
10
6.53176
20
-2.70401
11
6.51472
21
-2.70072
0
LINE
8
BLACK
6
CONTINUOUS
10
6.51472
20
-2.70072
11
6.49745
21
-2.69895
0
LINE
8
BLACK
6
CONTINUOUS
10
6.49745
20
-2.69895
11
6.48009
21
-2.69872
0
LINE
8
BLACK
6
CONTINUOUS
10
6.48009
20
-2.69872
11
6.46278
21
-2.70004
0
LINE
8
BLACK
6
CONTINUOUS
10
6.46278
20
-2.70004
11
6.44566
21
-2.70289
0
LINE
8
BLACK
6
CONTINUOUS
10
6.44566
20
-2.70289
11
6.42886
21
-2.70725
0
LINE
8
BLACK
6
CONTINUOUS
10
6.42886
20
-2.70725
11
6.41251
21
-2.71308
0
LINE
8
BLACK
6
CONTINUOUS
10
6.41251
20
-2.71308
11
6.39675
21
-2.72035
0
LINE
8
BLACK
6
CONTINUOUS
10
6.39675
20
-2.72035
11
6.38169
21
-2.72899
0
LINE
8
BLACK
6
CONTINUOUS
10
6.38169
20
-2.72899
11
6.36746
21
-2.73893
0
LINE
8
BLACK
6
CONTINUOUS
10
6.36746
20
-2.73893
11
6.35418
21
-2.7501
0
LINE
8
BLACK
6
CONTINUOUS
10
6.35418
20
-2.7501
11
6.34193
21
-2.76241
0
LINE
8
BLACK
6
CONTINUOUS
10
6.34193
20
-2.76241
11
6.33083
21
-2.77576
0
LINE
8
BLACK
6
CONTINUOUS
10
6.33083
20
-2.77576
11
6.32097
21
-2.79004
0
LINE
8
BLACK
6
CONTINUOUS
10
6.32097
20
-2.79004
11
6.3124
21
-2.80514
0
LINE
8
BLACK
6
CONTINUOUS
10
6.3124
20
-2.80514
11
6.30522
21
-2.82094
0
LINE
8
BLACK
6
CONTINUOUS
10
6.30522
20
-2.82094
11
6.29947
21
-2.83732
0
LINE
8
BLACK
6
CONTINUOUS
10
6.29947
20
-2.83732
11
6.2952
21
-2.85414
0
LINE
8
BLACK
6
CONTINUOUS
10
6.2952
20
-2.85414
11
6.29244
21
-2.87128
0
LINE
8
BLACK
6
CONTINUOUS
10
6.29244
20
-2.87128
11
6.29121
21
-2.88859
0
LINE
8
BLACK
6
CONTINUOUS
10
6.29121
20
-2.88859
11
6.29153
21
-2.90595
0
LINE
8
BLACK
6
CONTINUOUS
10
6.29153
20
-2.90595
11
6.29339
21
-2.92321
0
LINE
8
BLACK
6
CONTINUOUS
10
4.04449
20
-2.4839
11
4.04706
21
-2.47147
0
LINE
8
BLACK
6
CONTINUOUS
10
4.04706
20
-2.47147
11
4.05105
21
-2.45942
0
LINE
8
BLACK
6
CONTINUOUS
10
4.05105
20
-2.45942
11
4.05639
21
-2.44791
0
LINE
8
BLACK
6
CONTINUOUS
10
4.05639
20
-2.44791
11
4.06302
21
-2.43709
0
LINE
8
BLACK
6
CONTINUOUS
10
4.06302
20
-2.43709
11
4.07085
21
-2.4271
0
LINE
8
BLACK
6
CONTINUOUS
10
4.07085
20
-2.4271
11
4.07978
21
-2.41808
0
LINE
8
BLACK
6
CONTINUOUS
10
4.07978
20
-2.41808
11
4.08969
21
-2.41014
0
LINE
8
BLACK
6
CONTINUOUS
10
4.08969
20
-2.41014
11
4.10044
21
-2.4034
0
LINE
8
BLACK
6
CONTINUOUS
10
4.10044
20
-2.4034
11
4.11189
21
-2.39794
0
LINE
8
BLACK
6
CONTINUOUS
10
4.11189
20
-2.39794
11
4.1239
21
-2.39382
0
LINE
8
BLACK
6
CONTINUOUS
10
4.1239
20
-2.39382
11
4.1363
21
-2.39112
0
LINE
8
BLACK
6
CONTINUOUS
10
4.1363
20
-2.39112
11
4.14893
21
-2.38986
0
LINE
8
BLACK
6
CONTINUOUS
10
4.14893
20
-2.38986
11
4.16162
21
-2.39006
0
LINE
8
BLACK
6
CONTINUOUS
10
4.16162
20
-2.39006
11
4.1742
21
-2.39172
0
LINE
8
BLACK
6
CONTINUOUS
10
4.1742
20
-2.39172
11
4.18651
21
-2.39481
0
LINE
8
BLACK
6
CONTINUOUS
10
4.18651
20
-2.39481
11
4.19838
21
-2.39929
0
LINE
8
BLACK
6
CONTINUOUS
10
4.19838
20
-2.39929
11
4.20966
21
-2.40512
0
LINE
8
BLACK
6
CONTINUOUS
10
4.20966
20
-2.40512
11
4.22019
21
-2.41219
0
LINE
8
BLACK
6
CONTINUOUS
10
4.22019
20
-2.41219
11
4.22984
21
-2.42044
0
LINE
8
BLACK
6
CONTINUOUS
10
4.22984
20
-2.42044
11
4.23848
21
-2.42973
0
LINE
8
BLACK
6
CONTINUOUS
10
4.23848
20
-2.42973
11
4.246
21
-2.43996
0
LINE
8
BLACK
6
CONTINUOUS
10
4.246
20
-2.43996
11
4.25228
21
-2.45099
0
LINE
8
BLACK
6
CONTINUOUS
10
4.25228
20
-2.45099
11
4.25726
21
-2.46266
0
LINE
8
BLACK
6
CONTINUOUS
10
4.25726
20
-2.46266
11
4.26087
21
-2.47483
0
LINE
8
BLACK
6
CONTINUOUS
10
4.26087
20
-2.47483
11
4.26305
21
-2.48733
0
LINE
8
BLACK
6
CONTINUOUS
10
4.26305
20
-2.48733
11
4.26378
21
-2.5
0
LINE
8
BLACK
6
CONTINUOUS
10
4.26378
20
-2.5
11
4.26356
21
-2.50692
0
LINE
8
BLACK
6
CONTINUOUS
10
4.26356
20
-2.50692
11
4.26204
21
-2.51952
0
LINE
8
BLACK
6
CONTINUOUS
10
4.26204
20
-2.51952
11
4.25907
21
-2.53186
0
LINE
8
BLACK
6
CONTINUOUS
10
4.25907
20
-2.53186
11
4.25471
21
-2.54378
0
LINE
8
BLACK
6
CONTINUOUS
10
4.25471
20
-2.54378
11
4.24901
21
-2.55512
0
LINE
8
BLACK
6
CONTINUOUS
10
4.24901
20
-2.55512
11
4.24204
21
-2.56573
0
LINE
8
BLACK
6
CONTINUOUS
10
4.24204
20
-2.56573
11
4.2339
21
-2.57546
0
LINE
8
BLACK
6
CONTINUOUS
10
4.2339
20
-2.57546
11
4.2247
21
-2.5842
0
LINE
8
BLACK
6
CONTINUOUS
10
4.2247
20
-2.5842
11
4.21455
21
-2.59182
0
LINE
8
BLACK
6
CONTINUOUS
10
4.21455
20
-2.59182
11
4.20359
21
-2.59822
0
LINE
8
BLACK
6
CONTINUOUS
10
4.20359
20
-2.59822
11
4.19197
21
-2.60332
0
LINE
8
BLACK
6
CONTINUOUS
10
4.19197
20
-2.60332
11
4.17984
21
-2.60705
0
LINE
8
BLACK
6
CONTINUOUS
10
4.17984
20
-2.60705
11
4.16736
21
-2.60937
0
LINE
8
BLACK
6
CONTINUOUS
10
4.16736
20
-2.60937
11
4.1547
21
-2.61023
0
LINE
8
BLACK
6
CONTINUOUS
10
4.1547
20
-2.61023
11
4.14202
21
-2.60963
0
LINE
8
BLACK
6
CONTINUOUS
10
4.14202
20
-2.60963
11
4.1295
21
-2.60758
0
LINE
8
BLACK
6
CONTINUOUS
10
4.1295
20
-2.60758
11
4.11729
21
-2.6041
0
LINE
8
BLACK
6
CONTINUOUS
10
4.11729
20
-2.6041
11
4.10557
21
-2.59925
0
LINE
8
BLACK
6
CONTINUOUS
10
4.10557
20
-2.59925
11
4.09448
21
-2.59308
0
LINE
8
BLACK
6
CONTINUOUS
10
4.09448
20
-2.59308
11
4.08417
21
-2.58567
0
LINE
8
BLACK
6
CONTINUOUS
10
4.08417
20
-2.58567
11
4.07478
21
-2.57713
0
LINE
8
BLACK
6
CONTINUOUS
10
4.07478
20
-2.57713
11
4.06644
21
-2.56756
0
LINE
8
BLACK
6
CONTINUOUS
10
4.06644
20
-2.56756
11
4.05925
21
-2.55711
0
LINE
8
BLACK
6
CONTINUOUS
10
4.05925
20
-2.55711
11
4.05331
21
-2.54589
0
LINE
8
BLACK
6
CONTINUOUS
10
4.05331
20
-2.54589
11
4.0487
21
-2.53406
0
LINE
8
BLACK
6
CONTINUOUS
10
4.0487
20
-2.53406
11
4.04548
21
-2.52179
0
LINE
8
BLACK
6
CONTINUOUS
10
4.04548
20
-2.52179
11
4.04369
21
-2.50922
0
LINE
8
BLACK
6
CONTINUOUS
10
4.04369
20
-2.50922
11
4.04342
21
-2.49888
0
LINE
8
BLACK
6
CONTINUOUS
10
4.04342
20
-2.49888
11
4.04336
21
-2.49654
0
LINE
8
BLACK
6
CONTINUOUS
10
4.04336
20
-2.49654
11
4.04449
21
-2.4839
0
LINE
8
BLACK
6
CONTINUOUS
10
4.04986
20
-2.52432
11
4.05354
21
-2.5366
0
LINE
8
BLACK
6
CONTINUOUS
10
4.05354
20
-2.5366
11
4.05866
21
-2.54835
0
LINE
8
BLACK
6
CONTINUOUS
10
4.05866
20
-2.54835
11
4.06515
21
-2.5594
0
LINE
8
BLACK
6
CONTINUOUS
10
4.06515
20
-2.5594
11
4.07293
21
-2.56959
0
LINE
8
BLACK
6
CONTINUOUS
10
4.07293
20
-2.56959
11
4.08187
21
-2.57877
0
LINE
8
BLACK
6
CONTINUOUS
10
4.08187
20
-2.57877
11
4.09185
21
-2.58681
0
LINE
8
BLACK
6
CONTINUOUS
10
4.09185
20
-2.58681
11
4.10273
21
-2.59359
0
LINE
8
BLACK
6
CONTINUOUS
10
4.10273
20
-2.59359
11
4.11434
21
-2.59902
0
LINE
8
BLACK
6
CONTINUOUS
10
4.11434
20
-2.59902
11
4.12652
21
-2.60301
0
LINE
8
BLACK
6
CONTINUOUS
10
4.12652
20
-2.60301
11
4.13909
21
-2.60551
0
LINE
8
BLACK
6
CONTINUOUS
10
4.13909
20
-2.60551
11
4.15187
21
-2.60648
0
LINE
8
BLACK
6
CONTINUOUS
10
4.15187
20
-2.60648
11
4.16467
21
-2.60591
0
LINE
8
BLACK
6
CONTINUOUS
10
4.16467
20
-2.60591
11
4.17732
21
-2.60381
0
LINE
8
BLACK
6
CONTINUOUS
10
4.17732
20
-2.60381
11
4.18962
21
-2.6002
0
LINE
8
BLACK
6
CONTINUOUS
10
4.18962
20
-2.6002
11
4.20139
21
-2.59514
0
LINE
8
BLACK
6
CONTINUOUS
10
4.20139
20
-2.59514
11
4.21248
21
-2.5887
0
LINE
8
BLACK
6
CONTINUOUS
10
4.21248
20
-2.5887
11
4.22271
21
-2.58098
0
LINE
8
BLACK
6
CONTINUOUS
10
4.22271
20
-2.58098
11
4.23193
21
-2.57208
0
LINE
8
BLACK
6
CONTINUOUS
10
4.23193
20
-2.57208
11
4.24002
21
-2.56214
0
LINE
8
BLACK
6
CONTINUOUS
10
4.24002
20
-2.56214
11
4.24686
21
-2.5513
0
LINE
8
BLACK
6
CONTINUOUS
10
4.24686
20
-2.5513
11
4.25235
21
-2.53972
0
LINE
8
BLACK
6
CONTINUOUS
10
4.25235
20
-2.53972
11
4.25641
21
-2.52756
0
LINE
8
BLACK
6
CONTINUOUS
10
4.25641
20
-2.52756
11
4.25897
21
-2.51501
0
LINE
8
BLACK
6
CONTINUOUS
10
4.25897
20
-2.51501
11
4.26001
21
-2.50223
0
LINE
8
BLACK
6
CONTINUOUS
10
4.26001
20
-2.50223
11
4.26004
21
-2.5
0
LINE
8
BLACK
6
CONTINUOUS
10
4.26004
20
-2.5
11
4.25927
21
-2.48721
0
LINE
8
BLACK
6
CONTINUOUS
10
4.25927
20
-2.48721
11
4.25696
21
-2.4746
0
LINE
8
BLACK
6
CONTINUOUS
10
4.25696
20
-2.4746
11
4.25316
21
-2.46236
0
LINE
8
BLACK
6
CONTINUOUS
10
4.25316
20
-2.46236
11
4.24792
21
-2.45066
0
LINE
8
BLACK
6
CONTINUOUS
10
4.24792
20
-2.45066
11
4.24131
21
-2.43968
0
LINE
8
BLACK
6
CONTINUOUS
10
4.24131
20
-2.43968
11
4.23343
21
-2.42957
0
LINE
8
BLACK
6
CONTINUOUS
10
4.23343
20
-2.42957
11
4.22439
21
-2.42049
0
LINE
8
BLACK
6
CONTINUOUS
10
4.22439
20
-2.42049
11
4.21432
21
-2.41255
0
LINE
8
BLACK
6
CONTINUOUS
10
4.21432
20
-2.41255
11
4.20337
21
-2.40588
0
LINE
8
BLACK
6
CONTINUOUS
10
4.20337
20
-2.40588
11
4.19171
21
-2.40058
0
LINE
8
BLACK
6
CONTINUOUS
10
4.19171
20
-2.40058
11
4.17949
21
-2.39671
0
LINE
8
BLACK
6
CONTINUOUS
10
4.17949
20
-2.39671
11
4.16689
21
-2.39435
0
LINE
8
BLACK
6
CONTINUOUS
10
4.16689
20
-2.39435
11
4.1541
21
-2.39351
0
LINE
8
BLACK
6
CONTINUOUS
10
4.1541
20
-2.39351
11
4.1413
21
-2.39421
0
LINE
8
BLACK
6
CONTINUOUS
10
4.1413
20
-2.39421
11
4.12868
21
-2.39645
0
LINE
8
BLACK
6
CONTINUOUS
10
4.12868
20
-2.39645
11
4.11642
21
-2.40019
0
LINE
8
BLACK
6
CONTINUOUS
10
4.11642
20
-2.40019
11
4.1047
21
-2.40537
0
LINE
8
BLACK
6
CONTINUOUS
10
4.1047
20
-2.40537
11
4.09369
21
-2.41192
0
LINE
8
BLACK
6
CONTINUOUS
10
4.09369
20
-2.41192
11
4.08354
21
-2.41975
0
LINE
8
BLACK
6
CONTINUOUS
10
4.08354
20
-2.41975
11
4.0744
21
-2.42874
0
LINE
8
BLACK
6
CONTINUOUS
10
4.0744
20
-2.42874
11
4.06642
21
-2.43877
0
LINE
8
BLACK
6
CONTINUOUS
10
4.06642
20
-2.43877
11
4.05969
21
-2.44968
0
LINE
8
BLACK
6
CONTINUOUS
10
4.05969
20
-2.44968
11
4.05432
21
-2.46132
0
LINE
8
BLACK
6
CONTINUOUS
10
4.05432
20
-2.46132
11
4.0504
21
-2.47352
0
LINE
8
BLACK
6
CONTINUOUS
10
4.0504
20
-2.47352
11
4.04796
21
-2.4861
0
LINE
8
BLACK
6
CONTINUOUS
10
4.04796
20
-2.4861
11
4.04706
21
-2.49888
0
LINE
8
BLACK
6
CONTINUOUS
10
4.04706
20
-2.49888
11
4.04769
21
-2.51169
0
LINE
8
BLACK
6
CONTINUOUS
10
4.04769
20
-2.51169
11
4.04986
21
-2.52432
0
LINE
8
BLACK
6
CONTINUOUS
10
3.63901
20
-1.88937
11
3.64291
21
-1.87996
0
LINE
8
BLACK
6
CONTINUOUS
10
3.64291
20
-1.87996
11
3.64823
21
-1.87127
0
LINE
8
BLACK
6
CONTINUOUS
10
3.64823
20
-1.87127
11
3.65485
21
-1.86351
0
LINE
8
BLACK
6
CONTINUOUS
10
3.65485
20
-1.86351
11
3.6626
21
-1.85689
0
LINE
8
BLACK
6
CONTINUOUS
10
3.6626
20
-1.85689
11
3.6713
21
-1.85157
0
LINE
8
BLACK
6
CONTINUOUS
10
3.6713
20
-1.85157
11
3.68071
21
-1.84767
0
LINE
8
BLACK
6
CONTINUOUS
10
3.68071
20
-1.84767
11
3.69063
21
-1.84529
0
LINE
8
BLACK
6
CONTINUOUS
10
3.69063
20
-1.84529
11
3.70079
21
-1.84449
0
LINE
8
BLACK
6
CONTINUOUS
10
3.70079
20
-1.84449
11
3.71095
21
-1.84529
0
LINE
8
BLACK
6
CONTINUOUS
10
3.71095
20
-1.84529
11
3.72086
21
-1.84767
0
LINE
8
BLACK
6
CONTINUOUS
10
3.72086
20
-1.84767
11
3.73028
21
-1.85157
0
LINE
8
BLACK
6
CONTINUOUS
10
3.73028
20
-1.85157
11
3.73897
21
-1.85689
0
LINE
8
BLACK
6
CONTINUOUS
10
3.73897
20
-1.85689
11
3.74672
21
-1.86351
0
LINE
8
BLACK
6
CONTINUOUS
10
3.74672
20
-1.86351
11
3.75334
21
-1.87127
0
LINE
8
BLACK
6
CONTINUOUS
10
3.75334
20
-1.87127
11
3.75867
21
-1.87996
0
LINE
8
BLACK
6
CONTINUOUS
10
3.75867
20
-1.87996
11
3.76257
21
-1.88937
0
LINE
8
BLACK
6
CONTINUOUS
10
3.76257
20
-1.88937
11
3.76495
21
-1.89929
0
LINE
8
BLACK
6
CONTINUOUS
10
3.76495
20
-1.89929
11
3.76575
21
-1.90945
0
LINE
8
BLACK
6
CONTINUOUS
10
3.76575
20
-1.90945
11
3.76495
21
-1.91961
0
LINE
8
BLACK
6
CONTINUOUS
10
3.76495
20
-1.91961
11
3.76257
21
-1.92952
0
LINE
8
BLACK
6
CONTINUOUS
10
3.76257
20
-1.92952
11
3.75867
21
-1.93894
0
LINE
8
BLACK
6
CONTINUOUS
10
3.75867
20
-1.93894
11
3.75334
21
-1.94763
0
LINE
8
BLACK
6
CONTINUOUS
10
3.75334
20
-1.94763
11
3.74672
21
-1.95538
0
LINE
8
BLACK
6
CONTINUOUS
10
3.74672
20
-1.95538
11
3.73897
21
-1.962
0
LINE
8
BLACK
6
CONTINUOUS
10
3.73897
20
-1.962
11
3.73028
21
-1.96733
0
LINE
8
BLACK
6
CONTINUOUS
10
3.73028
20
-1.96733
11
3.72086
21
-1.97123
0
LINE
8
BLACK
6
CONTINUOUS
10
3.72086
20
-1.97123
11
3.71095
21
-1.97361
0
LINE
8
BLACK
6
CONTINUOUS
10
3.71095
20
-1.97361
11
3.70079
21
-1.97441
0
LINE
8
BLACK
6
CONTINUOUS
10
3.70079
20
-1.97441
11
3.69063
21
-1.97361
0
LINE
8
BLACK
6
CONTINUOUS
10
3.69063
20
-1.97361
11
3.68071
21
-1.97123
0
LINE
8
BLACK
6
CONTINUOUS
10
3.68071
20
-1.97123
11
3.6713
21
-1.96733
0
LINE
8
BLACK
6
CONTINUOUS
10
3.6713
20
-1.96733
11
3.6626
21
-1.962
0
LINE
8
BLACK
6
CONTINUOUS
10
3.6626
20
-1.962
11
3.65485
21
-1.95538
0
LINE
8
BLACK
6
CONTINUOUS
10
3.65485
20
-1.95538
11
3.64823
21
-1.94763
0
LINE
8
BLACK
6
CONTINUOUS
10
3.64823
20
-1.94763
11
3.64291
21
-1.93894
0
LINE
8
BLACK
6
CONTINUOUS
10
3.64291
20
-1.93894
11
3.63901
21
-1.92952
0
LINE
8
BLACK
6
CONTINUOUS
10
3.63901
20
-1.92952
11
3.63663
21
-1.91961
0
LINE
8
BLACK
6
CONTINUOUS
10
3.63663
20
-1.91961
11
3.63583
21
-1.90945
0
LINE
8
BLACK
6
CONTINUOUS
10
3.63583
20
-1.90945
11
3.63663
21
-1.89929
0
LINE
8
BLACK
6
CONTINUOUS
10
3.63663
20
-1.89929
11
3.63901
21
-1.88937
0
LINE
8
BLACK
6
CONTINUOUS
10
3.64257
20
-1.92836
11
3.64625
21
-1.93724
0
LINE
8
BLACK
6
CONTINUOUS
10
3.64625
20
-1.93724
11
3.65127
21
-1.94543
0
LINE
8
BLACK
6
CONTINUOUS
10
3.65127
20
-1.94543
11
3.6575
21
-1.95273
0
LINE
8
BLACK
6
CONTINUOUS
10
3.6575
20
-1.95273
11
3.66481
21
-1.95897
0
LINE
8
BLACK
6
CONTINUOUS
10
3.66481
20
-1.95897
11
3.673
21
-1.96399
0
LINE
8
BLACK
6
CONTINUOUS
10
3.673
20
-1.96399
11
3.68187
21
-1.96767
0
LINE
8
BLACK
6
CONTINUOUS
10
3.68187
20
-1.96767
11
3.69121
21
-1.96991
0
LINE
8
BLACK
6
CONTINUOUS
10
3.69121
20
-1.96991
11
3.70079
21
-1.97066
0
LINE
8
BLACK
6
CONTINUOUS
10
3.70079
20
-1.97066
11
3.71036
21
-1.96991
0
LINE
8
BLACK
6
CONTINUOUS
10
3.71036
20
-1.96991
11
3.7197
21
-1.96767
0
LINE
8
BLACK
6
CONTINUOUS
10
3.7197
20
-1.96767
11
3.72858
21
-1.96399
0
LINE
8
BLACK
6
CONTINUOUS
10
3.72858
20
-1.96399
11
3.73677
21
-1.95897
0
LINE
8
BLACK
6
CONTINUOUS
10
3.73677
20
-1.95897
11
3.74407
21
-1.95273
0
LINE
8
BLACK
6
CONTINUOUS
10
3.74407
20
-1.95273
11
3.75031
21
-1.94543
0
LINE
8
BLACK
6
CONTINUOUS
10
3.75031
20
-1.94543
11
3.75533
21
-1.93724
0
LINE
8
BLACK
6
CONTINUOUS
10
3.75533
20
-1.93724
11
3.759
21
-1.92836
0
LINE
8
BLACK
6
CONTINUOUS
10
3.759
20
-1.92836
11
3.76125
21
-1.91902
0
LINE
8
BLACK
6
CONTINUOUS
10
3.76125
20
-1.91902
11
3.762
21
-1.90945
0
LINE
8
BLACK
6
CONTINUOUS
10
3.762
20
-1.90945
11
3.76125
21
-1.89987
0
LINE
8
BLACK
6
CONTINUOUS
10
3.76125
20
-1.89987
11
3.759
21
-1.89053
0
LINE
8
BLACK
6
CONTINUOUS
10
3.759
20
-1.89053
11
3.75533
21
-1.88166
0
LINE
8
BLACK
6
CONTINUOUS
10
3.75533
20
-1.88166
11
3.75031
21
-1.87347
0
LINE
8
BLACK
6
CONTINUOUS
10
3.75031
20
-1.87347
11
3.74407
21
-1.86617
0
LINE
8
BLACK
6
CONTINUOUS
10
3.74407
20
-1.86617
11
3.73677
21
-1.85993
0
LINE
8
BLACK
6
CONTINUOUS
10
3.73677
20
-1.85993
11
3.72858
21
-1.85491
0
LINE
8
BLACK
6
CONTINUOUS
10
3.72858
20
-1.85491
11
3.7197
21
-1.85123
0
LINE
8
BLACK
6
CONTINUOUS
10
3.7197
20
-1.85123
11
3.71036
21
-1.84899
0
LINE
8
BLACK
6
CONTINUOUS
10
3.71036
20
-1.84899
11
3.70079
21
-1.84824
0
LINE
8
BLACK
6
CONTINUOUS
10
3.70079
20
-1.84824
11
3.69121
21
-1.84899
0
LINE
8
BLACK
6
CONTINUOUS
10
3.69121
20
-1.84899
11
3.68187
21
-1.85123
0
LINE
8
BLACK
6
CONTINUOUS
10
3.68187
20
-1.85123
11
3.673
21
-1.85491
0
LINE
8
BLACK
6
CONTINUOUS
10
3.673
20
-1.85491
11
3.66481
21
-1.85993
0
LINE
8
BLACK
6
CONTINUOUS
10
3.66481
20
-1.85993
11
3.6575
21
-1.86617
0
LINE
8
BLACK
6
CONTINUOUS
10
3.6575
20
-1.86617
11
3.65127
21
-1.87347
0
LINE
8
BLACK
6
CONTINUOUS
10
3.65127
20
-1.87347
11
3.64625
21
-1.88166
0
LINE
8
BLACK
6
CONTINUOUS
10
3.64625
20
-1.88166
11
3.64257
21
-1.89053
0
LINE
8
BLACK
6
CONTINUOUS
10
3.64257
20
-1.89053
11
3.64033
21
-1.89987
0
LINE
8
BLACK
6
CONTINUOUS
10
3.64033
20
-1.89987
11
3.63958
21
-1.90945
0
LINE
8
BLACK
6
CONTINUOUS
10
3.63958
20
-1.90945
11
3.64033
21
-1.91902
0
LINE
8
BLACK
6
CONTINUOUS
10
3.64033
20
-1.91902
11
3.64257
21
-1.92836
0
LINE
8
BLACK
6
CONTINUOUS
10
6.86735
20
-1.88937
11
6.87125
21
-1.87996
0
LINE
8
BLACK
6
CONTINUOUS
10
6.87125
20
-1.87996
11
6.87658
21
-1.87127
0
LINE
8
BLACK
6
CONTINUOUS
10
6.87658
20
-1.87127
11
6.8832
21
-1.86351
0
LINE
8
BLACK
6
CONTINUOUS
10
6.8832
20
-1.86351
11
6.89095
21
-1.85689
0
LINE
8
BLACK
6
CONTINUOUS
10
6.89095
20
-1.85689
11
6.89964
21
-1.85157
0
LINE
8
BLACK
6
CONTINUOUS
10
6.89964
20
-1.85157
11
6.90906
21
-1.84767
0
LINE
8
BLACK
6
CONTINUOUS
10
6.90906
20
-1.84767
11
6.91897
21
-1.84529
0
LINE
8
BLACK
6
CONTINUOUS
10
6.91897
20
-1.84529
11
6.92913
21
-1.84449
0
LINE
8
BLACK
6
CONTINUOUS
10
6.92913
20
-1.84449
11
6.9393
21
-1.84529
0
LINE
8
BLACK
6
CONTINUOUS
10
6.9393
20
-1.84529
11
6.94921
21
-1.84767
0
LINE
8
BLACK
6
CONTINUOUS
10
6.94921
20
-1.84767
11
6.95863
21
-1.85157
0
LINE
8
BLACK
6
CONTINUOUS
10
6.95863
20
-1.85157
11
6.96732
21
-1.85689
0
LINE
8
BLACK
6
CONTINUOUS
10
6.96732
20
-1.85689
11
6.97507
21
-1.86351
0
LINE
8
BLACK
6
CONTINUOUS
10
6.97507
20
-1.86351
11
6.98169
21
-1.87127
0
LINE
8
BLACK
6
CONTINUOUS
10
6.98169
20
-1.87127
11
6.98701
21
-1.87996
0
LINE
8
BLACK
6
CONTINUOUS
10
6.98701
20
-1.87996
11
6.99092
21
-1.88937
0
LINE
8
BLACK
6
CONTINUOUS
10
6.99092
20
-1.88937
11
6.99329
21
-1.89929
0
LINE
8
BLACK
6
CONTINUOUS
10
6.99329
20
-1.89929
11
6.99409
21
-1.90945
0
LINE
8
BLACK
6
CONTINUOUS
10
6.99409
20
-1.90945
11
6.99329
21
-1.91961
0
LINE
8
BLACK
6
CONTINUOUS
10
6.99329
20
-1.91961
11
6.99092
21
-1.92952
0
LINE
8
BLACK
6
CONTINUOUS
10
6.99092
20
-1.92952
11
6.98701
21
-1.93894
0
LINE
8
BLACK
6
CONTINUOUS
10
6.98701
20
-1.93894
11
6.98169
21
-1.94763
0
LINE
8
BLACK
6
CONTINUOUS
10
6.98169
20
-1.94763
11
6.97507
21
-1.95538
0
LINE
8
BLACK
6
CONTINUOUS
10
6.97507
20
-1.95538
11
6.96732
21
-1.962
0
LINE
8
BLACK
6
CONTINUOUS
10
6.96732
20
-1.962
11
6.95863
21
-1.96733
0
LINE
8
BLACK
6
CONTINUOUS
10
6.95863
20
-1.96733
11
6.94921
21
-1.97123
0
LINE
8
BLACK
6
CONTINUOUS
10
6.94921
20
-1.97123
11
6.9393
21
-1.97361
0
LINE
8
BLACK
6
CONTINUOUS
10
6.9393
20
-1.97361
11
6.92913
21
-1.97441
0
LINE
8
BLACK
6
CONTINUOUS
10
6.92913
20
-1.97441
11
6.91897
21
-1.97361
0
LINE
8
BLACK
6
CONTINUOUS
10
6.91897
20
-1.97361
11
6.90906
21
-1.97123
0
LINE
8
BLACK
6
CONTINUOUS
10
6.90906
20
-1.97123
11
6.89964
21
-1.96733
0
LINE
8
BLACK
6
CONTINUOUS
10
6.89964
20
-1.96733
11
6.89095
21
-1.962
0
LINE
8
BLACK
6
CONTINUOUS
10
6.89095
20
-1.962
11
6.8832
21
-1.95538
0
LINE
8
BLACK
6
CONTINUOUS
10
6.8832
20
-1.95538
11
6.87658
21
-1.94763
0
LINE
8
BLACK
6
CONTINUOUS
10
6.87658
20
-1.94763
11
6.87125
21
-1.93894
0
LINE
8
BLACK
6
CONTINUOUS
10
6.87125
20
-1.93894
11
6.86735
21
-1.92952
0
LINE
8
BLACK
6
CONTINUOUS
10
6.86735
20
-1.92952
11
6.86497
21
-1.91961
0
LINE
8
BLACK
6
CONTINUOUS
10
6.86497
20
-1.91961
11
6.86417
21
-1.90945
0
LINE
8
BLACK
6
CONTINUOUS
10
6.86417
20
-1.90945
11
6.86497
21
-1.89929
0
LINE
8
BLACK
6
CONTINUOUS
10
6.86497
20
-1.89929
11
6.86735
21
-1.88937
0
LINE
8
BLACK
6
CONTINUOUS
10
6.87092
20
-1.92836
11
6.87459
21
-1.93724
0
LINE
8
BLACK
6
CONTINUOUS
10
6.87459
20
-1.93724
11
6.87961
21
-1.94543
0
LINE
8
BLACK
6
CONTINUOUS
10
6.87961
20
-1.94543
11
6.88585
21
-1.95273
0
LINE
8
BLACK
6
CONTINUOUS
10
6.88585
20
-1.95273
11
6.89315
21
-1.95897
0
LINE
8
BLACK
6
CONTINUOUS
10
6.89315
20
-1.95897
11
6.90134
21
-1.96399
0
LINE
8
BLACK
6
CONTINUOUS
10
6.90134
20
-1.96399
11
6.91022
21
-1.96767
0
LINE
8
BLACK
6
CONTINUOUS
10
6.91022
20
-1.96767
11
6.91956
21
-1.96991
0
LINE
8
BLACK
6
CONTINUOUS
10
6.91956
20
-1.96991
11
6.92913
21
-1.97066
0
LINE
8
BLACK
6
CONTINUOUS
10
6.92913
20
-1.97066
11
6.93871
21
-1.96991
0
LINE
8
BLACK
6
CONTINUOUS
10
6.93871
20
-1.96991
11
6.94805
21
-1.96767
0
LINE
8
BLACK
6
CONTINUOUS
10
6.94805
20
-1.96767
11
6.95692
21
-1.96399
0
LINE
8
BLACK
6
CONTINUOUS
10
6.95692
20
-1.96399
11
6.96511
21
-1.95897
0
LINE
8
BLACK
6
CONTINUOUS
10
6.96511
20
-1.95897
11
6.97242
21
-1.95273
0
LINE
8
BLACK
6
CONTINUOUS
10
6.97242
20
-1.95273
11
6.97866
21
-1.94543
0
LINE
8
BLACK
6
CONTINUOUS
10
6.97866
20
-1.94543
11
6.98367
21
-1.93724
0
LINE
8
BLACK
6
CONTINUOUS
10
6.98367
20
-1.93724
11
6.98735
21
-1.92836
0
LINE
8
BLACK
6
CONTINUOUS
10
6.98735
20
-1.92836
11
6.98959
21
-1.91902
0
LINE
8
BLACK
6
CONTINUOUS
10
6.98959
20
-1.91902
11
6.99035
21
-1.90945
0
LINE
8
BLACK
6
CONTINUOUS
10
6.99035
20
-1.90945
11
6.98959
21
-1.89987
0
LINE
8
BLACK
6
CONTINUOUS
10
6.98959
20
-1.89987
11
6.98735
21
-1.89053
0
LINE
8
BLACK
6
CONTINUOUS
10
6.98735
20
-1.89053
11
6.98367
21
-1.88166
0
LINE
8
BLACK
6
CONTINUOUS
10
6.98367
20
-1.88166
11
6.97866
21
-1.87347
0
LINE
8
BLACK
6
CONTINUOUS
10
6.97866
20
-1.87347
11
6.97242
21
-1.86617
0
LINE
8
BLACK
6
CONTINUOUS
10
6.97242
20
-1.86617
11
6.96511
21
-1.85993
0
LINE
8
BLACK
6
CONTINUOUS
10
6.96511
20
-1.85993
11
6.95692
21
-1.85491
0
LINE
8
BLACK
6
CONTINUOUS
10
6.95692
20
-1.85491
11
6.94805
21
-1.85123
0
LINE
8
BLACK
6
CONTINUOUS
10
6.94805
20
-1.85123
11
6.93871
21
-1.84899
0
LINE
8
BLACK
6
CONTINUOUS
10
6.93871
20
-1.84899
11
6.92913
21
-1.84824
0
LINE
8
BLACK
6
CONTINUOUS
10
6.92913
20
-1.84824
11
6.91956
21
-1.84899
0
LINE
8
BLACK
6
CONTINUOUS
10
6.91956
20
-1.84899
11
6.91022
21
-1.85123
0
LINE
8
BLACK
6
CONTINUOUS
10
6.91022
20
-1.85123
11
6.90134
21
-1.85491
0
LINE
8
BLACK
6
CONTINUOUS
10
6.90134
20
-1.85491
11
6.89315
21
-1.85993
0
LINE
8
BLACK
6
CONTINUOUS
10
6.89315
20
-1.85993
11
6.88585
21
-1.86617
0
LINE
8
BLACK
6
CONTINUOUS
10
6.88585
20
-1.86617
11
6.87961
21
-1.87347
0
LINE
8
BLACK
6
CONTINUOUS
10
6.87961
20
-1.87347
11
6.87459
21
-1.88166
0
LINE
8
BLACK
6
CONTINUOUS
10
6.87459
20
-1.88166
11
6.87092
21
-1.89053
0
LINE
8
BLACK
6
CONTINUOUS
10
6.87092
20
-1.89053
11
6.86868
21
-1.89987
0
LINE
8
BLACK
6
CONTINUOUS
10
6.86868
20
-1.89987
11
6.86792
21
-1.90945
0
LINE
8
BLACK
6
CONTINUOUS
10
6.86792
20
-1.90945
11
6.86868
21
-1.91902
0
LINE
8
BLACK
6
CONTINUOUS
10
6.86868
20
-1.91902
11
6.87092
21
-1.92836
  0
ENDSEC
  0
EOF
